<?xml version="1.0" encoding="utf-8"?>
<!-- Generator: Adobe Illustrator 19.0.0, SVG Export Plug-In . SVG Version: 6.00 Build 0)  -->
<svg version="1.1" id="Layer_1" xmlns="http://www.w3.org/2000/svg" xmlns:xlink="http://www.w3.org/1999/xlink" x="0px" y="0px"
	 viewBox="0 0 1447.5 686.1" style="enable-background:new 0 0 1447.5 686.1;" xml:space="preserve">
<style type="text/css">
	.st0{fill:#016143;}
	.st1{fill:#036244;}
	.st2{fill:#056346;}
	.st3{fill:#0D684C;}
	.st4{fill:#036245;}
	.st5{fill:#056345;}
	.st6{fill:#046345;}
	.st7{fill:#096548;}
	.st8{fill:#086548;}
	.st9{fill:#0A6649;}
	.st10{fill:#0A664A;}
	.st11{fill:#026144;}
	.st12{fill:#076447;}
	.st13{fill:#066446;}
	.st14{fill:#0F694D;}
	.st15{fill:#F1F6F4;}
</style>
<g id="XMLID_17_">
	<path id="XMLID_161_" class="st0" d="M631.5,1.3c0,70.4,0.1,140.7,0,211.1c-0.1,115.1-40.4,214-120,296.9
		c-61.6,64.2-136.4,107.6-219.4,137.5c-85,30.6-172.8,43.8-263.1,40.3c-9.2-0.4-18.6-0.2-27.7-2.3c0-225.9,0-451.8-0.1-677.6
		c0-4.9,1.1-6.1,6-6c14.5,0.4,29,0.1,43.5,0.1c-0.1,2.4-0.2,4.8-0.2,7.1c0,71.7,0,143.4,0,215c0,1.5,0,3,0,4.5
		c0.3,8.4,4.1,12.3,12.4,12.4c32.1,0.1,64.1,0.3,96.2,0c31.2-0.3,55.5-25.4,55.5-56.7c0-17.3,0-34.6,0-52c0-3.7-0.1-7.4-0.9-11
		c-5.3-25.1-29.3-43.9-56.4-44c-23.4-0.1-46.8-0.1-70.2,0c-3.5,0-5.5-0.1-5.4-4.7c0.2-23.6,0.1-47.2,0.1-70.7
		C265.1,1.3,448.3,1.3,631.5,1.3z M491.7,240.6c19,0,38.1,0.1,57.1,0c24.1-0.1,37.8-13.4,38.6-37.5c0.3-8,0-16-0.2-24
		c-0.6-23.3-11-35-33.9-38.3c-3-0.4-6-0.4-9.1-0.4c-27.7,0-55.4,0-83.1,0c-2.6,0-5.1,0.3-7.6-1.1c-4.7-2.6-5.8-6.8-5.3-11.6
		c0.6-6.3-2.8-13.8,5-18.1c2.8-1.5,5.8-1.5,8.8-1.5c35.7,0,71.4,0,107.2,0c8.9,0,11.5-2.4,12.3-11.3c0.2-2.6,0.4-5.2,0.3-7.8
		c-0.3-9.1-3.8-12.5-12.8-12.5c-21.9,0-43.7,0-65.6,0c-17.5,0-35.1-0.4-52.6,0.3c-20,0.8-31.4,11.9-34,31.6
		c-1.4,10.8-1.5,21.6,0,32.3c2.6,19.2,12.1,29,31.1,31.8c4,0.6,8.2,0.5,12.3,0.6c24.9,0,49.8,0,74.7,0c19.3,0,19.9,0.5,19.9,20.1
		c0,12.6-2.7,15.4-15.1,15.4c-33.6,0-67.1,0-100.7,0c-19.2,0-19.8,0.6-19.6,19.6c0.1,9.1,3.4,12.5,12.5,12.5
		C451.9,240.6,471.8,240.6,491.7,240.6z M336.5,76.4c0,0.1,0,0.1,0,0.2c-16.4,0-32.9-0.6-49.3,0.1c-30.4,1.4-53.1,25.9-53.1,56.2
		c0,18.4,0,36.8,0,55.2c0,7,1.3,13.8,4.5,20.1c11.3,22.3,29.9,32.9,54.5,33.2c31,0.3,61.9,0.1,92.9,0.1c8.8,0,12.7-4,12.8-12.6
		c0-2.2,0-4.3,0-6.5c0-10.7-3.2-13.8-14-13.8c-29.7,0-59.3,0-89,0c-2.6,0-5.2-0.1-7.8-0.4c-13.5-1.8-21.6-11.1-21.6-24.6
		c0-15.4,0-30.7,0-46.1c0-18.2,10.1-28.3,28.3-28.4c28.4,0,56.7,0,85.1,0c17.5,0,19-1.5,18.9-18.8c0-10.4-3.4-13.7-14.1-13.8
		C368.6,76.4,352.6,76.4,336.5,76.4z"/>
	<path id="XMLID_158_" class="st1" d="M1431,306.9c-9.3,8.3-18.4,10.4-28.6,9c-13.3-1.8-22.3-10.5-24.9-25.3
		c-2.3-12.8-2.4-25.9-0.3-38.7c4-24.4,28.6-35.1,49.7-21.9c1,0.6,1.7,2,3.8,1.6c0-12.4,0.1-24.9-0.1-37.3c-0.1-3.6,0.9-4.7,4.6-4.8
		c13.7-0.2,13.6-0.4,13.6,13.5c0,35.1-0.1,70.1,0.1,105.2c0,5.2-1,7.7-6.6,6.7c-1.7-0.3-3.5-0.3-5.2,0
		C1432.3,315.4,1429.3,314.2,1431,306.9z M1395.4,269.3c-0.1,6.3-0.2,12.2,1.6,17.8c2.7,8,8.1,11.9,16.5,11.8
		c8.2-0.1,13.8-4.4,15.7-12.7c2.4-10.9,2.3-21.9,0-32.8c-1.7-8.1-7.2-12.5-14.9-12.9c-8.1-0.4-14.6,4.1-17.2,12
		C1395.3,258.1,1395.2,263.9,1395.4,269.3z"/>
	<path id="XMLID_157_" class="st2" d="M729.6,251.4c1.1-8.7,0-18.6,1.8-28.5c3.7-20.4,21.8-34.6,44.6-34.7
		c21.9-0.1,39.4,14,43.2,34.5c0.7,3.6-0.1,4.8-3.6,4.5c-1.9-0.2-3.9-0.3-5.8,0c-6.8,1.1-10.6-1.1-13.2-8.1
		c-3.9-10.2-14.7-14.7-26.4-12.7c-10.5,1.7-17.9,9.2-19.2,19.9c-2,16.8-1.6,33.7,0.2,50.5c1.2,10.7,9.2,18.2,20.7,20.1
		c10.1,1.6,20.8-4.1,25.8-13.6c1.3-2.6,1.1-6.9,4.4-7.3c5.3-0.7,10.8-0.5,16.2-0.1c2.9,0.2,1.1,2.7,0.9,4.1
		c-3.2,17.5-16.7,31.2-34.8,34c-18.8,2.9-35.2-2.2-47.1-18c-7.4-10-7-21.9-7.6-33.6C729.5,259.1,729.6,255.9,729.6,251.4z"/>
	<path id="XMLID_156_" class="st3" d="M854.4,231.8c9.1-6.2,18-9.3,28.1-7.6c15.8,2.7,25.1,12.7,25.4,28.7c0.4,18.8,0,37.6,0.2,56.5
		c0,3.9-1.5,4.6-4.9,4.7c-13.4,0.3-13.4,0.4-13.4-12.9c0-13.8,0.1-27.7,0-41.5c-0.1-12.1-7.1-19.3-18.1-19.2
		c-9.6,0.1-16.4,6-16.8,16.1c-0.6,16.8-0.7,33.7-0.4,50.6c0.1,6-1.8,7.2-7.3,7c-11.2-0.4-11.2-0.1-11.2-11.4
		c0-35.7,0.1-71.4-0.1-107.1c0-5.5,1.6-6.9,6.9-6.7c11.6,0.4,11.6,0.1,11.6,11.6C854.4,210.6,854.4,220.7,854.4,231.8z"/>
	<path id="XMLID_155_" class="st4" d="M844.4,68.3c8-5.3,15.2-8.8,23.8-8.5c16.6,0.6,28.5,10.3,29.4,26.8c1,19.9,0.4,39.8,0.5,59.7
		c0,2.5-0.8,3.5-3.3,3.4c-3-0.1-6.1-0.3-9.1,0c-4.7,0.6-6.3-0.7-6.2-5.9c0.4-14.9,0.2-29.9,0.1-44.8c0-3-0.1-6.1-0.8-9
		c-2.1-9.3-8.7-14.5-17.5-14c-9.3,0.5-15.5,6.4-16.5,15.9c-0.4,3.4-0.2,6.9-0.2,10.4c0,14.3-0.1,28.6,0.1,42.8
		c0,3.3-0.8,4.4-4.3,4.5c-14,0.4-14.1,0.6-14.2-13.5c-0.2-34.4-0.2-68.7-0.6-103.1c-0.1-6,0.8-9,8-8.4c10.7,0.8,10.8,0.2,10.8,11.1
		C844.4,46.2,844.4,56.6,844.4,68.3z"/>
	<path id="XMLID_152_" class="st5" d="M975.5,308.3c-9.2,6.4-19.2,8.3-30.2,6.4c-15.3-2.6-23.5-12.3-22.9-27.9
		c0.5-13.8,9.7-23.2,24.6-24.3c8-0.6,16-0.5,24-0.2c4.9,0.2,5.8-1.8,5.5-6.1c-0.8-10.9-5.3-15.5-16.4-16c-6.7-0.3-13.5-0.3-18.7,5.3
		c-3,3.3-5.5,1.4-8.2-0.9c-8.8-7.8-8.8-9.7,1.3-15.8c12.3-7.5,38.8-6.4,50.3,2.3c7.4,5.6,9.7,13.7,9.8,22.4
		c0.3,18.6,0,37.2,0.2,55.8c0,3.2-0.8,4.9-4.3,4.7c-2.1-0.1-4.3,0.3-6.5,0.3C977.4,314.3,977.4,314.3,975.5,308.3z M976.1,281.4
		c-1.3-1.6,2.7-5.9-2.7-5.9c-7.1-0.1-14.3-0.4-21.3,0.2c-5.5,0.5-9.9,3.6-11.1,9.3c-1.1,5,0.4,10,5.1,12.3c7.2,3.6,15,3.6,22.5,0.2
		C975.3,294.4,976.1,288.2,976.1,281.4z"/>
	<path id="XMLID_149_" class="st6" d="M958.5,111.8c-7.6,0-15.2,0.4-22.7-0.1c-5.6-0.4-6,2.1-5.3,6.4c2.6,15.9,20.7,23.5,35.5,14.7
		c1.8-1.1,3.6-2.4,5.2-3.9c2-1.9,3.2-1.7,5.4,0.1c10.3,8.9,10.1,11.5-2.2,18c-29.3,15.6-59.6-0.7-62.4-33.5
		c-1.2-14.5-0.4-28.7,8.9-40.8c9-11.7,25.3-16,41.2-11.4c13.6,3.9,23.7,17.5,25.3,33.8c1.6,16.2,1.3,16.4-14.6,16.5
		c-4.8,0-9.5,0-14.3,0C958.5,111.6,958.5,111.7,958.5,111.8z M948.8,98.2c5.2,0,10.4-0.1,15.6,0c3.2,0.1,4.1-1.1,4-4.2
		c-0.5-9.9-8.5-17.9-18.5-18.2c-10.4-0.3-18.8,7.5-19.4,17.8c-0.2,3.2,0.5,4.8,4.1,4.6C939.2,98,944,98.2,948.8,98.2z"/>
	<path id="XMLID_146_" class="st6" d="M1335.8,276.5c-8.6,0-17.3,0.1-25.9-0.1c-3.8-0.1-4.1,1.6-3.6,4.7c2.8,17.9,22.5,25.3,38,14.3
		c1.9-1.3,3.5-4.7,6.3-3.2c4.2,2.2,7.6,5.8,10.4,9.6c1.2,1.6-1.4,2.8-2.6,3.8c-14.4,12.7-31,13.7-48,7.4
		c-16.5-6-21.2-20.5-22.4-36.3c-0.8-10.4-0.2-20.8,4-30.6c6.9-16.3,21.5-23.9,40.9-21.3c15.6,2,27.4,14.5,30.1,32.1
		c0.7,4.7,0.7,9.5,1.3,14.2c0.4,3.5-1,4.5-4.4,4.4c-8-0.2-16-0.1-24-0.1C1335.8,275.8,1335.8,276.1,1335.8,276.5z M1325.6,262.3
		c0,0.1,0,0.1,0,0.2c5,0,9.9-0.4,14.9,0.1c5,0.5,5.1-1.8,4.4-5.6c-2.2-10.6-9.7-17-19.8-16.6c-9.8,0.4-17.2,7.6-18.7,18.1
		c-0.4,2.7,0.1,4,3.1,3.9C1314.9,262.1,1320.2,262.3,1325.6,262.3z"/>
	<path id="XMLID_143_" class="st6" d="M1285.1,439.9c-7.4,0-14.7,0.3-22.1-0.1c-5.1-0.3-5.7,1.9-5.1,6.1c2.5,16.1,21.1,23.7,36,14.8
		c2.8-1.7,4.7-6,8.3-4.6c2.8,1,4.5,4.6,7.1,6.5c4.2,3,3,5.2-0.3,7.8c-14.8,11.5-31.3,13.3-48.3,6.7c-16.9-6.6-20.9-21.8-22.2-38
		c-0.6-7.6,0.5-15.1,2.4-22.5c4.6-17.9,18.3-28.3,36.4-28c18,0.3,31.9,11.2,36.1,28.7c0.8,3.3,1.3,6.8,1.4,10.2
		c0.3,13.6,3,12.8-12.4,12.8c-3,0-6-0.3-9.1-0.4C1290.8,439.8,1287.9,439.9,1285.1,439.9z M1277.3,426.9c5.4,0,10.8-0.1,16.2,0
		c2.4,0,3.4-0.7,3.3-3.3c-0.4-10.3-8.9-19.1-18.9-19.5c-10.6-0.4-19.1,7.8-20,18.8c-0.3,3.3,0.9,4.1,3.9,4
		C1267,426.8,1272.1,426.9,1277.3,426.9z"/>
	<path id="XMLID_140_" class="st6" d="M1180.5,275.5c-8,0-16,0.2-24-0.1c-3.8-0.1-4.3,1.2-3.7,4.5c2.9,18.3,23.5,25.6,39.3,13.9
		c1.7-1.2,3-4.5,5.9-2.2c3.5,2.8,7.5,5.5,9.2,9.7c0.7,1.7-2.3,3.4-3.9,4.8c-14,11.4-29.7,12.1-45.9,6.3c-15-5.4-21-17.9-22.7-32.7
		c-1.2-11-1.1-22,3.2-32.6c6.4-15.9,19.7-24.4,36-23c18.9,1.7,30.7,11.5,34.5,28.8c1.6,7.2,4.2,16,0.5,21.4
		c-2.7,4-12.1,1.1-18.5,1.5c-3.2,0.2-6.5,0-9.7,0C1180.5,275.6,1180.5,275.6,1180.5,275.5z M1171.7,262.3c5.2,0,10.4-0.1,15.5,0
		c2.8,0.1,3.6-0.8,3.5-3.8c-0.6-10.5-7.8-18.2-17.8-18.7c-9.7-0.5-18.5,6.6-20.3,16.4c-0.7,4-0.4,6.7,4.9,6.2
		C1162.2,261.9,1167,262.3,1171.7,262.3z"/>
	<path id="XMLID_137_" class="st6" d="M779.7,597.5c0-5-0.1-9.9,0.9-14.8c4.1-20.5,17.7-31.1,39.4-30.4
		c18.3,0.6,31.6,13.5,34.1,32.9c1,8.2,1.4,16.4,0.2,24.6c-3,21.4-18.3,35-38.6,34.2c-21.5-0.9-34.8-14.6-35.9-37.3
		C779.5,603.5,779.7,600.5,779.7,597.5z M799.2,599.4c-0.2,5.2-0.2,10.4,1.4,15.4c2.4,7.6,9.4,12.9,16.9,12.8
		c7.9-0.1,14.6-5,16.8-12.9c2.9-10.4,2.8-21,0.7-31.4c-1.7-8.5-8.9-13.6-17.5-13.5c-8.5,0.1-14.7,5-16.8,13.5
		C799.4,588.6,798.8,593.9,799.2,599.4z"/>
	<path id="XMLID_136_" class="st7" d="M797.5,396c8.8-5.5,17.3-9.2,27.4-7.7c15.6,2.3,25.6,12.4,26,28.2c0.5,19.5,0.1,39,0.3,58.4
		c0,3.2-1.1,3.9-4.1,4.1c-14.4,0.7-14.4,0.8-14.4-13.2c0-13.4,0.2-26.8-0.1-40.3c-0.2-12.5-5.9-19.4-15.8-20
		c-11.7-0.7-19,5.7-19.1,17.6c-0.2,16.4-0.3,32.9,0,49.3c0.1,5.1-0.9,7.2-6.6,7c-12.2-0.4-12.3-0.1-12.3-12.2
		c0-23.6,0.2-47.2-0.2-70.8c-0.1-6,1.8-7.7,7.3-6.9c1.5,0.2,3,0.2,4.5,0C794.9,389.1,798.3,389.7,797.5,396z"/>
	<path id="XMLID_135_" class="st8" d="M1151.6,471.4c-7.3,5.3-14.5,8.2-22.9,8.2c-17.5-0.1-29.9-11.1-30.6-28.5
		c-0.8-19-0.5-38.1-0.9-57.1c-0.1-3.4,1-4.4,4.4-4.5c14.3-0.5,14.3-0.6,14.4,13.9c0,14.3-0.1,28.6,0.3,42.8
		c0.2,7.2,3.4,13,10.6,15.6c6.5,2.3,12.9,1.6,18.3-3c5.4-4.7,6-11.3,6-17.9c0.1-15.2,0.3-30.3-0.1-45.5c-0.1-4.8,1.1-6.2,6-6.1
		c13,0.3,13,0,13,13.4c0,23.4-0.2,46.8,0.1,70.1c0.1,4.8-1.8,6.1-5.9,5.9c-1.7-0.1-3.5-0.5-5.2-0.4
		C1154.5,478.9,1150.6,478.5,1151.6,471.4z"/>
	<path id="XMLID_134_" class="st9" d="M1046.2,589.6c0-15.4-0.4-30.7,0.2-46.1c0.2-6.3-1.9-7.5-7.6-7.2c-7.3,0.4-14.7,0-22.1,0.2
		c-3.4,0.1-4.4-1.2-4.6-4.5c-0.9-13.9-1-13.8,13-13.8c22.9,0,45.9,0.1,68.8-0.1c4.8,0,6.8,0.8,6.6,6.2c-0.4,12.1-0.1,12.1-12.4,12.1
		c-5.2,0-10.4,0.3-15.6-0.1c-5-0.4-6.6,1-6.5,6.3c0.3,31.4,0,62.8,0.3,94.2c0,5.4-1.5,6.9-6.8,6.7c-13.3-0.3-13.3-0.1-13.3-13.7
		C1046.2,616.5,1046.2,603.1,1046.2,589.6z"/>
	<path id="XMLID_133_" class="st2" d="M759.9,96.9c0-16.2-0.1-32.5,0.1-48.7c0-3.9-0.9-5.4-5-5.2c-8.2,0.3-16.4-0.1-24.7,0.2
		c-3.8,0.1-4.7-1.2-4.7-4.8c-0.3-13.5-0.4-13.5,12.9-13.5c22.7-0.1,45.4,0,68-0.3c5.5-0.1,7.6,1.2,7.3,7.2
		c-0.5,11.4-0.1,11.4-11.7,11.4c-5.6,0-11.3,0.4-16.9-0.1c-5.2-0.5-6,1.6-5.9,6.2c0.2,31.6,0,63.2,0.2,94.8c0,5.5-1.6,6.8-6.9,6.7
		c-12.8-0.3-12.8-0.1-12.8-12.9C759.9,124.1,759.9,110.5,759.9,96.9z"/>
	<path id="XMLID_132_" class="st2" d="M901.8,388.5c9.5,0.7,19,1.5,27.4,6.7c3.6,2.2,5.1,4.5,0.9,7.6c-1.5,1.1-3,2.5-4.1,4.1
		c-2.3,3.2-4.6,3.5-8.1,1.6c-7.5-4-15.7-4.5-24-3c-5.2,1-8.8,3.8-9,9.5c-0.2,5.6,3.4,8.3,8.3,9c6.4,1,12.9,1.6,19.3,2.2
		c14.5,1.4,23.1,8.8,24.8,21.2c1.9,13.5-4.5,24.8-17.9,29.5c-17.3,6-34.5,5.8-50.5-4c-6.9-4.2-6.8-5.2-1.1-10.7
		c1.2-1.2,2.6-2.3,3.6-3.7c2.2-3,4.1-2.4,6.9-0.3c9,6.8,19.4,8.2,30.2,5.6c5.2-1.3,9.8-3.8,10.2-10.2c0.4-5.9-2.6-9.6-9-10.4
		c-7.5-1-15.1-1.2-22.5-2.6c-12.4-2.4-19.5-10.5-20.2-22c-0.7-12.5,5.9-23.1,17-27C889.7,389.4,895.6,388.3,901.8,388.5z"/>
	<path id="XMLID_131_" class="st10" d="M757.6,606.7c0,10.2-0.2,20.3,0.1,30.5c0.1,4.3-0.7,6-5.5,5.9c-13.5-0.2-13.5,0.1-13.5-13.6
		c0-17.7-0.1-35.5,0.1-53.2c0.1-4.6-0.7-7.1-5.9-6.1c-3.2,0.6-4.2-1.1-4.1-4c0.1-2.2,0.1-4.3-0.1-6.5c-0.2-3.5,1.1-5.4,4.8-4.7
		c4.5,0.8,5.5-1.5,5.2-5.5c-0.4-5-0.1-10,1-14.8c2.7-11.5,10.7-17.2,25.1-18.2c10.1-0.7,14,4.6,10.7,14.2c-0.8,2.5-2.6,1.8-4.2,1.9
		c-11.6,0.7-17.7,10.1-13.7,20.9c0.6,1.7,1.8,1.6,3,1.6c1.9,0,3.9,0,5.8,0c9.4,0.2,7.7-1.4,8.4,8.2c0.4,6-2.5,6.8-7.1,6.5
		c-1.5-0.1-3-0.2-4.5-0.4c-4.5-0.8-5.9,1-5.8,5.6C757.8,585.5,757.6,596.1,757.6,606.7z"/>
	<path id="XMLID_130_" class="st11" d="M953.1,432.7c0-7.4-0.2-14.7,0.1-22.1c0.1-3.6-0.4-6-4.8-5.2c-5.5,1-6-2.3-5.7-6.6
		c0.3-4-1-8.9,5.9-7.7c3.8,0.6,4.8-1.1,4.6-4.7c-0.3-5.4-0.1-10.8-0.1-16.2c0-1.1-0.4-2.3,0.1-3.2c3.5-7.1,9.8-1.4,14.6-3
		c2.5-0.8,4.4,0,4.3,3.6c-0.3,6.3,0.2,12.6-0.2,18.8c-0.3,4.2,1.3,5.4,5.1,4.9c1.5-0.2,3.1,0.2,4.5-0.1c5.6-0.8,7.3,0.9,7.7,7
		c0.5,7.9-3.5,7.5-8.7,7.4c-8.5-0.2-8.5-0.1-8.5,8.4c0,12.8,0,25.5,0,38.3c0,8,2.3,10.7,10.3,10.5c5.5-0.2,7.4,1.5,6.6,6.8
		c-0.3,1.9-0.2,3.9,0,5.8c0.3,3.1-0.9,4.1-4,4.1c-6.5-0.1-13,0-19-2.9c-8.7-4.2-12.4-11.7-12.7-21
		C953,447.8,953.1,440.3,953.1,432.7z"/>
	<path id="XMLID_129_" class="st1" d="M1193.5,432.5c0-7.1-0.2-14.3,0.1-21.4c0.2-4.1-0.9-6.2-5.4-5.5c-2.9,0.4-5.6-0.1-4.5-3.9
		c1-3.5-3.5-9.8,3.9-10c5.5-0.2,6.5-2.3,5.6-7c-0.4-2.1-0.1-4.3-0.1-6.5c0.3-17.2-1.7-13.2,14.9-13.8c3.4-0.1,4.6,1.2,4.4,4.6
		c-0.2,5.8,0.1,11.7-0.1,17.5c-0.1,3.3,0.8,4.8,4.3,4.4c2.1-0.2,4.4,0.2,6.5-0.1c5.3-0.8,6.1,1.5,6.4,6.3c0.4,6.6-1.4,8.9-8.3,8.4
		c-8.7-0.7-8.8-0.2-8.8,8.7c0,12.3-0.1,24.7,0,37c0,8.3,3.1,11.7,11.3,11.4c5.6-0.2,5.7,2.3,5.7,6.5c-0.2,10.3,0,10.3-10.2,10.2
		c-16.1-0.2-24.7-8.4-25.6-24.7C1193.2,447.3,1193.5,439.9,1193.5,432.5C1193.5,432.5,1193.5,432.5,1193.5,432.5z"/>
	<path id="XMLID_128_" class="st1" d="M1076.9,231.7c-1.1-3.7-0.3-6.1,4.2-5.4c4.6,0.7,6.1-1.6,6.2-5.7c0.1-5.4,0.4-10.8,0.3-16.2
		c-0.1-3.1,0.3-4.5,4.1-4.6c14.4-0.4,14.4-0.6,14.4,13.8c0,0.4,0,0.9,0,1.3c0,12,0,12.2,12,12.2c4.1,0,5.8,1.4,4.8,5.1
		c-0.9,3.4,3.5,9.4-4.5,9.5c-4,0.1-9.6-2.2-11.6,0.8c-2.1,3-0.8,8.3-0.9,12.6c-0.1,10.8-0.1,21.6,0,32.4c0,8.4,2.6,11.4,10.6,11
		c5.5-0.2,6.3,2,6.2,6.8c-0.3,9.2-0.1,9.2-9.3,9.2c-18.2,0-27-8.8-27-27.2c0-13.8-0.1-27.7,0.1-41.5c0-3.3-0.8-4.8-4.3-4.3
		c-6.1,1-6.3-2.5-5.1-7C1077,233.6,1077,232.6,1076.9,231.7z"/>
	<path id="XMLID_127_" class="st1" d="M1065.3,377.8c0,12.8,0,12.9,12.1,13.2c3.3,0.1,4.8,0.9,4.4,4.4c-0.2,2.1-0.2,4.3,0,6.5
		c0.2,3-1.2,3.9-3.8,3.5c-0.2,0-0.4,0-0.6,0c-12.9,0.5-12.9,0.5-12.9,13.3c0,10.6-0.1,21.2,0,31.8c0.1,9,2.6,11.9,11.5,11.7
		c5-0.1,5.5,1.8,5.5,6c-0.2,10.3,0,10.3-10.1,10.2c-16.8-0.1-25.4-8.7-25.5-25.6c-0.1-14.1-0.3-28.1-0.2-42.2c0-4.1-1.3-6-5.5-5.2
		c-3.1,0.5-4.7-0.4-4.5-4.1c0.3-5.5-1.8-12.4,8.1-10.3c2.5,0.5,2.3-1.9,2.4-3.6c0.2-6.3,0.6-12.5,0.5-18.8c0-3.4,0.7-4.9,4.6-4.9
		C1065.3,363.5,1065.3,363.3,1065.3,377.8z"/>
	<path id="XMLID_126_" class="st12" d="M998,581c0,18.8-0.2,37.6,0.1,56.4c0.1,4.6-1.2,5.8-5.7,5.7c-13.8-0.2-14.3,0-14.5-13.5
		c-0.4-35.7-0.3-71.3-0.6-107c0-3.3,0.8-4.4,4.3-4.5c16.4-0.7,16.4-0.8,16.4,15.5C998,549.4,998,565.2,998,581z"/>
	<path id="XMLID_125_" class="st3" d="M1076.9,231.7c0,0.9,0,1.9,0,2.8c-5.3,0-6.8,5.1-10,7.8c-3.2,2.7-4.8,4.5-9.5,1.3
		c-11.2-7.8-25.1,0.5-25.6,15.3c-0.6,16.2-0.5,32.4-0.1,48.6c0.1,5.7-1.2,7.3-7,7.1c-11.8-0.5-11.9-0.1-11.9-11.9
		c0-23.8,0.1-47.6-0.1-71.3c0-4.8,1.1-6.9,6.1-6.1c1.7,0.3,3.5,0,5.2,0.1c4,0.2,9.9-2,6.6,7.8c10.4-8.4,20.4-10.4,31.4-8.3
		C1067.6,225.9,1071.5,230.4,1076.9,231.7z"/>
	<path id="XMLID_124_" class="st13" d="M887.4,560.7c13.1-9,25.6-11.5,38.9-4.4c6.7,3.6,6.7,4.1,1.7,9.5c-1,1.1-2.1,2.2-3,3.4
		c-3.5,4-6.4,6.1-12.3,2.4c-10.8-6.7-23.7,2-24,15.8c-0.3,16.7-0.3,33.4,0.1,50c0.1,5.1-1.5,6.1-6.2,6c-13-0.3-13,0-13-12.9
		c-0.1-23.6,0-47.2-0.3-70.8c-0.1-4.9,1.3-6.7,6.1-6c1.9,0.3,3.9,0.2,5.8,0C885.8,553.1,888.7,554.2,887.4,560.7z"/>
	<path id="XMLID_123_" class="st0" d="M739.4,416.4c0-19,0.1-38.1-0.1-57.1c-0.1-4.4,1.3-5.3,5.4-5.3c14.4,0,14.4-0.1,14.4,14.5
		c0,34.8-0.1,69.6,0.1,104.5c0,5.1-1.5,6.5-6.4,6.6c-13.7,0.2-13.7,0.4-13.6-13.2c0-16.7,0-33.3,0-50
		C739.2,416.4,739.3,416.4,739.4,416.4z"/>
	<path id="XMLID_122_" class="st4" d="M1243.7,233.8c10.9-8.5,21.4-11.2,33-7.9c0.6,0.2,1.3,0.2,1.9,0.5c11,3.9,11.5,6.3,3.7,14.5
		c-4.1,4.3-6.9,7.5-13.6,2.8c-7.5-5.3-18.9,0-22.3,8.9c-1.2,3.2-1.6,6.7-1.6,10.2c0.1,15.6-0.1,31.2,0.1,46.7
		c0.1,4.6-0.8,6.4-5.9,6.2c-12.4-0.3-12.4,0-12.4-12.6c0-24,0.1-48-0.1-72c0-4.5,1.2-6.4,5.7-5.7c1.3,0.2,2.6,0.1,3.9,0
		C1241,225.3,1246.7,224.1,1243.7,233.8z"/>
	<path id="XMLID_121_" class="st14" d="M1004.6,434.1c0-13.2,0.2-26.4-0.1-39.6c-0.1-4.1,1.2-5,5.1-5.1c13.7-0.1,13.7-0.3,13.7,13.3
		c0,23.4-0.1,46.8,0.1,70.1c0.1,4.9-1.3,6.2-6.2,6.1c-12.7-0.2-12.7,0-12.7-12.4C1004.6,455.8,1004.6,445,1004.6,434.1z"/>
	<path id="XMLID_120_" class="st10" d="M1014,373.2c-10.3,0-10.3,0-10.3-7.8c0-12.2,0-12.2,11.7-12.2c8.3,0,8.4,0,8.3,12.5
		C1023.7,374.6,1024.5,373,1014,373.2z"/>
	<path id="XMLID_119_" class="st11" d="M82.1,158.2c0-14.7,0.2-29.4-0.1-44.1c-0.1-4.6,0.8-6.4,5.9-6.3c22.9,0.3,45.9,0,68.8,0.2
		c16,0.1,26.5,10.9,26.5,26.9c0,15.6,0,31.1,0,46.7c0,15.2-9.8,26.2-24.9,26.4c-24,0.4-48,0-72,0.2c-4.3,0-4.2-2.2-4.2-5.3
		C82.1,188,82.1,173.1,82.1,158.2z"/>
	<path id="XMLID_118_" class="st15" d="M948.8,98.2c-4.8,0-9.5-0.2-14.3,0.1c-3.6,0.2-4.4-1.3-4.1-4.6c0.7-10.3,9.1-18.1,19.4-17.8
		c10,0.3,18,8.3,18.5,18.2c0.1,3.1-0.8,4.3-4,4.2C959.2,98,954,98.2,948.8,98.2z"/>
</g>
</svg>
