<?xml version="1.0" encoding="utf-8"?>
<!-- Generator: Adobe Illustrator 19.0.0, SVG Export Plug-In . SVG Version: 6.00 Build 0)  -->
<svg version="1.1" id="Layer_1" xmlns="http://www.w3.org/2000/svg" xmlns:xlink="http://www.w3.org/1999/xlink" x="0px" y="0px"
	 viewBox="0 0 251.5 127" style="enable-background:new 0 0 251.5 127;" xml:space="preserve">
<style type="text/css">
	.st0{fill:#CF0A2C;}
</style>
<g id="XMLID_8_">
	<path id="XMLID_13_" class="st0" d="M62.5,24.5c-22.9,0-36.9,19.4-36.9,39c0,23.6,17.7,39,37.1,39c12.9,0,25.1-6.2,35.4-16.1v29.2
		C87.2,122.6,72.4,127,60.8,127C27.7,127,0,97.8,0,63.5C0,27.2,27.9,0,61,0c12.7,0,27.6,4.2,37.3,9.4v28.7
		C86.1,29.4,73.7,24.5,62.5,24.5z"/>
	<path id="XMLID_11_" class="st0" d="M168.4,127c-33.3,0-61.3-28.1-61.3-63.5C107.1,27.8,135,0,169.9,0c12.7,0,28.4,3.6,38.1,8.5V37
		c-11-6.9-25.2-12.5-37.6-12.5c-22.9,0-37.8,19.4-37.8,39c0,23,17.5,39.7,38.1,39.7c4.3,0,8.5-0.4,13.9-2.5V77.8h-18.7V53.7h42.8
		v64.2C196.5,123.9,182.8,127,168.4,127z"/>
	<path id="XMLID_9_" class="st0" d="M227.4,124.5V2.5h24.1v121.9H227.4z"/>
</g>
</svg>
