<?xml version="1.0" encoding="utf-8"?>
<!-- Generator: Adobe Illustrator 19.0.0, SVG Export Plug-In . SVG Version: 6.00 Build 0)  -->
<svg version="1.1" id="Layer_1" xmlns="http://www.w3.org/2000/svg" xmlns:xlink="http://www.w3.org/1999/xlink" x="0px" y="0px"
	 viewBox="0 0 649.4 236.9" style="enable-background:new 0 0 649.4 236.9;" xml:space="preserve">
<g id="XMLID_27_">
	<g id="XMLID_3_">
		<path id="XMLID_81_" d="M290.4,0.3c0.2,8.6-2.7,16.1-8.2,22.6c-7.1,8.3-16.2,12.4-27.1,12.4c-6,0-12.1,0-18.1,0
			c-1.4,0-1.8,0.3-1.8,1.8c0,25.9,0,51.7,0,77.6c0,23.6-16.5,43.3-39.8,47.4c-2.4,0.4-4.8,0.5-7.2,0.7c-0.7,0.1-1-0.2-1-0.9
			c0-0.4,0-0.9,0-1.3c0-41.1,0-82.1,0-123.2c0-2,0-2-2-2c-25.7,0-51.4,0-77.1,0c-1.9,0-1.9,0-1.9,1.9c0.1,5,0.2,10.1,0.2,15.1
			c0,3.2-0.1,6.4-0.2,9.6c-0.1,1.4,0.3,1.8,1.8,1.8c21.8-0.1,43.6,0,65.4,0c2.4,0,2.2-0.3,2.2,2.3c0,10.5,0,21,0,31.5
			c0,1.5-0.4,1.8-1.8,1.8c-21.8,0-43.7,0-65.5,0c-2,0-2,0-2,2c0.1,5.8,0.2,11.6,0.2,17.4c0,2.4-0.1,4.8-0.2,7.3c0,1,0.2,1.4,1.3,1.4
			c13.6,0,27.2,0,40.9,0c6.6,0,13.2-0.3,19.7-0.5c2.1-0.1,4.2-0.3,6.2-0.7c1.5-0.3,1.5,0.3,1.5,1.4c0,6.8,0,13.6,0,20.4
			c0,4.4,0,8.7,0,13.1c0,1.9,0,1.9-1.9,1.9c-37.5,0-75,0-112.5,0c-1.5,0-1.9-0.4-1.9-1.9c0.1-13.6,0-27.1,0-40.7
			c0-39.7,0-79.4,0-119c0-0.3,0-0.7,0-1C136.4,0.3,213.4,0.3,290.4,0.3z"/>
		<path id="XMLID_80_" d="M48.1,0.3c0,0.5,0,1.1,0,1.6c0,52.9,0,105.9,0,158.8c0,2.4,0.2,2.2-2.1,2.2c-14.7,0-29.3,0-44,0
			c-0.6,0-1.2,0-1.8-0.1c0-39.8,0-79.7,0-119.5c0.2-1,0.3-1.9,0.5-2.9C4.1,22.4,14.4,10,31.3,3.2c3.9-1.6,8-2.2,12.1-2.9
			C45,0.3,46.6,0.3,48.1,0.3z"/>
		<path id="XMLID_76_" d="M64.5,236.9c-1-0.3-2.1-0.6-3.1-0.9c-2.5-0.9-4.3-2.4-4.5-5.3c-0.2-2.8,1.2-4.7,3.6-5.9
			c0.3-0.1,0.5-0.3,0.8-0.4c-4.5-2.7-4.3-6.1,0.7-8.9c-0.5-0.5-1-0.8-1.4-1.3c-2.6-2.9-3-6.3-1.8-9.9c1.3-3.7,4.2-5.6,8-6.3
			c3-0.6,5.9-0.3,8.6,1.2c0.7,0.4,1.1,0.2,1.6-0.2c1.3-1,2.7-1.6,4.3-1.8c0.7-0.1,0.9,0.2,1,0.9c0.1,2,0.1,2-1.9,2.3
			c-0.3,0-0.6,0.1-0.9,0.2c-1.7,0.5-1.7,0.7-0.9,2.1c3.4,5.9-0.1,13.3-6.9,14.6c-2.3,0.4-4.6,0.4-6.9-0.3c-1.3-0.4-3,0.6-3.3,1.9
			c-0.3,1.2,0.4,1.9,1.5,2.2c2,0.6,4.1,0.6,6.2,0.6c2.6,0,5.2,0.1,7.8,0.9c3.5,1,5.3,3.2,5.4,6.4c0.1,3.2-1.6,5.6-5,6.9
			c-1.1,0.4-2.2,0.7-3.2,1C71,236.9,67.8,236.9,64.5,236.9z M69.1,200.6c-4.5,0-7.3,2.7-7.3,7.1c0,4.4,2.8,7.1,7.4,7.1
			c4.7,0,7.3-2.5,7.2-7.1C76.4,203,73.9,200.5,69.1,200.6z M69.2,234.2c2.5,0,5-0.1,7.4-1.3c1.5-0.7,2.5-1.8,2.4-3.6
			c0-1.7-1.1-2.7-2.5-3.3c-0.4-0.2-0.9-0.4-1.4-0.5c-3.2-0.8-6.4-0.8-9.6-0.4c-0.9,0.1-1.8,0.4-2.7,0.8c-1.5,0.7-2.5,1.9-2.5,3.7
			c0,1.8,1.1,2.9,2.6,3.6C65,234.2,67.1,234.2,69.2,234.2z"/>
		<path id="XMLID_72_" d="M606,236.9c-1.2-0.4-2.5-0.6-3.7-1.1c-2.3-0.9-3.9-2.4-4.1-5.1c-0.2-2.8,1.1-4.7,3.6-5.9
			c0.3-0.1,0.5-0.3,0.8-0.4c0,0,0-0.1,0.1-0.1c-4.8-1.7-4-6.5,0.6-8.9c-1.8-1.5-3.1-3.3-3.5-5.7c-1-5.9,2.6-10.9,8.5-11.8
			c3-0.5,5.8-0.2,8.5,1.3c0.6,0.4,1.1,0.3,1.6-0.2c1.1-0.9,2.3-1.5,3.7-1.7c0.6-0.1,1.6-0.6,1.5,0.6c-0.1,0.9,0.8,2.4-1.1,2.4
			c-0.6,0-1.3,0.2-1.9,0.4c-1,0.3-1.4,0.7-0.7,1.9c2.5,4,1.5,10-2.2,12.8c-3.3,2.4-7.1,2.8-11,1.7c-0.8-0.2-1.5-0.4-2.2,0.1
			c-0.9,0.6-1.6,1.3-1.5,2.4c0.1,1.2,1.1,1.5,2,1.7c2.1,0.5,4.3,0.4,6.5,0.4c2.4,0,4.8,0.2,7,0.9c3.4,1,5.3,3.2,5.4,6.3
			c0.1,3.2-1.6,5.7-5,7c-1.1,0.4-2.3,0.7-3.4,1C612.4,236.9,609.2,236.9,606,236.9z M617.7,207.7c0-4.7-2.5-7.2-7.3-7.2
			c-4.5,0-7.3,2.7-7.3,7.1c0,4.4,2.8,7.1,7.4,7.1C615.1,214.8,617.7,212.3,617.7,207.7z M610.9,224.9c-2.4,0-4.5,0-6.6,1
			c-1.6,0.7-2.6,1.9-2.6,3.8c0,1.8,1.1,2.9,2.7,3.6c1.8,0.8,3.7,1,5.6,1c2.9,0,5.7,0,8.3-1.5c1.3-0.7,2-1.8,2-3.4
			c0-1.5-0.9-2.5-2.1-3.1c-0.5-0.3-1.1-0.5-1.6-0.6C614.6,225,612.7,225,610.9,224.9z"/>
		<path id="XMLID_68_" d="M250.9,236.9c-1.1-0.3-2.3-0.6-3.4-1c-2.4-0.9-4.2-2.4-4.4-5.2c-0.2-2.9,1.2-4.8,3.7-6
			c0.2-0.1,0.4-0.2,0.9-0.5c-2.3-0.7-3.8-1.9-3.4-4.4c0.3-2.2,1.8-3.4,3.7-4.3c0.1-0.4-0.1-0.5-0.3-0.7c-3.2-2.8-3.9-6.3-2.7-10.3
			c1.2-4,4.2-6,8.1-6.7c3-0.6,5.9-0.3,8.6,1.2c0.7,0.4,1.1,0.2,1.6-0.2c1.2-0.9,2.5-1.5,4.1-1.7c0.7-0.1,1.3-0.1,1.2,0.8
			c-0.1,0.8,0.7,2-0.8,2.3c-0.3,0.1-0.7,0-1,0.1c-2.3,0.4-2.5,0.8-1.5,2.8c2.9,5.9-0.5,12.8-7,14.1c-2.3,0.4-4.6,0.4-6.9-0.3
			c-1.4-0.4-2.9,0.5-3.3,1.9c-0.3,1.1,0.2,1.8,1.2,2.2c1.3,0.5,2.7,0.6,4.1,0.6c3.1,0.1,6.1-0.1,9.2,0.6c4.2,1,6.4,3.4,6.4,7
			c-0.1,3.2-1.8,5.2-4.7,6.4c-1.2,0.5-2.4,0.8-3.7,1.1C257.2,236.9,254,236.9,250.9,236.9z M262.5,207.7c0-4.7-2.5-7.2-7.3-7.2
			c-4.5,0-7.3,2.7-7.3,7.1c0,4.4,2.8,7.1,7.4,7.1C260,214.8,262.5,212.3,262.5,207.7z M255.5,224.9c-2,0-4,0-5.8,0.7
			c-2,0.8-3.1,2.2-3.1,3.9c0,1.7,1.1,3.2,3.1,3.9c4.2,1.3,8.5,1.2,12.6-0.3c2.1-0.7,3-2.1,2.9-3.8c-0.1-2-1.5-2.9-3.1-3.5
			C259.9,225,257.7,225,255.5,224.9z"/>
		<path id="XMLID_67_" d="M0.3,187.2c5.4,0,10.9-0.1,16.3-0.1c1.7,0,3.5,0.1,5.2,0c1.4-0.1,1.1,0.9,1.2,1.7c0,0.9,0,1.5-1.2,1.5
			c-5.4-0.1-10.8,0-16.2-0.1c-1.3,0-1.7,0.3-1.7,1.6c0.1,3.8,0.1,7.6,0,11.4c0,1.1,0.3,1.5,1.4,1.4c3.6-0.1,7.2,0,10.8-0.1
			c1.2,0,1.5,0.4,1.5,1.5c0,1.2-0.2,1.7-1.5,1.6c-3.5-0.1-7,0-10.5-0.1c-1.2,0-1.7,0.3-1.6,1.5c0.1,4.3,0.1,8.6,0,12.9
			c0,1.2,0.3,1.5,1.5,1.5c5.6-0.1,11.2,0,16.8,0c1.1,0,1.9,0,1.9,1.6c0,1.7-0.8,1.7-2,1.7c-7.1,0-14.2,0-21.2,0
			c-0.2,0-0.4,0-0.6,0.1C0.3,213.8,0.3,200.5,0.3,187.2z"/>
		<path id="XMLID_66_" d="M625.6,236.9c-0.1-0.3-0.2-0.6-0.2-0.9c-0.2-2-0.1-2.2,1.9-1.9c2.6,0.4,4.5-0.6,5.8-2.9
			c0.3-0.6,0.7-1.2,1-1.8c0.9-1.8,1-3.5,0.2-5.5c-3-8-5.7-16.1-8.6-24.2c-0.4-1.2-0.4-1.6,1.1-1.6c1.6-0.1,2.4,0.4,2.9,2
			c2.2,7,4.6,13.9,7.1,21.1c0.8-2.2,1.4-4,2.1-5.9c1.8-5.3,3.6-10.6,5.4-15.9c0.4-1.2,2.6-1.9,3.6-1.2c0.6,0.4,0.2,0.9,0,1.3
			c-1.5,4.3-3,8.5-4.4,12.7c-2,5.8-4,11.6-6,17.4c-1.1,3.1-2.6,5.9-5.9,7.1C629.6,236.9,627.6,236.9,625.6,236.9z"/>
		<path id="XMLID_65_" d="M649.4,123.9c-1.4-0.2-2.7-0.6-4.1-0.3c-1.4,0.2-2.3,1-2.7,2.4c-0.4,1.8-0.2,3.6-0.3,5.5
			c0,0.8,0.6,0.8,1.1,0.8c1.2,0,2.4,0,3.6,0c1.1,0,1.2,0.6,1.2,1.4c0,0.9-0.1,1.5-1.2,1.4c-1,0-2.1,0.1-3.1,0
			c-1.2-0.1-1.6,0.3-1.6,1.6c0.1,7.4,0,14.9,0,22.3c0,2-0.9,2.6-2.8,2.1c-0.7-0.2-0.6-0.7-0.6-1.2c0-3,0-5.9,0-8.9
			c0-4.7-0.1-9.4,0-14.1c0-1.4-0.5-1.9-1.8-1.7c-0.4,0.1-0.9,0-1.3,0c-1.6,0-2.1-0.6-1.7-2.2c0.1-0.3,0.2-0.5,0.6-0.6
			c0.2,0,0.5,0,0.7-0.1c3.4-0.1,3.4-0.1,3.4-3.6c0-0.4,0-0.8,0-1.2c0.1-4.9,3.2-7.5,8.1-6.9c0.8,0.1,1.6,0.2,2.4,0.2
			C649.4,122,649.4,122.9,649.4,123.9z"/>
		<path id="XMLID_62_" d="M365.1,223.8c-2.4,2.8-5.6,3.8-9.2,3.7c-4.9-0.1-8.4-2.3-10-6.9c-1.8-5.1-1.9-10.2,0-15.3
			c1.6-4.1,4.4-7,8.9-7.5c2.8-0.4,5.4,0.3,7.7,2c0.7,0.5,1.4,1.1,2.1,1.7c0.5-0.4,0.2-0.9,0.3-1.3c0-3.9,0.1-7.8,0-11.7
			c0-1.6,0.9-1.3,1.8-1.3c1-0.1,1.6,0,1.6,1.4c-0.1,12.4,0,24.8,0,37.1c0,0.8,0,1.4-1,1.4c-0.9,0-1.5-0.2-1.6-1.2
			C365.5,225.2,365.7,224.4,365.1,223.8z M364.9,212.6c0-2,0-4,0-5.9c0-0.5,0.1-1-0.3-1.4c-2-2.5-4.3-4.5-7.6-4.7
			c-3.5-0.2-6,1.5-7.4,4.7c-2.1,4.8-2.2,9.7-0.3,14.6c1.4,3.6,4.4,5.3,8.3,4.8c2.4-0.3,4.2-1.6,5.8-3.3c1-1.1,1.6-2.3,1.5-3.8
			C364.8,215.9,364.9,214.3,364.9,212.6z"/>
		<path id="XMLID_61_" d="M477.1,202.3c1-0.9,1.9-1.7,2.9-2.4c2.8-2.1,6-2.6,9.4-1.8c3.3,0.8,4.9,3.1,5.5,6.3
			c0.1,0.8,0.2,1.7,0.2,2.5c0,6.2,0,12.4,0,18.6c0,1.4-0.6,1.6-1.8,1.6c-1.1,0-1.8-0.1-1.8-1.6c0.1-5.8,0-11.6,0-17.4
			c0-0.6,0-1.2,0-1.8c-0.2-4.8-3.9-7.1-8.3-5.3c-2.4,1-4.2,2.9-6.1,4.7c-0.5,0.5-0.3,1.1-0.3,1.7c0,6-0.1,12,0,18
			c0,1.5-0.6,1.6-1.8,1.7c-1.4,0.1-1.6-0.5-1.6-1.7c0-12.2,0-24.4,0-36.6c0-1.3,0.4-1.7,1.7-1.7c1.2,0,1.9,0.2,1.8,1.7
			c-0.1,4,0,7.9,0,11.9C476.8,201.2,476.7,201.7,477.1,202.3z"/>
		<path id="XMLID_60_" d="M296.7,136.5c1.2-1,2.1-1.8,3-2.5c2.8-2.1,5.9-2.6,9.3-1.9c3.3,0.7,5.4,3.2,5.7,6.9
			c0.2,1.6,0.2,3.2,0.2,4.7c0,5.2,0,10.4,0,15.6c0,1.4-0.4,1.9-1.8,1.9c-1.6,0-1.8-0.6-1.7-1.9c0-6.2,0-12.4,0-18.6
			c0-3.4-1.4-5.4-3.9-5.9c-1.8-0.3-3.6-0.2-5.2,0.7c-2,1.1-3.5,2.7-5.2,4.2c-0.5,0.5-0.4,1.1-0.4,1.7c0,6-0.1,12.1,0,18.1
			c0,1.5-0.6,1.7-1.8,1.7c-1.3,0-1.7-0.3-1.7-1.7c0.1-12.2,0.1-24.5,0-36.7c0-1.6,0.7-1.6,1.9-1.6c1.3,0,1.7,0.3,1.7,1.6
			c-0.1,4,0,7.9,0,11.9C296.7,135.2,296.7,135.7,296.7,136.5z"/>
		<path id="XMLID_57_" d="M304.2,223.9c-0.6,0.1-1,0.6-1.5,0.9c-3,2.2-6.5,2.9-10.1,2.6c-3-0.3-5.3-2.2-6.1-5.1
			c-1-3.3,0-7.1,2.5-9.1c2.3-1.9,5.1-2.7,8-3.5c2.1-0.6,4.1-1,6.2-1.5c0.9-0.2,1.2-0.5,1.3-1.4c0.3-5.3-2.7-7.1-8.7-6
			c-2.3,0.4-4.1,2-5.4,4c-0.9,1.3-1.5,0.3-2.2,0c-1-0.4-0.5-1.1-0.2-1.7c3.1-5.1,10.6-7.2,16-4.3c2.8,1.5,3.7,4.2,3.7,7.1
			c0.1,4.6,0,9.2,0,13.8c0,2,0,4,0.3,5.9c0.1,0.7,0.2,1.4-0.9,1.3c-0.9-0.1-2.2,0.7-2.5-1C304.5,225.3,304.6,224.6,304.2,223.9z
			 M304.3,215.7c0-1.1,0-2.3,0-3.4c0.1-1.1-0.3-1.5-1.4-1.2c-2.4,0.6-4.8,1.2-7.1,2.1c-1.5,0.6-3,1.3-4.3,2.3
			c-1.8,1.5-2.5,4.1-1.6,6.3c0.7,1.8,2.5,2.9,4.9,2.8c2.6-0.1,4.8-1.2,7-2.6c1.8-1.1,2.9-2.5,2.5-4.7
			C304.2,216.8,304.3,216.3,304.3,215.7z"/>
		<path id="XMLID_54_" d="M334.7,146.9c-2.9,0-5.7,0-8.6,0c-0.7,0-1.3,0-1.3,1c0.1,3.2,0.9,6.1,3.1,8.6c2.5,2.8,9.1,3.6,12-0.4
			c0.5-0.7,1.1-1.4,1.6-2.1c0.5-0.8,0.9-0.8,1.7-0.4c1.9,1,1.9,1,0.6,2.8c-4,5.7-12.3,7.1-17.7,3c-1.9-1.5-3.2-3.4-3.8-5.7
			c-1.3-4.3-1.4-8.7-0.2-13c1.7-5.8,6-9.2,11.3-8.9c5.8,0.3,9.6,3.7,10.8,9.9c0.2,1.2,0.3,2.5,0.4,3.7c0.1,1.1-0.2,1.6-1.4,1.5
			C340.3,146.8,337.5,146.9,334.7,146.9z M333,144.1c2,0,4,0,6.1,0c2.2,0,2.2,0,1.7-2c-0.7-2.9-1.8-5.6-4.8-6.8
			c-5.2-2.2-11.5,2.4-11.1,8.1c0,0.8,0.5,0.8,1.1,0.8C328.3,144.1,330.6,144.1,333,144.1z"/>
		<path id="XMLID_51_" d="M168.8,212.8c-2.8,0-5.5,0.1-8.3,0c-1.3,0-1.6,0.4-1.5,1.6c0.2,1.6,0.4,3.1,1,4.6c1.2,3,3.2,5,6.4,5.5
			c3.3,0.5,6.2-0.4,8.2-3.3c0.4-0.5,0.8-1,1.1-1.6c0.4-0.6,0.7-0.8,1.4-0.4c2.1,1,2,1,0.8,3c-4.5,7.3-16.1,6.2-19.7,0.9
			c-1.7-2.5-2.4-5.2-2.7-8.1c-0.4-3.6-0.1-7.2,1.4-10.6c2-4.6,6.1-7.2,10.8-7c5.1,0.3,8.6,3,10.1,8.1c0.6,1.8,0.8,3.7,0.9,5.5
			c0.1,1.1-0.3,1.6-1.5,1.6C174.4,212.8,171.6,212.8,168.8,212.8z M167.2,210c2.3,0,4.6,0,7,0c0.8,0,1.2-0.2,1-1.1
			c-0.3-1.4-0.6-2.7-1.2-4c-1.2-2.4-2.9-4.1-5.7-4.4c-4.8-0.5-9.3,3.5-9.2,8.5c0,0.9,0.4,1,1.1,1C162.5,210,164.8,210,167.2,210z"/>
		<path id="XMLID_48_" d="M429.3,212.8c-2.8,0-5.6,0-8.5,0c-1.1,0-1.5,0.2-1.4,1.4c0.3,2.2,0.6,4.4,1.8,6.4c2.9,5,9.7,5.6,13.5,1.3
			c0.6-0.7,1.1-1.4,1.6-2.2c0.4-0.7,0.8-0.7,1.4-0.3c2.1,1,2.1,1,0.8,2.9c-4.5,6.3-14,7.2-19,1.8c-1.9-2.1-2.8-4.6-3.2-7.4
			c-0.5-3.7-0.5-7.3,0.7-10.9c1.8-5.3,6-8.4,11.1-8.2c5.4,0.2,9.1,3.3,10.5,8.9c0.4,1.6,0.6,3.3,0.7,5c0.1,1-0.3,1.3-1.3,1.3
			C435.1,212.8,432.2,212.8,429.3,212.8z M427.5,210c2.3,0,4.6,0,7,0c1,0,1.4-0.3,1.2-1.3c-0.3-1.6-0.7-3.2-1.6-4.6
			c-2.8-4.6-8.9-5-12.3-0.8c-1.3,1.6-1.9,3.4-2.3,5.4c-0.2,0.9,0.1,1.2,1,1.2C422.9,210,425.2,210,427.5,210z"/>
		<path id="XMLID_45_" d="M141.3,212.8c-2.9,0-5.7,0-8.6,0c-1.1,0-1.4,0.4-1.2,1.4c0.2,1.6,0.4,3.1,1,4.6c1.2,3.1,3.2,5.2,6.6,5.8
			c3.5,0.6,6.3-0.5,8.4-3.5c0.1-0.2,0.3-0.4,0.4-0.6c1.1-1.5,1.8-1.6,3.4-0.3c0.4,0.4,0.3,0.6,0.1,1c-2.3,3.7-5.3,6.3-9.9,6.3
			c-1.4,0-2.9,0.1-4.3-0.2c-3.7-0.8-6.3-2.9-7.6-6.4c-2.1-5.4-2.2-10.9,0.1-16.3c2.4-5.6,8.1-8.1,13.9-6.3c3,0.9,5,3,6.3,5.9
			c1.1,2.4,1.4,4.9,1.6,7.5c0.1,1-0.3,1.3-1.3,1.3C147.1,212.8,144.2,212.8,141.3,212.8z M139.6,210c2.3,0,4.5,0,6.8,0
			c1.1,0,1.5-0.3,1.2-1.4c-0.3-1.5-0.7-3-1.5-4.3c-2.5-4.5-8.6-5.2-12-1.3c-1.5,1.7-2.2,3.7-2.6,5.9c-0.2,0.8,0.1,1.2,1,1.2
			C134.9,210,137.2,210,139.6,210z"/>
		<path id="XMLID_42_" d="M631.9,146.7c-0.1,2.3-0.3,4.5-0.9,6.6c-1.7,5.9-6.2,8.9-12.3,8.3c-4.7-0.5-7.9-2.9-9.3-7.3
			c-1.8-5.4-1.8-10.9,0.5-16.2c1.9-4.5,5.6-6.3,10.2-6.3c4.6,0,8.1,1.8,10.2,6.1C631.5,140.7,631.8,143.7,631.9,146.7z M628.4,146.8
			c0-2.5-0.2-4.9-1.1-7.3c-1.3-3.2-3.6-4.8-7.1-4.8c-3.6,0-6.1,1.4-7.3,4.7c-1.8,4.9-1.8,9.9,0.1,14.8c1.2,3.2,3.7,4.6,7.1,4.6
			c3.5,0,5.9-1.6,7.2-4.7C628.2,151.7,628.3,149.2,628.4,146.8z"/>
		<path id="XMLID_39_" d="M583.4,227.5c-5.8,0-9.5-2.8-11-8.4c-1.2-4.3-1.2-8.7,0-13c2.1-7.5,10.4-10.8,17.1-6.8
			c2.9,1.7,4.4,4.5,5.1,7.7c0.9,4.1,0.9,8.1-0.2,12.2C593,224.6,589.2,227.5,583.4,227.5z M591.8,212.5c0-2.5-0.2-5.1-1.3-7.5
			c-1.3-2.9-3.6-4.3-6.8-4.4c-3.3-0.1-5.9,1.1-7.2,4.2c-2.1,5.2-2.1,10.6,0,15.8c1.2,2.8,3.6,4.1,6.6,4.2c3.1,0.1,5.6-1.1,7.1-4
			C591.6,218.2,591.8,215.4,591.8,212.5z"/>
		<path id="XMLID_36_" d="M555.6,212.7c0.1,2.4-0.2,4.8-1,7.1c-1.6,4.9-5.2,7.6-10.3,7.7c-5.9,0.1-9.6-2.3-11.3-7.5
			c-1.6-5-1.6-10,0.1-15c1.6-4.8,5.4-7.3,10.5-7.4c5.1-0.1,8.9,2.4,10.7,7.1C555.3,207.3,555.7,209.9,555.6,212.7z M552.2,212.6
			c-0.1-2.4-0.3-4.8-1.1-7c-1.3-3.4-3.7-5-7.3-5c-3.6,0-6.1,1.6-7.3,5c-1.6,4.7-1.6,9.5,0,14.3c1.1,3.3,3.7,4.9,7.2,4.9
			c3.6,0,5.9-1.6,7.2-4.8C552,217.5,552.1,215,552.2,212.6z"/>
		<path id="XMLID_33_" d="M558.5,146.8c0.1,2.9-0.3,5.8-1.5,8.5c-2,4.4-5.5,6.2-10.2,6.3c-4.7,0-8.4-1.8-10.2-6.2
			c-2.4-5.8-2.4-11.7,0-17.5c1.8-4.2,6-6.4,10.7-6.2c7.9,0.4,10.6,6.2,11.2,12.4C558.6,145,558.5,145.9,558.5,146.8z M555.2,146.6
			c-0.1-2.6-0.3-5.2-1.4-7.7c-1.4-3-3.9-4.3-7.2-4.3c-3.2,0-5.6,1.4-6.8,4.4c-2,5-2,10.2-0.1,15.2c1.2,3.2,3.7,4.6,7.3,4.6
			c3.5-0.1,5.8-1.7,7.1-4.9C554.9,151.6,555.1,149.2,555.2,146.6z"/>
		<path id="XMLID_32_" d="M320.1,202.4c1.1-0.9,1.8-1.6,2.6-2.2c2.9-2.4,6.3-3.1,9.9-2.2c3.3,0.7,5.5,3.5,5.6,7.5
			c0.2,6.8,0.1,13.7,0.1,20.5c0,1.6-1.2,1-1.9,1.1c-1,0.1-1.6-0.1-1.6-1.3c0.1-5.9,0-11.9,0-17.8c0-0.7-0.1-1.5-0.2-2.2
			c-0.4-4.3-3.4-5.9-7.7-4.8c-2.8,0.7-4.6,3-6.6,4.8c-0.4,0.4-0.2,1-0.2,1.6c0,6,0,12.1,0,18.1c0,1.4-0.5,1.7-1.7,1.7
			c-1.2,0-1.9-0.2-1.8-1.7c0.1-8.5,0-16.9,0-25.4c0-0.6-0.3-1.4,0.4-1.6c0.9-0.3,1.9-0.3,2.8,0c0.4,0.1,0.3,0.7,0.3,1.1
			C320.1,200.3,320.1,201.2,320.1,202.4z"/>
		<path id="XMLID_31_" d="M103.4,202.4c1-0.9,1.7-1.5,2.5-2.1c3-2.4,6.3-3.2,10-2.3c3.4,0.8,5.5,3.5,5.6,7.6
			c0.1,6.7,0.1,13.5,0.1,20.2c0,1.5-1.1,1.1-1.9,1.1c-0.9,0.1-1.6,0.1-1.6-1.2c0.1-5.9,0-11.9,0-17.8c0-0.7-0.1-1.5-0.2-2.2
			c-0.6-4.5-4.2-6.4-8.4-4.6c-2.3,1-4,2.9-5.9,4.5c-0.5,0.5-0.4,1.1-0.4,1.7c0,6-0.1,12.1,0,18.1c0,1.5-0.7,1.6-1.9,1.7
			c-1.3,0-1.7-0.4-1.7-1.7c0.1-8.5,0-16.9,0-25.4c0-0.6-0.3-1.4,0.4-1.6c0.9-0.3,1.9-0.3,2.8,0c0.4,0.2,0.3,0.7,0.3,1.1
			C103.5,200.4,103.4,201.2,103.4,202.4z"/>
		<path id="XMLID_30_" d="M33.3,202.4c1-0.9,1.8-1.5,2.6-2.2c2.9-2.3,6.2-3,9.8-2.2c3.4,0.8,5.6,3.4,5.7,7.7
			c0.2,6.8,0.1,13.6,0.1,20.3c0,1.6-1.3,0.8-2,1c-0.9,0.2-1.4-0.2-1.4-1.3c0-5.3,0-10.6,0-15.9c0-1.3-0.1-2.6-0.2-3.9
			c-0.4-4.3-3.2-6.3-7.4-5.2c-2.9,0.8-4.8,3-6.9,5c-0.4,0.4-0.2,0.9-0.2,1.4c0,6.1-0.1,12.2,0,18.3c0,1.6-0.7,1.6-1.9,1.6
			c-1.2,0-1.8-0.2-1.8-1.6c0.1-8.6,0.1-17.1,0-25.7c0-1.5,0.8-1.5,1.8-1.5c1.1,0,2,0,1.8,1.5C33.2,200.5,33.3,201.3,33.3,202.4z"/>
		<path id="XMLID_26_" d="M219.4,202.4c1-0.9,1.8-1.6,2.5-2.2c2.9-2.4,6.3-3.1,9.9-2.3c3.3,0.7,5.5,3.4,5.6,7.3
			c0.2,6.9,0.1,13.8,0.1,20.6c0,1.6-1.2,1-1.9,1.1c-0.8,0.1-1.5,0-1.5-1.2c0.1-5.8,0-11.6,0-17.4c0-0.9-0.1-1.9-0.2-2.8
			c-0.5-4.8-3.8-5.6-7.5-4.8c-2.9,0.7-4.8,3-6.9,5c-0.4,0.4-0.2,0.9-0.2,1.4c0,6.1,0,12.2,0,18.3c0,1.3-0.4,1.7-1.6,1.6
			c-1.1-0.1-2,0.1-2-1.5c0.1-8.6,0.1-17.1,0-25.7c0-1.6,0.8-1.5,1.9-1.6c1.3-0.1,1.8,0.3,1.7,1.7
			C219.3,200.6,219.4,201.3,219.4,202.4z"/>
		<path id="XMLID_25_" d="M497.7,156.8c-1.2,1-2.1,1.9-3.1,2.6c-2.8,2.2-6,2.6-9.4,1.9c-3.3-0.7-4.9-3-5.5-6.1
			c-0.2-0.8-0.3-1.7-0.3-2.5c0-6.4,0-12.8,0-19.2c0-1.5,1-1.2,1.8-1.2c0.9,0,1.7-0.1,1.7,1.3c-0.1,4.9,0,9.7,0,14.6
			c0,1.6,0,3.2,0.1,4.8c0.2,4.5,3,6.7,7.4,5.6c3-0.8,5-3.1,7.1-5.1c0.4-0.4,0.2-0.9,0.2-1.4c0-6,0.1-12.1,0-18.1
			c0-1.4,0.6-1.6,1.8-1.6c1.2,0,1.7,0.2,1.7,1.6c-0.1,8.5-0.1,17,0,25.6c0,1.3-0.4,1.7-1.7,1.7c-1.3,0-2-0.3-1.8-1.7
			C497.8,158.7,497.7,157.9,497.7,156.8z"/>
		<path id="XMLID_24_" d="M568.4,136.5c1.1-0.9,1.9-1.6,2.7-2.3c2.8-2.2,6-2.8,9.4-2.2c3.4,0.6,5.6,3.2,6,7c0.2,2.3,0.2,4.6,0.2,7
			c0,4.5-0.1,9,0,13.5c0,1.5-0.7,1.6-1.9,1.7c-1.3,0-1.7-0.4-1.7-1.7c0.1-5.6,0-11.3,0-16.9c0-0.8,0-1.7-0.1-2.5
			c-0.4-4.2-3.4-6.3-7.5-5.2c-2.9,0.8-4.8,3-6.9,5c-0.5,0.4-0.3,1-0.3,1.6c0,6-0.1,12.1,0,18.1c0,1.6-0.7,1.6-1.9,1.6
			c-1.3,0.1-1.7-0.4-1.7-1.7c0.1-8.5,0.1-17,0-25.5c0-1.4,0.6-1.6,1.8-1.6c1.2,0,1.9,0.1,1.8,1.6
			C568.3,134.6,568.4,135.4,568.4,136.5z"/>
		<path id="XMLID_23_" d="M507.4,202.6c0.9-0.9,1.6-1.5,2.3-2c2.9-2.5,6.3-3.3,10.1-2.6c3.3,0.7,5.5,3.3,5.7,7.2
			c0.4,6.9,0.1,13.8,0.2,20.6c0,1.6-1.1,1.2-2,1.2c-0.9,0.1-1.6,0.1-1.6-1.2c0.1-6,0-12,0-18c0-0.6,0-1.2-0.1-1.8
			c-0.5-4.7-4.2-6.8-8.6-4.9c-2.3,1-4,2.9-5.8,4.5c-0.5,0.4-0.3,1-0.3,1.5c0,6.1,0,12.2,0,18.3c0,1.3-0.4,1.6-1.6,1.6
			c-1.1-0.1-1.9,0-1.8-1.5c0.1-8.6,0.1-17.2,0-25.8c0-1.6,0.8-1.4,1.9-1.5c1.2-0.1,1.7,0.3,1.6,1.6
			C507.3,200.6,507.4,201.4,507.4,202.6z"/>
		<path id="XMLID_22_" d="M385.2,136.5c1.2-1,2.2-1.9,3.3-2.7c2.8-2,5.9-2.4,9.2-1.7c3.3,0.7,5.4,3.2,5.6,7c0.5,7,0.2,14,0.2,20.9
			c0,1.7-1.4,1-2.2,1.1c-0.9,0.1-1.4-0.1-1.4-1.2c0-6,0-12.1,0-18.1c0-0.7,0-1.4-0.1-2.1c-0.7-4.4-4-6.3-8.2-4.7
			c-2.5,1-4.3,2.9-6.2,4.7c-0.5,0.4-0.3,1-0.3,1.6c0,6,0,12.1,0,18.1c0,1.3-0.4,1.7-1.7,1.7c-1.3,0-1.8-0.2-1.8-1.7
			c0.1-8.5,0.1-17,0-25.5c0-1.4,0.6-1.6,1.8-1.6c1.2,0,1.9,0.2,1.7,1.6C385.2,134.7,385.2,135.5,385.2,136.5z"/>
		<path id="XMLID_21_" d="M405.8,208.7c0,5.5-0.1,11,0,16.5c0,1.5-0.4,2-1.9,1.9c-2-0.1-2,0-2-2c0-10.9,0-21.8,0-32.7
			c0-2.1,0-2.1-2.1-2.1c-2.8,0-5.6-0.1-8.5,0c-1.2,0-1.2-0.6-1.2-1.5c0-0.8-0.2-1.7,1.2-1.7c8.3,0,16.6,0,25,0
			c1.4,0,1.2,0.8,1.2,1.7c0,0.9,0,1.5-1.2,1.5c-3-0.1-6,0-9.1,0c-1.1,0-1.5,0.3-1.5,1.5C405.8,197.4,405.8,203,405.8,208.7z"/>
		<path id="XMLID_20_" d="M275.5,142.8c0,5.6-0.1,11.2,0,16.8c0,1.7-0.9,1.5-2,1.5c-1.1,0-2,0.2-2-1.5c0.1-11.2,0-22.4,0.1-33.6
			c0-1.3-0.3-1.8-1.7-1.8c-2.9,0.1-5.7,0-8.6,0.1c-1.3,0-1.4-0.6-1.4-1.6c0-0.9,0-1.6,1.3-1.6c8.2,0.1,16.4,0.1,24.6,0
			c1.2,0,1.3,0.6,1.3,1.5c0,1,0,1.7-1.4,1.6c-3-0.1-5.9,0-8.9-0.1c-1.1,0-1.4,0.3-1.4,1.4C275.6,131.4,275.5,137.1,275.5,142.8z"/>
		<path id="XMLID_19_" d="M419.9,161.6c-3.7,0-7.3-1.5-10-4.8c-0.4-0.6-1-1.1,0-1.6c0.8-0.4,1.4-1.9,2.5-0.3
			c2.3,3.2,5.5,4.3,9.4,3.8c2.5-0.3,4.5-2.2,4.9-4.3c0.4-2.2-0.5-3.9-2.6-5c-1.9-1.1-4.1-1.4-6.2-2.1c-0.9-0.3-1.7-0.5-2.5-0.8
			c-4.2-1.5-5.6-3.7-5.4-7.8c0.2-3.3,2.6-5.9,6.4-6.6c4.5-0.8,8.7-0.1,11.8,3.8c0.5,0.6,1.1,1.2,0,1.8c-0.8,0.4-1.4,1.9-2.6,0.4
			c-2.2-2.9-5.1-3.9-8.7-3.1c-2.1,0.5-3.3,2-3.5,4.1c-0.2,1.8,0.7,3,2.7,4c1.6,0.8,3.4,1.2,5.1,1.7c1.7,0.5,3.4,1,5,1.9
			c2.6,1.4,4,3.6,4.1,6.6c0.1,3-1.2,5.3-3.7,6.8C424.7,161.1,422.5,161.6,419.9,161.6z"/>
		<path id="XMLID_18_" d="M446.9,212.6c-0.1,2.3,0.2,4.7,1.3,7c2.6,5.9,9.8,6.9,14,2.1c0.4-0.5,0.8-1,1.2-1.5
			c0.9-1.2,2.3-1.3,3.3-0.2c0.4,0.4,0,0.7-0.1,1c-2.6,4.7-7.3,7.1-12.8,6.4c-4.6-0.5-8.2-3.9-9.6-8.9c-1.2-4.4-1.1-8.8,0.4-13.1
			c3.2-9.2,15.1-9.6,19.5-4c0.5,0.7,1,1.4,1.4,2.1c1.1,2,0.7,2.7-1.7,2.8c-0.4,0-0.7-0.1-0.9-0.4c-0.1-0.2-0.2-0.4-0.4-0.7
			c-2.2-3.9-4.6-5.1-8.6-4.5c-3.3,0.5-5.8,3.1-6.6,7C447,209.2,446.9,210.8,446.9,212.6z"/>
		<path id="XMLID_17_" d="M510.3,146.8c0-3.4,0-6.8,0-10.3c0-1-0.3-1.5-1.4-1.4c-0.4,0-0.9,0-1.3,0c-1.1,0.1-1.6-0.2-1.6-1.4
			c0-1.3,0.7-1.4,1.7-1.4c2.6,0,2.6,0,2.6-2.7c0-1.8,0-3.6,0-5.3c0-0.8,0.2-1.2,1.1-1.3c2.4-0.1,2.4-0.1,2.4,2.3c0,1.9,0,3.9,0,5.8
			c0,1,0.3,1.3,1.3,1.3c1.3,0,2.6,0,3.9,0c1.2,0,1.1,0.7,1.1,1.5c0,0.8-0.1,1.4-1.1,1.3c-1.3,0-2.6,0-3.9,0c-0.8,0-1.3,0.2-1.3,1.2
			c0,6.6,0,13.3,0,19.9c0,1.7,0.9,2.5,2.6,2.5c0.6,0,1.3-0.1,1.9-0.1c0.6,0,1.4-0.8,1.6,0.4c0.1,1,0.4,2.1-1.2,2.3
			c-1.6,0.2-3.1,0.3-4.7,0c-2.5-0.4-3.7-1.9-3.8-4.5C510.3,153.5,510.3,150.1,510.3,146.8z"/>
		<path id="XMLID_16_" d="M437,147.1c0-3.9,0-7.2,0-10.4c0-1.3-0.4-1.7-1.6-1.6c-0.3,0-0.7,0-1,0c-1,0.1-1.6-0.1-1.6-1.4
			c0-1.3,0.6-1.4,1.7-1.4c2.8,0,2.6,0.4,2.6-2.6c0-1.8,0-3.7,0-5.5c0-1.8,1.2-1.1,2.1-1.2c0.8-0.1,1.5-0.1,1.5,1.2
			c-0.1,2.2,0,4.5-0.1,6.7c-0.1,1.2,0.4,1.5,1.5,1.5c1.2-0.1,2.4,0,3.6,0c1.2-0.1,1.1,0.7,1.2,1.5c0,0.9-0.2,1.4-1.2,1.3
			c-1.2-0.1-2.5,0-3.7,0c-0.9,0-1.3,0.2-1.3,1.2c0,6.5,0,13.1,0,19.6c0,1.9,0.9,2.7,2.7,2.7c0.7,0,1.5-0.2,2.2-0.2
			c0.5,0,1.2-0.6,1.2,0.3c0,0.8,0.7,1.9-0.6,2.3c-2.3,0.7-4.6,0.7-6.8-0.2c-1.4-0.6-2.1-1.8-2.2-3.3
			C436.8,153.9,437.1,150.2,437,147.1z"/>
		<path id="XMLID_15_" d="M464.5,146.8c0-3.4,0-6.7,0-10.1c0-1.1-0.3-1.7-1.5-1.5c-0.4,0.1-0.9,0-1.3,0c-1.1,0.1-1.6-0.3-1.6-1.5
			c0-1.2,0.6-1.4,1.6-1.4c2.8,0,2.8,0,2.8-2.8c0-1.8,0-3.6,0-5.3c0-0.8,0.2-1.1,1.1-1.2c2.4-0.1,2.4-0.1,2.4,2.3c0,1.9,0,3.9,0,5.8
			c0,0.9,0.3,1.4,1.3,1.3c1.3-0.1,2.7,0,4,0c1,0,1.1,0.5,1.1,1.3c0,0.8,0.1,1.5-1.1,1.5c-1.3,0-2.7,0-4,0c-0.9,0-1.3,0.3-1.3,1.3
			c0,6.3,0,12.6,0,18.9c0,3.1,1.3,3.9,4.6,3.3c0.6-0.1,1.5-0.9,1.7,0.4c0.3,1.6,0,2.1-1.4,2.3c-1.4,0.2-2.8,0.3-4.3,0.1
			c-2.7-0.4-4-1.8-4.1-4.6C464.5,153.5,464.5,150.2,464.5,146.8z"/>
		<path id="XMLID_14_" d="M371.6,141.2c0,6.1-0.1,12.3,0,18.4c0,1.6-0.8,1.5-1.9,1.6c-1.1,0-1.9,0-1.9-1.6c0.1-12.3,0.1-24.5,0-36.8
			c0-1.7,0.9-1.5,1.9-1.5c1.1,0,1.9-0.1,1.9,1.6C371.6,128.9,371.6,135,371.6,141.2z"/>
		<path id="XMLID_13_" d="M188.7,202.8c2-2.9,4.5-4.9,8-5.1c0.6,0,1.5-0.3,1.8,0.3c0.4,0.8,0.2,1.8,0,2.6c-0.1,0.5-0.6,0.4-1,0.4
			c-4.8,0-8.6,5-8.6,8.7c-0.1,5.1-0.1,10.3-0.1,15.5c0,1.6-1.7,2.5-3.1,1.7c-0.4-0.2-0.4-0.7-0.4-1c0-8.8,0-17.6,0-26.5
			c0-1.4,0.9-1.2,1.7-1.2c0.8,0,1.9-0.3,1.8,1.2C188.6,200.5,188.7,201.7,188.7,202.8z"/>
		<path id="XMLID_12_" d="M565.4,207.2c0,6.1,0,12.2,0,18.2c0,1.4-0.5,1.6-1.7,1.6c-1.2,0-1.8-0.2-1.8-1.6c0.1-12.3,0.1-24.5,0-36.8
			c0-1.5,0.7-1.5,1.8-1.5c1.1,0,1.7,0.1,1.7,1.5C565.3,194.8,565.4,201,565.4,207.2z"/>
		<path id="XMLID_11_" d="M91.2,212.7c0,4.3-0.1,8.5,0,12.8c0,1.4-0.6,1.6-1.8,1.6c-1.1,0-1.8-0.1-1.8-1.6c0.1-8.6,0.1-17.1,0-25.7
			c0-1.4,0.6-1.6,1.8-1.6c1.2,0,1.8,0.1,1.8,1.6C91.1,204.1,91.2,208.4,91.2,212.7z"/>
		<path id="XMLID_10_" d="M207.2,212.5c0,4.4-0.1,8.7,0,13.1c0,1.4-0.7,1.5-1.8,1.5c-1,0-1.8,0.1-1.8-1.4c0.1-8.7,0.1-17.3,0-26
			c0-1.6,0.9-1.4,1.9-1.4c1.2-0.1,1.7,0.2,1.7,1.5C207.1,204,207.2,208.3,207.2,212.5z"/>
		<path id="XMLID_9_" d="M525.2,146.6c0-4.2,0.1-8.4,0-12.6c0-1.5,0.5-1.7,1.8-1.7c1.4,0,1.8,0.4,1.8,1.8c-0.1,8.5-0.1,16.9,0,25.4
			c0,1.4-0.5,1.7-1.8,1.7c-1.4,0-1.8-0.4-1.7-1.8C525.2,155.1,525.2,150.9,525.2,146.6z"/>
		<path id="XMLID_8_" d="M455.4,146.8c0,4.3-0.1,8.6,0,12.9c0,1.4-0.7,1.4-1.6,1.4c-0.9,0-1.8,0.2-1.8-1.3c0.1-8.7,0.1-17.4,0-26.1
			c0-1.4,0.8-1.3,1.7-1.3c0.9,0,1.8-0.2,1.7,1.3C455.3,138,455.4,142.4,455.4,146.8z"/>
		<path id="XMLID_7_" d="M525.2,123.6c0-0.1,0-0.2,0-0.3c0-2,1-2.9,2.9-2c1.5,0.7,0.4,2.5,0.6,3.7c0.1,0.6-0.1,1.1-0.9,1.2
			C525.4,126.5,525.2,126.3,525.2,123.6z"/>
		<path id="XMLID_6_" d="M207.2,189.6c0,0.1,0,0.2,0,0.3c0,2.1-0.9,2.9-2.8,2.1c-1.6-0.7-0.4-2.5-0.7-3.7c-0.1-0.6,0.1-1.1,0.9-1.2
			C207.1,186.9,207.2,187,207.2,189.6z"/>
		<path id="XMLID_5_" d="M87.7,189.6c0-0.1,0-0.3,0-0.4c0-1.8,1.5-2.7,3.1-1.9c0.3,0.2,0.4,0.4,0.4,0.7c0,1.1,0,2.3,0,3.4
			c0,0.5-0.3,0.7-0.8,0.8C87.9,192.4,87.7,192.2,87.7,189.6z"/>
		<path id="XMLID_4_" d="M452,123.6c0-0.1,0-0.2,0-0.3c0-2,1.2-3,2.9-2c1.4,0.8,0.3,2.6,0.5,3.9c0.1,0.7-0.3,0.9-0.9,1
			C452.1,126.5,452,126.4,452,123.6z"/>
	</g>
</g>
</svg>
