<?xml version="1.0" encoding="utf-8"?>
<!-- Generator: Adobe Illustrator 19.0.0, SVG Export Plug-In . SVG Version: 6.00 Build 0)  -->
<svg version="1.1" xmlns="http://www.w3.org/2000/svg" xmlns:xlink="http://www.w3.org/1999/xlink" x="0px" y="0px"
	 viewBox="0 0 257.7 64.2" style="enable-background:new 0 0 257.7 64.2;" xml:space="preserve">
<style type="text/css">
	.st0{fill:#B32317;}
</style>
<g id="Layer_2">
</g>
<g id="Layer_1">
	<path class="st0" d="M55.1,29.8h-5.3v0.8h0.4c0.5,0,0.8,0,1.2,0.4c0.4,0.3,0.4,0.7,0.4,1.1v6.8c0,1.2-0.5,2.3-1.3,3.1
		c-0.8,0.8-1.9,1.2-3.2,1.2c-3,0-4-2.1-4-3.9v-7.8c0-0.2,0-0.4,0.1-0.5c0.2-0.2,0.4-0.3,0.8-0.3l0.9,0v-0.8h-6.1v0.8l0.8,0
		c0.4,0,0.8,0.1,1,0.3c0.1,0.1,0.1,0.3,0.1,0.5v7.9c0,1.4,0.5,2.5,1.4,3.4c1.1,1.1,2.8,1.7,4.9,1.7c3.4,0,6-2.4,6-5.6v-6.8
		c0-0.3,0.1-0.8,0.4-1.1c0.3-0.3,0.7-0.4,1.3-0.4h0.4v-0.8H55.1z"/>
	<path class="st0" d="M73.8,29.8h-5.5v0.8h0.7c0.7,0,1.2,0.2,1.6,0.7c0.2,0.3,0.2,0.6,0.2,0.9v8.5c-0.3-0.4-9.9-10.8-9.9-10.8h-4.2
		v0.8h0.1c0.6,0,1,0.1,1.5,0.4c0.5,0.3,0.7,0.5,1,0.9v9.9c0,0.5,0,0.8-0.3,1.1c-0.3,0.4-0.7,0.6-1.3,0.6h-0.4v0.7h5.6v-0.7h-0.5
		c-0.6,0-1.3-0.2-1.7-0.8c-0.2-0.3-0.2-0.5-0.2-0.9v-9.2C60.7,33,71,44.2,71,44.2h0.9v-12c0-0.5,0-0.8,0.3-1.1
		c0.3-0.4,0.7-0.5,1.3-0.5h0.4v-0.8H73.8z"/>
	<path class="st0" d="M81.9,29.8h-6v0.8l0.8,0c0.4,0,0.8,0.1,1,0.3c0.1,0.1,0.1,0.3,0.1,0.5v11.1c0,0.3,0,0.4-0.2,0.6
		c-0.2,0.2-0.4,0.3-0.7,0.3l-0.1,0c0,0-0.9,0.1-0.9,0.1v0.7H82v-0.7l-0.5-0.1c0,0-0.4,0-0.4,0c-0.3,0-0.5-0.1-0.7-0.2
		c-0.2-0.2-0.3-0.3-0.3-0.6V31.5c0-0.2,0-0.4,0.1-0.5c0.2-0.2,0.4-0.3,0.8-0.3l0.9,0v-0.8H81.9z"/>
	<path class="st0" d="M99.4,29.8h-4.9v0.8H95c0.4,0,0.6,0,0.9,0.2c0.3,0.2,0.4,0.5,0.4,0.8c0,0.1,0,0.3-0.1,0.4c0,0-3.6,8-4.2,9.4
		c-0.2-0.5-3.5-9.5-3.5-9.5c0-0.1-0.1-0.3-0.1-0.4c0-0.2,0.1-0.5,0.4-0.7c0.2-0.2,0.4-0.2,0.8-0.2l0.5,0v-0.8h-6.2v0.8l0.3,0
		c0.3,0,0.6,0.1,0.8,0.2c0.4,0.2,0.7,0.6,0.9,1l4.9,12.4H92l5.4-12c0.3-0.7,0.5-1.2,1-1.5c0.2-0.1,0.4-0.2,0.7-0.2c0,0,0.4,0,0.4,0
		v-0.8H99.4z"/>
	<path class="st0" d="M111.4,29.8h-10.2v0.8l0.8,0c0.4,0,0.8,0.1,1,0.3c0.1,0.2,0.2,0.3,0.2,0.5v10.8c0,0.4,0,0.6-0.2,0.8
		c-0.2,0.2-0.5,0.3-0.9,0.3c0,0-0.8,0.1-0.8,0.1v0.7h11.2l0.7-3.8l-0.7,0l-0.4,0.9c0,0.1-0.4,1.2-1.2,1.6c-0.5,0.3-0.9,0.4-1.5,0.4
		h-2c-0.6,0-1-0.1-1.3-0.3c-0.5-0.3-0.5-0.8-0.5-1.3v-0.3v-4.3h1.8c0.5,0,1.1,0.1,1.5,0.4c0.3,0.3,0.4,0.5,0.5,1l0,0.5h0.8v-4.5
		h-0.8l-0.1,0.4c-0.1,0.4-0.1,0.7-0.5,1c-0.3,0.2-0.7,0.3-1.4,0.3c0,0-1.7,0-1.9,0v-5.6h3c0.5,0,0.9,0.1,1.4,0.4
		c0.4,0.3,0.5,0.7,0.6,1.2l0,0.1c0,0,0.2,0.8,0.2,0.8l0,0.1h0.8v-3.5H111.4z"/>
	<path class="st0" d="M115,29.8h-0.1v0.8l0.8,0c0.4,0,0.8,0.1,1,0.3c0.1,0.2,0.2,0.3,0.2,0.5v11.1c0,0.2,0,0.4-0.2,0.6
		c-0.2,0.2-0.4,0.3-0.8,0.3l-0.1,0c0,0-0.8,0.1-0.8,0.1v0.7h6.1v-0.7l-0.5,0c-0.5,0-0.8-0.1-1.1-0.3c-0.2-0.1-0.3-0.3-0.3-0.6v-4.6
		h1.9c0.1,0.1,3.6,5.7,3.6,5.7c0.2,0.3,0.5,0.5,0.9,0.6c0,0,0.6,0.1,0.6,0.1h2.1v-0.4l-0.1,0c-0.3-0.2-0.5-0.3-0.8-0.6
		c-0.5-0.4-0.8-0.8-1.2-1.3c0,0-2.7-3.7-3.2-4.3c0.1,0,0.2-0.1,0.2-0.1c0.6-0.2,0.8-0.4,1.2-0.7c1-0.8,1.6-1.9,1.6-3
		c0-0.1,0-0.2,0-0.3c0-0.9-0.4-1.8-1-2.5c-1.1-1.1-2.9-1.1-4.3-1.1H115z M120.9,30.7c0.8,0,1.4,0.1,1.9,0.7c0.5,0.5,0.8,1.5,0.8,2.5
		c0,0.2,0,0.4,0,0.6c-0.1,1-0.5,1.8-1.1,2.2c-0.7,0.4-1.3,0.5-2.2,0.5h-1v-6.4H120.9z"/>
	<path class="st0" d="M135.5,29.6c-2.1,0-4.7,0.8-5.1,3c-0.4,1.9,0.8,3,2.2,3.9l2.6,1.8c1.3,0.9,1.9,1.7,1.9,2.8
		c0.1,1.4-1,2.4-2.7,2.6c-1.7,0.1-3.2-1.1-3.5-2.7c0,0-0.1-0.5-0.1-0.5h-0.8v3.3l0.1,0c1.1,0.6,3.8,0.7,4.5,0.7c2.5-0.1,5-1.5,5-3.9
		c0-0.1,0-0.1,0-0.2c-0.1-1.4-0.7-2.4-2-3.3l-4-2.9c-0.6-0.4-0.9-1-0.9-1.6c0-0.2,0-0.4,0.1-0.5c0.3-0.9,1.2-1.5,2.3-1.6
		c1.3,0,2.4,0.8,2.6,1.9l0.1,0.6l0,0.1h0.8l0-3l-0.1,0C137.2,29.6,135.9,29.6,135.5,29.6"/>
	<path class="st0" d="M147.9,29.8h-6v0.8l0.8,0c0.4,0,0.8,0.1,1,0.3c0.1,0.1,0.1,0.3,0.1,0.5v11.1c0,0.3,0,0.4-0.2,0.6
		c-0.2,0.2-0.4,0.3-0.7,0.3l-0.1,0c0,0-0.8,0.1-0.8,0.1v0.7h6.1v-0.7l-0.5-0.1l-0.4,0c-0.3,0-0.5-0.1-0.7-0.2
		c-0.2-0.2-0.3-0.3-0.3-0.6V31.5c0-0.2,0-0.4,0.1-0.5c0.2-0.2,0.5-0.3,0.8-0.3l0.9,0v-0.8H147.9z"/>
	<path class="st0" d="M162.9,29.8h-12.3l-0.6,3.3h0.7l0.4-0.6l0.2-0.4c0.2-0.4,0.4-0.7,0.8-1c0.6-0.3,1-0.4,1.7-0.4h1.9v11.8
		c0,0.2-0.1,0.5-0.2,0.6c-0.2,0.2-0.5,0.3-0.9,0.3l-0.8,0.1v0.7h6.1v-0.7l-0.5,0c-0.4,0-0.8-0.1-1.1-0.3c-0.2-0.2-0.4-0.4-0.4-0.6
		V30.7h1.9c0.7,0,1.1,0,1.6,0.3c0.4,0.3,0.6,0.6,0.9,1l0.2,0.3l0.4,0.7h0.7L162.9,29.8L162.9,29.8z"/>
	<path class="st0" d="M179.2,29.8h-4.6v0.8h0.6c0.4,0,0.7,0.1,0.9,0.4c0.1,0.1,0.1,0.2,0.1,0.4c0,0.2-0.1,0.4-0.2,0.7
		c0,0-2.6,4.3-3.1,5.2c-0.2-0.3-2.8-5.4-2.8-5.4c-0.1-0.2-0.2-0.4-0.2-0.6c0-0.1,0-0.3,0.1-0.4c0.1-0.2,0.3-0.3,0.8-0.3h0.6v-0.8
		h-5.8v0.8h0.4c0.3,0,0.7,0.2,0.9,0.3c0,0,0.5,0.4,0.8,0.8c0,0,3.6,6.4,3.7,6.7v3.9c0,0.4-0.1,0.6-0.3,0.8c-0.3,0.3-0.6,0.4-1.1,0.4
		h-0.5v0.7h6.1v-0.7l-0.9-0.1c-0.4,0-0.6-0.1-0.8-0.3c-0.1-0.1-0.2-0.3-0.2-0.7V39c0-0.2,0-0.4,0.1-0.7c0.1-0.3,0.2-0.4,0.3-0.6
		c0,0,3.6-6.1,3.6-6.1c0.2-0.3,0.4-0.6,0.7-0.8c0.2-0.1,0.4-0.2,0.7-0.2h0.3v-0.8H179.2z"/>
	<path class="st0" d="M187.5,37.3c0,4.5,4,7.2,7.9,7.2c4.3,0,8.2-3.6,8.2-7.7c0-4.3-3.3-7.2-8-7.2C191.7,29.6,187.5,32.8,187.5,37.3
		 M190.2,37c0-4,1.9-6.6,5.1-6.6c3.6,0,5.5,3.3,5.5,6.3c0,3.1-0.9,6.8-5.3,6.8C192.4,43.6,190.2,40.1,190.2,37"/>
	<path class="st0" d="M215.5,29.8h-10.2v0.8l0.7,0c0.5,0,0.8,0.1,1,0.3c0.1,0.1,0.1,0.3,0.1,0.5v11.1c0,0.3,0,0.4-0.2,0.6
		c-0.2,0.2-0.5,0.3-0.8,0.3l-0.1,0c0,0-0.8,0.1-0.8,0.1v0.7h6.1v-0.7l-0.5-0.1c0,0-0.4,0-0.4,0c-0.3,0-0.5-0.1-0.7-0.2
		c-0.2-0.2-0.3-0.4-0.3-0.6v-5h2.1c0.3,0,1.1,0,1.5,0.4c0.3,0.3,0.4,0.6,0.5,1l0.1,0.5h0.8v-4.5h-0.8l-0.1,0.4
		c0,0.5-0.1,0.7-0.5,1.1c-0.1,0.1-0.5,0.3-1.4,0.3h-2.2v-6h3c0.6,0,1,0.1,1.4,0.5c0.4,0.4,0.5,0.7,0.7,1.3c0,0,0.3,0.9,0.3,0.9h0.7
		v-3.5H215.5z"/>
	<path class="st0" d="M41.2,52c-1.4,1.4-2.1,3.2-2,5c0.1,2.8,1.1,4.6,3.6,6.1c1.4,0.9,5.4,1.7,8.7,0.6l1.7-0.5v-4.5
		c0-0.3,0-0.5,0.2-0.7c0.2-0.2,0.4-0.2,0.7-0.3l0.1,0l0.8-0.1v-0.7h-6.6v0.7l0.7,0c0,0,0.3,0,0.3,0c0.5,0,0.9,0.1,1.2,0.3
		c0.2,0.3,0.2,0.5,0.2,0.8l0,0.2v1.5c0,0.9-0.1,1.5-0.3,1.8c-0.4,0.6-1.2,0.9-2.5,0.8c-3.9-0.1-5.8-2.2-6-6.8
		c-0.1-1.9,0.5-3.6,1.6-4.7c1.1-1.1,2.7-1.6,4.6-1.5c2.3,0.1,3.8,1,4.1,2.6l0.2,0.8h0.8v-2.6c0-0.2,0-0.4-0.2-0.6
		c-0.1-0.2-0.3-0.3-0.5-0.3c0,0-0.5-0.2-0.5-0.2c-1.6-0.5-3.3-0.6-4.2-0.6C45.2,49.3,42.8,50.3,41.2,52"/>
	<path class="st0" d="M62.8,49.5h-6v0.8l0.8,0c0.4,0,0.8,0.1,1,0.3c0.1,0.1,0.1,0.3,0.1,0.5v10.5c0,0.6-0.1,1-0.2,1.1
		C58.3,63,58,63,57.6,63.1c0,0-0.8,0.1-0.8,0.1v0.7h11.1l0.7-3.8l-0.7,0l-0.4,1c-0.4,0.8-0.8,1.3-1.2,1.6c-0.6,0.4-1.1,0.4-1.9,0.4
		h-1.5c-0.6,0-1-0.1-1.3-0.4c-0.3-0.2-0.3-0.5-0.3-1.1V51.2c0-0.2,0-0.4,0.1-0.5c0.2-0.2,0.4-0.3,0.8-0.3l0.9,0v-0.8H62.8z"/>
	<path class="st0" d="M70.7,57c0,4.5,4,7.2,7.9,7.2c4.3,0,8.2-3.6,8.2-7.7c0-4.3-3.3-7.2-8-7.2C75,49.3,70.7,52.5,70.7,57
		 M73.5,56.7c0-4,1.9-6.6,5.1-6.6c3.6,0,5.5,3.3,5.5,6.3c0,3.1-0.9,6.8-5.3,6.8C75.7,63.3,73.5,59.8,73.5,56.7"/>
	<path class="st0" d="M104.8,49.5h-5.3v0.8h0.4c0.5,0,0.8,0,1.2,0.4c0.4,0.3,0.5,0.7,0.5,1.1v6.8c0,1.2-0.5,2.3-1.3,3.1
		c-0.8,0.8-1.9,1.2-3.2,1.2c-3,0-4-2.1-4-3.9v-7.8c0-0.2,0-0.4,0.1-0.5c0.2-0.2,0.4-0.3,0.8-0.3l0.9,0v-0.8h-6.1v0.8l0.8,0
		c0.4,0,0.8,0.1,1,0.3c0.1,0.1,0.1,0.3,0.1,0.5V59c0,1.4,0.5,2.5,1.4,3.4c1.1,1.1,2.8,1.7,4.9,1.7c3.4,0,6-2.4,6-5.6v-6.8
		c0-0.2,0.1-0.8,0.4-1.1c0.3-0.3,0.7-0.4,1.3-0.4h0.4v-0.8H104.8z"/>
	<path class="st0" d="M106.9,57c0,4.4,3.3,7.1,8.6,7.1c1.4,0,3.4-0.2,5-0.9l0,0l0.8-3.1h-0.8l-0.3,0.6c-0.3,0.7-0.6,1-1.1,1.4
		c-1,0.8-2,1.1-3.4,1.1c-3.9,0-6.2-2.3-6.2-6.2c0-2.1,0.6-6.8,5.8-6.8c2.3,0,3.9,1,4.3,2.6l0.2,0.8h0.8v-3.2l0,0
		c-1.6-1-4.1-1.1-5.1-1.1C110.6,49.3,106.9,52.7,106.9,57"/>
	<path class="st0" d="M133.2,49.5H123v0.8l0.8,0c0.4,0,0.8,0.1,1,0.3c0.1,0.2,0.2,0.3,0.2,0.5v10.8c0,0.4,0,0.6-0.2,0.8
		c-0.2,0.2-0.5,0.3-0.9,0.3c0,0-0.8,0.1-0.8,0.1v0.7h11.2l0.7-3.8l-0.7,0l-0.4,0.9c0,0.1-0.4,1.2-1.2,1.6c-0.5,0.3-0.9,0.4-1.5,0.4
		h-2c-0.6,0-1-0.1-1.3-0.3c-0.5-0.3-0.5-0.8-0.5-1.3c0,0,0-0.3,0-0.3v-4.3h1.8c0.5,0,1.1,0.1,1.5,0.4c0.3,0.3,0.4,0.5,0.5,1l0,0.5
		h0.8v-4.5h-0.8l-0.1,0.4c-0.1,0.4-0.1,0.7-0.5,1c-0.3,0.2-0.7,0.3-1.4,0.3h-1.9v-5.6h3c0.5,0,0.9,0.1,1.4,0.4
		c0.4,0.3,0.5,0.7,0.6,1.2l0,0.1c0,0,0.2,0.8,0.2,0.8l0,0.1h0.8v-3.5H133.2z"/>
	<path class="st0" d="M142.2,49.3c-2.1,0-4.7,0.8-5.1,3c-0.4,1.9,0.8,3,2.2,3.9l2.6,1.8c1.3,0.9,1.9,1.7,1.9,2.8
		c0.1,1.4-1,2.4-2.7,2.6c-1.7,0.1-3.2-1.1-3.5-2.7c0,0-0.1-0.5-0.1-0.5h-0.8v3.3l0.1,0c1.1,0.6,3.8,0.7,4.5,0.7c2.5-0.1,5-1.5,5-3.9
		c0-0.1,0-0.1,0-0.2c-0.1-1.4-0.7-2.4-2-3.3l-4-2.9c-0.6-0.4-0.9-1-0.9-1.6c0-0.2,0-0.4,0.1-0.5c0.3-0.9,1.2-1.5,2.3-1.6
		c1.3,0,2.4,0.8,2.6,1.9c0,0,0.1,0.6,0.1,0.6l0,0.1h0.8l0-3l-0.1,0C143.9,49.3,142.6,49.3,142.2,49.3"/>
	<path class="st0" d="M161.3,49.5h-12.3l-0.6,3.3h0.7l0.4-0.6l0.2-0.4c0.2-0.4,0.4-0.7,0.8-1c0.6-0.3,1-0.4,1.7-0.4h1.9v11.8
		c0,0.2-0.1,0.5-0.2,0.6c-0.2,0.2-0.5,0.3-0.9,0.3l-0.8,0.1v0.7h6.1v-0.7l-0.5,0c-0.4,0-0.8-0.1-1.1-0.3c-0.2-0.2-0.4-0.3-0.4-0.6
		V50.4h1.9c0.7,0,1.1,0,1.6,0.3c0.4,0.3,0.6,0.6,0.9,1l0.2,0.3l0.4,0.7h0.7L161.3,49.5L161.3,49.5z"/>
	<path class="st0" d="M174,49.5h-10.2v0.8l0.8,0c0.4,0,0.8,0.1,1,0.3c0.1,0.2,0.2,0.3,0.2,0.5v10.8c0,0.4,0,0.6-0.2,0.8
		c-0.2,0.2-0.5,0.3-0.9,0.3c0,0-0.8,0.1-0.8,0.1v0.7H175l0.7-3.8l-0.7,0l-0.4,0.9c0,0.1-0.4,1.2-1.2,1.6c-0.5,0.3-0.9,0.4-1.5,0.4
		h-2c-0.6,0-1-0.1-1.3-0.3c-0.5-0.3-0.5-0.8-0.5-1.3v-0.3v-4.3h1.8c0.5,0,1.1,0.1,1.5,0.4c0.3,0.3,0.4,0.5,0.5,1l0,0.5h0.8v-4.5H172
		l-0.1,0.4c-0.1,0.4-0.1,0.7-0.5,1c-0.3,0.2-0.7,0.3-1.4,0.3h-1.9v-5.6h3c0.5,0,0.9,0.1,1.4,0.4c0.4,0.3,0.5,0.7,0.6,1.2l0,0.1
		c0,0,0.2,0.8,0.2,0.8l0,0.1h0.8v-3.5H174z"/>
	<path class="st0" d="M177.6,49.5h-0.1v0.8l0.8,0c0.4,0,0.8,0.1,1,0.3c0.1,0.2,0.2,0.3,0.2,0.5v11.1c0,0.2,0,0.4-0.2,0.6
		c-0.2,0.2-0.4,0.3-0.8,0.3l-0.1,0c0,0-0.8,0.1-0.8,0.1v0.7h6.1v-0.7l-0.5,0c-0.5,0-0.8-0.1-1.1-0.3c-0.2-0.1-0.2-0.3-0.2-0.6v-4.6
		h1.9c0.1,0.1,3.6,5.7,3.6,5.7c0.2,0.3,0.5,0.5,0.9,0.6c0,0,0.6,0.1,0.6,0.1h2.1v-0.4l-0.1,0c-0.3-0.2-0.5-0.3-0.8-0.6
		c-0.5-0.4-0.8-0.8-1.2-1.3c0,0-2.7-3.7-3.2-4.3c0.1,0,0.1-0.1,0.1-0.1c0.6-0.2,0.8-0.4,1.2-0.7c1-0.8,1.6-1.9,1.6-3
		c0-0.1,0-0.2,0-0.3c0-0.9-0.4-1.8-1-2.5c-1.1-1.1-2.9-1.1-4.3-1.1H177.6z M183.5,50.4c0.8,0,1.4,0.1,1.9,0.7
		c0.5,0.5,0.8,1.5,0.8,2.5c0,0.2,0,0.4,0,0.6c-0.1,1-0.5,1.8-1.1,2.2c-0.7,0.4-1.3,0.5-2.2,0.5h-1v-6.4H183.5z"/>
	<path class="st0" d="M198.1,49.3c-2.1,0-4.7,0.8-5.1,3c-0.4,1.9,0.8,3,2.2,3.9l2.6,1.8c1.3,0.9,1.9,1.7,1.9,2.8
		c0.1,1.4-1,2.5-2.7,2.6c-1.7,0.1-3.2-1.1-3.5-2.7c0,0-0.1-0.5-0.1-0.5h-0.8v3.3l0.1,0c1.1,0.6,3.8,0.7,4.5,0.7c2.5-0.1,5-1.5,5-3.9
		c0-0.1,0-0.1,0-0.2c-0.1-1.4-0.7-2.4-2-3.3l-4-2.9c-0.6-0.4-0.9-1-0.9-1.6c0-0.2,0-0.4,0.1-0.5c0.3-0.9,1.1-1.5,2.3-1.6
		c1.3,0,2.4,0.8,2.6,1.9c0,0,0.1,0.6,0.1,0.6l0,0.1h0.8l0-3l-0.1,0C199.9,49.3,198.5,49.3,198.1,49.3"/>
	<path class="st0" d="M220.4,49.5h-6.1v0.8l1,0c0.4,0,0.6,0.1,0.8,0.3c0.1,0.2,0.1,0.3,0.1,0.5v4.3h-7.7v-4.3c0-0.2,0-0.4,0.1-0.5
		c0.2-0.3,0.4-0.3,0.8-0.3l1,0v-0.8h-6.2v0.8l0.7,0c0.4,0,0.8,0.1,1,0.3c0.1,0.1,0.1,0.3,0.1,0.5v11.1c0,0.3,0,0.4-0.2,0.6
		c-0.2,0.2-0.5,0.3-0.8,0.3l-0.1,0c0,0-0.8,0.1-0.8,0.1v0.7h6.2v-0.7l-0.6-0.1c-0.4,0-0.7-0.1-1-0.3c-0.2-0.2-0.3-0.3-0.3-0.6v-5.7
		h7.7v5.7c0,0.3-0.1,0.5-0.3,0.6c-0.2,0.2-0.5,0.2-0.8,0.2l-0.3,0c0,0-0.6,0.1-0.6,0.1v0.7h6.2v-0.7l-0.8-0.1c0,0-0.1,0-0.1,0
		c-0.3,0-0.6-0.1-0.8-0.3c-0.2-0.2-0.2-0.3-0.2-0.6V51.1c0-0.2,0-0.3,0.2-0.5c0.2-0.3,0.6-0.3,1-0.3c0,0,0.6,0,0.6,0l0.1,0v-0.8
		H220.4z"/>
	<path class="st0" d="M228.7,49.5h-6v0.8l0.8,0c0.4,0,0.8,0.1,1,0.3c0.1,0.1,0.1,0.3,0.1,0.5v11.1c0,0.3,0,0.4-0.2,0.6
		c-0.2,0.2-0.4,0.3-0.8,0.3l-0.1,0c0,0-0.8,0.1-0.8,0.1v0.7h6.1v-0.7l-0.5-0.1l-0.4,0c-0.3,0-0.5-0.1-0.7-0.2
		c-0.2-0.2-0.3-0.3-0.3-0.6V51.2c0-0.2,0-0.4,0.1-0.5c0.2-0.2,0.4-0.3,0.8-0.3l0.9,0v-0.8H228.7z"/>
	<path class="st0" d="M230.7,49.5h-0.1v0.8l0.7,0c0.4,0,0.8,0.1,1,0.3c0.1,0.2,0.2,0.3,0.2,0.5v11.1c0,0.2,0,0.4-0.2,0.6
		c-0.2,0.2-0.4,0.3-0.8,0.3l-0.1,0c0,0-0.8,0.1-0.8,0.1v0.7h6.1v-0.7l-0.5,0c-0.5,0-0.8-0.1-1.1-0.3c-0.2-0.1-0.3-0.3-0.3-0.6v-4.6
		h1.9c0.1,0.1,3.6,5.7,3.6,5.7c0.2,0.3,0.5,0.5,0.9,0.6c0,0,0.6,0.1,0.6,0.1h2.1v-0.4l0,0c-0.3-0.2-0.5-0.3-0.8-0.6
		c-0.5-0.4-0.8-0.8-1.2-1.3c0,0-2.7-3.7-3.2-4.3c0.1,0,0.1-0.1,0.1-0.1c0.6-0.2,0.8-0.4,1.2-0.7c1-0.8,1.6-1.9,1.6-3
		c0-0.1,0-0.2,0-0.3c0-0.9-0.4-1.8-1-2.5c-1.1-1.1-2.9-1.1-4.3-1.1H230.7z M236.7,50.4c0.8,0,1.4,0.1,1.9,0.7
		c0.5,0.5,0.8,1.5,0.8,2.5c0,0.2,0,0.4,0,0.6c-0.1,1-0.5,1.8-1.1,2.2c-0.7,0.4-1.3,0.5-2.2,0.5h-1v-6.4H236.7z"/>
	<path class="st0" d="M256,49.5h-10.2v0.8l0.8,0c0.4,0,0.8,0.1,1,0.3c0.1,0.2,0.2,0.3,0.2,0.5v10.8c0,0.4,0,0.6-0.2,0.8
		c-0.2,0.2-0.5,0.3-0.9,0.3c0,0-0.8,0.1-0.8,0.1v0.7H257l0.7-3.8l-0.7,0l-0.4,0.9c0,0.1-0.4,1.2-1.2,1.6c-0.5,0.3-0.9,0.4-1.5,0.4
		h-2c-0.6,0-1-0.1-1.3-0.3c-0.5-0.3-0.5-0.8-0.5-1.3c0,0,0-0.3,0-0.3v-4.3h1.8c0.5,0,1.1,0.1,1.5,0.4c0.3,0.3,0.4,0.5,0.5,1l0,0.5
		h0.8v-4.5h-0.8l0,0.4c-0.1,0.4-0.1,0.7-0.5,1c-0.3,0.2-0.7,0.3-1.4,0.3H250v-5.6h3c0.5,0,0.9,0.1,1.4,0.4c0.4,0.3,0.5,0.7,0.6,1.2
		l0,0.1c0,0,0.2,0.9,0.2,0.9h0.8v-3.5H256z"/>
	<polygon class="st0" points="18.1,13.4 36.2,27.2 36.2,13.3 18.1,0 0,13.3 0,27.2 	"/>
</g>
</svg>
