<?xml version="1.0" encoding="utf-8"?>
<!-- Generator: Adobe Illustrator 19.0.0, SVG Export Plug-In . SVG Version: 6.00 Build 0)  -->
<svg version="1.1" id="Layer_1" xmlns="http://www.w3.org/2000/svg" xmlns:xlink="http://www.w3.org/1999/xlink" x="0px" y="0px"
	 viewBox="10 219.2 631.5 354.8" style="enable-background:new 10 219.2 631.5 354.8;" xml:space="preserve">
<style type="text/css">
	.st0{fill:none;stroke:#FFFFFF;stroke-width:3;stroke-miterlimit:10;}
	.st1{fill:none;stroke:#FFFFFF;stroke-miterlimit:10;}
	.st2{fill:#FFFFFF;}
	.st3{fill:none;}
	.st4{enable-background:new    ;}
</style>
<rect x="23.8" y="221.2" class="st0" width="101.2" height="70.3"/>
<rect x="23.8" y="502.7" class="st0" width="101.2" height="70.3"/>
<polygon class="st0" points="74.4,440.8 12,397.3 74.4,353.9 136.8,397.3 "/>
<g>
	<g>
		<line class="st1" x1="73.4" y1="346.7" x2="73.4" y2="291.5"/>
		<g>
			<polygon class="st2" points="78.4,345.2 73.4,353.9 68.4,345.2 			"/>
		</g>
	</g>
</g>
<g>
	<g>
		<line class="st1" x1="584.8" y1="347.7" x2="584.8" y2="292.5"/>
		<g>
			<polygon class="st2" points="589.8,346.2 584.8,354.9 579.9,346.2 			"/>
		</g>
	</g>
</g>
<g>
	<g>
		<line class="st1" x1="584.8" y1="513.9" x2="584.8" y2="436.8"/>
		<g>
			<polygon class="st2" points="589.8,512.4 584.8,521 579.9,512.4 			"/>
		</g>
	</g>
</g>
<g>
	<g>
		<line class="st1" x1="73.4" y1="495.3" x2="73.4" y2="440"/>
		<g>
			<polygon class="st2" points="78.4,493.8 73.4,502.4 68.4,493.8 			"/>
		</g>
	</g>
</g>
<g>
	<g>
		<line class="st1" x1="180.2" y1="537.8" x2="125" y2="537.8"/>
		<g>
			<polygon class="st2" points="178.8,532.9 187.4,537.8 178.8,542.8 			"/>
		</g>
	</g>
</g>
<path class="st0" d="M280.7,554.7h-77.5c-8.7,0-15.7-7.1-15.7-15.8v-2.1c0-8.7,7.1-15.8,15.7-15.8h77.5c8.7,0,15.8,7.1,15.8,15.8
	v2.1C296.4,547.6,289.4,554.7,280.7,554.7z"/>
<path class="st0" d="M623.6,554.7h-77.5c-8.7,0-15.8-7.1-15.8-15.8v-2.1c0-8.7,7.1-15.8,15.8-15.8h77.5c8.7,0,15.7,7.1,15.7,15.8
	v2.1C639.3,547.6,632.2,554.7,623.6,554.7z"/>
<rect x="534.3" y="221.2" class="st0" width="101.2" height="70.3"/>
<path class="st0" d="M550.7,436.6h59.4c21.7,0,29.3-17.6,29.3-39.4l0,0c0-21.7-7.5-39.4-29.3-39.4h-59.4l-22.4,39.4L550.7,436.6z"/>
<g>
	<g>
		<line class="st1" x1="479" y1="256.3" x2="534.3" y2="256.3"/>
		<g>
			<polygon class="st2" points="480.5,261.3 471.9,256.3 480.5,251.3 			"/>
		</g>
	</g>
</g>
<path class="st0" d="M378.6,239.5h77.5c8.7,0,15.7,7.1,15.7,15.8v2.1c0,8.7-7.1,15.8-15.7,15.8h-77.5c-8.7,0-15.7-7.1-15.7-15.8
	v-2.1C362.8,246.6,369.9,239.5,378.6,239.5z"/>
<line class="st1" x1="481.8" y1="396.5" x2="529.3" y2="396.5"/>
<g>
	<g>
		<line class="st1" x1="481.8" y1="451.7" x2="481.8" y2="396.5"/>
		<g>
			<polygon class="st2" points="486.8,450.2 481.8,458.9 476.9,450.2 			"/>
		</g>
	</g>
</g>
<path class="st0" d="M457.2,461.2h49.3c8.7,0,15.8,7.1,15.8,15.8l0,0c0,8.7-7.1,15.8-15.8,15.8h-49.3c-8.7,0-15.8-7.1-15.8-15.8l0,0
	C441.4,468.3,448.5,461.2,457.2,461.2z"/>
<line class="st1" x1="164.9" y1="397.7" x2="137.4" y2="397.7"/>
<g>
	<g>
		<line class="st1" x1="164.9" y1="362.5" x2="164.9" y2="397.7"/>
		<g>
			<polygon class="st2" points="159.9,363.9 164.9,355.3 169.9,363.9 			"/>
		</g>
	</g>
</g>
<path class="st0" d="M189.6,353h-49.3c-8.7,0-15.7-7.1-15.7-15.8l0,0c0-8.7,7.1-15.7,15.7-15.7h49.3c8.7,0,15.8,7.1,15.8,15.7l0,0
	C205.3,345.9,198.2,353,189.6,353z"/>
<rect x="282.5" y="357" class="st3" width="117.4" height="68.2"/>
<g class="st4">
	<path class="st2" d="M286.5,380.1c0-3.2,0.4-6,1.3-8.5c0.9-2.5,2.1-4.7,3.6-6.4c1.6-1.8,3.4-3.1,5.6-4c2.2-0.9,4.5-1.4,7.1-1.4
		c2.4,0,4.5,0.5,6.3,1.4c1.8,1,3.3,2.1,4.4,3.4l-2.8,3.2c-1-1.1-2.2-2-3.5-2.6c-1.3-0.7-2.8-1-4.4-1c-1.9,0-3.6,0.4-5.1,1.1
		c-1.5,0.7-2.9,1.8-3.9,3.2s-1.9,3.1-2.5,5c-0.6,2-0.9,4.2-0.9,6.6c0,2.5,0.3,4.7,0.9,6.7c0.6,2,1.4,3.7,2.5,5.1
		c1.1,1.4,2.4,2.5,3.9,3.2c1.5,0.8,3.2,1.1,5.1,1.1c1.8,0,3.4-0.4,4.8-1.1c1.4-0.8,2.7-1.8,4-3.2l2.9,3.1c-1.6,1.8-3.3,3.2-5.3,4.2
		c-2,1-4.2,1.5-6.7,1.5c-2.5,0-4.8-0.5-6.9-1.4s-3.9-2.3-5.5-4c-1.5-1.7-2.8-3.9-3.6-6.4C286.9,386.1,286.5,383.3,286.5,380.1z"/>
	<path class="st2" d="M328.6,374c0-1.5,0.5-2.8,1.4-3.7c0.9-0.9,2.1-1.4,3.5-1.4c1.4,0,2.5,0.5,3.5,1.4c0.9,0.9,1.4,2.2,1.4,3.7
		c0,1.5-0.5,2.7-1.4,3.7c-0.9,0.9-2.1,1.4-3.5,1.4c-1.4,0-2.5-0.5-3.5-1.4S328.6,375.5,328.6,374z M328.6,395.4
		c0-1.5,0.5-2.7,1.4-3.7c0.9-0.9,2.1-1.4,3.5-1.4c1.4,0,2.5,0.5,3.5,1.4c0.9,0.9,1.4,2.2,1.4,3.7c0,1.5-0.5,2.7-1.4,3.7
		c-0.9,0.9-2.1,1.4-3.5,1.4c-1.4,0-2.5-0.5-3.5-1.4S328.6,397,328.6,395.4z"/>
</g>
<g>
	<path class="st2" d="M371.3,475.1h-10.6c-5.9,0-10.6-4.8-10.6-10.6v-15.9h-31.9v15.9c0,5.9-4.7,10.6-10.6,10.6H297
		c-2.9,0-5.3,2.4-5.3,5.3c0,2.9,2.4,5.3,5.3,5.3h74.3c3,0,5.3-2.4,5.3-5.3C376.6,477.5,374.2,475.1,371.3,475.1L371.3,475.1z
		 M409.8,315.9H258.5c-5.1,0-9.3,4.5-9.3,10V428c0,5.5,4.2,10,9.3,10h151.3c5.1,0,9.3-4.5,9.3-10V325.8
		C419.1,320.3,414.9,315.9,409.8,315.9L409.8,315.9z M408.4,427.4H259.8V326.5h148.6V427.4z"/>
</g>
<g class="st4">
	<path class="st2" d="M355.4,359.5h3.7l16.4,43.5h-3.7L355.4,359.5z"/>
</g>
</svg>
