<?xml version="1.0" encoding="utf-8"?>
<!-- Generator: Adobe Illustrator 19.0.0, SVG Export Plug-In . SVG Version: 6.00 Build 0)  -->
<svg version="1.1" id="Layer_1" xmlns="http://www.w3.org/2000/svg" xmlns:xlink="http://www.w3.org/1999/xlink" x="0px" y="0px"
	 viewBox="201.7 -131.3 662.3 379.8" style="enable-background:new 201.7 -131.3 662.3 379.8;" xml:space="preserve">
<style type="text/css">
	.st0{fill:#FFFFFF;}
</style>
<path id="XMLID_184_" class="st0" d="M376.9,102.8c3-1,4.9-3.7,4.7-7c-0.2-3.1-2.3-5.7-5.3-6.4c-3.2-0.7-6.3,0.6-7.8,3.7
	c-0.6,1.2-1.3,1.6-2.6,1.6c-20.2,0-40.4,0-60.7,0c-1.6,0-2.2-0.5-2.2-2.2c0.1-6.1,0-12.2,0-18.3c0-1.3,0.4-2,1.6-2.6
	c2.9-1.4,4.3-4.3,3.8-7.4c-0.5-2.9-2.7-5.2-5.6-5.7c-3.2-0.6-6.1,0.8-7.6,3.8c-0.6,1.1-1.2,1.5-2.4,1.5c-8,0-16.1,0-24.1,0
	c-1.4,0-2-0.6-2.6-1.8c-1.4-2.7-4.1-4-7.1-3.6c-2.8,0.3-5,2.3-5.7,5c-0.8,2.8,0.2,5.6,2.4,7.4c3.1,2.5,7.9,1.7,10.2-1.8
	c0.9-1.4,1.8-1.8,3.4-1.8c7.7,0.1,15.4,0.1,23.1,0c1.5,0,2.6,0.3,3.4,1.8c0.4,0.8,1.1,1.6,1.8,1.9c2,0.9,2.2,2.3,2.1,4.2
	c-0.1,5.5,0,10.9,0,16.4c0,2.9,0,2.9-3,2.9c-8,0-15.9,0-23.9,0c-7.9,0-15.8,0-23.7,0c-1.5,0-2.5-0.2-3.3-1.8
	c-0.6-1.2-1.9-2.2-3.1-2.9c-1.1-0.6-1.4-1.3-1.4-2.4c0-11.4,0-22.9,0.1-34.3c0-0.8,0.7-1.6,1.3-2.3c0.7-0.8,1.9-1.3,2.4-2.3
	c0.9-1.8,2.1-1.9,3.9-1.4c7.6,1.9,15.2,3.7,22.8,5.6c1,0.3,2.1,1.1,2.7,1.9c2.1,3,5,4.2,8.3,3.2c3-0.9,4.9-3.5,4.9-6.7
	c0-3.3-2-5.9-5.2-6.7c-3.1-0.8-6.2,0.5-7.9,3.4c-0.6,1-1.1,1.3-2.3,1c-8.1-2-16.3-3.9-24.4-6c-0.8-0.2-1.6-1-2.1-1.7
	c-1.8-2.8-4.5-4.1-7.6-3.5c-2.8,0.5-5,2.7-5.5,5.6c-0.6,3.1,0.7,6,3.6,7.5c1.3,0.7,1.7,1.5,1.7,2.9c0,11.2,0,22.4,0,33.7
	c0,1.4-0.4,2.1-1.6,2.8c-2.6,1.5-3.8,4.4-3.3,7.3c0.5,2.7,2.7,5.1,5.3,5.5c3.1,0.5,5.8-0.3,7.4-3c1-1.6,2.1-1.9,3.7-1.9
	c38.7,0,77.4,0,116.2,0c1.6,0,2.7,0.3,3.6,1.8C370.5,102.9,373.7,103.8,376.9,102.8z M259.8,68.7c-1.7-0.1-3.3-1.7-3.2-3.4
	c0.1-1.7,1.7-3.3,3.4-3.2c1.8,0,3.2,1.6,3.2,3.4C263.1,67.3,261.6,68.8,259.8,68.7z M280.2,47.9c1.7-0.1,3.3,1.4,3.4,3.2
	s-1.4,3.4-3.1,3.4c-1.7,0.1-3.4-1.5-3.4-3.2C276.9,49.7,278.4,48,280.2,47.9z M235.8,44.5c0.1-1.7,1.7-3.3,3.4-3.2
	c1.8,0.1,3.2,1.6,3.1,3.4c-0.1,1.8-1.6,3.3-3.3,3.2C237.3,47.9,235.7,46.2,235.8,44.5z M239.6,99.5c-1.7,0-3.3-1.6-3.4-3.3
	c0-1.7,1.6-3.3,3.3-3.4c1.7,0,3.3,1.5,3.3,3.3S241.3,99.5,239.6,99.5z M298.2,65.5c0-1.7,1.5-3.3,3.2-3.4c1.7-0.1,3.3,1.4,3.3,3.3
	c0,1.8-1.4,3.4-3.2,3.4C299.8,68.8,298.2,67.2,298.2,65.5z M371.3,96.1c0.1-1.7,1.7-3.3,3.4-3.3c1.8,0,3.2,1.6,3.2,3.4
	s-1.6,3.3-3.3,3.3C372.8,99.4,371.3,97.8,371.3,96.1z"/>
<path id="XMLID_209_" class="st0" d="M262.3-92.9c-2.7-0.1-5.4-0.2-8.1,0c-1.3,0.1-2.7,0.7-3.6,1.5c-2.2,1.8-4.1,3.9-6.1,6
	c-1,1.1-2,1.6-3.6,1.3c-3.7-0.6-6.8,1.5-7.8,5c-0.9,3.3,0.7,6.8,3.7,8.2c3.3,1.5,7.2,0.4,9-2.8c0.7-1.2,1.5-1.6,2.8-1.6
	c7.6,0,15.2,0,22.9,0c7.5,0,15.1,0,22.6-0.1c1.1,0,2.5-0.5,3.4-1.2c18.2-15,36.3-30.2,54.5-45.2c0.6-0.5,1.6-0.9,2.4-0.9
	c4.2-0.1,8.4,0,12.7-0.1c1.2,0,1.8,0.4,2.4,1.5c1.5,3.1,4.6,4.5,7.8,3.8c3.1-0.7,5.3-3.3,5.5-6.5c0.1-3.2-1.6-5.9-4.6-6.9
	c-3.3-1.1-6.5-0.1-8.3,2.9c-0.8,1.3-1.7,1.7-3.2,1.7c-4.5-0.1-9-0.1-13.5,0c-1,0-2.1,0.4-2.8,0.9c-4.3,3.5-8.5,7.1-12.8,10.6
	c-13.9,11.6-27.9,23.2-41.8,34.8c-0.6,0.5-1.6,1-2.4,1c-15,0.1-29.9,0.1-44.9,0c-0.7,0-1.8-0.6-2-1.2c-0.3-0.6,0.1-1.8,0.5-2.3
	c1.9-2.1,3.9-4.1,6-6c0.6-0.5,1.6-0.9,2.4-0.9c2.6-0.1,5.3-0.1,7.9,0c0.8,0,1.6,0.8,2.2,1.3c1.3,1.1,2.3,2.7,3.7,3.4
	c3.3,1.6,7.3,0,8.9-3.1c1.7-3.3,0.6-7.4-2.6-9.3c-3.2-1.9-7.3-1.1-9.4,2.1C265.2-93.3,264.1-92.9,262.3-92.9z M239.9-73.9
	c-1.7,0-3.3-1.6-3.3-3.3c0-1.7,1.6-3.3,3.3-3.3c1.7,0,3.2,1.5,3.2,3.3C243.2-75.4,241.7-73.9,239.9-73.9z M375.8-127.6
	c1.7,0,3.3,1.5,3.3,3.3s-1.4,3.4-3.2,3.4c-1.7,0-3.3-1.6-3.4-3.3C372.5-125.9,374.1-127.5,375.8-127.6z M272-94.3
	c1.8,0,3.2,1.6,3.2,3.4s-1.5,3.3-3.3,3.3c-1.7,0-3.3-1.7-3.3-3.4S270.3-94.3,272-94.3z"/>
<path id="XMLID_214_" class="st0" d="M344.2,197.3c-1.1-0.1-2.3-0.6-3.1-1.3c-2.4-2.1-4.6-4.4-6.8-6.7c-1.3-1.4-2.6-2-4.6-1.9
	c-2.7,0.1-5.4,0-8.1,0.1c-1.5,0-2.4-0.3-3.1-1.8c-1.4-2.9-4.6-4.2-7.7-3.5c-3,0.7-5.1,3.1-5.3,6.2c-0.2,3.2,1.5,6,4.3,7.1
	c3.1,1.2,6.5,0.5,8.1-2.3c1.3-2.1,2.8-2.4,4.8-2.2c0.7,0.1,1.4,0,2.1,0c4.1-1.1,7,0.8,9.5,3.9c1,1.2,2.1,2.3,3.2,3.2
	c1.2,1,1.3,1.9,0.6,3.4c-0.7,1.4-1.7,1.3-2.9,1.3c-15.1,0-30.2,0-45.3,0c-1.7,0-3.1,0.4-4.5,1.5C271,216,256.5,227.6,242,239.1
	c-0.7,0.6-1.8,1-2.8,1c-7.1,0.1-14.1,0-21.2,0.1c-1.3,0-2.1-0.3-2.7-1.7c-1.3-3.1-4.4-4.6-7.6-4.1c-3,0.5-5.3,2.9-5.7,5.9
	c-0.4,3.2,1.2,6.2,4.1,7.4c3.1,1.3,6.4,0.5,8.3-2.2c1-1.5,2.1-1.8,3.8-1.8c7.4,0.1,14.8,0.1,22.2,0c1.1,0,2.4-0.4,3.2-1.1
	c14.7-11.7,29.3-23.5,44-35.2c0.8-0.6,2-1.1,3-1.1c15-0.1,29.9,0,44.9-0.1c1.3,0,2.1,0.3,2.9,1.5c1.9,3.1,5.5,4.3,8.6,3.1
	c3.1-1.2,4.9-4.6,4.3-7.9C350.8,199.6,348.1,197.5,344.2,197.3z M312.6,192.3c-1.7,0-3.3-1.5-3.3-3.3s1.5-3.3,3.2-3.3
	c1.7,0,3.3,1.6,3.3,3.3C315.9,190.6,314.3,192.3,312.6,192.3z M209.1,244.7c-1.7,0-3.2-1.5-3.2-3.3s1.5-3.3,3.3-3.3
	c1.7,0,3.3,1.6,3.3,3.3C212.4,243,210.8,244.6,209.1,244.7z M344.6,207.7c-1.7,0-3.3-1.5-3.3-3.3s1.4-3.4,3.2-3.4
	c1.7,0,3.3,1.6,3.4,3.3C347.9,206,346.4,207.6,344.6,207.7z"/>
<path id="XMLID_219_" class="st0" d="M206-117.9c1.4,0.6,1.7,1.3,1.7,2.7c0,38.9,0,77.7-0.1,116.6c0,0.8-0.7,1.9-1.3,2.4
	c-2.7,1.9-4,4.4-3.5,7.4c0.5,2.8,2.6,5.1,5.4,5.6c3,0.6,5.8-0.4,7.5-3.3c0.8-1.3,1.7-1.6,3-1.6c7.7,0,15.4,0,23.1,0
	c1.4,0,2.2,0.4,2.9,1.7c2.1,4,7.3,5,10.6,2.1c2.3-2,3-4.5,2.2-7.3c-0.7-2.8-2.7-4.5-5.6-4.9c-2.9-0.4-5.5,0.5-7,3.1
	c-0.9,1.5-1.9,1.9-3.5,1.8c-3.7-0.1-7.3,0-11,0c-3.8,0-7.6-0.1-11.4,0c-1.5,0-2.6-0.3-3.3-1.8c-0.5-1-1.4-2.1-2.4-2.5
	c-2.1-0.8-2.2-2.3-2.2-4.1c0-38.2,0-76.3,0-114.5c0-1.8,0.2-3.2,2-4.4c2.6-1.8,3.4-5.4,2.1-8.2c-1.2-2.9-4.2-4.5-7.5-4.1
	c-3,0.4-5.4,2.7-5.9,5.6C201.4-122.3,203-119.2,206-117.9z M250.8,7.1c1.7,0,3.3,1.6,3.4,3.3c0,1.7-1.5,3.3-3.3,3.3
	s-3.4-1.5-3.4-3.2C247.5,8.7,249.1,7.1,250.8,7.1z M213,9.9c0,1.7-1.5,3.3-3.3,3.3s-3.4-1.4-3.4-3.2c0-1.7,1.6-3.3,3.3-3.4
	C211.3,6.6,213,8.2,213,9.9z M208.9-127.6c1.7,0,3.3,1.7,3.3,3.4c0,1.8-1.6,3.2-3.4,3.2s-3.3-1.6-3.3-3.3
	C205.6-126.1,207.2-127.6,208.9-127.6z"/>
<path id="XMLID_224_" class="st0" d="M207.5,191.2c3,0.6,5.4-0.5,7.2-3c0.6-0.8,1.6-1.8,2.4-1.8c2,0,2.4-0.9,2.4-2.7
	c-0.1-5.6,0-11.2,0-16.8c0-1.6,1.5-2.5,2.8-1.6c0.5,0.3,0.7,1,1.1,1.5c2.3,3.9,7.3,4.9,10.5,2.2c2.3-1.9,3.1-4.4,2.4-7.3
	c-0.6-2.7-2.9-4.8-5.6-5.1c-3-0.4-5.5,0.6-7.1,3.3c-0.7,1.3-1.6,1.8-3,1.6c-0.8-0.1-1.5-0.1-2.3,0c-1.7,0.2-2.9-0.3-3.8-1.9
	c-1.6-2.8-5-3.7-8-2.7c-3.1,1-4.9,3.8-4.7,7.3c0.2,2.9,2.4,5.5,5.4,6.1c3.5,0.8,6.1-0.6,8.6-4.9c0,5.7,0,11.2,0,17.2
	c-2.7-5.3-7.7-6.8-11.4-3.8c-2.3,1.9-3.1,4.4-2.4,7.3C202.7,188.9,204.7,190.6,207.5,191.2z M229.7,160.2c1.7,0,3.3,1.6,3.3,3.3
	c0,1.7-1.6,3.3-3.3,3.3c-1.7,0-3.2-1.5-3.2-3.3C226.4,161.7,227.9,160.2,229.7,160.2z M209,166.9c-1.7,0.1-3.3-1.4-3.3-3.2
	c-0.1-1.8,1.4-3.4,3.1-3.4c1.7-0.1,3.3,1.5,3.4,3.2C212.3,165.1,210.7,166.8,209,166.9z M208.8,181c1.7-0.1,3.3,1.5,3.4,3.2
	c0.1,1.7-1.5,3.4-3.2,3.4c-1.7,0.1-3.3-1.4-3.4-3.2C205.6,182.6,207,181.1,208.8,181z"/>
<path id="XMLID_234_" class="st0" d="M325.1-52.3c-0.6,0.5-1.6,0.9-2.4,0.9c-4.2,0.1-8.4,0-12.7,0.1c-1.2,0-1.8-0.4-2.4-1.5
	c-1.5-3.1-4.6-4.5-7.8-3.8c-3.1,0.7-5.3,3.3-5.5,6.5c-0.1,3.2,1.6,5.9,4.6,6.9c3.3,1.1,6.5,0.1,8.3-2.9c0.8-1.3,1.7-1.7,3.2-1.7
	c4.5,0.1,9,0.1,13.5,0c1,0,2.1-0.4,2.8-0.9c4.3-3.5,8.5-7.1,12.8-10.6c13.9-11.6,27.9-23.2,41.8-34.8c0.6-0.5,1.6-1,2.4-1
	c15-0.1,29.9-0.1,44.9,0c0.7,0,1.8,0.6,2,1.2c0.3,0.6-0.1,1.8-0.5,2.3c-1.9,2.1-3.9,4.1-6,6c-0.6,0.5-1.6,0.9-2.4,0.9
	c-2.6,0.1-5.3,0.1-7.9,0c-0.8,0-1.6-0.8-2.2-1.3c-1.3-1.1-2.3-2.7-3.7-3.4c-3.3-1.6-7.3,0-8.9,3.1c-1.7,3.3-0.6,7.4,2.6,9.3
	s7.3,1.1,9.4-2.1c1-1.6,2.1-2.1,3.9-2c2.7,0.1,5.4,0.2,8.1,0c1.3-0.1,2.7-0.7,3.6-1.5c2.2-1.8,4.1-3.9,6.1-6c1-1.1,2-1.6,3.6-1.3
	c3.7,0.6,6.8-1.5,7.8-5c0.9-3.3-0.7-6.8-3.7-8.2c-3.3-1.5-7.2-0.4-9,2.8c-0.7,1.2-1.5,1.6-2.8,1.6c-7.6,0-15.2,0-22.9,0
	c-7.5,0-15.1,0-22.6,0.1c-1.1,0-2.5,0.5-3.4,1.2C361.4-82.5,343.3-67.4,325.1-52.3z M301.4-46.4c-1.7,0-3.3-1.5-3.3-3.3
	s1.4-3.4,3.2-3.4c1.7,0,3.3,1.6,3.4,3.3C304.7-48.1,303.1-46.5,301.4-46.4z M405.2-79.7c-1.8,0-3.2-1.6-3.2-3.4s1.5-3.3,3.3-3.3
	c1.7,0,3.3,1.7,3.3,3.4C408.6-81.3,406.9-79.7,405.2-79.7z M437.3-100.1c1.7,0,3.3,1.6,3.3,3.3c0,1.7-1.6,3.3-3.3,3.3
	c-1.7,0-3.2-1.5-3.2-3.3C434-98.6,435.6-100.1,437.3-100.1z"/>
<path id="XMLID_239_" class="st0" d="M364.1,26.2c-0.7,0.8-1.9,1.3-2.4,2.3c-0.9,1.8-2.1,1.9-3.9,1.4c-7.6-1.9-15.2-3.7-22.8-5.6
	c-1-0.3-2.1-1.1-2.7-1.9c-2.1-3-5-4.2-8.3-3.2c-3,0.9-4.9,3.5-4.9,6.7c0,3.3,2,5.9,5.2,6.7c3.1,0.8,6.2-0.4,7.9-3.4
	c0.6-1,1.1-1.3,2.3-1c8.1,2,16.3,3.9,24.4,6c0.8,0.2,1.6,1,2.1,1.7c1.8,2.8,4.5,4.1,7.6,3.5c2.8-0.5,5-2.7,5.5-5.6
	c0.6-3.1-0.7-6-3.6-7.5c-1.3-0.7-1.7-1.5-1.7-2.9c0-11.2,0-22.4,0-33.7c0-1.4,0.4-2.1,1.6-2.8c2.6-1.5,3.8-4.4,3.3-7.3
	c-0.5-2.7-2.7-5.1-5.3-5.5c-3.1-0.5-5.8,0.3-7.4,3c-1,1.6-2.1,1.9-3.7,1.9c-38.7,0-77.4,0-116.2,0c-1.6,0-2.7-0.3-3.6-1.8
	c-1.8-2.9-4.9-3.9-8.1-2.8c-3,1-4.9,3.7-4.7,7c0.2,3.1,2.3,5.7,5.3,6.4c3.2,0.7,6.3-0.6,7.8-3.7c0.6-1.2,1.3-1.6,2.6-1.6
	c20.2,0,40.4,0,60.7,0c1.6,0,2.2,0.5,2.2,2.2c-0.1,6.1,0,12.2,0,18.3c0,1.3-0.4,2-1.6,2.6c-2.9,1.4-4.3,4.3-3.8,7.4
	c0.5,2.9,2.7,5.2,5.6,5.7c3.2,0.6,6.1-0.8,7.6-3.8c0.6-1.1,1.2-1.5,2.4-1.5c8,0,16.1,0,24.1,0c1.4,0,2,0.6,2.6,1.8
	c1.4,2.7,4.1,4,7.1,3.6c2.8-0.3,5-2.3,5.7-5c0.8-2.8-0.2-5.6-2.4-7.4c-3.1-2.5-7.9-1.7-10.2,1.8c-0.9,1.4-1.8,1.8-3.4,1.8
	c-7.7-0.1-15.4-0.1-23.1,0c-1.5,0-2.6-0.3-3.4-1.8c-0.4-0.8-1.1-1.6-1.8-1.9c-2-0.9-2.2-2.3-2.1-4.2c0.1-5.5,0-10.9,0-16.4
	c0-2.9,0-2.9,3-2.9c8,0,15.9,0,23.9,0c7.9,0,15.8,0,23.7,0c1.5,0,2.5,0.2,3.3,1.8c0.6,1.2,1.9,2.2,3.1,2.9c1.1,0.6,1.4,1.3,1.4,2.4
	c0,11.4,0,22.9-0.1,34.3C365.4,24.7,364.7,25.5,364.1,26.2z M326.4,29.1c-1.7,0.1-3.3-1.4-3.4-3.2s1.4-3.4,3.1-3.4
	c1.7-0.1,3.4,1.5,3.4,3.2C329.6,27.4,328.1,29,326.4,29.1z M231.8-15.8c-1.8,0-3.2-1.6-3.2-3.4c0-1.8,1.6-3.3,3.3-3.3
	c1.7,0.1,3.3,1.7,3.2,3.4C235.2-17.3,233.5-15.7,231.8-15.8z M346.7,8.3c1.7,0.1,3.3,1.7,3.2,3.4s-1.7,3.3-3.4,3.2
	c-1.8,0-3.2-1.6-3.2-3.4C343.4,9.8,345,8.3,346.7,8.3z M308.4,11.6c0,1.7-1.5,3.3-3.2,3.4c-1.7,0.1-3.3-1.4-3.3-3.3
	c0-1.8,1.4-3.4,3.2-3.4C306.7,8.3,308.3,9.9,308.4,11.6z M363.8-19.1c0-1.8,1.5-3.4,3.2-3.4c1.7,0,3.3,1.6,3.4,3.3
	c0,1.7-1.6,3.3-3.3,3.4C365.3-15.7,363.8-17.3,363.8-19.1z M367.5,29.1c1.7,0.1,3.3,1.7,3.2,3.4s-1.7,3.3-3.4,3.2
	c-1.8-0.1-3.2-1.6-3.1-3.4C364.2,30.5,365.8,29,367.5,29.1z"/>
<path id="XMLID_247_" class="st0" d="M347.3,130.9c2.8-1.7,3.9-4.4,3.3-7.5c-0.6-2.8-2.8-5-5.6-5.4c-3-0.5-5.6,0.8-7.4,3.5
	c-0.5,0.7-1.6,1.3-2.4,1.3c-38.9,0.1-77.7,0.1-116.6,0.1c-1.3,0-2.1-0.3-2.7-1.7c-1.3-3.1-4.4-4.6-7.6-4.1c-3,0.5-5.3,2.9-5.6,5.9
	c-0.4,3.2,1.2,6.2,4.1,7.5c2.8,1.2,6.4,0.5,8.2-2.1c1.2-1.7,2.6-2,4.4-2c38.2,0,76.3,0,114.5,0c1.8,0,3.3,0,4.1,2.2
	c0.4,1,1.5,1.9,2.5,2.4c1.5,0.7,1.9,1.8,1.8,3.3c-0.1,3.8,0,7.6,0,11.4c0,3.7-0.1,7.3,0,11c0,1.6-0.3,2.6-1.8,3.5
	c-2.6,1.5-3.5,4-3.1,7c0.4,2.9,2.1,4.8,4.9,5.6c2.8,0.8,5.4,0,7.3-2.2c2.9-3.3,1.9-8.6-2.1-10.6c-1.4-0.7-1.7-1.5-1.7-2.9
	c0-7.7,0-15.4,0-23.1C345.7,132.6,346.1,131.7,347.3,130.9z M209.5,127.4c-1.7,0-3.3-1.6-3.4-3.3c0-1.7,1.5-3.3,3.3-3.4
	c1.7,0,3.3,1.5,3.3,3.3C212.8,125.8,211.3,127.4,209.5,127.4z M347.4,166.1c0,1.8-1.5,3.3-3.3,3.3c-1.7,0-3.3-1.7-3.3-3.4
	c0-1.7,1.7-3.3,3.4-3.3C346,162.8,347.4,164.3,347.4,166.1z M343.7,128.3c-1.7,0-3.3-1.7-3.3-3.4c0-1.7,1.7-3.3,3.4-3.3
	c1.8,0,3.2,1.6,3.2,3.4S345.4,128.3,343.7,128.3z"/>
<path id="XMLID_252_" class="st0" d="M718.2,119.1c38.7,0,77.4,0,116.2,0c1.6,0,2.7,0.3,3.6,1.8c1.8,2.9,4.9,3.9,8.1,2.8
	c3-1,4.9-3.7,4.7-7c-0.2-3.1-2.3-5.7-5.3-6.4c-3.2-0.7-6.3,0.6-7.8,3.7c-0.6,1.2-1.3,1.6-2.6,1.6c-20.2,0-40.4,0-60.7,0
	c-1.6,0-2.2-0.5-2.2-2.2c0.1-6.1,0-12.2,0-18.3c0-1.3,0.4-2,1.6-2.6c2.9-1.4,4.3-4.3,3.8-7.4c-0.5-2.9-2.7-5.2-5.6-5.7
	c-3.2-0.6-6.1,0.8-7.6,3.8c-0.6,1.1-1.2,1.5-2.4,1.5c-8,0-16.1,0-24.1,0c-1.4,0-2-0.6-2.6-1.8c-1.4-2.7-4.1-4-7.1-3.6
	c-2.8,0.3-5,2.3-5.7,5c-0.8,2.8,0.2,5.6,2.4,7.4c3.1,2.5,7.9,1.7,10.2-1.8c0.9-1.4,1.8-1.8,3.4-1.8c7.7,0.1,15.4,0.1,23.1,0
	c1.5,0,2.6,0.3,3.4,1.8c0.4,0.8,1.1,1.6,1.8,1.9c2,0.9,2.2,2.3,2.1,4.2c-0.1,5.5,0,10.9,0,16.4c0,2.9,0,2.9-3,2.9
	c-8,0-15.9,0-23.9,0c-7.9,0-15.8,0-23.7,0c-1.5,0-2.5-0.2-3.3-1.8c-0.6-1.2-1.9-2.2-3.1-2.9c-1.1-0.6-1.4-1.3-1.4-2.4
	c0-11.4,0-22.9,0.1-34.3c0-0.8,0.7-1.6,1.3-2.3c0.7-0.8,1.9-1.3,2.4-2.3c0.9-1.8,2.1-1.9,3.9-1.4c7.6,1.9,15.2,3.7,22.8,5.6
	c1,0.3,2.1,1.1,2.7,1.9c2.1,3,5,4.2,8.3,3.2c3-0.9,4.9-3.5,4.9-6.7c0-3.3-2-5.9-5.2-6.7c-3.1-0.8-6.2,0.5-7.9,3.4
	c-0.6,1-1.1,1.3-2.3,1c-8.1-2-16.3-3.9-24.4-6c-0.8-0.2-1.6-1-2.1-1.7c-1.8-2.8-4.5-4.1-7.6-3.5c-2.8,0.5-5,2.7-5.5,5.6
	c-0.6,3.1,0.7,6,3.6,7.5c1.3,0.7,1.7,1.5,1.7,2.9c0,11.2,0,22.4,0,33.7c0,1.4-0.4,2.1-1.6,2.8c-2.6,1.5-3.8,4.4-3.3,7.3
	c0.5,2.7,2.7,5.1,5.3,5.5c3.1,0.5,5.8-0.3,7.4-3C715.5,119.4,716.6,119.1,718.2,119.1z M746.1,72.4c-0.1-1.7,1.5-3.4,3.2-3.4
	c1.7-0.1,3.3,1.4,3.4,3.2c0.1,1.8-1.4,3.4-3.1,3.4C747.8,75.7,746.2,74.1,746.1,72.4z M708.2,68.9c-1.7-0.1-3.3-1.7-3.2-3.4
	c0.1-1.7,1.7-3.3,3.4-3.2c1.8,0.1,3.2,1.6,3.1,3.4C711.5,67.5,709.9,69,708.2,68.9z M711.9,117.1c0,1.8-1.5,3.4-3.2,3.4
	s-3.3-1.6-3.4-3.3c0-1.7,1.6-3.3,3.3-3.4C710.4,113.8,711.9,115.3,711.9,117.1z M732.3,86.5c0,1.8-1.6,3.3-3.3,3.2
	c-1.7-0.1-3.3-1.7-3.2-3.4c0.1-1.7,1.7-3.3,3.4-3.2C730.9,83.1,732.4,84.7,732.3,86.5z M840.5,117.1c0.1-1.7,1.7-3.3,3.4-3.3
	c1.8,0,3.2,1.6,3.2,3.4s-1.6,3.3-3.3,3.3C842,120.4,840.4,118.8,840.5,117.1z M770.7,89.7c-1.7,0-3.3-1.5-3.4-3.3
	c0-1.7,1.5-3.3,3.2-3.4s3.3,1.4,3.3,3.3C773.9,88.1,772.5,89.7,770.7,89.7z"/>
<path id="XMLID_260_" class="st0" d="M688.5-117.4c3.2,0.7,6.2-0.7,7.8-3.8c0.6-1.1,1.2-1.5,2.4-1.5c4.2,0,8.5,0,12.7,0.1
	c0.8,0,1.8,0.4,2.4,0.9c18.2,15.1,36.3,30.2,54.5,45.2c0.9,0.7,2.2,1.2,3.4,1.2c7.5,0.1,15.1,0.1,22.6,0.1c7.6,0,15.2,0,22.9,0
	c1.3,0,2.1,0.4,2.8,1.6c1.9,3.2,5.7,4.3,9,2.8c3-1.4,4.6-4.9,3.7-8.2c-0.9-3.5-4-5.6-7.8-5c-1.6,0.3-2.6-0.3-3.6-1.3
	c-2-2-3.9-4.1-6.1-6c-1-0.8-2.4-1.4-3.6-1.5c-2.7-0.2-5.4-0.1-8.1,0c-1.7,0.1-2.9-0.4-3.9-2c-2-3.2-6.2-4-9.4-2.1s-4.3,5.9-2.6,9.3
	c1.6,3.2,5.6,4.7,8.9,3.1c1.4-0.7,2.4-2.3,3.7-3.4c0.7-0.6,1.4-1.3,2.2-1.3c2.6-0.2,5.3-0.1,7.9,0c0.8,0,1.8,0.4,2.4,0.9
	c2.1,1.9,4.1,3.9,6,6c0.5,0.5,0.8,1.7,0.5,2.3c-0.3,0.6-1.3,1.2-2,1.2c-15,0.1-29.9,0.1-44.9,0c-0.8,0-1.7-0.5-2.4-1
	c-14-11.6-27.9-23.2-41.8-34.8c-4.3-3.5-8.5-7.1-12.8-10.6c-0.7-0.6-1.9-0.9-2.8-0.9c-4.5-0.1-9-0.1-13.5,0c-1.5,0-2.4-0.4-3.2-1.7
	c-1.8-3-5-4-8.3-2.9c-2.9,1-4.7,3.7-4.6,6.9C683.2-120.7,685.4-118.1,688.5-117.4z M826-80.6c1.7,0,3.3,1.6,3.3,3.3
	c0,1.7-1.6,3.3-3.3,3.3s-3.3-1.5-3.3-3.3C822.7-79,824.2-80.6,826-80.6z M794-87.6c-1.7,0-3.3-1.5-3.3-3.3s1.5-3.4,3.2-3.4
	s3.3,1.6,3.4,3.3C797.3-89.3,795.7-87.7,794-87.6z M690.1-127.6c1.7,0,3.3,1.7,3.3,3.4c0,1.7-1.7,3.3-3.4,3.3
	c-1.8,0-3.2-1.6-3.2-3.4C686.8-126.1,688.4-127.6,690.1-127.6z"/>
<path id="XMLID_265_" class="st0" d="M858.1,234.4c-3.3-0.6-6.3,1-7.6,4.1c-0.6,1.3-1.4,1.7-2.7,1.7c-7.1,0-14.1,0-21.2-0.1
	c-0.9,0-2.1-0.4-2.8-1c-14.5-11.6-29-23.2-43.4-34.8c-1.4-1.1-2.8-1.6-4.5-1.5c-15.1,0-30.2,0-45.3,0c-1.2,0-2.2,0.1-2.9-1.3
	s-0.7-2.3,0.6-3.4c1.2-1,2.3-2,3.2-3.2c2.5-3.1,5.4-5,9.5-3.9c0.7,0,1.4,0,2.1,0c2-0.2,3.6,0.2,4.8,2.2c1.7,2.8,5.1,3.4,8.1,2.3
	c2.8-1.1,4.5-3.9,4.3-7.1c-0.2-3-2.3-5.5-5.3-6.2c-3.1-0.7-6.3,0.6-7.7,3.5c-0.7,1.5-1.6,1.8-3.1,1.8c-2.7-0.1-5.4,0.1-8.1-0.1
	c-1.9-0.1-3.3,0.6-4.6,1.9c-2.2,2.3-4.4,4.6-6.8,6.7c-0.8,0.7-2,1.2-3.1,1.3c-3.8,0.2-6.6,2.3-7.2,5.7c-0.6,3.3,1.2,6.7,4.3,7.9
	c3.2,1.2,6.7,0.1,8.6-3.1c0.7-1.2,1.6-1.5,2.9-1.5c15,0,29.9,0,44.9,0.1c1,0,2.2,0.4,3,1.1c14.7,11.7,29.3,23.5,44,35.2
	c0.8,0.7,2.1,1.1,3.2,1.1c7.4,0.1,14.8,0.1,22.2,0c1.7,0,2.8,0.4,3.8,1.8c1.9,2.8,5.3,3.5,8.3,2.2c2.9-1.2,4.5-4.2,4.1-7.4
	C863.4,237.3,861.1,234.9,858.1,234.4z M753.3,185.6c1.7,0,3.2,1.5,3.2,3.3s-1.5,3.3-3.3,3.3c-1.7,0-3.3-1.7-3.3-3.3
	C750,187.2,751.6,185.6,753.3,185.6z M721.3,207.7c-1.7,0-3.3-1.7-3.3-3.4c0-1.7,1.7-3.3,3.4-3.3c1.8,0,3.2,1.6,3.2,3.4
	C724.5,206.2,723,207.7,721.3,207.7z M856.8,244.7c-1.7,0-3.3-1.6-3.3-3.3c0-1.7,1.6-3.3,3.3-3.3s3.2,1.5,3.3,3.3
	C860.1,243.1,858.6,244.7,856.8,244.7z"/>
<path id="XMLID_270_" class="st0" d="M835.4,8.4c-3.7,0-7.3-0.1-11,0c-1.6,0-2.6-0.3-3.5-1.8c-1.5-2.6-4-3.5-7-3.1
	c-2.9,0.4-4.8,2.1-5.6,4.9c-0.8,2.8,0,5.4,2.2,7.3c3.3,2.9,8.6,1.9,10.6-2.1c0.7-1.4,1.5-1.7,2.9-1.7c7.7,0,15.4,0,23.1,0
	c1.4,0,2.3,0.3,3,1.6c1.7,2.8,4.4,3.9,7.5,3.3c2.8-0.6,5-2.8,5.4-5.6c0.5-3-0.8-5.6-3.5-7.4c-0.7-0.5-1.3-1.6-1.3-2.4
	c-0.1-38.9-0.1-77.7-0.1-116.6c0-1.3,0.3-2.1,1.7-2.7c3.1-1.3,4.6-4.4,4.1-7.6c-0.5-3-2.9-5.3-5.9-5.6c-3.2-0.4-6.2,1.2-7.5,4.1
	c-1.2,2.8-0.5,6.4,2.1,8.2c1.7,1.2,2,2.6,2,4.4c0,38.2,0,76.3,0,114.5c0,1.8,0,3.3-2.2,4.1c-1,0.4-1.9,1.5-2.4,2.5
	c-0.7,1.5-1.8,1.9-3.3,1.8C843,8.4,839.2,8.4,835.4,8.4z M815,13.6c-1.8,0-3.3-1.5-3.3-3.3c0-1.7,1.7-3.3,3.4-3.3s3.3,1.7,3.3,3.4
	C818.4,12.2,816.8,13.7,815,13.6z M853.7-124.2c0-1.7,1.6-3.3,3.3-3.4c1.7,0,3.3,1.5,3.4,3.3c0,1.7-1.5,3.3-3.3,3.3
	C855.3-121,853.7-122.5,853.7-124.2z M856.3,6.7c1.7,0,3.3,1.7,3.3,3.4c0,1.8-1.6,3.2-3.4,3.2c-1.8,0-3.3-1.6-3.3-3.3
	C852.9,8.2,854.6,6.6,856.3,6.7z"/>
<path id="XMLID_285_" class="st0" d="M629.7-89.9c1.6-0.3,2.6,0.3,3.6,1.3c2,2,3.9,4.1,6.1,6c1,0.8,2.4,1.4,3.6,1.5
	c2.7,0.2,5.4,0.1,8.1,0c1.7-0.1,2.9,0.4,3.9,2c2,3.2,6.2,4,9.4,2.1s4.3-5.9,2.6-9.3c-1.6-3.2-5.6-4.7-8.9-3.1
	c-1.4,0.7-2.4,2.3-3.7,3.4c-0.7,0.6-1.4,1.3-2.2,1.3c-2.6,0.2-5.3,0.1-7.9,0c-0.8,0-1.8-0.4-2.4-0.9c-2.1-1.9-4.1-3.9-6-6
	c-0.5-0.5-0.8-1.7-0.5-2.3c0.3-0.6,1.3-1.2,2-1.2c15-0.1,29.9-0.1,44.9,0c0.8,0,1.7,0.5,2.4,1c14,11.6,27.9,23.2,41.8,34.8
	c4.3,3.5,8.5,7.1,12.8,10.6c0.7,0.6,1.9,0.9,2.8,0.9c4.5,0.1,9,0.1,13.5,0c1.5,0,2.4,0.4,3.2,1.7c1.8,3,5,4,8.3,2.9
	c2.9-1,4.7-3.7,4.6-6.9c-0.1-3.2-2.3-5.8-5.5-6.5s-6.2,0.7-7.8,3.8c-0.6,1.1-1.2,1.5-2.4,1.5c-4.2,0-8.5,0-12.7-0.1
	c-0.8,0-1.8-0.4-2.4-0.9c-18.2-15.1-36.3-30.2-54.5-45.2c-0.9-0.7-2.2-1.2-3.4-1.2c-7.5-0.1-15.1-0.1-22.6-0.1c-7.6,0-15.2,0-22.9,0
	c-1.3,0-2.1-0.4-2.8-1.6c-1.9-3.2-5.7-4.3-9-2.8c-3,1.4-4.6,4.9-3.7,8.2C622.8-91.4,625.9-89.3,629.7-89.9z M660.6-86.4
	c1.7,0,3.3,1.5,3.3,3.3s-1.5,3.4-3.2,3.4s-3.3-1.6-3.4-3.3C657.3-84.7,658.9-86.3,660.6-86.4z M764.6-53.1c1.8,0,3.2,1.6,3.2,3.4
	c0,1.8-1.6,3.3-3.3,3.3s-3.3-1.7-3.3-3.4C761.3-51.5,762.9-53.1,764.6-53.1z M628.6-100.1c1.7,0,3.3,1.5,3.3,3.3s-1.5,3.4-3.2,3.3
	c-1.7,0-3.3-1.6-3.3-3.3C625.3-98.4,626.9-100.1,628.6-100.1z"/>
<path id="XMLID_290_" class="st0" d="M754.6-17.6c20.2,0,40.4,0,60.7,0c1.3,0,2,0.4,2.6,1.6c1.5,3,4.6,4.4,7.8,3.7
	c3.1-0.7,5.2-3.2,5.3-6.4c0.2-3.3-1.6-6.1-4.7-7c-3.2-1.1-6.4-0.1-8.1,2.8c-0.9,1.5-2,1.8-3.6,1.8c-38.7,0-77.4,0-116.2,0
	c-1.7,0-2.8-0.3-3.7-1.9c-1.6-2.7-4.3-3.5-7.4-3c-2.6,0.5-4.8,2.9-5.3,5.5c-0.5,2.9,0.7,5.8,3.3,7.3c1.2,0.7,1.6,1.4,1.6,2.8
	c0,11.2,0,22.4,0,33.7c0,1.4-0.4,2.2-1.7,2.9c-2.9,1.5-4.2,4.4-3.6,7.5c0.5,2.8,2.7,5,5.5,5.6c3.1,0.6,5.8-0.8,7.6-3.5
	c0.5-0.7,1.3-1.5,2.1-1.7c8.1-2,16.3-4,24.4-6c1.2-0.3,1.7,0,2.3,1c1.7,3,4.8,4.3,7.9,3.4c3.1-0.8,5.1-3.4,5.2-6.7
	c0-3.2-1.9-5.8-4.9-6.7c-3.3-1-6.2,0.2-8.3,3.2c-0.6,0.9-1.7,1.7-2.7,1.9c-7.6,1.9-15.2,3.7-22.8,5.6c-1.8,0.5-2.9,0.4-3.9-1.4
	c-0.5-0.9-1.7-1.4-2.4-2.3c-0.6-0.7-1.3-1.5-1.3-2.3c-0.1-11.4,0-22.9-0.1-34.3c0-1.2,0.4-1.8,1.4-2.4c1.2-0.7,2.5-1.7,3.1-2.9
	c0.8-1.6,1.8-1.8,3.3-1.8c7.9,0,15.8,0,23.7,0c8,0,15.9,0,23.9,0c3,0,3,0,3,2.9c0,5.5-0.1,10.9,0,16.4c0,1.9-0.2,3.3-2.1,4.2
	c-0.8,0.3-1.4,1.2-1.8,1.9c-0.7,1.5-1.9,1.8-3.4,1.8c-7.7-0.1-15.4-0.1-23.1,0c-1.5,0-2.5-0.4-3.4-1.8c-2.3-3.6-7-4.3-10.2-1.8
	c-2.3,1.8-3.2,4.7-2.4,7.4s3,4.7,5.7,5c3,0.4,5.8-0.9,7.1-3.6c0.6-1.2,1.2-1.8,2.6-1.8c8,0.1,16.1,0,24.1,0c1.2,0,1.8,0.4,2.4,1.5
	c1.5,3,4.4,4.4,7.6,3.8c2.9-0.5,5.1-2.8,5.6-5.7c0.5-3.2-0.8-6-3.8-7.4c-1.2-0.6-1.6-1.3-1.6-2.6c0-6.1,0.1-12.2,0-18.3
	C752.4-17,753-17.6,754.6-17.6z M823.9-22.4c1.7-0.1,3.3,1.4,3.3,3.3c0,1.8-1.4,3.4-3.2,3.4c-1.7,0-3.3-1.5-3.4-3.3
	C820.6-20.7,822.2-22.4,823.9-22.4z M729.8,22.5c1.8,0.1,3.2,1.6,3.1,3.4c-0.1,1.8-1.6,3.3-3.4,3.2c-1.7-0.1-3.3-1.7-3.2-3.4
	C726.4,24,728.1,22.4,729.8,22.5z M691.7,32.3c0.1,1.8-1.4,3.4-3.1,3.4c-1.7,0.1-3.3-1.5-3.4-3.2c-0.1-1.7,1.5-3.3,3.2-3.4
	C690.1,29,691.7,30.5,691.7,32.3z M688.9-15.8c-1.7,0-3.3-1.7-3.3-3.4s1.7-3.3,3.4-3.3c1.8,0,3.2,1.6,3.2,3.4
	C692.1-17.3,690.6-15.7,688.9-15.8z M709.4,15c-1.7,0-3.3-1.5-3.4-3.2c-0.1-1.7,1.5-3.3,3.2-3.4c1.7-0.1,3.3,1.4,3.3,3.2
	C712.6,13.4,711.1,14.9,709.4,15z M754.1,11.7c0,1.8-1.6,3.3-3.3,3.3c-1.7-0.1-3.3-1.7-3.2-3.4c0-1.7,1.7-3.3,3.4-3.3
	C752.7,8.4,754.1,9.9,754.1,11.7z"/>
<path id="XMLID_298_" class="st0" d="M794.4,149.3c-0.1,3.8,0,7.6,0,11.4c0,3.7-0.1,7.3,0,11c0,1.6-0.3,2.6-1.8,3.5
	c-2.6,1.5-3.5,4-3.1,7c0.4,2.9,2.1,4.8,4.9,5.6c2.8,0.8,5.4,0,7.3-2.2c2.9-3.3,1.9-8.6-2.1-10.6c-1.4-0.7-1.7-1.5-1.7-2.9
	c0-7.7,0-15.4,0-23.1c0-1.4,0.3-2.3,1.6-3c2.8-1.7,3.9-4.4,3.3-7.5c-0.6-2.8-2.8-5-5.6-5.4c-3-0.5-5.6,0.8-7.4,3.5
	c-0.5,0.7-1.6,1.3-2.4,1.3c-38.9,0.1-77.7,0.1-116.6,0.1c-1.3,0-2.1-0.3-2.7-1.7c-1.3-3.1-4.4-4.6-7.6-4.1c-3,0.5-5.3,2.9-5.6,5.9
	c-0.4,3.2,1.2,6.2,4.1,7.5c2.8,1.2,6.4,0.5,8.2-2.1c1.2-1.7,2.6-2,4.4-2c38.2,0,76.3,0,114.5,0c1.8,0,3.3,0,4.1,2.2
	c0.4,1,1.5,1.9,2.5,2.4C794.1,146.7,794.4,147.8,794.4,149.3z M664.9,139c0,1.8-1.4,3.4-3.2,3.4c-1.7,0-3.3-1.6-3.4-3.3
	c0-1.7,1.5-3.3,3.3-3.4C663.3,135.7,664.9,137.2,664.9,139z M796.4,177.7c1.7,0,3.2,1.6,3.2,3.4s-1.5,3.3-3.3,3.3
	c-1.7,0-3.3-1.7-3.3-3.4C793.1,179.3,794.7,177.7,796.4,177.7z M792.6,139.9c0-1.7,1.7-3.3,3.4-3.3c1.8,0,3.2,1.6,3.2,3.4
	s-1.6,3.3-3.3,3.3C794.2,143.2,792.6,141.6,792.6,139.9z"/>
<path id="XMLID_303_" class="st0" d="M435.1-10.7c-0.2,0.3-0.3,0.5-0.4,0.7c-0.5,0.3-1.1,0.5-1.7,0.5c-4.2,0.1-8.4,0-12.7,0.1
	c-1.2,0-1.8-0.4-2.4-1.5c-1.5-3.1-4.6-4.5-7.8-3.8c-3.1,0.7-5.3,3.3-5.5,6.5c-0.1,3.2,1.6,5.9,4.6,6.9c3.3,1.1,6.5,0.1,8.3-2.9
	c0.8-1.3,1.7-1.7,3.2-1.7c4.5,0.1,9,0.1,13.5,0c1,0,2.1-0.4,2.8-0.9c0.9-0.8,1.9-1.5,2.8-2.3c3.7-1.6,8.5-4.9,9.8-7.1
	c0.9-1.6,0.1-2.5-1.4-2.1C443-17.3,438.4-15,435.1-10.7z M411.7-4.6c-1.7,0-3.3-1.5-3.3-3.3s1.4-3.4,3.2-3.4c1.7,0,3.3,1.6,3.4,3.3
	C415-6.3,413.4-4.6,411.7-4.6z"/>
<path id="XMLID_306_" class="st0" d="M439.6-52.1c-4.2,0.1-8.4,0-12.7,0.1c-1.2,0-1.8-0.4-2.4-1.5c-1.5-3.1-4.6-4.5-7.8-3.8
	c-3.1,0.7-5.3,3.3-5.5,6.5c-0.1,3.2,1.6,5.9,4.6,6.9c3.3,1.1,6.5,0.1,8.3-2.9c0.8-1.3,1.7-1.7,3.2-1.7c5,0.1,6.5,0.1,6.8,0.2
	c0.5,0,2.2-0.1,6.7-0.2c1,0,2.1-0.4,2.8-0.9c3.2-2.6,6.7-5.2,9.8-7.8c4.2-1.4,8-3.1,11.3-6.2c0.6-0.6,1.2-1.2,1.3-2.3
	c-0.2-1.6-1.5-1.6-2.7-1.4c-3.3,0.6-6.4,2-9.2,3.9c-0.9,0.6-1.8,1.3-2.6,2.1l-9.7,8.2C441.4-52.5,440.4-52.2,439.6-52.1z
	 M418.3-47.2c-1.7,0-3.3-1.5-3.3-3.3s1.4-3.4,3.2-3.4c1.7,0,3.3,1.6,3.4,3.3C421.6-48.9,420-47.2,418.3-47.2z"/>
<path id="XMLID_309_" class="st0" d="M381.2,60.2c15.1,0,30.2,0,45.3,0c1.6,0,3-0.4,4.3-1.4c0.6-0.4,1.1-0.9,1.6-1.4
	c1.3-1.2,2.6-2.5,3.9-3.7c5.8-6,11.5-12.1,19.1-15.9c1.4-0.7,2.6-2.1,3.7-3.3c0.9-1,1.4-2.3,0.6-3.5s-2.1-1.5-3.4-1.2
	c-3.3,0.7-6.3,2.1-8.2,5.2c-1.8,3-4.2,5.1-6.9,7.1c-3.6,2.6-6.5,5.9-8.7,9.8c-1.8,3.3-3.5,3.5-4.5,4.2c-0.7,0.3-1.5,0.5-2.2,0.5
	c-15,0.1-29.9,0-44.9,0.1c-1.3,0-2.1-0.3-2.9-1.5c-1.9-3.1-5.5-4.3-8.6-3.1s-4.9,4.6-4.3,7.9c0.6,3.4,3.4,5.4,7.2,5.7
	c1.1,0.1,2.3,0.6,3.1,1.3c2.4,2.1,4.6,4.4,6.8,6.7c1.3,1.4,2.6,2,4.6,1.9c2.7-0.1,5.4,0,8.1-0.1c1.5,0,2.4,0.3,3.1,1.8
	c1.4,2.9,4.6,4.2,7.7,3.5c3-0.7,5.1-3.1,5.3-6.2c0.2-3.2-1.5-6-4.3-7.1c-3.1-1.2-6.5-0.5-8.1,2.3c-1.3,2.1-2.8,2.4-4.8,2.2
	c-0.7-0.1-1.4,0-2.1,0c-4.1,1.1-7-0.8-9.5-3.9c-1-1.2-2.1-2.3-3.2-3.2c-1.2-1-1.3-1.9-0.6-3.4C379,60.1,380.1,60.2,381.2,60.2z
	 M372.1,62c-1.7,0-3.3-1.6-3.4-3.3c0-1.7,1.6-3.3,3.3-3.4c1.7,0,3.3,1.5,3.3,3.3S373.8,62,372.1,62z M404,70.7
	c1.7,0,3.3,1.5,3.3,3.3s-1.5,3.3-3.2,3.3s-3.3-1.6-3.3-3.3C400.7,72.4,402.3,70.7,404,70.7z"/>
<path id="XMLID_313_" class="st0" d="M527.4,233.8c-3.2-0.7-6.3,0.6-7.8,3.7c-0.6,1.2-1.3,1.6-2.6,1.6c-20.2,0-40.4,0-60.7,0
	c-1.6,0-2.2-0.5-2.2-2.2c0.1-6.1,0-12.2,0-18.3c0-1.3,0.4-2,1.6-2.6c2.9-1.4,4.3-4.3,3.8-7.4c-0.1-0.5-0.4-1.3-0.4-1.3
	c0-0.1,0.1-0.2,0.1-0.3c1.2-1,3.6-3.1,4.6-4.3c0.1-0.1,5.4-4.1,5.9-4.4l0.7-0.6c1.3-1.1-0.1-2.2-0.5-3.4c-2.9-8.8-5-17.7-5.4-27.1
	c-0.5-11.1,2.6-21.7,4.6-32.5c2.2-12,4.8-23.8,9.1-35.2c1.9-4.9,4.8-9.2,9.8-11.8c-0.4,1-0.9,1.9-1.3,2.9c-0.5,1.1-1.1,2.1-1.6,3.2
	c-0.4,1-1.4,2.4,0.1,3.2c1.4,0.8,2.2-0.4,2.8-1.5c10-16.9,26-25,44.2-29.8c2.8-0.7,5.8-1.2,8.7-0.9c11.4,1.3,21.4,5.4,29.5,13.8
	c4.8,5,9.4,10.3,13.7,15.8c4.6,5.8,7.6,12.6,11.7,18.8c5.6,8.4,13.7,14.9,18.5,24c0.5,0.9,1.4,1.5,2.5,1.3c1.3-0.3,1.6-1.3,1.8-2.5
	c0.3-3-0.5-5.6-2.6-7.7c-3.6-3.5-6.6-7.5-9.2-11.8c-6.5-10.6-14.3-20.2-22.2-29.8c-9.5-11.6-20.8-21-35.4-25.7
	c-1.8-0.6-3.5-1.3-5.4-1c-12.9,2.4-25.8,5.2-37.5,11.6c-1.2,0.7-2.6,1.2-3.3,2.5c-1.5,2.4-3.7,3.2-6.3,3.4c-1.3,0.1-3.1,0.1-3.4,1.4
	c-0.7,3-3,3.2-5.3,3.9c-2.4,0.7-4.4,2.3-6.1,4.2c-5.9,6.5-9.6,14.1-11.7,22.6c-2.8,11.6-4.8,23.4-7.3,35
	c-2.4,11.2-3.6,22.5-2.5,33.9c0.6,5.7,2.3,11.1,5.1,16.1c0.3,0.7,0.5,1.5,0.1,2.2c-1.5,2.8-5.8,4.9-8.2,7c-0.5,0.4-0.7,0.5-1,0.4
	c-0.8-0.5-1.6-0.9-2.6-1.1c-3.2-0.6-6.1,0.8-7.6,3.8c-0.6,1.1-1.2,1.5-2.4,1.5c-8,0-16.1,0-24.1,0c-1.4,0-2-0.6-2.6-1.8
	c-1.4-2.7-4.1-4-7.1-3.6c-2.8,0.3-5,2.3-5.7,5c-0.8,2.8,0.2,5.6,2.4,7.4c3.1,2.5,7.9,1.7,10.2-1.8c0.9-1.4,1.8-1.8,3.4-1.8
	c7.7,0.1,15.4,0.1,23.1,0c1.5,0,2.6,0.3,3.4,1.8c0.4,0.8,1.1,1.6,1.8,1.9c2,0.9,2.2,2.3,2.1,4.2c-0.1,5.5,0,10.9,0,16.4
	c0,2.9,0,2.9-3,2.9c-8,0-15.9,0-23.9,0c-7.9,0-15.8,0-23.7,0c-1.5,0-2.5-0.2-3.3-1.8c-0.6-1.2-1.9-2.2-3.1-2.9
	c-1.1-0.6-1.4-1.3-1.4-2.4c0-11.4,0-22.9,0.1-34.3c0-0.8,0.7-1.6,1.3-2.3c0.7-0.8,1.9-1.3,2.4-2.3c0.9-1.8,2.1-1.9,3.9-1.4
	c7.6,1.9,15.2,3.7,22.8,5.6c1,0.3,2.1,1.1,2.7,1.9c2.1,3,5,4.2,8.3,3.2c3-0.9,4.9-3.5,4.9-6.7c0-3.3-2-5.9-5.2-6.7
	c-3.1-0.8-6.2,0.4-7.9,3.4c-0.6,1-1.1,1.3-2.3,1c-8.1-2-16.3-3.9-24.4-6c-0.8-0.2-1.6-1-2.1-1.7c-1.8-2.8-4.5-4.1-7.6-3.5
	c-2.8,0.5-5,2.7-5.5,5.6c-0.6,3.1,0.7,6,3.6,7.5c1.3,0.7,1.7,1.5,1.7,2.9c0,11.2,0,22.4,0,33.7c0,1.4-0.4,2.1-1.6,2.8
	c-2.6,1.5-3.8,4.4-3.3,7.3c0.5,2.7,2.7,5.1,5.3,5.5c3.1,0.5,5.8-0.3,7.4-3c1-1.6,2.1-1.9,3.7-1.9c38.7,0,77.4,0,116.2,0
	c1.6,0,2.7,0.3,3.6,1.8c1.8,2.9,4.9,3.9,8.1,2.8c3-1,4.9-3.7,4.7-7C532.6,237,530.5,234.5,527.4,233.8z M411,213.2
	c-1.7-0.1-3.3-1.7-3.2-3.4c0.1-1.7,1.7-3.3,3.4-3.2c1.8,0,3.2,1.6,3.2,3.4C414.2,211.7,412.7,213.2,411,213.2z M431.3,192.4
	c1.7-0.1,3.3,1.4,3.4,3.2c0.1,1.8-1.4,3.4-3.1,3.4c-1.7,0.1-3.4-1.5-3.4-3.2C428,194.1,429.6,192.5,431.3,192.4z M386.9,188.9
	c0.1-1.7,1.7-3.3,3.4-3.2c1.8,0.1,3.2,1.6,3.1,3.4s-1.6,3.3-3.3,3.2C388.4,192.3,386.9,190.6,386.9,188.9z M390.7,243.9
	c-1.7,0-3.3-1.6-3.4-3.3c0-1.7,1.6-3.3,3.3-3.4c1.7,0,3.3,1.5,3.3,3.3C393.9,242.4,392.5,243.9,390.7,243.9z M449.3,209.9
	c0-1.7,1.5-3.3,3.2-3.4s3.3,1.4,3.3,3.3c0,1.8-1.4,3.4-3.2,3.4C451,213.2,449.3,211.6,449.3,209.9z M525.7,243.9
	c-1.7-0.1-3.3-1.7-3.2-3.4c0.1-1.7,1.7-3.3,3.4-3.3c1.8,0,3.2,1.6,3.2,3.4C529,242.5,527.4,244,525.7,243.9z"/>
<path id="XMLID_319_" class="st0" d="M635.3-19.9c-4.3-5.6-10-9.6-15.4-14C608.5-43.2,596-50.1,581-51.5c-7.2-0.7-14.5-0.1-21.7-2
	c-9.7-2.5-19.5-4.2-29.6-3.1c-9,1-17.9,2.1-26.5,5.2c-1.4,0.5-2.7,1.2-2.2,3c0.5,1.6,2,1.5,3.3,1.2c6.2-1.7,12.4-3.5,19-4.1
	c6-0.6,11.9-2,18.1-0.9c4.5,0.8,9,1.2,13.5,2.1c9.1,1.8,18.6,1,27.7,3.8c12.1,3.7,24.3,6.9,34,15.6c5.6,5.1,11.8,9.6,17.5,16.1
	c-2.8-0.5-4.4-1.3-5.8-2.5c-2.8-2.3-5.5-4.6-8.5-6.6c-12.7-8.6-26-15.9-41.4-18.1c-4.4-0.6-8.9-0.7-13.3-1.4
	c-9.2-1.5-17.9-5-27.4-5.2c-6.1-0.1-12.3-1.3-18.1,0.8c-6,2.1-12,2.8-18.2,2.9c-4.2,0.1-8.8,0.1-12.4,2.2c-6.1,3.5-12.7,5-19.2,6.9
	c-2.2,0.7-4.3,1.6-5.8,3.5c-0.8,1-1.5,2.2-0.7,3.3c0.7,1,1.8,0.1,2.7-0.1c1.4-0.4,2.7-0.9,4-1.4c12.4-4.2,24.2-10.3,37.6-11.2
	c8-0.5,15.8-3.4,23.9-2.8c11.6,0.9,23.1,2.5,34.5,4.6c20.9,3.9,40.5,10.7,57.3,24.2c2.8,2.2,5.9,4.2,9.2,5.6
	c1.8,0.8,3.6,1.6,5.6,1.5c2.3-0.2,3.2-1.3,2.4-3.5C639.2-15,637.2-17.4,635.3-19.9z"/>
<path id="XMLID_320_" class="st0" d="M613.4,1.5c-2.6-0.6-5-1.6-7-3.3c-3.7-3.2-8-5.1-12.4-7.1c-11.4-5-23-9-35.2-11.7
	c-6.6-1.5-13.1-2.9-20-2c-0.7,0.1-1.7-0.2-1.9,0.8c-0.2,0.9,0.7,1.2,1.4,1.6c4.2,2.3,8.7,4,13.5,4.5c7.5,0.8,14.9,1.2,22.2,3.9
	c8.8,3.2,17.6,6,25.9,10.5c13,7.1,25.7,14.6,38.1,22.7c0.8,0.5,1.6,1.6,2.5,0.8c0.8-0.7,0.5-1.9,0.2-2.8c-0.9-2.7-2.7-4.6-4.9-6.4
	C630,8.2,622.9,4.7,619-2.2c-0.3-0.6-1.1-1-1.8-1.4c-6.2-4.4-12.7-8.3-19.4-11.9c-12.3-6.6-25.6-10.2-38.9-13.6
	c-12.4-3.1-24.8-3.8-37.5-2c-10.9,1.5-21.3,5-31.8,8.4c-6.4,2.1-12.7,4.5-18.8,7.4c-1.1,0.5-2.7,0.9-2,2.7c0.6,1.7,2,2.4,3.6,2.1
	c1.5-0.3,2.9-0.8,4.3-1.4c2.2-1,4.3-2.1,6.4-3.3c15.2-8.1,31.4-12,52.3-11.8c6,0.4,15.7,0.7,25.4,2.8c18.6,4,35.4,12.3,51.7,21.8
	c0.8,0.5,1.5,1.3,2.1,2c0.4,0.5,0.9,1.1,0.5,1.7C614.8,1.8,614,1.6,613.4,1.5z"/>
<path id="XMLID_321_" class="st0" d="M636.6,74.5c1.4-1.8-0.2-3-1.4-4.1c-2.7-2.2-5.5-4.3-8.2-6.4c-1.8-1.4-4-2.8-4.7-4.9
	c-1.2-3.8-4.4-5.8-7-8.3c-9.8-9.4-20.5-17.6-32.3-24.1c-15.2-8.4-32.3-10.4-47.4-12.3c-11.1,0.2-20.1,2.7-29.3,3.3
	c-10.4,0.7-19.8,3.6-28.9,8.7c-11.6,6.5-21.6,15-31.8,23.2c-1.1,0.9-3.1,2.3-1.6,4c1.3,1.5,3.2,0.4,4.7-0.7c1.9-1.4,3.8-2.9,5.7-4.4
	c7.3-5.7,14.3-11.7,22.1-16.7c5.4-3.5,10.9-6.8,17.3-8.2c17-3.6,34.1-5.2,51.4-3.5c13.6,1.4,26.5,5.2,38.2,12.1
	c13,7.7,24.7,17.3,34.6,29c4.2,5,9,9.5,14.4,13.2C633.7,75.4,635.3,76.2,636.6,74.5z"/>
<path id="XMLID_322_" class="st0" d="M570.3,67.6c10.6,7.5,17.9,17.9,26,27.7c7.7,9.4,15.1,19.1,22.7,28.6c1.5,1.9,3.4,2.9,5.3,1.4
	c2-1.5,0.1-3.3-1-4.4c-4.6-4.7-7.8-10.4-11.8-15.5C602.6,94,594,82.5,583.7,72.2c-13.9-13.9-30.1-21-49.7-20.3c-2.7,0-5.4-0.1-8.1,0
	c-2.1,0.1-4.1,0.5-6.1,0.8c-27,4.2-45.8,20.7-62.1,41c-0.5,0.6-1.4,1.4-0.6,2.3c0.7,0.9,1.8,0.5,2.7,0.1c2.2-1.1,3.8-2.8,5.3-4.8
	c8.3-11,18.6-19.8,30.7-26.3c9.8-5.2,19.8-9.9,31.3-10.3c6.3-0.2,12.2,1.6,18.3,2.4C554.8,58.4,562.7,62.2,570.3,67.6z"/>
<path id="XMLID_323_" class="st0" d="M623.7-10c-10.3-6.8-20.8-13.1-32.2-17.7c-17.3-7-35.1-11.1-53.7-12.4
	c-6.6-0.5-13.1-1-19.6,1.3c-3,1.1-6.3,1.4-9.6,1.9c-20.6,3-39.6,9.7-56.2,22.5c-0.9,0.7-2.1,1.2-2.5,2.7c1,0.7,1.8,0.3,2.6,0.2
	c5-1,9.3-3.6,13.6-6c4.5-2.5,8.8-5.9,13.9-7.1c9-2.2,17.8-5,26.7-7.5c12.4-3.5,24.9-4.6,37.7-3.2c11.2,1.3,21.9,4.5,32.7,7.3
	c10.9,2.8,21.1,7.2,30.6,13.3c10,6.5,19.2,13.9,28.6,21.1c1.4,1.1,3,3.3,4.7,1.7c1.3-1.3-0.7-3.1-1.7-4.4
	C635.2-2.2,629.6-6.1,623.7-10z"/>
<path id="XMLID_324_" class="st0" d="M622.3-45.4c-10.9-6-22-11.9-33.5-16.9c-17.5-7.6-35.5-12-57.3-12.4c-3.1,0.3-9,0.7-14.8,1.5
	c-17.6,2.4-33.9,9.3-50.1,16.1c-1.4,0.6-2.6,1.5-3.8,2.5c-1.4,1.2-2.4,2.6-1.1,4.5c1.4,2.1,2.8,0.7,4.2-0.1
	c24.1-14.2,50.1-21,78.1-19c11.7,0.8,23.1,2.6,34,8c12,5.9,25.1,9.7,36.7,16.7c4.8,2.9,9.7,5.5,12.1,10.9c1,2.4,2.8,2.7,4.8,1.8
	c2.4-1.1,1.5-3.1,0.5-4.7C629.6-40.2,626.2-43.2,622.3-45.4z"/>
<path id="XMLID_325_" class="st0" d="M593.9,181.8c1.6,0.3,3-0.5,3.8-1.9c1.4-2.3,0.5-6.1-2-8.6c-1-1-2.1-1.9-3-2.9
	c-10.5-11.9-18.5-25.5-25.1-39.8c-5-10.8-10.1-21.4-19.1-29.7c-2.5-2.3-5.4-3.3-8.6-3.1c-8.9,0.8-18.2,9.3-20.1,18.2
	c-2.4,11.4-0.7,22.9-0.4,34.4c0,0.6,0.2,1.3,0.5,1.9c0.8,1.4,1.7,3.1,3.6,2.9c1.9-0.3,1.8-2.2,2.1-3.6c0.2-0.9,0.1-2-0.1-2.9
	c-1.4-6.6-2.4-13.2-2.1-19.8c0-2.2-0.1-4.1,0-6.1c0.6-7.1,2.8-13.4,9.2-17.5c5-3.2,9.5-3.1,14.1,0.8c5.8,5,10.1,11.3,12.8,18.2
	c6.9,17.4,15.2,33.8,28.9,47c1.1,1,1.9,2.3,2.8,3.6c1.1,1.8,1.7,3.7,1.7,5.9C592.9,179.9,592.2,181.4,593.9,181.8z"/>
<path id="XMLID_326_" class="st0" d="M598.1,133.6c3.5,5.2,8,9.7,11.1,15.3c1.2,2.2,2.3,1.5,3.1-0.3c1.4-3.3-0.3-5.9-2-8.5
	c-4.1-5.9-8.7-11.3-12.4-17.4c-4.1-6.8-8.6-13.3-12.7-20.1c-6.6-11-14.2-21.2-25.2-28.2c-5.8-3.7-12.1-6.3-18.8-7
	c-18.2,1.8-33.8,8.4-45.1,23c-1,1.3-2,3-0.6,4.4c1.7,1.6,3.2,0.2,4.5-1c0.4-0.4,0.8-0.8,1.1-1.2c7.3-11.9,18.9-17.2,31.7-20.5
	c7.2-1.9,14-0.8,20,3.3c10.2,6.8,19.3,15.1,24.6,26.4C583,113.3,591.1,123.1,598.1,133.6z"/>
<path id="XMLID_327_" class="st0" d="M581.5,42.3c-1.5-0.7-3-1.2-4.4-2.1c-5.4-3.3-11.3-5.5-17.4-7.1c-9.3-2.3-18.4-5.4-27.4-4.8
	c-15.6,0-30.3,3.1-43.5,8.9c-11,4.9-19.6,13.2-29.1,20.2c-3.6,2.7-6.5,6.1-9,9.8c-0.5,0.8-1.5,1.7-0.7,2.6c0.9,1.1,2.1,0.2,3-0.2
	c2.9-1.3,4.5-4,6.4-6.4c1.5-1.9,3-3.8,5.4-4.5c2.3-0.7,3.9-2.2,5.6-3.7c9.1-8.1,19.1-14.9,30.8-18.4c17.8-5.3,35.8-4.3,53.8-0.9
	c10.2,1.9,19.1,7.1,28.6,10.8c8.1,3.2,15.1,8.2,20.3,15.3c1,1.4,2.5,2.1,4,2.6c1.1,0.3,2.2,0.5,3-0.5c0.8-0.9,0.5-2.1,0.1-3.1
	c-1.2-2.5-2.9-4.7-5.2-6.2c-2.9-1.9-5.4-4.3-8.1-6.6c-3.9-3.3-7.7-6.7-12.1-9.3c-0.7-0.4-1.6-1-2.4-0.4s-0.1,1.4,0.1,2.1
	c0.2,0.7,1.1,1.3,0.3,2C583,42.9,582.2,42.6,581.5,42.3z"/>
<path id="XMLID_9_" class="st0" d="M657.3-53.1c-3.2-0.7-6.2,0.7-7.8,3.8c-0.6,1.1-1.2,1.5-2.4,1.5c-4.2,0-8.5,0-12.7-0.1
	c-0.8,0-1.8-0.4-2.4-0.9l-9.7-8.2c-0.8-0.8-7.8-5-8.8-5.4c-8.9-3.5-25.9-10.1-38.8-15.3c-9.5-3.8-19.4-5.2-28.8-6.1
	c-11.7,0.7-22.6,1.6-33.6,1.9c-10.2,0.4-19.7,2.9-28.7,7.7c-2.9,1.5-6,2.6-9.1,3.6c-0.9,0.3-2.5,0.2-2.2,1.8
	c0.2,1.4,1.4,1.9,2.6,2.1c1.3,0.2,2.6,0,3.9-0.4c4.1-1.1,8-2.9,11.8-4.6c5.3-2.3,10.8-4.3,16.6-4.6c13.6-0.8,27.2-2.4,40.9-1.4
	c7.8,0.6,15.5,1.6,23,4.1c16.3,5.5,48.8,20,50.2,21.3c2.9,2.4,6,4.7,8.9,7.1c0.7,0.6,1.9,0.9,2.8,0.9c4.5,0.1,6.2,0.2,6.7,0.2
	c0.3,0,1.8-0.1,6.8-0.2c1.5,0,2.4,0.4,3.2,1.7c1.8,3,5,4,8.3,2.9c2.9-1,4.7-3.7,4.6-6.9C662.6-49.8,660.4-52.4,657.3-53.1z
	 M655.8-42.9c-1.7,0-3.3-1.7-3.3-3.4s1.7-3.3,3.4-3.3c1.8,0,3.2,1.6,3.2,3.4C659-44.4,657.5-42.9,655.8-42.9z"/>
<path id="XMLID_329_" class="st0" d="M462.8,110.4c-3.6,11.2-7.9,22.2-8.5,34c-0.5,8.9-0.6,17.8-1.8,26.6c-0.5,4.1-0.4,8.1,1.1,12.5
	c1.5-1.4,1.6-2.8,1.9-4c1.5-7,1.8-14.2,2-21.4c0.2-6,0.7-11.9,1.7-17.8c1.7-9.4,5-18.5,6.3-27.9c1.2-8.6,4.7-15.7,10.1-22.2
	c3.1-3.7,6.4-7.1,9.6-10.7c0.6-0.7,1.8-1.3,0.9-2.4c-0.8-0.9-1.8-0.2-2.7,0.2c-1.9,0.9-3.4,2.4-4.8,3.8c-5.2,5.2-9.6,11.2-15.4,15.8
	c-1.7,1.3-2.8,3.3-4,5.1c-3.5,5.4-5.5,11.4-6.6,17.6c-1.4,7.5-3.8,14.7-7,21.6c-1.3,2.9-2.4,5.8-3.2,8.9c-1.2,5-0.9,9.7,2.2,13.9
	c1.4,1.8,2.7,1.9,4.3,0.5c2.9-2.6,3.3-5.9,2.3-9.2c-1.8-5.5-1.7-10.7-0.2-16.5c2.6-10.4,5.8-20.7,9.1-30.9c0.4-1.1,1-2.1,1.6-3.2
	c0.3-0.6,1-1,1.7-0.7c0.9,0.3,0.9,1.2,0.7,1.9C463.7,107.5,463.3,108.9,462.8,110.4z"/>
<path id="XMLID_330_" class="st0" d="M639.2,32.2c-2.4-4.2-6.6-6.5-10.2-9.5c-11.9-9.9-24.8-18.3-39-24.6
	c-10.8-4.8-21.9-8.4-32.6-9.6c-14,0.6-26.7,3.3-39.5,4.4c-10.9,1-20.5,6.3-30.4,10.3c-1,0.4-2.2,0.8-1.9,2.2
	c0.4,1.5,1.7,1.4,2.9,1.2c3.5-0.6,6.7-2,9.9-3.2c9.3-3.6,18.7-6.9,28.9-7c4.8-0.1,9.8-0.4,14.5-1.8c12.2-3.5,24-1.7,35.3,3.1
	c22.6,9.5,43.9,21.1,60.2,40.1c1,1.1,2.2,2.2,3.6,1.2c1.3-0.9,0.7-2.4,0.2-3.6C640.5,34.4,639.8,33.3,639.2,32.2z"/>
<path id="XMLID_331_" class="st0" d="M603.1,171.6c0.7,0.3,1.4,0.8,2.1,0.1c0.6-0.7,0.3-1.5,0-2.1c-0.7-1.3-1.6-2.6-2.3-3.9
	c-3.6-6.4-9.6-10.9-13.6-17c-6.4-9.6-11.3-20.1-16.1-30.5c-6.2-13.4-15.4-23.8-28.3-30.8c-3.9-2.1-7.8-3.7-12.3-4
	c-0.5,0-1,0.1-1.5,0.2c-0.9,0.2-1.8,0.3-2.5,0.6c-10.6,4.6-19.2,11.4-24.3,22.1c-0.8,1.7-2.5,4.4-1.1,5.3c2,1.2,3.4-1.6,4.6-3.1
	c5.4-6.2,10-13.1,17.2-17.7c4-2.5,7.8-3.5,12-2c7.8,2.8,14.5,7.6,20,13.6c6.1,6.7,9.3,15.1,13.3,23.1c5,9.9,9.5,20.1,16.8,28.6
	c4.3,5.1,8.7,10,13,15C600.8,170.1,601.8,171,603.1,171.6z"/>
<path id="XMLID_332_" class="st0" d="M564.2,88.8c-3.2-4-7.2-7.2-11.5-10.1c-6.9-4.7-14.3-5.1-22.1-3c-10.5,2.9-19.2,8.4-26.3,16.7
	c-8,9.4-14.2,19.8-16.1,32.2c-1.3,8.2-0.6,16.5,0.6,24.6c0.6,4.1,1.4,8.1,2.1,12.2c0.3,1.9,1.5,3.1,3.4,2.8c1.9-0.4,1.8-2.2,1.7-3.7
	c0-0.5-0.2-1.1-0.3-1.6c-2.5-11-3.2-22.1-2.8-33.3c0.2-5.2,1.4-10.2,4.1-14.6c3-4.8,6.1-9.5,9.4-14.1c6.3-8.8,15.1-13.9,25.3-16.9
	c6.6-1.9,12.9-1.2,19.4,2.8c-2.4,0.7-4.3-0.2-6.3,0.7c0.8,1.6,2.2,1.8,3.3,2.4c5.6,2.8,10.7,6.1,15.3,10.4c0.9,0.9,1.7,2.9,3.2,2
	c1.6-1,1-2.9,0.5-4.5C566.4,92,565.4,90.3,564.2,88.8z"/>
<path id="XMLID_333_" class="st0" d="M626.1,108.2c-4.9-7.5-10.5-14.4-16.6-20.9c-7.7-8.3-14.3-17.6-23.1-24.8
	c-13.1-10.7-28-16.9-44-18.3c-6.5,0.3-12,1-17.6,1.9c-4.3,0.7-8.6,1.2-12.9,2c-1.1,0.2-3.1,0.2-2.9,1.9c0.2,1.5,2,1.3,3.3,1.5
	c2.5,0.2,5-0.4,7.4-1c13-3.2,25.8-2.4,38.5,1.7c16.1,5.1,27.7,16.3,38.9,28.2c9,9.6,16.9,20.2,24.6,30.8c1.4,1.9,3.3,3.5,5.5,1.8
	C629.1,111.4,627,109.6,626.1,108.2z"/>
<path id="XMLID_334_" class="st0" d="M543.1,111.6c4,3.1,6.7,7.2,8.2,11.9c3.1,9.5,7.4,18.5,11.9,27.4c4.8,9.6,10.9,18.3,19.3,25.1
	c1.8,1.5,3.7,3,6.1,3.6c0.9,0.2,2.1,0.8,2.7-0.3c0.6-1.1-0.6-1.7-1.2-2.3c-15.4-14.1-25.4-31.8-32.8-51c-2.5-6.4-5.1-12.7-10.2-17.6
	c-2.2-2.1-4.8-3.3-8.1-3.2c-1.9-0.2-3.7,0.4-5.3,1.7c-2.5,2-4.2,4.7-5.1,7.8c-2,6.6-2.8,13.3-0.7,20.1c1.7,5.4,1.2,11.2,2.9,16.6
	c0.6,1.8,1.4,3.9,3.7,3.3c2.2-0.5,1.1-2.7,1-4.2c-0.6-6.6-2.8-12.9-3.8-19.5c-0.9-5.8-1.7-11.7,1.1-17.2
	C535.1,109.2,538.9,108.4,543.1,111.6z"/>
<path id="XMLID_335_" class="st0" d="M576.3,31.8c-0.4-0.3-1-0.5-1.5-0.7c-14.3-4.9-28.8-9-44.1-9.4c-2.1,0.2-4.1,0.5-6.2,0.5
	c-5.5,0.1-10.6,1.9-16.1,2.3c-13,0.9-24.9,4.8-34.9,13.5c-3.5,3-7.1,5.7-10.8,8.4c-5.5,3.9-11.2,7.5-15.9,12.4
	c-3.1,3.1-5.5,6.7-7.1,10.8c-0.3,0.6-0.8,1.5-0.1,2.1c0.7,0.5,1.4,0,2.1-0.3c2.4-1.1,4.4-2.9,5.8-5.1c4-6.3,9.4-11,15.3-15.3
	c9-6.7,17.7-13.7,28.2-18c9.5-3.9,19.8-4.9,29.7-6.9c8.2-1.7,16.2-0.8,24.5,0.9c10.2,2.1,19.8,5.6,29.7,8.6c1.2,0.4,2.9,1.6,3.7-0.3
	C579.3,33.5,577.5,32.7,576.3,31.8z"/>
<path id="XMLID_336_" class="st0" d="M630.4,101.8c1.6-1.5,0.6-3.2-0.7-4.6c-4.8-4.9-8.7-10.5-12.9-15.9C605.9,67.1,593.2,55,577,47
	c-12.2-6-25.1-9.6-38.8-10.8c-2.8,0.2-5.8,0.4-8.5,1.5c-2,0.8-5.6,1.4-5.1,3.6c0.7,2.6,4.2,2.1,6.6,1.5c6.2-1.4,12.1-2,18.7-0.8
	c13.6,2.5,25.5,8.3,36.2,16.3c15.7,11.7,28.5,26.4,40.2,42C627.3,101.7,628.6,103.5,630.4,101.8z"/>
<path id="XMLID_337_" class="st0" d="M533.2-11.9c2.7,0,5.8-0.2,7.9-2.9c-1.7-1-3.3-1.1-4.9-1.2c-13.5-0.6-26.5,1.7-39.1,6.8
	C477.5-1.3,459.4,9.5,441,19.9c-2.9,1.6-5.3,3.8-7.3,6.4c-1.6,2-3.1,4.2-3,7c1.2,0.2,1.7-0.6,2.4-1.1c11.1-8.1,22.3-16.3,34.6-22.6
	C488.4-1.1,508.9-12.2,533.2-11.9z"/>
<path id="XMLID_338_" class="st0" d="M464.2,28.5c2.1-0.4,4.2-1.1,6.1-2.2c5.1-2.9,10.2-5.8,15.4-8.5c7.4-3.9,14.6-8.4,22.8-10.4
	c20.4-5,40.9-5.1,61,1.9c1.4,0.5,2.9,0.8,4.1,1.2c1.1-0.3,2.3,0.4,2.6-0.7c0.2-1-0.9-1.4-1.7-1.7c-10.3-4.2-20.6-8.2-31.6-9.9
	c-5.1-0.8-9.9,0.9-14.8,1.3c-8.6,0.7-16.9,2.8-25,5.6c-11.5,3.9-21.5,10.8-32.3,16.1c-2.7,1.3-5.1,3.3-7.6,5.1
	c-0.6,0.4-1.5,0.9-1.2,1.8C462.3,29.1,463.4,28.7,464.2,28.5z"/>
<path id="XMLID_339_" class="st0" d="M509.4,212.5c1-0.2,1.8-0.9,1.8-2c0-1.8-1.4-2.7-2.8-3.2c-2.3-0.9-3.5-2.9-4.7-4.8
	c-11.8-19.4-17.6-40.7-19.5-63.2c-1-11.5,2.3-22.1,6.3-32.6c1-2.5,2.1-4.9,2.4-8c-1.8,0.3-2.4,1.4-3.1,2.3
	c-3.8,4.7-5.9,10.1-7.2,15.9c-2.8,11.8-2.8,23.6-0.9,35.5c2,12.2,4.7,24.3,9.3,35.8c3.4,8.4,8.6,15.5,14.1,22.5
	C506.2,212.2,507.6,213,509.4,212.5z"/>
<path id="XMLID_340_" class="st0" d="M558,178.7c4.7,4.5,10.5,7.7,15.3,12.1c1,0.9,2.3,1.2,3.7,1.1c1,0,2-0.2,2.5-1.2
	c0.6-1.2-0.6-1.7-1.3-2.3c-5.1-4.4-10.3-8.8-15.2-13.3c-3.6-3.3-7.6-6.3-9.8-10.8c-2.5-5.1-4.6-10.3-6.9-15.5
	c-1.7-3.9-3-7.9-3.9-12.1c-1.3-5.9-2.6-11.8-3.5-17.8c-0.2-1.5-0.7-3.6-2.9-3.2c-2.1,0.3-1.5,2.3-1.6,3.1c0.3,9.2,1.6,17.7,4.4,25.9
	C543.1,157.2,548.1,169.3,558,178.7z"/>
<path id="XMLID_341_" class="st0" d="M432.9,21.3c9.8-6.7,20-12.6,30.6-17.9C473.8-1.7,483.4-8,494.3-12c8.7-3.2,17.4-5.9,26.7-7
	c3-0.3,6-0.9,9-1.5c0.8-0.2,2-0.4,1.8-1.5c-0.1-1-1.2-1.1-2.1-1.2c-2.6-0.2-5.2-0.9-7.8-0.5c-9.3,1.2-18.5,2.8-27,6.9
	C477.7-8.6,460.7-0.3,443.6,8c-2.8,1.4-5.5,3.1-7.8,5.3c-2.5,2.4-4.7,5-5.2,8.5C431.7,22.3,432.3,21.7,432.9,21.3z"/>
<path id="XMLID_342_" class="st0" d="M613.1,29.1c5.7,6.1,12.3,11.6,18.4,17.5c2.8,2.7,5.8,5.2,8.8,7.8c0.5,0.5,1.3,1.1,2,0.5
	c0.8-0.6,0.1-1.4-0.2-2.1c-0.3-0.6-0.7-1.1-1-1.7c-4.4-7.6-10.8-13.2-17.1-19c-14.1-13-29.8-23.6-47.6-30.9
	c-5.3-2.2-10.8-3.9-16.6-4.9c-0.4,0.1-1.2,0.1-1.4,0.4c-0.5,0.6,0,1.2,0.4,1.8c1.4,2,3.4,3.1,5.6,3.7c8,2.1,15.4,5.5,22.6,9.6
	C596.2,16.8,605.6,21,613.1,29.1z"/>
<path id="XMLID_343_" class="st0" d="M501.7,16.3c3.6,0.1,7.2-0.8,10.5-2c9.3-3.3,19-3.7,28.4-2.3c21.3,3.2,42.7,6.2,62.6,15.4
	c0.7,0.3,1.5,0.6,2-0.2c0.6-0.7,0.2-1.4-0.3-2.1c-1.1-1.3-2.6-2-4-2.8c-9.3-5.1-19.6-6.9-29.7-9.7c-18.1-5-36.3-7.7-55-3.4
	c-6.1,1.4-12.3,2.6-18.2,5.5C499.2,16.5,500.5,16.3,501.7,16.3z"/>
<path id="XMLID_344_" class="st0" d="M501.3,215.7c0.6,0.4,1.3,1.1,2,0.4s0-1.4-0.3-2.1c-1.4-2.7-3.8-4.4-5.6-6.7
	c-8.2-10.4-13.3-22-15.1-35.1c-2.1-14.5-6.9-28.8-4.5-44.3c0-0.5-0.1-1.5-1.3-1.8c-1.5-0.4-2.2,0.7-2.7,1.8
	c-2,5.1-2.5,10.5-1.1,15.7c2.2,7.8,3.2,15.7,4,23.7c1.2,12.6,4.5,24.5,11.3,35.3C491.5,208,495.8,212.4,501.3,215.7z"/>
<path id="XMLID_345_" class="st0" d="M589.2,189.7c1.4,0.2,2.3,0,2.9-0.9c0.6-1,0.2-1.9-0.4-2.7c-0.9-1.3-2.4-1.9-3.7-2.6
	c-12.4-7.1-22.6-16.2-27.1-30.3c-0.3-0.9-0.7-1.8-1.7-2.3c-2.5-1.4-3.8-3.8-4.6-6.5c-1-3.2-1.8-6.5-2.8-9.7c-0.6-2-1.3-4-3.1-5.2
	c-1-0.7-2.1-1.4-3.3-0.8c-1.5,0.7-0.8,2.1-0.5,3.2c3.3,12.9,9.1,24.7,16.6,35.5c6.4,9.2,15.8,15.4,25.2,21.4
	C587.7,189.2,588.7,189.4,589.2,189.7z"/>
<path id="XMLID_346_" class="st0" d="M496.3,46.1c0.6-0.5,1-1.2,0.6-2s-1.2-0.8-2.3-0.9c-0.8,0.3-1.8,0.7-2.7,1.2
	c-24.7,12.3-41.7,32.5-55.9,55.5c-1.8,2.9-2.8,6.3-3.1,9.9c-0.1,0.8-0.2,1.9,0.9,2.2c0.9,0.2,1.7-0.4,2.2-1.1
	c0.4-0.5,0.7-1.1,0.9-1.7c6.1-13.4,13.9-25.5,24.5-36c9-8.9,18-17.6,29.6-23.1C493,49,494.6,47.4,496.3,46.1z"/>
<path id="XMLID_347_" class="st0" d="M508.8,166.6c-1.3-3,0.1-6-0.4-9c-0.7-6.4-0.6-12.8-0.8-19.2c0-1.4-0.5-2.7-2.2-2.7
	c-1.6,0-2.4,1.1-2.5,2.5c-0.1,1.3,0,2.6,0.2,3.9c0.5,3.1,1.1,6.2,1.6,9.3c0.2,1.4,0.3,3.1-1.6,3.4c-2.1,0.4-2.1-1.5-2.3-2.8
	c-0.4-2.5-0.7-4.9-0.8-7.4c-0.3-8.3-0.1-16.5,2.3-24.5c0.3-1.1,0.8-2.6-0.5-3.2c-1.4-0.7-2.1,0.7-2.8,1.6c-0.5,0.6-0.8,1.3-1.2,1.9
	c-2.6,4.1-2.3,8.5-2.1,13.2c0.3,8.9,1.3,17.5,4,26c1,3,2.2,5.9,3.4,8.8c0.6,1.5,1.9,1.7,3.3,1.2C507.6,169,509.4,168.1,508.8,166.6z
	"/>
<path id="XMLID_348_" class="st0" d="M509.8-86.6c5.7-0.9,11.2-2.5,16.5-5c0.6-0.3,1.7-0.4,1.4-1.5c-0.2-0.7-1.1-0.6-1.7-0.6
	c-2.6,0-5.3-0.3-7.8,0.1c-15.2,3-30.2,7-44.3,13.7c-3.3,1.6-6.4,3.6-8.4,7.6c3.3-0.2,5.7-1.3,8.1-2.3
	C485.1-79.9,497-84.5,509.8-86.6z"/>
<path id="XMLID_349_" class="st0" d="M524.9-59.9c14.1-0.6,28.2,0,42,3c2.9,0.6,5.8,1,8.6,1.4c0.6,0.1,1.4,0.2,1.7-0.6
	c0.4-0.9-0.4-1.5-1-1.8c-2.2-1.1-4.4-2.4-6.7-3.2c-10-3.8-20.6-3.7-31.1-3.9c-2.2,0-4.4-0.1-6.5,0c-4.5,0.3-9.1,0.2-13.6,1.1
	c-0.8,0.2-1.9,0.3-1.9,1.4c-0.1,1,0.9,1.4,1.7,1.7C520.4-59.8,522.7-59.8,524.9-59.9z"/>
<path id="XMLID_350_" class="st0" d="M553.2-86.9c4.7,0.8,9.7,0.8,14.1,2.3c13.1,4.4,26.4,8.3,38.7,14.6c1.6,0.8,3.2,1.5,5,1.4
	c0.7,0,1.6,0.2,2-0.7c0.3-0.9-0.4-1.4-0.9-1.9c-2.3-1.9-4.7-3.5-7.4-4.7c-12.5-5.3-25.5-9.2-38.4-13.4c-3.3-1.1-6.8-1.4-10.3-1.9
	c-0.9,0.1-1.9,0.1-2.8,0.3c-1.5,0.5-4.1,0-4,1.8C549-86.9,551.6-87.1,553.2-86.9z"/>
<path id="XMLID_353_" class="st0" d="M400.6,152.6c1,1,1.4,1.8,1,3.3c-0.8,3.2,0.4,5.9,3,7.6c2.4,1.6,5.5,1.5,7.8-0.2
	c2.5-1.8,3.4-4.5,2.8-7.7c-0.2-0.8,0.2-2.1,0.8-2.7c6.7-6.7,18.6-18.8,20-20.1c0.5-0.4,1-0.9,1.4-1.3c1.8-1.9,4-5.5,4.9-6.5
	c1.8-2.1,0,3.9-0.5,5.5c-1.2,3.7-2.9,7.3-4.2,10.9c-0.8,2.1-1.4,4.4-1.8,6.6c-0.3,1.4-0.8,3.5,0.9,4.1c1.7,0.6,2.4-1.4,3.1-2.7
	c0.7-1.3,1.4-2.8,1.7-4.2c3.5-14,8.3-27.6,12.6-41.4c0.3-0.9,1.2-1.9,0.1-3.1c-2.3,1.7-3.4,4.2-4.8,6.5c-4,6.6-8.5,15.3-12.3,19.2
	c-0.4,0.5-1,1.3-2.1,2.5c-0.5,0.6-13.7,13.7-20.6,20.6c-1.3,1.3-2.4,2.3-4.4,1.4c-1-0.4-2.4-0.3-3.4,0.1c-1.6,0.6-2.6,0.1-3.6-1
	c-2.6-2.7-5.4-5.4-8.1-8.1c-2.6-2.6-5.2-5.2-7.8-7.8c-1.2-1.1-1.6-2.1-1.2-3.8c0.8-2.9-0.4-5.4-2.7-7.1c-2.3-1.7-4.9-1.9-7.4-0.5
	c-2.5,1.5-3.8,3.8-3.6,6.8c0.3,4.4,4.7,7.4,9,6c1.4-0.5,2.3-0.1,3.3,0.8C389.7,141.8,395.1,147.2,400.6,152.6z M406.1,155.2
	c1.2-1.2,3.5-1.1,4.7,0.1s1.2,3.5-0.1,4.7c-1.3,1.2-3.4,1.2-4.7-0.1C404.8,158.6,404.8,156.4,406.1,155.2z M381.3,131.2
	c-1.2,1.2-3.4,1.2-4.7-0.1c-1.3-1.3-1.3-3.4,0-4.6c1.2-1.2,3.5-1.1,4.7,0.1C382.5,127.7,382.5,130,381.3,131.2z"/>
<path id="XMLID_355_" class="st0" d="M511.9,160.6c0.9,7.3,3.4,13.9,7.8,19.7c0.6,0.8,1.2,1.7,2.3,1.4c1.1-0.3,1.3-1.3,1.5-2.3
	c0.6-2.5,0.2-4.8-1-6.9c-3.8-6.5-5.5-13.6-6.3-21c-0.7-6.7-1.3-13.4-2-20.1c-0.1-0.9-0.3-2-1.2-2.1c-1.1-0.1-1.1,1.2-1.3,2
	c-1,4.4-0.3,8.9-0.5,12.1C511.4,150,511.2,155.3,511.9,160.6z"/>
<path id="XMLID_356_" class="st0" d="M532.9,208.6c-7.8-4.4-12.5-10.9-14.5-19.8c-1.2-5.3-3.4-10.6-6.8-15c-1-1.4-2.4-2.5-4.2-1.5
	c-1.8,1.1-2.3,2.7-1.3,4.8c2.7,5.7,5.1,11.5,7.9,17.1c3.3,6.5,7.5,12.2,14.1,15.8c1.3,0.7,2.7,1.4,4.5,1.4c0.5-0.2,1.5,0.3,1.8-0.6
	C534.8,209.6,533.6,209.1,532.9,208.6z"/>
<path id="XMLID_359_" class="st0" d="M652.7,67.5c1.5,0,2.4,0.4,3.2,1.7c1.8,3,5,4,8.3,2.9c2.9-1,4.7-3.7,4.6-6.9
	c-0.1-3.2-2.3-5.8-5.5-6.5s-6.2,0.7-7.8,3.8c-0.6,1.1-1.2,1.5-2.4,1.5c-4.2,0-8.5,0-12.7-0.1c-0.6,0-1.2-0.2-1.7-0.5
	c-0.9-0.6-5.1-5-5.3-5.3c-1-1.3-9.8-9.2-13.5-13.3c-2.3-2.6-4.7-5.1-7.2-7.5c-3.2-2.9-6.9-4.8-11.5-5.4c-0.4,0-1.2-0.2-1.5,0.6
	c-0.2,0.6,0.2,1,0.6,1.4c0.9,1,1.7,2,2.6,2.9c6.6,6.5,13.5,12.7,20.5,18.8l11.3,9.5c0.5,0.4,1.1,0.9,1.6,1.3
	c0.7,0.6,1.9,0.9,2.8,0.9C643.7,67.6,648.2,67.6,652.7,67.5z M661.8,62.2c1.8,0,3.2,1.6,3.2,3.4c0,1.8-1.6,3.3-3.3,3.3
	s-3.3-1.7-3.3-3.4C658.5,63.8,660.1,62.2,661.8,62.2z"/>
<path id="XMLID_360_" class="st0" d="M439.4,118.1c3.3-3,5.2-7,6.7-11.1c3.4-8.9,8.3-16.7,15.6-22.9c1.3-1.1,2.5-2.4,3.6-3.7
	c1.1-1.2,2-2.5,2.9-3.9c0.6-1,1.5-2.4,0.6-3.3c-1.2-1.1-2.2,0.4-3,1c-6.3,4.5-10.9,10.5-15,17c-6,9.5-10.7,19.7-17.6,28.6
	c-0.2,0.3-0.2,0.8-0.4,1.4C435.7,121.4,437.6,119.8,439.4,118.1z"/>
<path id="XMLID_361_" class="st0" d="M511.9,206.2c1-0.4,1-1.6,1-2c-0.4-5.7-3-9.8-5.4-14.1c-3.1-5.6-6.8-10.9-6.5-17.7
	c0-0.9-0.4-1.9-0.8-2.8c-0.8-1.7-1.8-4.2-4-3.6c-2.4,0.7-2,3.3-1.4,5.3c2.2,7.8,4.8,15.5,8.3,22.9c1.8,3.8,3.9,7.5,6.7,10.7
	C510.3,205.6,511,206.5,511.9,206.2z"/>
<path id="XMLID_362_" class="st0" d="M629.9,82.4c2.1,0.8,4.1,1.7,6.2,2.5c-6.5-8.1-13.8-14.9-24.4-18.8c0.6,2.9,1.9,4.4,3,5.9
	c4.9,6.6,10.6,12.7,14.8,19.9c0.4,0.7,1.2,1.3,1.9,1.7c0.9,0.6,1.9,1.5,2.9,0.5c0.8-0.8,0.1-1.8-0.3-2.7c-1.3-2.7-3.2-4.9-5.2-7
	c-0.4-0.4-1.1-1-0.8-1.7C628.3,81.9,629.2,82.2,629.9,82.4z"/>
<path id="XMLID_363_" class="st0" d="M535.4,184.6c1.2,0.8,2.4,1.7,3.5-0.1c1-1.5,0.9-2.8-0.7-3.9c-3.5-2.5-5.4-6.1-6.6-10.2
	c-0.9-3.1-1.8-6.3-3-9.3c-0.7-1.7-0.9-4.6-3.2-4.3c-2.3,0.4-2.4,3.3-2.8,5.4c0,0.2,0,0.4-0.1,1.1C523.8,172,527.7,179.4,535.4,184.6
	z"/>
<path id="XMLID_364_" class="st0" d="M442-29.6c3.9-0.9,6.8-2.5,9.6-3.9c5-2.4,9.8-5.7,15.4-5.9c5.2-0.2,6.3-3.6,7.7-7.3
	c0.4-0.9,0.7-2-0.2-2.7c-0.8-0.6-1.6,0.3-2.3,0.7c-3.6,2.5-7.7,4-11.7,5.7c-4.6,2-9.2,3.8-13.2,6.9C445.4-34.5,443.5-32.9,442-29.6z
	"/>
<path id="XMLID_365_" class="st0" d="M468.9,174.7c0.1,4.1,0.9,8.2,2.3,12.1c0.7,2,2.4,3.1,4.3,2.6c1.8-0.5,1.4-2.4,1.1-3.9
	c-0.2-1-0.3-1.9-0.6-2.9c-2.4-8.6-4.1-17.3-3.5-26.3c0.1-1.4-0.1-2.8-0.6-4.2c-0.3-1-0.8-2-1.9-1.9c-1.4,0.1-1.1,1.4-1.1,2.3
	c0,3.9,0,7.8,0,11.7l0,0C468.9,167.7,468.8,171.2,468.9,174.7z"/>
<path id="XMLID_366_" class="st0" d="M531,57.1c-5.1-0.2-10.3-0.5-14.9,2.1c-4.5,2.5-9.2,4.3-14,6.2c-3.9,1.5-7.6,3.3-10.8,6
	c-1,0.9-2.4,1.6-2.3,3.3c1.4,0.8,2.6-0.1,3.7-0.5c3.7-1.6,7.4-3.2,11-5c7.8-3.9,15.7-7.4,24.4-8.6c1.1-0.1,2.1-0.6,3.1-1
	c0.7-0.3,1.6-0.6,1.4-1.5C532.4,57.3,531.7,57.1,531,57.1z"/>
<path id="XMLID_367_" class="st0" d="M463.3-5.4c1.9-0.8,4.1-2.3,3-4.6c-1.2-2.6-3.5-1-5.3-0.2c-0.5,0.2-1,0.5-1.4,0.8
	c-3.8,3-8.2,4.9-12.6,6.7c-3.2,1.3-6.4,2.7-9.4,4.3c-2.8,1.5-5.5,3.4-6.5,6.9c4.5-2,9-4,13.6-5.6C451.1,0.6,457-2.9,463.3-5.4z"/>
<path id="XMLID_368_" class="st0" d="M450.5,28.4c2.5-0.7,4.8-2,7-3.4c3.4-2.2,6.7-4.4,10.2-6.4c3.7-2.1,7.5-3.9,11.2-5.9
	c0.9-0.5,2.1-1.2,1.7-2.5c-0.4-1.2-1.7-1.2-3-1.4c-0.6,0.2-1.4,0.4-2.2,0.8c-4.7,2.4-9.6,4.7-14.2,7.3c-4.5,2.5-8.7,5.4-12.2,9.2
	c-0.6,0.6-1.5,1.3-0.9,2.2C448.7,29,449.7,28.6,450.5,28.4z"/>
<path id="XMLID_369_" class="st0" d="M473.5,70.4c3.8-1.5,7-3.9,10.2-6.3c5.1-3.9,10.3-7.6,16.7-9.3c1-0.3,2.2-0.4,2.7-1.8
	c-1.5-0.7-3.2-1.1-3.9-3c-0.4-1.1-1.2-0.6-1.8-0.1c-5.5,4.1-11.8,6.8-17.5,10.7c-3.2,2.1-6,4.6-8,8c-0.4,0.6-1,1.4-0.4,2.1
	C472,71.3,472.8,70.7,473.5,70.4z"/>
<path id="XMLID_370_" class="st0" d="M551.4,201.9c-0.2-0.2-0.5-0.4-0.8-0.5c-3.7-2.1-6.8-5-10-7.8c-3.1-2.9-6.2-5.8-9.8-8
	c-2.1-1.3-4.3-2.4-6.9-2.1c-0.2,1.1,0.5,1.5,1,2c4.4,4.2,8.8,8.4,13.2,12.6c3.4,3.2,7.2,6,11.7,7.5c1.3,0.5,3.2,2.4,4,0.9
	C554.8,204.7,552.8,203.2,551.4,201.9z"/>
<path id="XMLID_371_" class="st0" d="M487-48.9c0.1,0,0.2,0,0.3-0.1c5-4,11.3-4.8,17.1-6.7c1.8-0.6,3.4-1.4,4.6-2.9
	c0.5-0.6,0.9-1.3,0.7-2.1c-0.4-1.1-1.3-0.5-2.7-0.5c-7.6,1.3-15.7,3.1-22.7,8.2c-1.3,0.9-3.7,2.1-2.8,3.8
	C482.6-47.4,485.1-48.4,487-48.9z"/>
<path id="XMLID_372_" class="st0" d="M560.3,198.9c-4.9-4.6-10.3-8.6-15.7-12.5c-0.4-0.3-0.9-0.5-1.3-0.7c-1.7-0.1-2.7,1.2-2.2,2.8
	c0.4,1.4,1.4,2.5,2.4,3.4c4.4,4.1,9.6,6.9,15.1,9.3c0.9,0.4,2.1,0.8,2.6-0.2C561.9,200.2,560.9,199.5,560.3,198.9z"/>
<path id="XMLID_373_" class="st0" d="M534.9,199.3c-3.4-3-7.6-5-9.8-9.3c-0.2-0.3-0.6-0.6-0.9-0.8c-1.4,0.3-1.9,1.2-1.9,2.4
	c0,1.7,1,3.1,2,4.3c2.3,2.8,4.8,5.3,7.9,7.2c1.9,1.1,4.4,4.2,5.9,2.1C539.8,203.1,536.8,201,534.9,199.3z"/>
<path id="XMLID_374_" class="st0" d="M439.4-22.5c-0.4,0.5-0.7,1.2-0.7,1.7c0,0.7,0.8,0.6,1.3,0.5c5.3-1.5,10.7-2.9,15.4-6
	c0.7-0.5,1.5-1.1,1.2-2.1c-0.4-1.3-1.6-1.2-3-1.3C448.3-28.9,443.1-27.1,439.4-22.5z"/>
<path id="XMLID_375_" class="st0" d="M513.7,118.7c1.6,0.3,2-1.7,2.6-2.9c1.7-3.9,3.3-7.8,4.8-11.7c0.5-1.2,0.7-2.7-0.7-3.5
	c-1.4-0.7-2.2,0.6-2.9,1.5c-2.9,3.8-4.5,8.1-5,12.6C512.7,116.4,512.1,118.4,513.7,118.7z"/>
<path id="XMLID_376_" class="st0" d="M523.6,36.1c-0.3-1-1.2-1.2-2.1-1.2c-7.5,0-14.4,2.3-20.7,6.5c7.4-0.2,14.6-1.3,21.6-3.6
	C523.1,37.5,523.8,37.1,523.6,36.1z"/>
<path id="XMLID_377_" class="st0" d="M430.7,86.5c1.8,0.5,2.6-0.9,3.1-2.2c1.1-2.6,2.2-5.1,4-7.3c0.9-1.1,1.2-2.6-0.9-2.8
	c-3.2-0.2-8.7,5.2-8.6,8.5C428.3,84.5,429,86,430.7,86.5z"/>
<path id="XMLID_378_" class="st0" d="M432.1,39.2c-0.4,1.6,0.2,2.2,1.5,2.3c1.7-0.1,12-8.2,12.4-9.5c0.4-1.2-0.3-1.5-1.3-1.6
	C441.2,30.1,432.9,36,432.1,39.2z"/>
<path id="XMLID_379_" class="st0" d="M519.1,44.1c0.3-0.1,0.8-0.6,0.8-0.8c0-0.8-0.7-1-1.4-1.1c-5.7-0.2-11.2,0.4-16.3,3.1
	c-0.8,0.4-2,1-1.8,2.1c0.3,1.5,1.8,0.7,2.7,1C508.8,48,513.7,45,519.1,44.1z"/>
<path id="XMLID_380_" class="st0" d="M431.9,98.3c0.5-0.3,1.4-0.4,1.8-1c2.8-3.7,4.6-8,6.9-12c0.3-0.4,0.3-1.2-0.3-1.4
	c-0.4-0.2-1.1-0.1-1.5,0.2c-4.1,3.2-7.5,6.8-8.7,12.1C429.8,97.4,430.2,98.3,431.9,98.3z"/>
<path id="XMLID_381_" class="st0" d="M526.5,98.5c2.5-1.2,5-2.4,7.5-3.7c0.9-0.5,2.3-0.9,1.9-2.2c-0.4-1.3-1.8-0.8-2.7-0.9
	c-3.3,0-7.3,1.4-9,3.2c-0.9,0.9-1.6,1.9-0.9,3.1C524.2,99.3,525.4,99,526.5,98.5z"/>
<path id="XMLID_382_" class="st0" d="M484.1,205.3c-1-0.1-1.3,0.4-1.4,1.3c-0.2,2.3,3.7,9,5.9,9.8c1.5,0.5,3,0.8,3.5-1.1
	C492,213.6,485.4,205.5,484.1,205.3z"/>
<path id="XMLID_383_" class="st0" d="M451.3-43.4c1.3-1,3-1.2,4.5-1.7c1-0.4,2.2-0.7,2.1-2.1c-0.1-1.3-1.2-1.7-2.3-2
	c-0.8-0.3-1.7-0.3-2.4-0.4c-2.5,0.2-4.7,0.6-5.5,3.3c-0.4,1.2-0.3,2.4,0.6,3.3C449.4-42,450.4-42.7,451.3-43.4z"/>
<path id="XMLID_384_" class="st0" d="M480.8,113.3c1.1-3.3,1.9-6.6,2.8-9.6c-0.1-1.1,0.2-2.1-0.8-2.3c-0.9-0.2-1.3,0.6-1.7,1.3
	c-1.7,3-3.1,6.2-4,9.5c-0.3,1.2-1.3,2.7,0.5,3.3C479.2,116,480.4,114.7,480.8,113.3z"/>
<path id="XMLID_385_" class="st0" d="M508.5,117.3c-0.2-0.8,0-2-1.2-2c-1,0-1.2,1.1-1.4,2c-1.1,3.4-1.2,7-1.6,10.5
	c-0.1,0.9,0.1,2.1,1.3,2.3c1.4,0.3,1.9-0.9,2.1-2c0.5-2.8,0.9-5.5,1.3-8.3C508.8,119,508.7,118.2,508.5,117.3z"/>
<path id="XMLID_388_" class="st0" d="M645.2,222.3c-3.3-0.6-6.3,1-7.6,4.1c-0.6,1.3-1.4,1.7-2.7,1.7c-7.1,0-14.1,0-21.2-0.1
	c-0.9,0-2.1-0.4-2.8-1c-12.8-10.2-25.1-20-38.3-30.9c-1.5-1.2-1.8-1.7-1.8-1.7c-3.5-4.3-6.4-5.9-10.8-9.1
	c-6.8-5-13.3-10.1-15.7-18.9c-0.9-3.1-4.1-3.2-6-0.6c-1.9,2.6-1.8,6.2,0.8,9c8.5,9.2,17.9,17.5,29.1,23.4c0.4,0.2,0.7,0.3,1.2,0.6
	c5,2.5,26.5,21.2,39.8,31.8c0.8,0.7,2.1,1.1,3.2,1.1c7.4,0.1,14.8,0.1,22.2,0c1.7,0,2.8,0.4,3.8,1.8c1.9,2.8,5.3,3.5,8.3,2.2
	c2.9-1.2,4.5-4.2,4.1-7.4C650.5,225.2,648.2,222.9,645.2,222.3z M644,232.6c-1.7,0-3.3-1.6-3.3-3.3c0-1.7,1.6-3.3,3.3-3.3
	s3.2,1.5,3.3,3.3C647.2,231,645.7,232.6,644,232.6z"/>
<path id="XMLID_391_" class="st0" d="M683.4,167.4c-3.2-1.2-6.7-0.1-8.6,3.1c-0.7,1.2-1.6,1.5-2.9,1.5c-15,0-29.9,0-44.9-0.1
	c-1,0-2.1-0.5-3-1.1l-15.3-13.7c-1.1-1.3-1.8-2.6-2.8-3.8c-9.6-11.2-17.2-23.7-23.7-36.9c-2.3-4.7-5.1-9.1-8.5-13.1
	c-0.6-0.8-1.1-2.2-2.5-1.5c-1.2,0.6-1.2,2-1,3.2c0.6,3.1,2,5.9,3.4,8.8c8,16,20,30.5,30.5,44.9c0.4,0.6,1.4,1.2,1.9,1.6
	c1.7,1.4,12.2,11.1,15.7,13.9c1.4,1.1,2.8,1.6,4.5,1.5c15.1,0,30.2,0,45.3,0c1.2,0,2.2-0.1,2.9,1.3s0.7,2.3-0.6,3.4
	c-1.2,1-2.3,2-3.2,3.2c-2.5,3.1-5.4,5-9.5,3.9c-0.7,0-1.4,0-2.1,0c-2,0.2-3.6-0.2-4.8-2.2c-1.7-2.8-5.1-3.4-8.1-2.3
	c-2.8,1.1-4.5,3.9-4.3,7.1c0.2,3,2.3,5.5,5.3,6.2c3.1,0.7,6.3-0.6,7.7-3.5c0.7-1.5,1.6-1.8,3.1-1.8c2.7,0.1,5.4-0.1,8.1,0.1
	c1.9,0.1,3.3-0.6,4.6-1.9c2.2-2.3,4.4-4.6,6.8-6.7c0.8-0.7,2-1.2,3.1-1.3c3.8-0.2,6.6-2.3,7.2-5.7
	C688.3,172,686.5,168.6,683.4,167.4z M648.8,192.7c-1.7,0-3.2-1.5-3.2-3.3s1.5-3.3,3.3-3.3c1.7,0,3.3,1.7,3.3,3.3
	C652.2,191.1,650.5,192.7,648.8,192.7z M680.8,177.3c-1.8,0-3.2-1.6-3.2-3.4s1.5-3.3,3.3-3.3c1.7,0,3.3,1.7,3.3,3.4
	C684.1,175.7,682.5,177.3,680.8,177.3z"/>
<path id="XMLID_275_" class="st0" d="M831.4,68.8c-3.7-3-8.7-1.5-11.4,3.8c0-6,0-11.4,0-17.2c2.5,4.3,5.1,5.7,8.6,4.9
	c3-0.7,5.2-3.2,5.4-6.1c0.2-3.5-1.6-6.2-4.7-7.3c-3.1-1-6.4-0.1-8,2.7c-1,1.7-2.1,2.1-3.8,1.9c-0.8-0.1-1.5-0.1-2.3,0
	c-1.4,0.1-2.2-0.3-3-1.6c-1.5-2.7-4.1-3.7-7.1-3.3c-2.7,0.4-5,2.4-5.6,5.1c-0.7,2.9,0.1,5.4,2.4,7.3c3.3,2.7,8.2,1.6,10.5-2.2
	c0.3-0.5,0.6-1.2,1.1-1.5c1.3-0.9,2.8-0.1,2.8,1.6c0,5.6,0.1,11.2,0,16.8c0,1.8,0.4,2.6,2.4,2.7c0.8,0,1.8,1,2.4,1.8
	c1.9,2.5,4.2,3.5,7.2,3c2.8-0.5,4.8-2.3,5.4-5.1C834.5,73.2,833.7,70.7,831.4,68.8z M827.1,50.2c1.8,0.1,3.2,1.6,3.1,3.4
	c-0.1,1.8-1.6,3.3-3.3,3.2s-3.3-1.7-3.2-3.4C823.8,51.7,825.4,50.2,827.1,50.2z M806.3,56.9c-1.7,0-3.3-1.6-3.3-3.3s1.6-3.3,3.3-3.3
	s3.3,1.5,3.3,3.3C809.5,55.3,808,56.9,806.3,56.9z M826.9,77.6c-1.7-0.1-3.3-1.7-3.2-3.4c0.1-1.7,1.7-3.3,3.4-3.2
	c1.8,0.1,3.2,1.6,3.1,3.4C830.2,76.2,828.7,77.7,826.9,77.6z"/>
</svg>
