<?xml version="1.0" encoding="utf-8"?>
<!-- Generator: Adobe Illustrator 19.0.0, SVG Export Plug-In . SVG Version: 6.00 Build 0)  -->
<svg version="1.1" id="Layer_1" xmlns="http://www.w3.org/2000/svg" xmlns:xlink="http://www.w3.org/1999/xlink" x="0px" y="0px"
	 viewBox="49.5 250.8 661.6 383.6" style="enable-background:new 49.5 250.8 661.6 383.6;" xml:space="preserve">
<style type="text/css">
	.st0{fill:#FFFFFF;}
	.st1{fill:none;stroke:#FFFFFF;stroke-width:7;stroke-miterlimit:10;}
</style>
<path class="st0" d="M65.5,634.2c-0.1-30.9-0.1-44.5-0.1-75.4c0-2.9-0.7-5.9,2.1-8.3c2.3-2,4.4-3,7.4-2.9
	c31.1,0.1,62.2,0.1,93.3-0.1c3,0,6.6-1,9-2.7c1.8-1.3,3-4.6,3-7c0.2-19.3,0.2-38.5,0.1-57.8c0-5.7-2.6-8.3-7.8-8.4
	c-28.5-0.1-57-0.1-85.5-0.2c-12.4,0-24.7,0-37.1-0.1c0.1-1.7,0.1-3.2,0.1-4.7c42.2,0,84.4,0,126.6,0c4.6,0,7.2,2.6,8.4,8.5
	c0.3,1.4,0.4,2.8,0.4,4.2c0,19.8,0.1,39.6-0.1,59.4c0,2.9-1.1,5.8-1.9,8.6c-0.2,0.8-1.2,1.7-2.1,1.9c-3.7,1.1-7.5,2.7-11.3,2.8
	c-30.7,0.2-61.3,0.1-92,0.1c-5.5,0-7.8,2.3-7.8,7.7c0,29.1,0,44.9,0,74"/>
<path class="st0" d="M687.1,634.4c0.2-18.9,0.1-25,0.1-43.9c0-10,0-20,0-30c0-5.6-2.9-8.4-8.5-8.4c-31.2,0-62.4,0-93.6,0
	c-3.9,0-7.4-1-10.4-3.9c-1.8-1.7-2.5-3.5-2.5-5.9c0.1-22,0-43.9,0-65.9c0-6.3,3.5-9.8,9.7-9.8c41.8,0,83.5,0,125.3,0
	c4.1,0,4.1,0,3.5,4.6c-3,0-6.1,0-9.2,0c-38.3,0-76.6,0-114.9,0c-7.6,0-9.7,2-9.7,9.6c0,19.2,0.1,38.3-0.2,57.5
	c-0.1,6.1,4.7,9,10.6,9c31.1,0.2,62.2,0.1,93.3,0.1c4.5,0,8.4,0.8,10.4,5.3c0.7,1.5,0.9,3.3,0.9,5c0,29.5-0.1,46.1-0.2,75.6"/>
<path class="st0" d="M55.4,634.2c-0.1-75.2-0.1-5.5,0-80.7c0-6.6,4.1-10.9,10.1-13.3c2-0.8,4.2-1.3,6.3-1.3
	c30.8-0.1,61.6-0.1,92.3-0.1c4,0,7.4-3.4,7.4-7.3c0-15.8,0-31.6,0-47.5c0-3.2-2.1-5.5-5.1-5.5c-38.4,0-76.8,0-115.3,0
	c-0.5,0-1.1,0.1-1.6,0.2c0.5-1.5,0.5-3.3,0.5-5c1.3,0.1,2.6,0.2,3.9,0.2c37.9,0,75.8,0,113.6,0c6.4,0,8.9,2.6,8.9,9
	c0,16.8,0,33.6,0,50.4c0,6.7-3.4,10-10.2,10c-30.3,0-60.7,0.1-91-0.1c-7.3,0-15.9,3.9-15.1,15.1c0.1,72.2,0.1,3.4,0,75.6"/>
<path class="st0" d="M695.9,634.3c0-62.7,0,15.9,0-46.8c0-10,0-20,0-30c0-9.5-4-13.8-14.2-13.9c-30.1-0.5-60.3-0.2-90.4-0.2
	c-6.1,0-10.4-4.3-10.4-10.4c0-16.3-0.1-32.5,0.1-48.8c0-2.4,0.5-5,1.6-7c1.6-3,4.8-3.1,7.9-3.1c34.9,0,69.7,0,104.6,0
	c4.1,0,8.2,0,12.3,0c3.9,0,4.1,0.3,3.4,4.7c-1.2,0-2.5,0-3.8,0c-38,0-76,0.1-114-0.1c-5,0-7.6,1.9-7.5,7.3
	c0.4,15.1,0.1,30.1,0.1,45.2c0,4.1,3.6,7.8,7.8,7.8c13.9,0,27.8,0,41.6,0c16.7,0,33.4-0.1,50,0c5.4,0,10.2,2.1,13.4,6.6
	c1.3,1.9,1.9,4.6,1.9,7c0.1,44,0.1,37.2,0.1,81.2"/>
<path class="st0" d="M70.3,252.5c0,47.6,0,3.1,0,50.7c0,9.9,0,19.8,0,29.7c0,4.5,2.6,7.1,7.1,7.1c32.5,0,65,0,97.5,0
	c4.9,0,9.5,4,10.2,8.9c0.3,1.9,0.4,3.9,0.4,5.8c0,19.8,0,39.6,0,59.4c0,4.4-2.6,9.2-5.6,9.9c-3.1,0.7-6.2,1.4-9.4,1.4
	c-23.8,0.1-47.6,0.1-71.3,0.1c-15.1,0-30.1,0-45.2,0c-1.3,0-2.6-0.1-3.8-0.2c-0.2-1.5-0.2-3-0.2-4.5c37.7,0,75.3,0.1,113,0
	c4.2,0,8.5-0.7,12.7-1.3c2.2-0.3,4.7-3.8,4.7-6.6c0-19.8,0.1-39.6,0-59.4c0-5.7-3.9-8.7-10.6-8.7c-28.2,0-56.4,0-84.6,0
	c-3.1,0-6.3-0.2-9.4,0.1c-6.8,0.7-10.6-4.3-10.5-10.5c0.4-19.8,0.1-39.6,0.1-59.4c0-38.7,0,14.5,0-24.2"/>
<path class="st0" d="M691.8,251.3c0,47.3,0,36.7,0,84c0,4.2-4.7,9-8.9,9.3c-1.8,0.1-3.7,0.1-5.5,0.1c-31.4,0-62.8,0-94.2,0
	c-3.6,0-6.2,2.7-6.2,6.2c0,20.4-0.1,40.9,0,61.3c0,5.4,3.3,8.6,8.7,8.6c25.7,0,51.4,0,77.2,0c14.7,0,29.5,0,44.2,0
	c1.3,0,2.5,0.1,3.9,0.2c0,1.4,0,2.6,0,4.1c-1,0.1-2,0.3-3,0.3c-5.6,0.4-11.3,0.8-16.9,1c-2.2,0.1-4.4-0.9-6.6-0.9
	c-33.6-0.1-67.1,0-100.7-0.2c-2.5,0-5.2-0.9-7.6-1.8c-2.6-1-4-3-4-6.2c-0.1-21.7-0.4-43.4-0.4-65.1c0-2.8-0.4-6,2-8.7
	s5.1-3.6,8.7-3.6c32.1,0.1,64.1,0.1,96.2,0.1c4.9,0,8.5-3.7,8.5-8.6c0-56.6,0-23.2,0-79.8"/>
<path class="st0" d="M60.1,251.9c0,28.4-0.1,51.8,0.1,80.2c0,2.9,0.8,5.9,1.9,8.7c1.9,4.8,6,6.4,10.9,6.4c30.5,0,60.9,0,91.4,0
	c7.5,0,12,4.5,12,12.1c0,16.4-0.1,32.7,0.1,49.1c0,3.6-1.3,5.6-4.6,7.2c-3.5,1.8-7,2.3-10.8,2.3c-35.6-0.1-71.2,0-106.9,0
	c-1.4,0-2.8,0.1-4.2,0.2c0-1.4,0-2.9,0-4.4c36.8,0,73.6-0.1,110.4,0c3.9,0,6.9-1.6,10-3.2c1-0.5,1.5-2.7,1.5-4.1
	c0.1-15.4,0.1-30.8,0.1-46.2c0-3.7-4.4-8.1-8.1-8.1c-31.1,0-62.2-0.1-93.3,0c-6.9,0-12.5-3.7-13.5-10.5c-0.4-2.9-1.2-5.7-1.2-8.6
	c-0.1-59.4,0-22.8-0.1-82.2"/>
<path class="st0" d="M700.6,251.4c0.1,61.4,0.1,24.9,0.1,86.3c0,5.3-2.5,9.5-6.7,12.3c-1.8,1.2-4.4,1.9-6.7,1.9
	c-31.4,0.1-62.8,0.1-94.3,0.1c-4.3,0-7.4,3.1-7.4,7.4c0,15.4,0,30.8,0,46.2c0,4.7,3.1,7.9,8,7.9c17.8,0,35.5,0,53.3,0
	c20.2,0,40.5,0,60.7,0c1.1,0,2.1,0,3.3,0c0,1.5,0,2.7,0,4.2c-1.2,0.1-2.2,0.2-3.3,0.2c-38.4,0-76.8,0-115.3-0.1
	c-2.4,0-4.9-1-7.2-1.9c-3-1.2-4.2-3.9-4.2-7c0-17.4,0-34.9,0.1-52.3c0-5.7,4.1-9.3,10.1-9.3c30.6,0,61.1,0,91.7,0
	c6.6,0,10.7-2.9,12.6-8.8c0.4-1.2,0.5-2.5,0.5-3.8c0-59.3,0-22.6,0-81.9"/>
<path class="st0" d="M230.5,321.5c0-10.9-0.1-19.6,0.1-28.3c0.1-3.1,0.3-6.4,1.4-9.3c0.9-2.4,2.1-4.7,5.8-5.4
	c11.5-2.3,23-0.6,34.5-1.1c7.2-0.3,14.4-0.1,21.6,0c3.8,0,7.7,3.6,7.9,7.3c0.2,2.7,0.2,5.4,0,8c-0.4,3.5-3.9,6.7-7.4,6.7
	c-8.9,0.1-17.9,0-26.8,0.2c-2.8,0.1-6,0.3-8.3,1.7c-1.6,1-2.7,4.1-2.8,6.3c-0.2,14.9-0.1,29.9-0.2,44.9c0,1.8-0.4,3.6-1,5.2
	c-1.1,2.8-3.2,4-6.3,3.9c-3.2-0.2-6.5-0.2-9.7,0c-5.2,0.4-6.5-1.9-7.7-7C229,342.9,231.4,331.1,230.5,321.5z M236.3,319.7
	L236.3,319.7c0,9.7-0.1,19.4,0,29c0.1,6.6,1.3,8.7,8.1,8.2c5.5-0.4,7.4-1.9,7.4-7.4c0-14.4,0.2-28.8,0-43.2
	c-0.1-8.6,3.8-11.1,11.4-11.4c8.9-0.3,17.8,0,26.8,0c4.4,0,7-2.2,7-6.1c0-4.2-2.8-6.9-7-6.9c-9.9,0-19.8-0.2-29.7,0.1
	c-6.3,0.1-12.5-0.9-18.8,1.1c-3.5,1.1-5.2,2.4-5.3,6.6C236.3,299.6,236.3,309.6,236.3,319.7z"/>
<path class="st0" d="M527.8,354.6c-1.2,5.1-2.5,7.4-7.7,7c-3.2-0.2-6.5-0.2-9.7,0c-3.1,0.1-5.2-1.1-6.3-3.9c-0.6-1.6-1-3.4-1-5.2
	c-0.1-15,0-30-0.2-44.9c-0.1-2.2-1.2-5.3-2.8-6.3c-2.3-1.4-5.5-1.6-8.3-1.7c-8.9-0.2-17.9-0.1-26.8-0.2c-3.5,0-7-3.2-7.4-6.7
	c-0.2-2.6-0.2-5.3,0-8c0.2-3.7,4.1-7.3,7.9-7.3c7.2-0.1,14.4-0.3,21.6,0c11.5,0.5,23-1.2,34.5,1.1c3.7,0.7,4.9,3,5.8,5.4
	c1.1,2.9,1.3,6.2,1.4,9.3c0.2,8.7,0.1,17.4,0.1,28.3C528,331.1,530.4,342.9,527.8,354.6z M523.2,289.7c-0.1-4.2-1.8-5.5-5.3-6.6
	c-6.3-2-12.5-1-18.8-1.1c-9.9-0.3-19.8-0.1-29.7-0.1c-4.2,0-7,2.7-7,6.9c0,3.9,2.6,6.1,7,6.1c9,0,17.9-0.3,26.8,0
	c7.6,0.3,11.5,2.8,11.4,11.4c-0.2,14.4,0,28.8,0,43.2c0,5.5,1.9,7,7.4,7.4c6.8,0.5,8-1.6,8.1-8.2c0.1-9.6,0-19.3,0-29l0,0
	C523.1,309.6,523.1,299.6,523.2,289.7z"/>
<path class="st0" d="M503.9,448c0-11.2,0-22.4,0-33.5c0-4,3.8-7.9,7.9-7.9c2.4,0,4.7,0,7.1,0c6.4,0,9.9,3.5,10,9.9c0.1,10,0,20,0,30
	c0,11.5,0.1,23,0,34.5c-0.1,5-2.2,9.4-9.3,10.7c-5.8,1-11.6,0.9-14.9-6.5c-0.5-1.1-0.8-2.4-0.8-3.6
	C503.9,470.4,503.9,459.2,503.9,448z M508.5,447.9L508.5,447.9c0,10.2,0,20.4,0,30.6c0,4.1,4.2,9.1,7.4,8.8c4.6-0.3,8.1-4.3,8.1-9.1
	c0-13.7,0-27.5,0-41.2c0-5.9,0.3-11.8-0.1-17.7c-0.3-6-3-8.5-8-8.2c-5.3,0.4-7.5,2.4-7.5,8.1C508.5,428.8,508.5,438.3,508.5,447.9z"
	/>
<path class="st0" d="M228.8,448.2c0-11.5,0-23,0-34.5c0-4,2.8-7,6.9-7.1c2.8-0.1,5.6,0,8.4,0c6.3,0,9.4,3,9.4,9.5
	c0,21.7-0.1,43.4,0.1,65.1c0,5.1-5.2,11.3-10.6,10.8c-2.9-0.3-6-0.3-8.8-1.1c-4-1.2-5.5-3.7-5.5-7.9
	C228.8,471.4,228.8,459.8,228.8,448.2z M233.4,448.3c0,10.2-0.2,20.4,0.1,30.6c0.1,2.3,1.1,5.6,2.8,6.7c6.7,4.3,12.5-0.7,12.6-7.2
	c0.1-20.1,0.1-40.2,0-60.3c0-4.6-2.8-6.8-8.5-6.8c-4.7,0-7.1,2.2-7.1,6.8C233.4,428.1,233.4,438.2,233.4,448.3z"/>
<path class="st0" d="M149.7,300.5c-7,0-14,0.4-21-0.1c-3.9-0.3-8-1.3-11.3-3.2c-3.6-2.1-4-9.7-2.9-13.7c1.7-6.5,6.2-6.8,11.4-6.8
	c16.3,0,32.7,0.3,49-0.1c7.2-0.2,12.7,10.7,9.3,15.6c-0.1,0.2-0.3,0.3-0.4,0.5c-1.6,6.5-7,7.3-12.3,7.6
	C164.4,300.7,157,300.4,149.7,300.5C149.7,300.4,149.7,300.4,149.7,300.5z M149.1,281.3L149.1,281.3c-7.6,0-15.3-0.1-22.9,0
	c-5.3,0.1-7.1,2.5-6.7,7.7c0.2,2.5,1.2,4.6,3.6,5.1c3.6,0.8,7.4,1.3,11.1,1.3c11,0.2,21.9,0.2,32.9,0c3,0,6.1-0.8,9.1-1.5
	c0.7-0.1,1.3-1,1.7-1.7c3.8-6.6-0.6-10.9-6.6-11C164,281.2,156.6,281.3,149.1,281.3z"/>
<path class="st0" d="M608.2,276.7c8.7,0,17.4,0,26.1,0c4.2,0,8,3.5,8.2,7.7c0.1,2.7,0.2,5.4,0.1,8.1c-0.1,3.5-2.5,5.7-5.9,6.4
	c-17.3,3.3-34.9,1.5-52.2,1.3c-12.1-0.1-15.4-9.6-10.3-19.8c1.3-2.7,4.3-3.7,7.3-3.7c4.5,0,9,0,13.5,0
	C599.4,276.7,603.8,276.7,608.2,276.7z M608.2,281.3L608.2,281.3c-8-0.1-15.9-0.1-23.9,0c-3.5,0-6.6,2.6-7.4,6
	c-0.8,3.3,1.4,5.2,3.8,6.4c2.3,1.1,5.1,1.8,7.7,1.8c12.7,0.2,25.4,0.2,38,0c2.8,0,5.7-0.8,8.4-1.5c0.9-0.2,2-1.2,2.3-2.1
	c1.7-4.7-0.6-10.7-6.4-10.6C623.3,281.4,615.8,281.3,608.2,281.3z"/>
<path class="st0" d="M149.7,617.7c-7,0-14,0.4-21-0.1c-3.9-0.3-8-1.3-11.3-3.2c-3.6-2.1-4-9.7-2.9-13.7c1.7-6.5,6.2-6.8,11.4-6.8
	c16.3,0,32.7,0.3,49-0.1c7.2-0.2,12.7,10.7,9.3,15.6c-0.1,0.2-0.3,0.3-0.4,0.5c-1.6,6.5-7,7.3-12.3,7.6
	C164.4,617.9,157,617.6,149.7,617.7C149.7,617.6,149.7,617.6,149.7,617.7z M149.1,598.5L149.1,598.5c-7.6,0-15.3-0.1-22.9,0
	c-5.3,0.1-7.1,2.5-6.7,7.7c0.2,2.5,1.2,4.6,3.6,5.1c3.6,0.8,7.4,1.3,11.1,1.3c11,0.2,21.9,0.2,32.9,0c3,0,6.1-0.8,9.1-1.5
	c0.7-0.1,1.3-1,1.7-1.7c3.8-6.6-0.6-10.9-6.6-11C164,598.4,156.6,598.5,149.1,598.5z"/>
<path class="st0" d="M608.2,593.9c8.7,0,17.4,0,26.1,0c4.2,0,8,3.5,8.2,7.7c0.1,2.7,0.2,5.4,0.1,8.1c-0.1,3.5-2.5,5.7-5.9,6.4
	c-17.3,3.3-34.9,1.5-52.2,1.3c-12.1-0.1-15.4-9.6-10.3-19.8c1.3-2.7,4.3-3.7,7.3-3.7c4.5,0,9,0,13.5,0
	C599.4,593.9,603.8,593.9,608.2,593.9z M608.2,598.5L608.2,598.5c-8-0.1-15.9-0.1-23.9,0c-3.5,0-6.6,2.6-7.4,6
	c-0.8,3.3,1.4,5.2,3.8,6.4c2.3,1.1,5.1,1.8,7.7,1.8c12.7,0.2,25.4,0.2,38,0c2.8,0,5.7-0.8,8.4-1.5c0.9-0.2,2-1.2,2.3-2.1
	c1.7-4.7-0.6-10.7-6.4-10.6C623.3,598.6,615.8,598.5,608.2,598.5z"/>
<g>
	<path id="XMLID_35_" class="st1" d="M484.3,535.7v-0.4c0-23.2-31.8-41.6-77.5-47v-51.6c24.4-10.8,41.5-35.2,41.5-63.6
		c0-38.4-31.1-69.5-69.5-69.5s-69.5,31.1-69.5,69.5c0,28.4,17,52.8,41.5,63.6v51.5c-45.1,5.2-76.9,23-78.2,45.7h-0.1v1.4
		c0,0,0,0,0,0.1l0,0v15.2l0.1,12.9v0.4c1.9,26.7,47.4,46.9,105.7,46.9c60.4,0,105.9-20.9,105.9-48.7v-1.6
		C484.3,542,484.3,537.2,484.3,535.7 M330.4,355.2c-5.2-5.2-2.9-15.9,5.1-23.9s18.7-10.3,23.9-5.1c5.2,5.2,2.9,15.9-5.1,23.9
		C346.4,358.1,335.6,360.4,330.4,355.2 M378.8,442.5c4.9,0,9.7-0.5,14.3-1.5v91.5v1.9c-1.5,1.3-6.6,3.4-14.3,3.4
		c-7.6,0-12.8-2.1-14.3-3.4v-93.3C369.1,442,373.9,442.5,378.8,442.5 M286.2,535.2c0.1-13.5,25.5-28.3,64.5-33.2v9.8
		c-26.4,3.7-45,12.6-45,23c0,13.7,32.5,24.9,72.7,24.9c40.1,0,72.7-11.1,72.7-24.9c0-10.3-18.3-19.1-44.3-22.9v-9.8
		c38.7,5,63.8,19.7,63.8,33.2v0.5v0.1c-0.8,19.7-42.7,36.3-92.2,36.3c-49.8,0-91.9-16.7-92.2-36.6V535.2L286.2,535.2z"/>
</g>
</svg>
