<?xml version="1.0" encoding="utf-8"?>
<!-- Generator: Adobe Illustrator 19.0.0, SVG Export Plug-In . SVG Version: 6.00 Build 0)  -->
<svg version="1.1" id="Layer_1" xmlns="http://www.w3.org/2000/svg" xmlns:xlink="http://www.w3.org/1999/xlink" x="0px" y="0px"
	 viewBox="156.1 -102.4 764 468.3" style="enable-background:new 156.1 -102.4 764 468.3;" xml:space="preserve">
<style type="text/css">
	.st0{display:none;fill:#D95B5B;}
	.st1{fill:#FFFFFF;}
	.st2{clip-path:url(#SVGID_2_);fill:#FFFFFF;}
	.st3{clip-path:url(#SVGID_4_);fill:#FFFFFF;}
	.st4{clip-path:url(#SVGID_6_);fill:#FFFFFF;}
	.st5{fill:none;stroke:#FFFFFF;stroke-width:15;stroke-miterlimit:10;}
	.st6{fill:none;stroke:#FFFFFF;stroke-width:9;stroke-miterlimit:10;}
	.st7{clip-path:url(#SVGID_8_);fill:#FFFFFF;}
	.st8{clip-path:url(#SVGID_10_);fill:#FFFFFF;}
	.st9{fill:none;stroke:#FFFFFF;stroke-width:6;stroke-miterlimit:10;stroke-dasharray:16;}
</style>
<rect id="XMLID_1_" x="115" y="-199.6" class="st0" width="841.9" height="1190.6"/>
<path class="st1" d="M917.6,109h-77.5c-1.4,0-2.5,1.1-2.5,2.5v22.9c0,0.5,0.2,0.9,0.4,1.3c-0.3,0.4-0.4,0.8-0.4,1.3v22.9
	c0,0.5,0.2,0.9,0.4,1.3c-0.3,0.4-0.4,0.8-0.4,1.3v22.9c0,0.4,0.1,0.8,0.3,1.2c-0.2,0.4-0.3,0.7-0.3,1.2v22.9c0,1.4,1.1,2.5,2.5,2.5
	h77.5c1.4,0,2.5-1.1,2.5-2.5v-22.9c0-0.4-0.1-0.8-0.3-1.2c0.2-0.4,0.3-0.7,0.3-1.2v-22.9c0-0.5-0.2-0.9-0.4-1.3
	c0.2-0.4,0.4-0.8,0.4-1.3V137c0-0.5-0.2-0.9-0.4-1.3c0.2-0.4,0.4-0.8,0.4-1.3v-22.9C920.1,110.2,919,109,917.6,109L917.6,109z
	 M910.3,206h-64.5v-13.2h64.5V206z M910.3,179.7h-64.5v-13.2h64.5V179.7z M910.3,154.5h-64.5v-13.2h64.5V154.5z M910.3,129h-64.5
	v-13.2h64.5V129z M898.8,122.1c0-1.8,1.5-3.3,3.3-3.3s3.3,1.5,3.3,3.3s-1.5,3.3-3.3,3.3C900.3,125.5,898.8,124,898.8,122.1
	L898.8,122.1z M898.8,147.2c0-1.8,1.5-3.3,3.3-3.3s3.3,1.5,3.3,3.3s-1.5,3.3-3.3,3.3C900.3,150.5,898.8,149,898.8,147.2L898.8,147.2
	z M898.8,172.9c0-1.8,1.5-3.3,3.3-3.3s3.3,1.5,3.3,3.3s-1.5,3.3-3.3,3.3S898.8,174.7,898.8,172.9L898.8,172.9z M898.8,199.2
	c0-1.8,1.5-3.3,3.3-3.3s3.3,1.5,3.3,3.3s-1.5,3.3-3.3,3.3C900.3,202.5,898.8,201,898.8,199.2L898.8,199.2z"/>
<g>
	<path class="st1" d="M256.1,139.4h-97.8c-1.2,0-2.2,1-2.2,2.2v22.8c0,1.2,1,2.2,2.2,2.2h97.8c1.2,0,2.2-1,2.2-2.2v-22.8
		C258.3,140.4,257.3,139.4,256.1,139.4L256.1,139.4z M182.8,158.3h-10.5c-2.9,0-5.2-2.3-5.2-5.2c0-2.9,2.3-5.2,5.2-5.2h10.5
		c2.9,0,5.2,2.3,5.2,5.2C188,155.9,185.7,158.3,182.8,158.3L182.8,158.3z M212.5,158.3H202c-2.9,0-5.2-2.3-5.2-5.2
		c0-2.9,2.3-5.2,5.2-5.2h10.5c2.9,0,5.2,2.3,5.2,5.2C217.7,155.9,215.3,158.3,212.5,158.3L212.5,158.3z M242.1,158.3h-10.5
		c-2.9,0-5.2-2.3-5.2-5.2c0-2.9,2.3-5.2,5.2-5.2h10.5c2.9,0,5.2,2.3,5.2,5.2C247.4,155.9,245,158.3,242.1,158.3L242.1,158.3z"/>
	<path class="st1" d="M244,101.2v33.5h7.2v-33.5c0-2-1.6-3.6-3.6-3.6C245.6,97.6,244,99.2,244,101.2L244,101.2z"/>
	<g>
		<g>
			<defs>
				<rect id="SVGID_1_" x="156.1" y="71.7" width="112.8" height="95.1"/>
			</defs>
			<clipPath id="SVGID_2_">
				<use xlink:href="#SVGID_1_"  style="overflow:visible;"/>
			</clipPath>
			<path class="st2" d="M255.8,92.8c0.7,0,1.4-0.3,1.9-0.8c1-1,1-2.7,0-3.8c-2.7-2.7-6.3-4.2-10-4.2c-3.8,0-7.4,1.5-10,4.2
				c-1,1-1,2.7,0,3.8c1,1,2.7,1,3.8,0c1.7-1.7,3.9-2.6,6.3-2.6c2.4,0,4.6,0.9,6.3,2.6C254.4,92.5,255.1,92.8,255.8,92.8L255.8,92.8z
				"/>
		</g>
		<g>
			<defs>
				<rect id="SVGID_3_" x="156.1" y="71.7" width="112.8" height="95.1"/>
			</defs>
			<clipPath id="SVGID_4_">
				<use xlink:href="#SVGID_3_"  style="overflow:visible;"/>
			</clipPath>
			<path class="st3" d="M267.8,80.1c-5.4-5.4-12.6-8.4-20.2-8.4c-7.6,0-14.8,3-20.2,8.4c-1,1-1,2.7,0,3.8c1,1,2.7,1,3.8,0
				c4.4-4.4,10.2-6.8,16.4-6.8c6.2,0,12.1,2.4,16.4,6.8c0.5,0.5,1.2,0.8,1.9,0.8c0.7,0,1.4-0.3,1.9-0.8
				C268.9,82.8,268.9,81.1,267.8,80.1L267.8,80.1z"/>
		</g>
	</g>
</g>
<g>
	<g>
		<g>
			<defs>
				<rect id="SVGID_5_" x="665.4" y="-87.6" width="133.2" height="88.8"/>
			</defs>
			<clipPath id="SVGID_6_">
				<use xlink:href="#SVGID_5_"  style="overflow:visible;"/>
			</clipPath>
			<path class="st4" d="M798.3-13.1c-0.1-0.1-0.3-0.2-0.5-0.2H666.1c-0.2,0-0.4,0.1-0.5,0.2c-0.1,0.2-0.2,0.3-0.2,0.5
				c0,0.1,2,12.3,17.4,12.3H781c15.4,0,17.4-12.2,17.4-12.3C798.5-12.7,798.4-12.9,798.3-13.1L798.3-13.1z M741.8-4.5H722v-4.6h19.8
				V-4.5z"/>
		</g>
	</g>
	<path class="st1" d="M679.7-18H784c1.5,0,2.7-1.2,2.7-2.7v-64.1c0-1.5-1.2-2.7-2.7-2.7H679.7c-1.5,0-2.7,1.2-2.7,2.7v64.1
		C677-19.3,678.2-18,679.7-18L679.7-18z M686.6-78h90.7v50.4h-90.7V-78z"/>
</g>
<path class="st5" d="M579.4,49.4c-25.8,0-48.1,14.4-59.9,35.4c-2.9-0.5-6-0.9-9.1-0.9c-22.6,0-41.6,14.6-48.6,34.8
	c-1-0.1-2-0.3-3.1-0.3c-28.6,0-51.7,23.2-51.7,51.7c0,28.6,23.2,51.7,51.7,51.7h172.4c28.6,0,51.7-23.2,51.7-51.7
	c0-22.6-14.6-41.6-34.8-48.7c0-1,0.3-2,0.3-3.1C648.4,80.3,617.5,49.4,579.4,49.4L579.4,49.4z"/>
<path class="st6" d="M587.5,37.2"/>
<g>
	<g>
		<defs>
			<rect id="SVGID_7_" x="295.3" y="274.8" width="168.8" height="91.1"/>
		</defs>
		<clipPath id="SVGID_8_">
			<use xlink:href="#SVGID_7_"  style="overflow:visible;"/>
		</clipPath>
		<path class="st7" d="M392.3,275.5h-92.4c-2.8,0-4.6,2.1-4.6,5v61.6c0,2.9,1.7,5.3,4.6,5.3H340v7.7h-14.2c-4.5,0-8.1,3.6-8.1,8.1
			v1.6h55.1v-1.6c0-4.5-3.7-8.1-8.2-8.1h-14.2v-7.7h41.9c2.8,0,4.9-2.4,4.9-5.3v-61.6C397.2,277.6,395.1,275.5,392.3,275.5
			L392.3,275.5z M386.7,331c0,3.6-2.9,6.6-6.6,6.6h-68.4c-3.6,0-6.6-3-6.6-6.6v-38.4c0-3.6,2.9-6.6,6.6-6.6h68.4
			c3.7,0,6.6,3,6.6,6.6V331z"/>
	</g>
	<g>
		<defs>
			<rect id="SVGID_9_" x="295.3" y="274.8" width="168.8" height="91.1"/>
		</defs>
		<clipPath id="SVGID_10_">
			<use xlink:href="#SVGID_9_"  style="overflow:visible;"/>
		</clipPath>
		<path class="st8" d="M416,274.8c-5.8,0-10.5,4.7-10.5,10.5v80.2H460V283c0-4.5-3.6-8.2-8.1-8.2L416,274.8L416,274.8z M432.9,355.6
			c-2.5,0-4.5-2-4.5-4.4s2-4.4,4.5-4.4s4.4,2,4.4,4.4C437.4,353.6,435.4,355.6,432.9,355.6L432.9,355.6z M448.1,306.2h-30.7v-4.9
			h30.7V306.2z M448.1,295.7h-30.7v-4.9h30.7V295.7z"/>
	</g>
</g>
<g>
	<g>
		<path class="st1" d="M283-83.8h-34c-2.8,0-5.1,2.3-5.1,5.1v65.8c0,2.8,2.3,5.1,5.1,5.1h34c2.8,0,5.1-2.3,5.1-5.1v-65.8
			C288.1-81.5,285.8-83.8,283-83.8L283-83.8z M260.6-80.1h10.8c0.4,0,0.6,0.3,0.6,0.6c0,0.3-0.3,0.6-0.6,0.6h-10.8
			c-0.4,0-0.6-0.3-0.6-0.6C259.9-79.8,260.2-80.1,260.6-80.1L260.6-80.1z M266-10.3c-1.4,0-2.6-1.1-2.6-2.6c0-1.4,1.1-2.6,2.6-2.6
			c1.4,0,2.6,1.1,2.6,2.6S267.4-10.3,266-10.3L266-10.3z M284.5-17.2h-37v-58.4h37V-17.2z"/>
	</g>
	<g>
		<path class="st1" d="M376.2-102.4h-68.6c-3.9,0-7,3.1-7,7v82.3c0,3.9,3.1,7,7,7h68.6c3.9,0,7-3.1,7-7v-82.3
			C383.2-99.2,380-102.4,376.2-102.4L376.2-102.4z M376.1-20.6h-68.5v-73.3h68.5V-20.6z M351.2-11.9h-18.8V-14h18.8V-11.9z"/>
	</g>
</g>
<line class="st9" x1="709" y1="160.2" x2="828.6" y2="160.2"/>
<line class="st9" x1="396" y1="-48.4" x2="671.3" y2="-48.4"/>
<line class="st9" x1="273.9" y1="153.2" x2="395" y2="153.2"/>
<line class="st9" x1="548" y1="323.4" x2="548" y2="230"/>
<line class="st9" x1="471.1" y1="321.4" x2="564.6" y2="321.4"/>
<line class="st9" x1="203" y1="320.4" x2="289.9" y2="320.4"/>
<line class="st9" x1="206.2" y1="322.9" x2="206.2" y2="177.2"/>
<line class="st9" x1="313.7" y1="156.1" x2="313.7" y2="11.6"/>
<line class="st9" x1="564" y1="28.8" x2="564" y2="-60.8"/>
<line class="st9" x1="801.2" y1="-47.2" x2="893" y2="-47.2"/>
<line class="st9" x1="878.9" y1="94.5" x2="878.9" y2="-51.2"/>
</svg>
