<?xml version="1.0" encoding="utf-8"?>
<!-- Generator: Adobe Illustrator 19.0.0, SVG Export Plug-In . SVG Version: 6.00 Build 0)  -->
<svg version="1.1" id="Layer_2" xmlns="http://www.w3.org/2000/svg" xmlns:xlink="http://www.w3.org/1999/xlink" x="0px" y="0px"
	 viewBox="26 190.4 664.2 412.6" style="enable-background:new 26 190.4 664.2 412.6;" xml:space="preserve">
<style type="text/css">
	.st0{fill:none;stroke:#FFFFFF;stroke-width:2;stroke-miterlimit:10;}
	.st1{opacity:0.5;fill:none;stroke:#FFFFFF;stroke-width:0.5;stroke-miterlimit:10;enable-background:new    ;}
	.st2{fill:#FFFFFF;}
	.st3{fill:none;stroke:#FFFFFF;stroke-width:0.5;stroke-linecap:round;stroke-linejoin:round;}
</style>
<rect id="XMLID_2_" x="27" y="191.4" class="st0" width="662.2" height="410.6"/>
<rect id="XMLID_11_" x="27" y="191.1" class="st1" width="662.2" height="83.6"/>
<rect id="XMLID_12_" x="27" y="357" class="st1" width="662.2" height="82.8"/>
<rect id="XMLID_13_" x="27" y="519.6" class="st1" width="662.2" height="82.8"/>
<rect id="XMLID_14_" x="27" y="192.2" class="st1" width="662.2" height="19.9"/>
<rect id="XMLID_15_" x="27" y="233.4" class="st1" width="662.2" height="19.9"/>
<rect id="XMLID_17_" x="27" y="357.1" class="st1" width="662.2" height="19.9"/>
<rect id="XMLID_16_" x="27" y="399.3" class="st1" width="662.2" height="19.9"/>
<rect id="XMLID_19_" x="27" y="274.6" class="st1" width="662.2" height="19.9"/>
<rect id="XMLID_18_" x="27" y="315.8" class="st1" width="662.2" height="19.9"/>
<rect id="XMLID_21_" x="27" y="439.5" class="st1" width="662.2" height="19.9"/>
<rect id="XMLID_20_" x="27" y="481.7" class="st1" width="662.2" height="19.9"/>
<rect id="XMLID_23_" x="27" y="519.6" class="st1" width="662.2" height="19.9"/>
<rect id="XMLID_22_" x="27" y="560.8" class="st1" width="662.2" height="19.9"/>
<rect id="XMLID_24_" x="26.4" y="190.7" class="st1" width="82.8" height="410.6"/>
<rect id="XMLID_25_" x="108.8" y="190.7" class="st1" width="82.8" height="410.6"/>
<rect id="XMLID_26_" x="191.2" y="190.7" class="st1" width="82.8" height="410.6"/>
<rect id="XMLID_27_" x="274.7" y="190.7" class="st1" width="82.8" height="410.6"/>
<rect id="XMLID_28_" x="357.9" y="190.7" class="st1" width="82.8" height="410.6"/>
<rect id="XMLID_29_" x="441.5" y="190.7" class="st1" width="82.8" height="410.6"/>
<rect id="XMLID_30_" x="524" y="190.7" class="st1" width="82.8" height="410.6"/>
<rect id="XMLID_31_" x="606.4" y="190.7" class="st1" width="82.8" height="410.6"/>
<rect id="XMLID_42_" x="399.1" y="192" class="st1" width="19.9" height="409.2"/>
<rect id="XMLID_41_" x="357.9" y="192" class="st1" width="19.9" height="409.2"/>
<rect id="XMLID_39_" x="233.2" y="192" class="st1" width="19.9" height="409.2"/>
<rect id="XMLID_38_" x="191" y="192" class="st1" width="19.9" height="409.2"/>
<rect id="XMLID_37_" x="316.7" y="192" class="st1" width="19.9" height="409.2"/>
<rect id="XMLID_36_" x="274.5" y="192" class="st1" width="19.9" height="409.2"/>
<rect id="XMLID_35_" x="150.8" y="192" class="st1" width="19.9" height="409.2"/>
<rect id="XMLID_34_" x="109.6" y="192" class="st1" width="19.9" height="409.2"/>
<rect id="XMLID_33_" x="68.4" y="192" class="st1" width="19.9" height="409.2"/>
<rect id="XMLID_32_" x="27.2" y="192" class="st1" width="19.9" height="409.2"/>
<rect id="XMLID_44_" x="565.9" y="192" class="st1" width="19.9" height="409.3"/>
<rect id="XMLID_43_" x="524.7" y="192" class="st1" width="19.9" height="409.3"/>
<rect id="XMLID_46_" x="483.5" y="191.9" class="st1" width="19.9" height="409.5"/>
<rect id="XMLID_45_" x="441.3" y="191.9" class="st1" width="19.9" height="409.5"/>
<rect id="XMLID_48_" x="649.4" y="191.9" class="st1" width="19.9" height="409.5"/>
<rect id="XMLID_47_" x="606.2" y="191.9" class="st1" width="19.9" height="409.5"/>
<g>
	<path id="XMLID_4_" class="st2" d="M447.1,560.9h-0.3v0.5v-0.5h-1h-87.1h-1h-1h-88.9h-1v0.5v-0.5l0,0h1h178h1H447.1 M267.8,553.7
		h-2v6.3h-0.5v2h0.5v0.5h2V562h88.9v6.9h2V562h87.1v0.5h2V562h0.3v-2h-0.3v-6.2h-2v6.2h-178L267.8,553.7L267.8,553.7z"/>
</g>
<g>
	<path id="XMLID_40_" class="st2" d="M233.8,233.3v0.2v1v284v1v0.3v-0.3v-1V378.1v-1v-1V234.5v-1V233.3 M234.8,232.3h-2v0.2h-0.5v2
		h0.5v141.6h-6.9v2h6.9v140.4h-0.5v2h0.5v0.3h2v-0.3h6.2v-2h-6.2v-284h6.3v-2h-6.3V232.3L234.8,232.3z"/>
</g>
<g id="XMLID_10_">
	<path id="XMLID_51_" class="st3" d="M288.5,484.7c2.3,3.7,10.5-12.3,13.1-8.2c0,0-13,5.6-11.3,8.3c1,1.7,10.2-7.4,10.7-6.7
		c0.1,0.2-9.1,5.3-8.4,6.4c0,0,6.4-5.7,7.2-4.5"/>
	<path id="XMLID_52_" class="st3" d="M282.2,463.6c0.8,1.3,2.1-3.3,3-1.9c0.4,0.6-6.5,2.4-5.2,4.4c7.8,12.5,28-17.5,28-17.5
		s-35.6,8.9-29,19.3l28.4-17.7c2.4,3.9-28.9,19.2-28.9,19.2c4.5,7.2,25.9-21.3,28.2-17.6l-28.5,19c4.3,6.9,23.6-24.2,27.8-17.4
		c0,0-30.4,14.8-28,18.7c3.9,6.2,27.3-17.1,27.3-17.1c8,12.8-29.1,15.4-27.3,18.3c5.2,8.3,22.6-23.2,26.7-16.7
		c0.9,1.4-26.5,17.8-26.5,17.8s18.5-28,25.9-16.2c3.6,5.8-30.6,9.4-25.7,17.3c0,0,23-18.9,25.1-15.7c4.4,7.1-24.7,16.6-24.7,16.6
		s19.9-21.8,24.1-15l-23.9,16c0,0,17.9-22.7,23-14.4l-22.7,15.3c6.8,10.9,22-13.7,22-13.7c6.2,10-21.4,14.6-21.4,14.6
		c3.2,5.2,14.6-22.9,20.8-13c5,8.1-21.3,12-20.2,13.8c2.4,3.8,20.4-12.7,20.4-12.7c5.5,8.8-19.7,13.5-19.7,13.5
		c1.3,2.2,17.3-17.1,20.2-12.6c5.9,9.5-21.2,10.4-19.4,13.3c2.6,4.2,19.8-12.3,19.8-12.3c4.8,7.6-21.3,9.3-19,13.1l19.3-12
		c3,4.8-20,12.5-19.5,13.4c1.1,1.7,19.7-12.3,19.7-12.3L282,485.2c5.3,8.5,18.6-15.5,20.4-12.7c0,0-26.1,6.1-21,14.3l20.9-13.1
		c6.3,10.1-25.4,8.5-21.5,14.6l21.4-13.4l-22,14.9l21.7-13.5c0,0-28.4,5.3-22.3,15.1l8.2-5.1c0,0-10.7,3.8-8.8,6.7
		c0,0,6.3-7.9,8.1-5.1c0,0-10.2,4.2-8.7,6.6c0.1,0.1,8-5,8-5l-8.6,6.5c0.2,0.3,7.9-4.9,7.9-4.9s-10.5,3.2-8.5,6.5
		c0.8,1.3,7.7-4.8,7.7-4.8c2.2,3.4-9.2,5-8.4,6.4c0,0,6.2-7.1,7.6-4.8c0,0-10.2,3.1-8.2,6.3l7.5-4.7l-8.1,6.2
		c0.8,1.3,6.7-5.8,7.4-4.6c1.3,2.2-9.3,4-8,6.2c2.2,3.5,6.3-6.1,7.3-4.5c1.6,2.6-7.9,6.1-7.9,6.1s6.9-4.8,7.1-4.5
		c0.7,1.1-8,5.6-7.7,6l7-4.4c1.7,2.7-7.6,5.9-7.6,5.9c1.3,2.1,5.3-6.9,6.9-4.3c2.4,3.9-7.5,5.9-7.5,5.9s4.8-7.3,6.8-4.2l-7.4,5.8
		c0.7,1.1,5.8-5.5,6.7-4.2c0,0-8.9,2.9-7.2,5.7c1.6,2.6,4.9-6.4,6.4-4c1.6,2.6-7.4,3.7-6.4,5.2c0.7,1.1,5.7-3.6,5.7-3.6
		c0.1,0.1-5.2,4.4-5.2,4.4l4.5-2.8c0,0-4.2,2.2-3.5,3.4l2.8-1.7"/>
	<path id="XMLID_53_" class="st3" d="M393.5,380.4l14.5-9c3.6,5.8-16.5,2.6-12.6,9l12.7-7.9l-10.8,7.9l10.8-6.7
		c0,0-11.1,3.1-8.9,6.7l8.7-5.4c2,3.2-6.7,5.4-6.7,5.4c0.6,1,4.5-6.3,6.1-3.8"/>
	<path id="XMLID_54_" class="st3" d="M364.5,380.4l23.3-14.5l-21.4,14.5c0.4,0.6,17.7-23.4,23.3-14.5l-21.4,14.5
		c0.2,0.3,19.5-20.5,23.2-14.5l-21.3,14.5l23.2-14.5c5,8.1-21.3,14.5-21.3,14.5c1.1,1.7,23.2-14.5,23.2-14.5s-24.3,9.7-21.3,14.5
		c2.8,4.4,17.4-23.8,23.2-14.5c0.8,1.3-27.5,4.5-21.3,14.5c0,0,22.9-15,23.2-14.5c6.2,9.9-21.6,14.7-21.6,14.7s20.8-18.9,23.5-14.7
		c0,0-29,6.2-23.1,15.6l24.6-15.4c0,0-29.4,8-24.2,16.3l25.4-15.9c0,0-30.9,7.5-25,16.8l26.1-16.3c2.8,4.4-32.1,7-25.7,17.2
		l26.6-16.6c3.5,5.6-27.3,15.6-26.2,17.5c2.7,4.3,22.9-23.1,26.9-16.8c0,0-28.2,14.9-26.5,17.7c0,0,23.4-22.9,27.1-16.9L380.3,387
		c1.8,3,27.2-17,27.2-17c5.8,9.3-34.6,5.5-26.8,17.9c1.6,2.5,27.2-17,27.2-17l-26.8,17.9l12.5-7.8l-12.1,8.7c0,0,9-13.4,12.5-7.8
		c0,0-12.8,7.6-12.1,8.7c0.7,1.1,9.5-12.6,12.5-7.8l-12.1,8.7c1.9,3,8.9-13.5,12.5-7.8c1.6,2.6-12.1,8.7-12.1,8.7
		s10.6-10.8,12.5-7.8c0.9,1.4-12.1,8.7-12.1,8.7l12.5-7.8c0,0-16,2.5-12.1,8.7c0,0,10-11.8,12.5-7.8c0,0-15,4-12.1,8.7
		c0.5,0.9,12.5-7.8,12.5-7.8s-12.6,7.8-12.1,8.7l12.5-7.8c0.5,0.8-12.3,8.4-12.1,8.7c0,0,10-11.7,12.5-7.8l-12.1,8.7
		c1.5,2.5,12.5-7.8,12.5-7.8c1.5,2.4-12.1,8.7-12.1,8.7c2.2,3.6,12.5-7.8,12.5-7.8c0.5,0.9-13.2,7-12.1,8.7
		c3.6,5.7,10.6-10.7,12.5-7.8c1.3,2.2-12.1,8.7-12.1,8.7l12.5-7.8c0.8,1.3-13.2,7-12.1,8.7c1.9,3,10.6-10.8,12.5-7.8
		c0,0-14.5,4.9-12.1,8.7l12.5-7.8c0,0-12.3,8.5-12.1,8.7c0,0,11.9-8.8,12.5-7.8c0,0-14.4,5-12.1,8.7c0,0,10.9-10.4,12.5-7.8
		c2.8,4.5-12.3,8.4-12.1,8.7l12.5-7.8c0,0-15.3,3.6-12.1,8.7c1.3,2,12.5-7.8,12.5-7.8c1.4,2.2-12.1,8.7-12.1,8.7
		c3.4,5.4,9.5-12.5,12.5-7.8c3.4,5.5-15.8,2.7-12.1,8.7l12.5-7.8c1.5,2.3-12.1,8.7-12.1,8.7s8.9-13.6,12.5-7.8
		c1.5,2.4-12.1,8.7-12.1,8.7s9.2-13,12.5-7.8c0,0-14.4,5-12.1,8.7c0,0,11.3-9.7,12.5-7.8l-12.1,8.7l12.5-7.8
		c0.1,0.2-12.1,8.7-12.1,8.7c0.3,0.5,12.2-8.2,12.5-7.8l-12.1,8.7c0,0,10.5-11,12.5-7.8c0,0-12.4,8.3-12.1,8.7c0,0,12-8.5,12.5-7.8
		c2.3,3.7-12.7,7.7-12.1,8.7c2.3,3.8,8.7-13.8,12.5-7.8l-12.1,8.7c0,0,10.9-10.3,12.5-7.8l-12.1,8.7c3.6,5.7,10.6-10.7,12.5-7.8
		c1.3,2.1-12.1,8.7-12.1,8.7l12.5-7.8c1.1,1.7-13.4,6.6-12.1,8.7c0.3,0.6,12.5-7.8,12.5-7.8s-15.3,3.6-12.1,8.7c0,0,12.3-8,12.5-7.8
		c0,0-15.7,2.9-12.1,8.7c3.7,5.9,12.5-7.8,12.5-7.8c2.7,4.2-13.2,7-12.1,8.7l12.5-7.8c0,0-12.3,8.4-12.1,8.7c0,0,12.3-8.1,12.5-7.8
		l-12.1,8.7c1.8,2.8,9-13.3,12.5-7.8l-12.1,8.7c3.5,5.6,9.7-12.2,12.5-7.8c1.6,2.6-12.1,8.7-12.1,8.7s11.7-9,12.5-7.8l-12.1,8.7
		c0.5,0.8,12.5-7.8,12.5-7.8c0.2,0.3-15.2,3.7-12.1,8.7l12.1-6.2c0.9,1.4-12.1,8.7-12.1,8.7s9.1-13.1,12.5-7.8
		c2.9,4.7-12.1,8.7-12.1,8.7c1.9,3,9.2-13,12.5-7.8c0,0-14.1,5.5-12.1,8.7c0,0,9.4-12.7,12.5-7.8l-12.1,8.7
		c0.7,1.1,12.5-7.8,12.5-7.8c1.9,3-13.9,5.8-12.1,8.7c0.4,0.7,12.5-7.8,12.5-7.8c1.8,2.9-12.1,8.7-12.1,8.7s9.7-12.2,12.5-7.8
		l-12.1,8.7c0,0,9-13.3,12.5-7.8c0,0-13.2,6.9-12.1,8.7c0,0,9.7-12.1,12.5-7.8c1.5,2.4-15.3,3.6-12.1,8.7c0.9,1.4,12.5-7.8,12.5-7.8
		c1,1.7-12.1,8.7-12.1,8.7c3.8,6.1,9.7-12.2,12.5-7.8c2.5,4-13.9,5.8-12.1,8.7l12.5-7.8c0,0-14.8,4.3-12.1,8.7c0,0,9.9-12,12.5-7.8
		c2.6,4.1-12.1,8.7-12.1,8.7l12.5-7.8c0.5,0.9-12.1,8.7-12.1,8.7c1.1,1.8,12.5-7.8,12.5-7.8c2.2,3.5-13,7.3-12.1,8.7
		c2.6,4.2,10.5-11,12.5-7.8l-12.1,8.7c0,0,11.9-8.7,12.5-7.8c0,0-15.8,2.8-12.1,8.7c0,0,9.8-12,12.5-7.8l-12.1,8.7
		c0,0,10.1-11.6,12.5-7.8c3.4,5.5-12.1,8.7-12.1,8.7s11.1-10,12.5-7.8s-15,4-12.1,8.7c0.8,1.4,9.4-12.7,12.5-7.8
		c0.2,0.3-12.1,8.7-12.1,8.7c1,1.5,11.3-9.7,12.5-7.8c0.5,0.7-12.1,8.7-12.1,8.7c0.8,1.3,12.3-8,12.5-7.8c3.2,5.1-12.5,8-12.1,8.7
		c1.8,2.9,10.7-10.6,12.5-7.8l-12.1,8.7c0.5,0.8,12.5-7.8,12.5-7.8c2.7,4.3-15.9,2.6-12.1,8.7c3.2,5.1,12.5-7.8,12.5-7.8
		s-14.4,5.1-12.1,8.7c0.1,0.1,11.9-8.7,12.5-7.8c1.1,1.8-12.4,8.2-12.1,8.7l12.5-7.8c0,0-14.5,4.9-12.1,8.7l12.5-7.8l-12.1,8.7
		c0.5,0.9,12.3-8,12.5-7.8c3.5,5.7-12.1,8.7-12.1,8.7c1.6,2.5,12.5-7.8,12.5-7.8c0.4,0.6-12.1,8.7-12.1,8.7
		c3.7,5.9,9.6-12.4,12.5-7.8c1.5,2.4-12.1,8.7-12.1,8.7c2.7,4.4,12.5-7.8,12.5-7.8s-12.4,8.2-12.1,8.7l12.5-7.8l-12.1,8.7l12.5-7.8
		c0,0-14,5.7-12.1,8.7c1.6,2.6,10.7-10.6,12.5-7.8c3.1,5-12.1,8.7-12.1,8.7c0.7,1.1,12.5-7.8,12.5-7.8c3.6,5.7-13,7.2-12.1,8.7
		c1.6,2.6,12.5-7.8,12.5-7.8c1.3,2.1-12.3,8.4-12.1,8.7c1.5,2.5,12.5-7.8,12.5-7.8c1.1,1.7-12.7,7.8-12.1,8.7l12.5-7.8
		c1.2,1.9-14.6,4.6-12.1,8.7c0,0,11.1-10,12.5-7.8c2.3,3.6-12.1,8.7-12.1,8.7s10.9-10.2,12.5-7.8c0,0-14.3,7.7-13.2,9.4
		c2.4,3.8,11.4-12,13.6-8.5l-14.1,10c0,0,13.2-11.1,14.5-9c0,0-19.4,3-14.8,10.4c3.9,6.3,12.1-15.3,15.6-9.8
		c2.9,4.6-19.4,5.1-15.7,11c0,0,16.6-11.1,16.9-10.6L412,473.4l17.9-11.2c2.8,4.5-17.8,12.3-17.8,12.3s14.4-18.7,18.7-11.7
		c0,0-19.8,10.8-18.6,12.8c0,0,16.2-17.4,19.5-12.2l-19.1,13.1c1.2,1.9,16.5-17.9,19.9-12.4c3.6,5.7-19.5,13.4-19.5,13.4l20.3-12.7
		l-19.9,13.6l20.4-12.8l-19.9,13.6l20.4-12.8c1,1.7-19.9,13.6-19.9,13.6c4.4,7.1,15.8-20,20.4-12.7c0,0-24.9,5.3-19.7,13.5
		c0,0,17.6-16.6,20.1-12.6c2.3,3.6-19.4,13.3-19.4,13.3c5.3,8.4,18.9-13.8,19.8-12.3c4.1,6.5-18.9,13-18.9,13c2.5,4,17-15.4,19.2-12
		l-18.3,12.6c0,0,13.9-18.8,18.4-11.5c2.8,4.4-17.4,12.1-17.4,12.1c1.9,3,13.1-18,17.6-11l-16.5,11.5c1.9,3.1,16.4-10.2,16.4-10.2
		s-18.6,5-15.1,10.6c2.2,3.5,15-9.4,15-9.4c2.1,3.4-13.6,9.7-13.6,9.7c1.8,2.9,12.4-9.5,13.2-8.3c2.7,4.3-16.6,2.7-12.6,9.1
		c2,3.2,12.1-7.5,12.1-7.5c3.6,5.8-11.6,8.4-11.6,8.4c1.5,2.5,9.5-8,10.4-6.5c0.8,1.2-10,7.4-10,7.4l10-6.3c3.1,5-9.5,7.1-9.5,7.1
		l9.8-6.1c0,0-10,6-9.3,7c2,3.1,9.6-6,9.6-6c0.3,0.6-10.9,4-9.1,6.9c2.3,3.7,9.4-5.9,9.4-5.9s-10.1,4.9-8.9,6.8
		c2.3,3.7,9.1-6,9.2-5.8c0.5,0.7-10.2,4.3-8.7,6.6c0,0,7-8.9,9-5.6c0.3,0.6-8.5,6.5-8.5,6.5c2.7,4.3,8.8-5.5,8.8-5.5l-8.3,6.4
		c2.2,3.6,8.6-5.4,8.6-5.4c2.6,4.2-8.1,6.3-8.1,6.3s6.8-7.8,8.4-5.3l-7.9,6.1c1.6,2.6,6.3-8.2,8.2-5.1c0.4,0.7-7.7,6-7.7,6
		c1.6,2.5,8-5,8-5l-7.5,5.9l7.8-4.9l-7.3,5.8l7.6-4.8l-7.1,5.6c0,0,6.7-5.8,7.4-4.6c0.4,0.7-6.9,5.5-6.9,5.5c1.9,3,5.2-7.7,7.2-4.5
		l-6.7,5.4c0,0,6.8-4.8,7-4.4l-6.5,5.3l6.8-4.3c1.2,1.9-6.3,5.1-6.3,5.1l6.6-4.1c1.5,2.4-6.1,5-6.1,5l6.4-4c1.3,2.2-7.9,1.8-5.9,4.9
		l6.2-3.9c1.5,2.5-5.7,4.8-5.7,4.8c1.5,2.4,6-3.8,6-3.8c1.2,1.9-5.5,4.6-5.5,4.6s4.4-5.9,5.8-3.6c0,0-7,1.9-5.3,4.5l5.6-3.5
		c0,0-5.9,3.2-5.1,4.4c1.2,1.9,5.4-3.4,5.4-3.4c0.1,0.2-4.9,4.3-4.9,4.3s4.2-4.9,5.2-3.3c0,0-6.3,1.7-4.7,4.1l5-3.1
		c0.2,0.4-4.5,4-4.5,4c0.8,1.2,4.8-3,4.8-3l-4.3,3.9c0,0,3.6-4.6,4.6-2.9c0.9,1.5-4.1,3.8-4.1,3.8l4.4-2.8c1.4,2.2-3.9,3.6-3.9,3.6
		l4.2-2.6c0.4,0.7-3.7,3.5-3.7,3.5l4-2.5c1.1,1.8-3.5,3.4-3.5,3.4s3.5-2.9,3.8-2.4l-3.2,3.2c1,1.6,2.8-3.3,3.5-2.2l-2.4,2.7
		c0,0,2.2-1.7,2.4-1.5"/>
	<path id="XMLID_55_" class="st3" d="M357.1,331.6l12.5-7.8c1,1.7-12.1,8.7-12.1,8.7c2.5,4,12.5-7.8,12.5-7.8s-12.2,8.5-12.1,8.7
		c1.3,2.1,12.5-7.8,12.5-7.8c3.2,5.2-13.6,6.4-12.1,8.7c1.2,1.9,9.6-12.4,12.5-7.8c2.3,3.7-12.1,8.6-12.1,8.7l12.5-7.8
		c0,0-14.1,5.4-12.1,8.7c1.4,2.2,10.8-10.5,12.5-7.8c2.8,4.6-12.1,8.7-12.1,8.7s9.3-12.9,12.5-7.8l-12.1,8.7
		c2.3,3.7,12.1-8.3,12.5-7.8c0,0-15.6,3-12.1,8.7c0.1,0.2,10.8-10.5,12.5-7.8l-12.1,8.7l12.5-7.8c0,0-13.1,7.1-12.1,8.7
		c2.4,3.8,12.5-7.8,12.5-7.8c3.5,5.6-13.3,6.9-12.1,8.7c1.7,2.8,11.3-9.7,12.5-7.8c0,0-13.9,5.8-12.1,8.7c0.9,1.4,12.5-7.8,12.5-7.8
		s-13,7.3-12.1,8.7c0,0,9.3-12.9,12.5-7.8l-12.1,8.7l12.5-7.8c2.2,3.5-12.1,8.7-12.1,8.7s10.1-11.6,12.5-7.8c0,0-14,5.7-12.1,8.7
		c1.1,1.8,10.7-10.7,12.5-7.8c0.5,0.7-12.1,8.7-12.1,8.7s10.3-11.3,12.5-7.8c2.3,3.7-13.9,5.8-12.1,8.7c3.3,5.2,12.5-7.8,12.5-7.8
		c2.5,4.1-12.1,8.7-12.1,8.7l12.5-7.8c0.6,1-14.9,4.3-12.1,8.7c0.6,0.9,11.9-8.6,12.5-7.8c2.4,3.8-12.1,8.7-12.1,8.7
		c0.1,0.1,12.5-7.8,12.5-7.8l-12.1,8.7l12.5-7.8l-12.1,8.7c0,0,9.3-13,12.5-7.8c0.3,0.5-15.8,2.7-12.1,8.7
		c0.1,0.1,10.5-10.9,12.5-7.8l-12.1,8.7l12.5-7.8l-12.1,8.7c1.7,2.7,12.5-7.8,12.5-7.8c0.7,1.1-12.1,8.7-12.1,8.7
		c1.3,2,10.2-11.5,12.5-7.8c2.8,4.4-12.3,8.4-12.1,8.7c1.6,2.5,9.4-12.7,12.5-7.8c2.8,4.5-15.7,3-12.1,8.7l12.5-7.8l-12.1,8.7
		c1,1.5,12.5-7.8,12.5-7.8c1.3,2.1-12.1,8.7-12.1,8.7c1.1,1.7,12.5-7.8,12.5-7.8l-12.1,8.7l12.5-7.8c0,0-13,7.2-12.1,8.7
		c1.3,2.1,11.5-9.3,12.5-7.8l-12.1,8.7l12.5-7.8c0.4,0.6-13.1,7.1-12.1,8.7l12.5-7.8c2.3,3.7-12.9,7.4-12.1,8.7l12.5-7.8"/>
	<path id="XMLID_56_" class="st3" d="M336.8,380.4c0,0,25.5-20.4,27.5-17.2c7.8,12.5-25.6,17.2-25.6,17.2s21.6-22.5,25.6-16
		c7.5,12.1-27.4,10.1-23.7,16c4.7,7.6,23.8-14.8,23.8-14.8c2.3,3.8-21.9,14.8-21.9,14.8l23.2-14.5c3,4.8-22.6,12.5-21.3,14.5
		l23.3-14.5c6.5,10.5-25.5,7.9-21.4,14.5c2.3,3.6,22.8-15.4,23.3-14.6l-21.4,14.6c6.7,10.7,35.7-22.3,35.7-22.3
		s-41.7,10.5-34.2,22.5l34.6-21.6c6.9,11-34.5,22.8-34.5,22.8c2.3,3.6,34.9-21.8,34.9-21.8l-34.9,23l35.3-22.1
		c5.5,8.8-35.3,23.2-35.3,23.2s27.8-34.9,35.7-22.3l-35.7,23.5l36.1-22.6c0,0-45.3,9.1-36.1,23.7c1.5,2.5,36.5-22.8,36.5-22.8
		c10.1,16.1-39.2,19.6-36.5,24c8.9,14.3,36.9-23,36.9-23l-36.9,24.2c2.6,4.1,37.2-23.3,37.2-23.3c4.9,7.8-37.2,24.4-37.2,24.4
		l14.5-9.1L350,390.9l14.3-9c3,4.9-14.1,10-14.1,10s13.2-10.4,14.1-8.8c0,0-17,4.5-13.7,9.8l13.7-8.6l-13.3,9.5
		c0,0,10.8-12.1,13.3-8.3c0,0-13,8.5-12.6,9.1c1.6,2.5,12.6-7.9,12.6-7.9c3.9,6.2-11.9,8.6-11.9,8.6c0.4,0.7,11.9-7.4,11.9-7.4
		c3.1,4.9-11.1,8.1-11.1,8.1l11.1-6.9c2.3,3.7-12.9,2.8-10,7.4c3.1,5,9.3-7.2,9.9-6.2c2.7,4.4-8.7,6.6-8.7,6.6
		c1.8,2.9,8.5-5.3,8.5-5.3c1.1,1.8-8.3,3.3-6.9,5.5c0.1,0.1,6.3-3.9,6.3-3.9"/>
	<path id="XMLID_57_" class="st3" d="M352.4,354.4c0.1,0.2,1.4-1.5,1.7-1.1c0,0-3.6,3.3-3.5,3.4l6.5-4.1c1.9,3-9.3,2-7.1,5.6
		c2.5,4.1,6.7-8.4,8.6-5.4l-8.8,6.7c2.6,4.2,8.8-8.2,10-6.3c1,1.5-11.2,5.6-10.1,7.5c0,0,10.3-8.2,11.1-6.9
		c2.9,4.7-13.6,4.1-11.1,8.1c1,1.7,12-7.5,12-7.5l-12,8.6c0.4,0.6,11.2-10.3,12.7-7.9c0.4,0.6-12.7,9.1-12.7,9.1
		c2.7,4.3,13.3-8.3,13.3-8.3c0.8,1.2-13.3,9.5-13.3,9.5c1.7,2.7,13.8-8.6,13.8-8.6"/>
	<path id="XMLID_58_" class="st3" d="M308.5,367.6c0.3,0.5,1.3-1.8,1.7-1.1c0.4,0.7-3.9,2.8-3.5,3.4c0.8,1.2,6-4.9,6.5-4.1
		c1.4,2.2-7.1,5.6-7.1,5.6s8.7-6,9-5.6c0,0-11.5,3.1-9.1,6.9c0.4,0.6,11-6.9,11-6.9c0.5,0.8-12.9,5-11,8c0,0,10.5-11.8,12.9-8
		c2.7,4.3-15.9,4-12.7,9.1c1.1,1.8,14.6-9.1,14.6-9.1c2.4,3.9-15.8,7.6-14.2,10.1l16.1-10.1c2.5,4-16.6,9.6-15.7,11l17.6-11
		l-17,11.8c3.4,5.4,15.3-17.5,18.9-11.8c2.6,4.2-18.2,12.6-18.2,12.6s36.7-29.3,39.6-24.7c12,19.3-49.1,8.8-38.7,25.4l38.1-23.8
		c6.2,9.9-47,8.4-37.1,24.3l36.4-22.7l-35.3,23.2l34.6-21.6c0,0-35.9,17.3-33.1,21.8l32.4-20.2c4.2,6.7-30.6,20.3-30.6,20.3
		c2.1,3.4,21.8-31.7,29.9-18.7c1.3,2-29.4,16.5-28.1,18.7l27.4-17.1c4.8,7.7-30.2,9.6-25.5,17.1c7.7,12.3,24.8-15.5,24.8-15.5
		l-23,15.5l23.2-14.5l-23.1,15.6c6.6,10.5,25-15.6,25-15.6s-29,11.8-25.6,17.2c6.7,10.8,25.4-20.6,27.5-17.2c0,0-35.9,6.5-28.2,18.8
		c8.6,13.7,30.1-18.8,30.1-18.8l-30.8,20.4c4.6,7.4,33.8-47.3,45.6-28.5c5.1,8.2-46.3,30.1-46.3,30.1l46.5-29
		c5,7.9-47.1,30.6-47.1,30.6s33.3-51.9,47.3-29.5c10.5,16.8-47.9,31.1-47.9,31.1l48-30c12.5,20.1-48.6,31.6-48.6,31.6l48.6-30.4
		c0,0-50,30.8-49.3,32c3.5,5.6,15.5-22.7,21.4-13.3l-22,14.9c0,0,17.5-19.5,21.4-13.3c2.8,4.5-22,14.9-22,14.9
		c5.7,9.2,21.4-13.3,21.4-13.3s-23.2,13-22,14.9c2.5,4,21.4-13.3,21.4-13.3l-22,14.9c0,0,17.5-19.5,21.4-13.3
		c0.4,0.6-22,14.9-22,14.9l21.4-13.3c5.8,9.3-22,14.9-22,14.9c3.7,5.9,15.4-22.9,21.3-13.3l-22,14.9c0.5,0.7,21.3-13.3,21.3-13.3
		c1.6,2.6-27.1,6.8-22,14.9c1,1.6,21.3-13.3,21.3-13.3c5,8-26.3,8-22,14.9c2.2,3.5,21-13.9,21.3-13.3l-22,14.9
		c6.4,10.2,16.3-21.4,21.3-13.3l-22,14.9l21.1-13.5c0,0-22.5,14.2-22,14.9c5.3,8.4,21.3-13.3,21.3-13.3s-27.4,6.3-22,14.9
		c2,3.2,21.3-13.3,21.3-13.3c0.8,1.3-22.6,13.9-22,14.9c0.5,0.8,21.3-13.3,21.3-13.3c1.8,2.9-22,14.9-22,14.9
		c3.8,6,18.7-17.6,21.3-13.3l-22,14.9l21.3-13.3c1.4,2.2-22,14.9-22,14.9c0.1,0.2,21.3-13.3,21.3-13.3c5.1,8.1-25.2,9.8-22,14.9
		l21.3-13.3c0,0-28.5,4.4-22,14.9l21.3-13.3c5.7,9.2-22,14.9-22,14.9s21-13.8,21.3-13.3c5.1,8.2-22,14.9-22,14.9l21.3-13.3l-22,14.9
		l21.3-13.3l-22,14.9c2.6,4.1,21.3-13.3,21.3-13.3c5.6,9-22,14.9-22,14.9s18.7-17.5,21.3-13.3c3.7,5.9-28.7,4.2-22,14.9l21.3-13.3
		c0,0-27.1,6.7-22,14.9c0,0,17-20.2,21.3-13.3c6.9,11.1-23.4,12.6-22,14.9l21.3-13.3c0.1,0.1-26.8,7.2-22,14.9
		c0,0,16.5-21,21.3-13.3l-22,14.9c0,0,20.9-13.9,21.3-13.3c6.2,9.9-22,14.9-22,14.9s18-18.6,21.3-13.3c5.1,8.1-28.2,5-22,14.9
		c0,0,19.2-16.7,21.3-13.3c2.9,4.6-22,14.9-22,14.9c4.1,6.6,21.3-13.3,21.3-13.3l-22,14.9c3.4,5.4,21.3-13.3,21.3-13.3l-22,14.9
		l21.3-13.3c4.7,7.6-22,14.9-22,14.9l21.3-13.3l-22,14.9c0,0,20.1-15.3,21.3-13.3c5.4,8.6-22,14.9-22,14.9l21.3-13.3
		c6.1,9.8-27.9,5.4-22,14.9c0.2,0.4,21.3-13.3,21.3-13.3c2.5,4-28.1,5.1-22,14.9c6.1,9.7,15.3-22.8,21.3-13.3l-22,14.9l21.3-13.3
		c0,0-26.2,8.1-22,14.9c0.1,0.2,21.3-13.3,21.3-13.3"/>
	<path id="XMLID_59_" class="st3" d="M366.6,314.8c2.7,4.3,10.6-6.7,10.6-6.7"/>
	<path id="XMLID_60_" class="st3" d="M351.3,273.7l19.4-12.1c0,0-20.3,4.4-16.1,11.2l17.1-10.7c0.8,1.2-16.1,8.4-14.9,10.5
		c0,0,11.4-16.8,15.8-9.9c1.9,3-15.9,7.1-14.1,10c3,4.8,11-15.8,15-9.4c0,0-17.2,3.6-13.4,9.6l14.3-9c1.4,2.3-17.1,3-13.1,9.3
		c0.7,1.2,11.2-13.1,13.9-8.7l-12.7,9.1c2.4,3.8,10.5-13.1,13.5-8.4l-12.4,9c0,0,10.3-12.9,13.2-8.2c3.2,5.2-12.2,8.8-12.2,8.8
		c3.8,6,12.7-8.4,12.9-8.1c0,0-12.9,7.2-12,8.7c0,0,9.6-13,12.8-8l-11.9,8.6c1,1.6,9.9-12.3,12.6-7.9l-11.8,8.6
		c0.8,1.3,12.4-7.8,12.4-7.8c3.6,5.8-12.2,7.8-11.7,8.5l12.4-7.7c3.7,5.9-12.9,6.6-11.7,8.5c0,0,9.5-12.2,12.3-7.7
		c3.7,5.8-11.7,8.5-11.7,8.5c0.9,1.4,11-9.8,12.3-7.7c0,0-14.8,3.8-11.8,8.5l12.3-7.7l-11.8,8.6c3,4.8,12.3-7.7,12.3-7.7
		c3.3,5.2-11.9,8.6-11.9,8.6s9.1-12.9,12.4-7.7l-12,8.7c0.7,1.1,11.6-9.3,12.5-7.8c0.6,1-12.2,8.8-12.2,8.8l12.6-7.9
		c3.6,5.8-12.3,8.9-12.3,8.9s11.2-10.3,12.7-7.9c2.3,3.7-16.6,2.7-12.6,9.1c2.2,3.4,10.8-11.5,13-8.1l-12.9,9.2
		c0,0,10.4-12.7,13.2-8.3l-13.3,9.5c3,4.9,13.5-8.4,13.5-8.4c1.9,3.1-13.6,9.7-13.6,9.7l13.9-8.7l-14.1,10c0.1,0.1,11.8-13.1,14.4-9
		c0.6,0.9-17.2,6.7-14.8,10.4c2.7,4.4,12.7-13.2,15.1-9.4c0,0-19.7,4.7-15.8,11l15.8-9.9c0,0-22,3.6-16.9,11.7
		c0,0,15.2-13.5,17-10.6c3.3,5.3-21.9,10-19.7,13.5c0,0,13.7-22,19.7-12.3"/>
	<path id="XMLID_61_" class="st3" d="M339.3,264.1l4.4-2.7c1.1,1.8-8.2,6.3-8.2,6.3c0.5,0.8,9.9-14.3,13.6-8.5
		c0,0-19.1,5.2-15.6,10.9c1.7,2.8,28.1-23.5,30.8-19.2l-32.2,21.3l32.2-20.1L331.2,274c9.6,15.3,33.2-20.7,33.2-20.7
		c2,3.2-34,22.4-34,22.4c1.4,2.3,31.2-25.8,34-21.3c3.6,5.8-34.6,22.8-34.6,22.8c0.7,1.1,34.6-21.6,34.6-21.6S325,272,329.3,278.7
		c8.2,13.2,30.5-29.4,35.1-22c4,6.5-35.5,23.4-35.5,23.4s26.9-36,35.5-22.2c0,0-45.3,8.5-35.8,23.6l35.9-22.4
		c8.3,13.2-36.2,23.8-36.2,23.8s35.2-27,37.4-23.4c2,3.2-37.6,24.7-37.6,24.7s34.6-31,38.8-24.2c0,0-44.4,16.6-38.9,25.5l40.1-25.1
		c6.2,10-44.3,19.8-40.2,26.3c10.1,16.2,41.3-25.8,41.3-25.8l-41.3,27c0,0,41.3-28.1,42.3-26.4L328,288.9c2,3.2,13.2-19.2,18.1-11.3
		c0,0-22,6.1-18,12.4l16.4-10.3l-16.3,11.4c4.7,7.5,13-13.4,15.4-9.6c2.1,3.4-15.8,9.8-15.2,10.7c3.9,6.2,12.5-12.8,14.7-9.2
		l-14.5,10.2c2.2,3.6,10.8-14,14.1-8.8c2.9,4.7-13.9,9.8-13.9,9.8s13.6-8.7,13.7-8.6c4.2,6.7-17.3,3.5-13.5,9.6
		c2.6,4.2,11.8-10.9,13.4-8.4l-13,9.3l13.1-8.2c3.3,5.3-13.5,7.9-12.7,9.1c0.6,1,12.8-8,12.8-8l-12.5,9c0,0,10.7-11,12.6-7.9
		c1.3,2.1-16.1,2.7-12.3,8.8c2,3.2,12.6-7.9,12.6-7.9c2.5,4-14.9,4.2-12.1,8.8c2.4,3.8,11.2-9.7,12.4-7.8c3.9,6.2-11.9,8.6-11.9,8.6
		c3.2,5.1,10.1-11.2,12.3-7.7c0.4,0.6-14.6,4.2-11.8,8.6c0,0,9.8-11.7,12.3-7.7c3.4,5.5-11.8,8.6-11.8,8.6s9.2-12.7,12.3-7.7
		c0.7,1.2-13.5,5.7-11.7,8.5c3.2,5.1,12.3-7.7,12.3-7.7l-11.7,8.5c1.5,2.3,8.8-13.4,12.3-7.7c0.4,0.7-14.9,3.5-11.7,8.5
		c0,0,10.6-10.6,12.4-7.7c2.1,3.3-12.4,7.5-11.8,8.5l12.5-7.8c3.3,5.4-12.8,7.2-11.9,8.6c1.7,2.6,12.7-7.9,12.7-7.9
		s-15.7,2.6-12,8.7c0,0,9.2-13.6,12.8-8l-12.1,8.7c0.1,0.2,13.1-8.2,13.1-8.2l-12.3,8.9c2.9,4.6,13.4-8.3,13.4-8.3l-12.5,9l13.7-8.5
		l-12.8,9.2l14.1-8.8c0.1,0.2-14.2,8-13.3,9.5l14.6-9.1c0.4,0.7-13.8,9.8-13.8,9.8s13.9-12,15.4-9.6c0,0-18.9,3.1-14.4,10.2
		c5,7.9,16.4-10.2,16.4-10.2s-20.1,3.2-15.4,10.8c0,0,14.4-16.9,17.9-11.2c0,0-21,5.3-17,11.8c8.2,13.1,42.4-26.5,42.4-26.5
		c11.4,18.3-41.4,27-41.4,27s28.6-46.2,41.3-25.8c8.6,13.8-51.7,7.9-40.2,26.3c0,0,36.7-30.5,40.1-25.1c0,0-44,17.4-39,25.5
		c2.1,3.3,37.5-26.5,38.9-24.3c7.4,11.9-48.5,8.1-38,24.9l37.9-23.7c0,0-50,6.8-38.5,25.3c7.3,11.6,38.2-23.9,38.2-23.9
		s-43,19-38.9,25.5c0.1,0.2,36.6-27.3,38.6-24.1L346,320.1l38.9-24.3c0,0-46.8,14.4-39.6,25.9c1.2,1.9,30.2-38.4,39-24.4
		c2.1,3.4-50,9.4-39.7,26c0,0,35.5-30.2,39.1-24.4c5.5,8.8-40.4,25-39.8,26c12.1,19.4,31.7-35.9,38.9-24.3
		c6.8,10.8-49.9,9.5-39.6,25.9c0.2,0.3,38.6-24.1,38.6-24.1c2.9,4.6-39.3,25.7-39.3,25.7s29.4-37.3,37.9-23.7
		c5.5,8.8-41.5,20.5-38.6,25.3c11.4,18.2,28-36.9,36.7-22.9c0,0-46.3,10.3-37.4,24.5c0,0,23.8-17.2,24.8-15.5
		c0,0-29.3,10.9-25.5,17.1c0,0,25.1-17.4,25.9-16.2l-26.2,17.7c0,0,20.8-26.6,26.9-16.8L339.4,336l28-17.5l-28.6,19.1l29-18.1
		c9.2,14.7-34.7,11.8-29.7,19.7c7,11.3,30.1-18.8,30.1-18.8s-31.5,19.1-30.8,20.4c1.2,1.9,31.2-19.5,31.2-19.5s-33.9,17.7-31.8,21.1
		c1,1.6,23.1-34.6,32.2-20.1c3.5,5.6-42.5,6.4-32.9,21.7c0,0,27.9-29.3,33.3-20.8c1,1.7-44.1,6.1-33.9,22.4c0,0,18.1-18.4,21.3-13.3
		c0,0-23.8,12-22,14.9c2.8,4.5,21.3-13.3,21.3-13.3l-22,14.9c2.4,3.9,21.3-13.3,21.3-13.3s-28.6,4.2-22,14.9
		c5.9,9.5,20.4-14.8,21.3-13.3l-22,14.9c0.6,0.9,15.7-22.3,21.3-13.3c4.2,6.7-25.6,9.1-22,14.9c4.2,6.7,21.3-13.3,21.3-13.3
		s-23.6,12.3-22,14.9c4.3,6.9,21.3-13.3,21.3-13.3l-22,14.9c4.8,7.7,21.3-13.3,21.3-13.3s-27.9,5.4-22,14.9
		c0.6,0.9,21.3-13.3,21.3-13.3s-26.9,7-22,14.9c0.2,0.3,20.4-14.8,21.3-13.3c3.7,5.8-25.2,9.7-22,14.9c0.5,0.8,21.3-13.3,21.3-13.3
		c4.1,6.5-24.1,11.5-22,14.9c5.4,8.6,21.3-13.3,21.3-13.3c3.3,5.3-22,14.9-22,14.9s18.9-17.2,21.3-13.3"/>
	<path id="XMLID_62_" class="st3" d="M352.4,239.2c0,0,1.7-1.2,1.7-1.1l-3.5,3.4c1.4,2.3,6.5-4.1,6.5-4.1L350,243
		c1.3,2.1,8.6-5.4,8.6-5.4l-8.8,6.7c0,0,8.4-8.7,10-6.3l-10.1,7.5c2.6,4.2,11.1-6.9,11.1-6.9c0.1,0.2-11.1,8.1-11.1,8.1
		c0.4,0.6,12-7.5,12-7.5c3.6,5.8-12,8.6-12,8.6s11.7-9.5,12.7-7.9c0.3,0.5-12.7,9.1-12.7,9.1s12.7-9.3,13.3-8.3l-13.3,9.5l13.8-8.6
		l-13.7,9.8l14.2-8.8c0,0-18.6,2.9-14.2,10c2.3,3.6,14.3-9,14.3-9c3.3,5.3-18.6,3.3-14.3,10.1c2.3,3.7,14.5-9.1,14.5-9.1
		c2.1,3.4-18.2,4.4-14.5,10.2c0,0,12.1-13,14.5-9.1c0.1,0.1-16.1,7.7-14.5,10.2c1.7,2.8,14.5-9.1,14.5-9.1L349.8,257
		c1.1,1.7,14.5-9.1,14.5-9.1l-14.5,10.2l14.5-9.1"/>
	<g id="XMLID_63_">
		<g id="XMLID_72_">
			<path class="st2" d="M357,237.4c4,0,7.3,3.3,7.3,7.3V259c12.6,3.3,21.9,14.7,21.9,28.3c0,13-8.5,24.1-20.3,27.8l21.2,50.7h13.8
				c4,0,7.3,3.3,7.3,7.3s-3.3,7.3-7.3,7.3h-7.6l33.7,80.5c5.3,1.3,9.2,6.1,9.2,11.8c0,2.8-0.9,5.3-2.5,7.4l9.5,32.8
				c0.3,1.2-0.3,2.4-1.5,2.8c-0.2,0.1-0.4,0.1-0.6,0.1c-0.8,0-1.6-0.4-1.9-1.1l-16.7-29.8c-6-0.8-10.6-5.9-10.6-12.1
				c0-2.2,0.6-4.3,1.7-6.2l-36-86.2h-13.1v9.5c0,4-3.3,7.3-7.3,7.3s-7.3-3.3-7.3-7.3v-9.5h-13.1l-36,86.2c1.1,1.8,1.7,3.9,1.7,6.2
				c0,6.7-5.4,12.2-12.2,12.2c-0.6,0-1.2-0.1-1.8-0.1L275,514.5c-0.4,0.8-1.2,1.3-2,1.3c-0.3,0-0.6-0.1-0.9-0.2
				c-1.1-0.5-1.6-1.7-1.2-2.8l11.9-30.4c-3-2.2-4.9-5.7-4.9-9.7c0-5.7,3.9-10.5,9.2-11.8l33.7-80.5h-7.6c-4,0-7.3-3.3-7.3-7.3
				s3.3-7.3,7.3-7.3H327l21.2-50.7c-11.8-3.8-20.3-14.8-20.3-27.8c0-13.6,9.3-25.1,21.9-28.3v-14.3C349.7,240.6,353,237.4,357,237.4
				 M357,301.9c8.1,0,14.6-6.6,14.6-14.6c0-8.1-6.6-14.6-14.6-14.6c-8.1,0-14.6,6.6-14.6,14.6S349,301.9,357,301.9 M342.7,365.8h7
				v-5.9c0-4,3.3-7.3,7.3-7.3s7.3,3.3,7.3,7.3v5.9h7L357,331.6L342.7,365.8 M357,236.4c-4.6,0-8.3,3.7-8.3,8.3v13.5
				c-13,3.7-21.9,15.5-21.9,29.1c0,12.8,8,24.1,20,28.4l-20.5,49.1h-13.1c-4.6,0-8.3,3.7-8.3,8.3c0,4.6,3.7,8.3,8.3,8.3h6.1
				l-32.9,78.7c-5.6,1.6-9.5,6.8-9.5,12.6c0,3.9,1.7,7.5,4.7,10L270,512.5c-0.6,1.6,0.1,3.4,1.7,4.1c0.4,0.2,0.9,0.3,1.3,0.3
				c1.3,0,2.4-0.7,2.9-1.9l13-29.1c0.4,0,0.8,0.1,1.2,0.1c7.3,0,13.2-5.9,13.2-13.2c0-2.2-0.5-4.3-1.6-6.2l35.6-85.1h11.5v8.5
				c0,4.6,3.7,8.3,8.3,8.3c4.6,0,8.3-3.7,8.3-8.3v-8.6h11.5l35.6,85.1c-1,1.9-1.6,4.1-1.6,6.2c0,6.4,4.7,11.9,11,13l16.4,29.3
				c0.6,1,1.7,1.7,2.8,1.7c0.3,0,0.6,0,0.9-0.1c0.8-0.2,1.5-0.8,1.9-1.5c0.4-0.8,0.5-1.6,0.3-2.5l-9.4-32.3c1.6-2.2,2.4-4.8,2.4-7.5
				c0-5.9-3.9-11-9.5-12.6l-32.9-78.8h6.1c4.6,0,8.3-3.7,8.3-8.3c0-4.6-3.7-8.3-8.3-8.3h-13.1l-20.5-49.1c12-4.3,20-15.6,20-28.4
				c0-13.5-9-25.4-21.9-29.1v-13.5C365.3,240.1,361.6,236.4,357,236.4L357,236.4z M357,300.9c-7.5,0-13.6-6.1-13.6-13.6
				s6.1-13.6,13.6-13.6s13.6,6.1,13.6,13.6C370.7,294.8,364.6,300.9,357,300.9L357,300.9z M344.2,364.8l12.8-30.6l12.8,30.6h-4.5
				v-4.9c0-4.6-3.7-8.3-8.3-8.3c-4.6,0-8.3,3.7-8.3,8.3v4.9H344.2L344.2,364.8z"/>
		</g>
	</g>
</g>
<path class="st2" d="M653.4,579.9L653.4,579.9L653.4,579.9z"/>
<path class="st2" d="M653.5,551.8L653.5,551.8L653.5,551.8z"/>
<path class="st2" d="M668.3,551.8v0.1V551.8z"/>
</svg>
