<?xml version="1.0" encoding="utf-8"?>
<!-- Generator: Adobe Illustrator 19.0.0, SVG Export Plug-In . SVG Version: 6.00 Build 0)  -->
<svg version="1.1" id="Layer_1" xmlns="http://www.w3.org/2000/svg" xmlns:xlink="http://www.w3.org/1999/xlink" x="0px" y="0px"
	 viewBox="222.5 -86.9 630.9 373.8" style="enable-background:new 222.5 -86.9 630.9 373.8;" xml:space="preserve">
<style type="text/css">
	.st0{fill:none;stroke:#FFFFFF;stroke-width:8;stroke-miterlimit:10;}
	.st1{clip-path:url(#SVGID_2_);fill:#FFFFFF;}
	.st2{fill:#FFFFFF;}
	.st3{fill:none;stroke:#FFFFFF;stroke-width:2;stroke-miterlimit:10;}
	.st4{clip-path:url(#SVGID_4_);fill:#FFFFFF;}
	.st5{fill:none;stroke:#FFFFFF;stroke-miterlimit:10;}
</style>
<g>
	<path class="st0" d="M486.9,146.1l-79.8-43.6V78.4l79.8-43.3v28.3l-55.6,26.7l55.6,27.7L486.9,146.1L486.9,146.1z"/>
	<path class="st0" d="M500.6,161.3l52.9-141.5h16.7l-53.1,141.5H500.6z"/>
	<path class="st0" d="M588.2,146.1v-28.2l55.6-27.5l-55.6-27.3v-28L668,78.5v24L588.2,146.1z"/>
</g>
<g>
	<g>
		<g>
			<g>
				<defs>
					<rect id="SVGID_1_" x="720.2" y="-86.9" width="133.2" height="88.8"/>
				</defs>
				<clipPath id="SVGID_2_">
					<use xlink:href="#SVGID_1_"  style="overflow:visible;"/>
				</clipPath>
				<path class="st1" d="M853.1-12.4c-0.1-0.1-0.3-0.2-0.5-0.2H720.9c-0.2,0-0.4,0.1-0.5,0.2c-0.1,0.2-0.2,0.3-0.2,0.5
					c0,0.1,2,12.3,17.4,12.3h98.2c15.4,0,17.4-12.2,17.4-12.3C853.3-12,853.2-12.2,853.1-12.4L853.1-12.4z M796.6-3.8h-19.8v-4.6
					h19.8V-3.8z"/>
			</g>
		</g>
		<path class="st2" d="M734.6-17.4h104.3c1.5,0,2.7-1.2,2.7-2.7v-64.1c0-1.5-1.2-2.7-2.7-2.7H734.6c-1.5,0-2.7,1.2-2.7,2.7v64.1
			C731.8-18.6,733.1-17.4,734.6-17.4L734.6-17.4z M741.4-77.3h90.7v50.4h-90.7V-77.3z"/>
	</g>
	<g>
		<g>
			<rect x="761.9" y="-68.6" class="st3" width="34.8" height="32.1"/>
			<line class="st3" x1="779.2" y1="-68.6" x2="779.2" y2="-36.5"/>
			<line class="st3" x1="761.9" y1="-52.6" x2="796.6" y2="-52.6"/>
		</g>
		<g>
			<rect x="778.5" y="-68.6" class="st3" width="34.8" height="32.1"/>
			<line class="st3" x1="795.9" y1="-68.6" x2="795.9" y2="-36.5"/>
			<line class="st3" x1="778.5" y1="-52.6" x2="813.3" y2="-52.6"/>
		</g>
	</g>
</g>
<g>
	<g>
		<path class="st2" d="M301.7-75.9h-29.5c-2.5,0-4.5,2-4.5,4.5v57.1c0,2.5,2,4.5,4.5,4.5h29.5c2.5,0,4.5-2,4.5-4.5v-57.1
			C306.2-73.9,304.2-75.9,301.7-75.9L301.7-75.9z M282.3-72.7h9.4c0.3,0,0.5,0.2,0.5,0.5s-0.2,0.5-0.5,0.5h-9.4
			c-0.3,0-0.5-0.2-0.5-0.5S282-72.7,282.3-72.7L282.3-72.7z M287-12.1c-1.2,0-2.2-1-2.2-2.2s1-2.2,2.2-2.2s2.2,1,2.2,2.2
			S288.2-12.1,287-12.1L287-12.1z M303.1-18.1h-32.2v-50.7h32.2V-18.1z"/>
	</g>
	<g>
		<g>
			<rect x="276.2" y="-49.7" class="st3" width="21.6" height="23.4"/>
			<line class="st3" x1="276.2" y1="-38" x2="297.8" y2="-38"/>
			<line class="st3" x1="287" y1="-26.3" x2="287" y2="-49.7"/>
		</g>
		<g>
			<rect x="276.2" y="-60.9" class="st3" width="21.6" height="23.4"/>
			<line class="st3" x1="276.2" y1="-49.2" x2="297.8" y2="-49.2"/>
			<line class="st3" x1="287" y1="-37.5" x2="287" y2="-60.9"/>
		</g>
	</g>
</g>
<g>
	<g>
		<g>
			<defs>
				<rect id="SVGID_3_" x="222.5" y="171.1" width="214.5" height="115.8"/>
			</defs>
			<clipPath id="SVGID_4_">
				<use xlink:href="#SVGID_3_"  style="overflow:visible;"/>
			</clipPath>
			<path class="st4" d="M345.7,171.9H228.3c-3.6,0-5.8,2.7-5.8,6.3v78.3c0,3.6,2.2,6.7,5.8,6.7h51v9.8h-18
				c-5.7,0-10.3,4.6-10.3,10.3v2.1h70.1v-2.1c0-5.7-4.7-10.3-10.4-10.3h-18v-9.8h53.2c3.6,0,6.2-3.1,6.2-6.7v-78.3
				C351.9,174.6,349.3,171.9,345.7,171.9L345.7,171.9z M338.6,242.4c0,4.6-3.7,8.4-8.4,8.4h-87c-4.6,0-8.4-3.8-8.4-8.4v-48.8
				c0-4.6,3.7-8.4,8.4-8.4h87c4.7,0,8.4,3.7,8.4,8.4V242.4z"/>
		</g>
	</g>
	<g>
		<g>
			<rect x="255.2" y="198.5" class="st3" width="42.7" height="39.4"/>
			<line class="st3" x1="276.6" y1="198.5" x2="276.6" y2="237.9"/>
			<line class="st3" x1="255.2" y1="218.2" x2="297.9" y2="218.2"/>
		</g>
		<g>
			<rect x="275.7" y="198.5" class="st3" width="42.7" height="39.4"/>
			<line class="st3" x1="297" y1="198.5" x2="297" y2="237.9"/>
			<line class="st3" x1="275.7" y1="218.2" x2="318.3" y2="218.2"/>
		</g>
	</g>
</g>
<g>
	<g>
		<path class="st2" d="M819,176.8h-66.7c-3.8,0-6.8,3.1-6.8,6.8v80c0,3.8,3,6.8,6.8,6.8H819c3.8,0,6.8-3.1,6.8-6.8v-80
			C825.8,179.9,822.7,176.8,819,176.8L819,176.8z M818.9,256.3h-66.5v-71.2h66.5V256.3z M794.8,264.8h-18.3v-2h18.3V264.8z"/>
	</g>
	<g>
		<g>
			<rect x="768.7" y="211" class="st3" width="35.8" height="38.7"/>
			<line class="st3" x1="768.7" y1="230.4" x2="804.5" y2="230.4"/>
			<line class="st3" x1="786.6" y1="249.8" x2="786.6" y2="211"/>
		</g>
		<g>
			<rect x="768.7" y="192.5" class="st3" width="35.8" height="38.7"/>
			<line class="st3" x1="768.7" y1="211.8" x2="804.5" y2="211.8"/>
			<line class="st3" x1="786.6" y1="231.2" x2="786.6" y2="192.5"/>
		</g>
	</g>
</g>
<path class="st5" d="M678.2,174.6"/>
<g>
	<g>
		<g>
			<g>
				<g>
					<path class="st2" d="M328.2-40c-0.6-0.1-0.4,0.8-0.4,0.9C328.7-39.3,328.2-40.2,328.2-40z"/>
					<polygon class="st2" points="337.5,-41.9 337.3,-41.6 338.7,-42.4 					"/>
					<path class="st2" d="M346.2-41.9c-0.8-1.4-3.2,0.2-4.7-0.3l-0.3-0.3l-0.7,1.1C342.4-41.6,344.9-42.3,346.2-41.9z"/>
					<path class="st2" d="M350.9-38.8c-0.3-0.6,1-0.5-1.1-0.2c0.1,0.1,0.1,0.1,0.2,0.1C350.2-38.9,350.4-38.9,350.9-38.8z"/>
					<path class="st2" d="M350-38.9C349-38.8,350.6-38.4,350-38.9L350-38.9z"/>
					<path class="st2" d="M354.2-39.2l-1.2,0.5c0.3,0.3,1.3,0.4,0.9,0.6C355.2-38.3,354.9-38.6,354.2-39.2z"/>
					<path class="st2" d="M355.3-40.2l-0.6,0.2C354.8-39.9,355-39.8,355.3-40.2z"/>
					<path class="st2" d="M353.4-39.6l1.3-0.4c-0.2-0.2-0.2-0.7-0.6,0.2C354.2-40.3,354-39.9,353.4-39.6z"/>
					<path class="st2" d="M352.6-39.8c-0.7-0.3-1.6-0.5-0.3-1C350-40.6,350.3-39.6,352.6-39.8z"/>
					<path class="st2" d="M346.7-43.4l-0.9-0.4l-0.8,0.5C345.4-43.6,346.7-42.9,346.7-43.4z"/>
					<path class="st2" d="M361.7-38.4c0.1-0.3-0.4-0.8-0.5-1.2l-0.9,0.3C360.8-39.1,361.7-38.9,361.7-38.4z"/>
					<path class="st2" d="M361.2-39.6l1.3-0.5C361.4-40.2,361.2-40,361.2-39.6z"/>
					<polygon class="st2" points="355.6,-41.8 353.4,-40.7 356,-41.8 					"/>
					<polygon class="st2" points="366.8,-38.4 366.1,-37.7 367.4,-38.8 					"/>
					<path class="st2" d="M370.2-38.5c-0.6,0.6,0.8,1,0.2,1.3c0.9-0.1,1.7-0.6,2.4-1.1C372.1-38,371.3-38,370.2-38.5z"/>
					<path class="st2" d="M374-38.9c-0.4,0.1-0.8,0.4-1.2,0.7C373.2-38.4,373.6-38.6,374-38.9z"/>
					<path class="st2" d="M364.8-40c0.1,0.2,0.3,0.7,1.1,0.9l-0.5-0.9C365.2-40,365-40,364.8-40z"/>
					<path class="st2" d="M365.4-40L365.4-40c0.6,0,1,0.1,1.2,0.1C366.4-40,366-40,365.4-40z"/>
					<path class="st2" d="M364.7-40L364.7-40C364.8-40.1,364.8-40.1,364.7-40z"/>
					<path class="st2" d="M359.1-41c0.8-0.5,2.4-1,0.8-1.7C359.3-42.2,360.2-41.8,359.1-41z"/>
					<path class="st2" d="M364.1-41.1l-1.4-0.2c0,0.2,0.3,0.6-0.1,0.8L364.1-41.1z"/>
					<polygon class="st2" points="364.8,-41.4 364.1,-41.1 364.6,-41 					"/>
					<path class="st2" d="M371.6-39.7c0.6-0.4,1.3-0.4,2-0.5c-0.8-0.2-1.7-0.3-2.4-0.3C371-40.1,370.7-39.7,371.6-39.7z"/>
					<path class="st2" d="M368.5-39.9h0.1C368.6-40,368.5-40.1,368.5-39.9z"/>
					<path class="st2" d="M381.1-40.1c0,0-0.1-0.1-0.1-0.2c0,0.1,0,0.1,0,0.1L381.1-40.1z"/>
					<path class="st2" d="M371-40.6c-0.6-0.2-1,0-1.3,0.3c0.5-0.1,0.9-0.1,1.5-0.1C371.2-40.5,371.2-40.6,371-40.6z"/>
					<path class="st2" d="M376.1-39.3c-0.3-0.2-0.7-0.3-1.1-0.5C375.3-39.5,376-39.1,376.1-39.3z"/>
					<path class="st2" d="M368.9-39.7C368.9-39.7,368.8-39.7,368.9-39.7C369-39.5,369-39.6,368.9-39.7z"/>
					<path class="st2" d="M368.9-39.7c0.3-0.1,0.6-0.3,0.8-0.5c-0.4,0.1-0.7,0.2-1,0.3C368.8-39.9,368.8-39.8,368.9-39.7z"/>
					<path class="st2" d="M383.3-45.6c-0.1,0.8-1.7,1.5-3.1,0.7c-1.4,0.6-0.5,3.2,0.7,4.7c0-0.3,0-0.7,1.4-1.1
						c-0.5-0.4-3.1-1-1.9-1.7c1.9-0.4,1.5,0.3,2.4,0.7c-0.8-1,2.4-1.4,2-2.9l-1.6,0.5C383.2-45.1,383.8-45.4,383.3-45.6z"/>
					<path class="st2" d="M378.3-40.4l-0.6,0.1c0.7,0.1,1.1,0.5,2,1.1c1-0.4,1.2-0.7,1.2-0.9l-2.8-0.1L378.3-40.4z"/>
					<path class="st2" d="M375.1-40.3c0.5-0.9,1.8-1.2,1-2.2c-1.7,0.1-1.2,0.7-2.2,1.1C376.6-41.6,373.1-40.9,375.1-40.3
						c-0.6,0-1,0.1-1.5,0.1c0.5,0.1,1,0.2,1.4,0.4c0,0,0,0-0.1-0.1l0,0l0,0c-0.1-0.1-0.2-0.2,0-0.1c0,0,0,0,0.1,0
						C375-40.1,375-40.2,375.1-40.3c0.8,0.2,0.1,0.2-0.1,0.3v0.1l0,0l2.7-0.5C377.1-40.4,376.4-40.4,375.1-40.3z"/>
					<path class="st2" d="M361.4-44.6c0.1,0.1,0.1,0.1,0.1,0.2C361.6-44.5,361.7-44.6,361.4-44.6z"/>
					<path class="st2" d="M362.5-44.1c-0.2,0.1-0.4,0.5-1,0.4c-0.6-0.3,0-0.4,0-0.7c-0.4,0.2-1.4,0.6-0.1,1l0.2-0.1
						c1.1,0.3,2.5,1.4,2.3,1.5C363.5-42.8,363.2-43.3,362.5-44.1z"/>
					<path class="st2" d="M368.9-42.4l2.3-0.4l-1.2-0.8l0.1,0.4C368.8-43.3,369-42.7,368.9-42.4z"/>
					<polygon class="st2" points="381.3,-39.7 381,-38.8 382.3,-40.1 					"/>
					<polygon class="st2" points="384.3,-39.8 384.2,-39 384.9,-39.5 					"/>
					<path class="st2" d="M551.4-49.6l0.7-0.2C551.7-49.8,551.5-49.7,551.4-49.6z"/>
					<path class="st2" d="M546.5-49.7l-0.1,0.4C546.7-49.5,546.7-49.7,546.5-49.7z"/>
					<path class="st2" d="M457-39.9c1,0.7,2.1,1.9,1.9,1l-0.3-0.9C458-39.6,457.5-39.7,457-39.9z"/>
					<path class="st2" d="M506.8-45.1c-0.1-0.1-0.2-0.2-0.3-0.3c-0.2,0.3-0.5,0.6-0.7,0.8C506.2-44.7,506.5-44.9,506.8-45.1z"/>
					<path class="st2" d="M507.5-48.7l1.3,0.6C508.5-48.3,508.1-48.5,507.5-48.7z"/>
					<path class="st2" d="M577.9-50.6l0.8-0.9C577.4-51.4,578-51,577.9-50.6z"/>
					<path class="st2" d="M414.6-40.1c0.8,0.3,1.5,0.5,2.1,0.5C415.7-40.1,414.9-40.9,414.6-40.1z"/>
					<path class="st2" d="M549.5-40.4c0.4-0.2,0.6-0.3,0.6-0.5C549.6-40.8,549.4-40.7,549.5-40.4z"/>
					<path class="st2" d="M419.1-39.6c-0.1-0.1-0.3-0.1-0.4-0.2c-0.6,0.1-1.2,0.3-2,0.2C417.5-39.3,418.3-39,419.1-39.6z"/>
					<path class="st2" d="M673.9-49.8c0.1,0,0.2,0.1,0.2,0.1C674.1-49.9,674-49.9,673.9-49.8z"/>
					<path class="st2" d="M701.9-41.1c-0.3,0.1-0.7,0.1-1.1,0.1C700.9-41,701.3-41,701.9-41.1z"/>
					<path class="st2" d="M396.2-39.4C395.6-39.4,396.1-39.4,396.2-39.4L396.2-39.4z"/>
					<path class="st2" d="M393.1-42.9c0.1-0.1,0.2-0.2,0.3-0.4C393.3-43.1,393.2-43,393.1-42.9z"/>
					<path class="st2" d="M425.4-45L425.4-45C425.3-45.2,425.3-45.2,425.4-45z"/>
					<path class="st2" d="M395.2-39.8c0.2,0.1,0.5,0.2,0.8,0.3C395.9-39.7,395.7-39.7,395.2-39.8z"/>
					<path class="st2" d="M395.4-39.4c-0.2,0-0.4-0.1-0.5-0.1C394.7-39.4,394.8-39.3,395.4-39.4z"/>
					<path class="st2" d="M397.1-39.5c-0.4,0-0.7,0-1-0.1c0.1,0.1,0.2,0.1,0.1,0.1C396.4-39.5,396.6-39.5,397.1-39.5z"/>
					<path class="st2" d="M622.4-47.5c0,0,0.1,0,0.1,0.1C623.2-47.8,622.9-47.7,622.4-47.5z"/>
					<path class="st2" d="M473.4-48.9C473.3-48.9,473.3-48.9,473.4-48.9C473.3-48.9,473.4-48.9,473.4-48.9L473.4-48.9z"/>
					<path class="st2" d="M475.6-49.6c-1,1.1-1.5,0.9-2.2,0.7l0.7,2.5L475.6-49.6z"/>
					<path class="st2" d="M563-49.9l-1.6-0.8c1.9-1.3,3.3-0.8,1.8-1.9c-0.2,2.7-6.2,0.3-6.4,3l-1-0.6c0.3,0,0.3-0.1,0.6-0.1
						c-2-1.3-1.5,2-4.1,1.6c-0.9-0.2-1.5-0.6-0.9-0.9l-2,0.7c-0.6-0.1-0.4-0.5,0.1-0.5l-3.1,0.2v-0.1c-0.4,0.4-1.4,1.1-1.9,1.4
						c-0.8-0.4,0.4-0.3,0.2-0.6l-1.7,0.7c-0.7-0.7,0.7-1.4,1.9-1.3c-1.6-2.7-1.4,0.7-4.9-0.9l1.6-0.3c-1-1.5-2.3-1-4.1-1.9
						c0.4,0.5,3.7,2.4,1.8,3.1c-0.5-0.2-1.2-0.3-2.2,0.2c0-1-1-0.7-2.2-0.7l0.1-1.3c-1.3,0.4-1.2,1-2,1.6c-1.5-0.1-1.8-1.1-2.1-2
						c-2.4-0.2,1.6,1.6-1.2,1.8c-2-0.5-3.4,0-5.7,0.8c-1.4-0.4,0.2-0.8-0.3-1.1l-1.2,1c-0.3,0-0.2-0.3-0.2-0.5
						c-1,0.4-0.1,1.3-1.7,1.6c-0.4,1.4-3.3-2.1-5.3-0.5c-0.5-0.4,0.2-0.8,0.1-1.3c-2.7,1-2.4,0.8-4.6,2.2l-1.9-0.8
						c1.4,1-0.4,2.1-2,3c0.5,0.5,0.9,0.9,1.2,1.1l-2.5,0.7c-0.3-0.2-0.1-0.6,0.4-1.2c-0.2,0.1-0.3,0.2-0.5,0.3
						c-0.9-0.5-0.4-1.2,0.2-1.9c0.3,0.3,0.6,0.5,0.9,0.8c0.6-0.8,1.2-1.6,1.1-2.4c-0.2,0.1-0.5,0.3-0.8,0.3c0.2-0.2,0.3-0.4,0.2-0.5
						c-0.1-0.1-0.3,0.1-0.8,0.5l-0.6-1.4l-0.1,0.6l-3.3-0.9c-2.4,1.4-4.4,3.5-8.2,4.1c0.9-1,0.2-1.7,0.3-2.9c1,1.3,2.9-0.6,4.8-0.3
						c-1-0.1-0.8-0.7-0.5-0.9l-3.5,1.2c0.1-1-0.7-0.8-1.6-1.2c0.7,2-2.6,1.3-4,1.9c-0.1-0.7,0.3-1.4,2-1.2c-1.9-1.5-2.5,2.4-4.3,1.1
						c0.4,0,0.6,0.1,0.8-0.3c-1,0.6-3.4,0.1-2.8-0.5h0.4c-2.8-0.2-8.5,0-8.9,1.7c0-0.2,0.4-2.1,0.5-2.4l-5,5.7
						c0.4-1.5-1.2-4.9,1.1-5.8c-0.7-0.2-1.5-0.5-2.9,0.1c0.5,0.2,1.1,2.1,0.5,2.2c-1.7-1.6-1.2-0.9-3.3-2.3c0.7,0.3-0.1,2.6-1.1,2.5
						c0.2-0.3-0.1-2.3,0.3-2.5l-2.7,2.2c0.7-0.4,0.1-1.9-0.5-2.5c0.3,0.4-2.3,0-3,0.2l1.1,0.5c-3-0.3-3,3.2-6,3
						c0.4-0.5,0.9-2.9-0.6-3.1c-0.7,1.2-3.1,5.5-5.7,6.4l-0.5-0.7l-2,0.8c1.3-1.7,4.8-5.4,6.8-6.8c-1.1-0.5-0.3-0.8-2-0.7
						c-0.6-0.6,0.9-0.9,1.4-1l-3.9-0.4c0.2,1.3-3,1.3-2.9,2.5l4.3-1.4c0.2,1.3-2.5,3.8-5.3,3.6c-0.7-0.5,0.5-2.4,0.5-2.8
						c-0.4,0.5-2.6,0.9-2.9,0.6l1.2-0.7c-1.6-0.5-2.5,1.8-4.4,0.5c-0.6-0.1-1.9-1.7-2-0.9c1,1.5,1.3,6.3,0.6,7.4
						c-0.2-0.1-3.4-1.5-4.1-2.2c-1.1-1.2,1.6-2.9,0.7-3.9c0,0.4-0.6,0.8-0.9,1c-0.7-0.3,0.3-1.1-1.2-1c-0.2,1.4-3-0.1-0.7,1.2
						c-1.4,0.4-1.5-0.3-3.2-0.2c0.5,0.9-1.5,3-3,3.4c0.1-0.3-0.2-0.8-0.4-1c-2.9-0.1-4.5-0.7-7.3-0.8c-0.3-0.3-1.6-0.7-1-1.3
						c-0.4,0.2-0.8,0.7-1.6,0.7c-1.6-1.2,1.9-0.2,0.6-1.6c-0.1,0.8-2.2,1.1-3.4,1.6c0.4,1.2,2.8,0.2,4-0.3c0,1.7-2.1,3.5-5,4.2
						c-2.3,0.4-1-1.1-1.4-0.9c-4.3-0.3-3.7,2.9-7.2,1.7c-1.4-1.1-0.1-2.1-0.4-2.9c1.9-0.4,2.9,0.7,4.1,0.6l-1.6-0.5
						c0.6-0.4,1.8-0.6,2.5-0.3c-1.2-1-7.2-0.2-10.5-1.1c-0.6,0.4-1.6,0.7-1.1,1.2l1-0.2c1,0.9-2,1.2-0.6,1.6c-1.4,0.6-3,1.6-5,1.1
						l-0.4-1.2c0,0.4,1.3,0.7,1.8,0.4c-0.8,0.5-3-1.7-3.9-0.1l1.4,0.8c-1.4,0.6-3.2,1.9-4.9,1.5c0.8,1.2,0.4-0.1,1.6,1.3
						c-1.1-1.8,4.5,0.1,2.7-1.8c1.3,1.6,2.2,0.7,3.9,2.1c-0.1-0.4-0.6-0.8,0.9-0.6c0.1-0.1,0.2-0.3,0.3-0.4h0.1h-0.1
						c0.1-0.1,0.1-0.1,0,0c-0.4-0.2-0.6-0.4-0.7-0.6c0.7-0.9,3.1-0.9,3.9-1.4c0.9,0.2-0.4,0.5,0.1,0.9l1.2-0.7
						c0.1,0.9,2.3,1.5,0.3,2h1.8c1.1,0.5,2.6,0.7,3.5,0.3c0.9,0.2,2.2-1,1.4-0.3l2.9-0.6v0.2c2.9,0.1,5.9-1.5,9.2,0.1
						c1-0.2,2-0.5,3.6-0.2l0.3,0.8c1.2-0.3,3.7,0.8,4.2,0c1.3,2.1,6,0.5,8.2,0.8l0.1-1c1.5,0.1,2.9-0.2,4.8-0.6l-0.1-0.9
						c1.6-0.7,4.1,0.6,6.7,0.5c-0.2,0.3-0.8,0.3-1.3,0c3,2,6.4-1.5,9.1,0c0.7-0.3,1.2-0.2,1.7,0c-0.1,0-0.1,0-0.2,0
						c0.1,0,0.2,0,0.3,0c0.3,0.2,0.6,0.3,1,0.5c-0.3-0.2-0.6-0.4-0.8-0.5c0.5,0,1.3-0.1,2.1-0.4l0.3,1c0.1,0,0.1,0,0.2,0
						c0.8,0.4,0.6-0.5,0.2-1.2c0.4-0.2,0.8-0.3,1-0.6c0.6,1.6,2.1-0.5,2.9,1.1c0.5-0.8,3.9-0.6,4.4-2.3c0,0.2,0.3,0.3-0.2,0.3
						c0.9,0.2,1.7,0.4,2.5-0.1l0.4,1.2l1.9-1.6c1.2,0.7,1.6,1.2,0.5,2.1c2.8-1.4,2.3-0.5,4.6-2l-0.1,0.8c0.8,0,2.2-1.1,2.7-0.4
						c1.9,1.5,9.4,0.2,14.2,1.6c-0.9-2.3,2.3,1,2.5-0.8c0.3,0.6,1,0.9,0.2,1.3c2.5-0.5,3.7,0.9,5.4-0.6c0.3,0.6-0.5,0.8-0.3,1.1
						c0.2-0.1,0.8-0.5,1-0.2c0.3,0.3-0.4,0.5-0.8,0.7c2.5-0.1,2.8-1.8,3-3.4c1.3,0.8,1.9,0.6,2.9-0.4c0.4,0.5,1.2,1.1-0.4,1.3
						c0.9,0.1,5.4,0.8,5.5-0.5c0.3,0.3,1.2,0.1,1.5-0.1c2,0.1,2.2,0.2,4.1,0.1L518-43c0.8-1.5,1.6-0.3,3.2-0.5v0.2
						c3.6,1.1,1.6-0.5,5.1,0.7l-0.2-1c0.3-2.1,3.2,1.2,5.2,0.4l-0.7-0.5c1.1-0.7,3.2,2.8,4.3,3.1c0.2,0.2-0.4,0.3-0.7,0.4
						c3,1.2,0.4-1.3,2.6-1.5c0.4,0.7-0.5,1.7,1,1.8c0.7,0.5,4.3-2.2,6.3-0.9c-0.4-0.5-0.9-1,0.1-1.4c1.6-0.2,4.3,2,5.7,0.3
						c0.2,0.1,0.3,0.3,0.3,0.4c1.2-0.4,3.9-0.7,4.6-1.6c1.1,3.3,7.5-1.6,7.4,1.4l3.7-0.2l-0.1,0.3c2.4,0.2,3.2-0.5,4-1.3
						c0.5,0.2,0.1,0.5,0.1,0.7c3.5,0.6,3.8,0.5,6.7-1l0.3,1c0.8-0.6,5,1.6,8.4,0.4c0,0.1-0.1,0.3-0.4,0.4c3.8-1.2,9.1,2.8,10.5-0.9
						l2.5-0.9c-3.3-0.3,0.5-1.6-0.9-2.2c1.3-0.2,3.3,1.1,1.7,1.3l-0.2-0.2c-0.6,1.9,4,0.7,4,1.9c6.4-0.1,12.6,0.9,18.6,1l-0.7-1.5
						l2.1,0.1c0.5,0.3,0.7,1.1-0.8,1.1c0.8,0.8,2.5-0.7,2.5-1c2.9,0.6-1.1,1.7-0.2,1.7l1.2-0.1l-0.3-0.2c1-0.6,1.1-1.2,2.9-1.2
						c1.1,0.3,0.6,0.9,1,1c0,0.1,0.1,0.2,0.7,0l2.6,0.1l-1.1-1.2c1.2-0.6,2.5,0.1,1.3-1.2c1.8,2,9.8,0.7,10.9,1.4
						c1.6-0.8,3.3-0.8,5.3-0.7c-0.5-0.2-0.8-1.5,0.9-1.4c-0.6,2.7,3.2,1.2,4.6,3.1c-1.2-1.3,4.9-0.3,2.9-2.1c1.4,0.2,0.1,1,1.2,1.6
						c3.4-1,7.6,0.7,11.8,0.3c0.1-0.4-0.6-0.9,0.3-1.4l2.2,1.8c0.8-0.2,0.8-2,2.3-0.8c-0.2-0.3-0.5-0.7,0-0.9
						c8.3,1.7,17-1.4,25.4,1.8c-1.1-0.7-0.4-0.7,0.5-0.8c-0.6-0.2,0-0.9-0.1-1.3l3.5,1.3c0.6-1.3,3.8-0.1,4.2-1.4l-1.1,0.2
						c1.5-1.5-2.1-3.3-1.9-5.2c-1.7,1.7-4.4-2.5-7.1-0.1c-0.6-0.4,0.5-0.6,0.2-1.1c-0.7,0.8-1.5,1-3.1,0.6l0.2-0.2
						c-4.3,0.2-6.2-0.6-11.1-1.1l0.4,0.9c-1-0.1-1.3-0.4-1.8-0.7c-1.2,1.4,2.9,0.1,1.9,1.7c-1.4-1.9-7.4,0-8.3-2.2
						c-1.6,0,0.5,1.1-1.1,1.1L675-50l-0.4,0.8c-1.1-0.1-1.6-0.9-1.6-1.4c0.3,0.1,0.7-0.1,1-0.2c-1.4-0.7-3.9,0.2-4.3,0l1.6,0.4
						c-4.4,0.6-9.8-0.2-14.1,1l0.3,0.4c-3.3,0.8-2.6-0.5-6.2-0.1l0.1-0.1c-0.7,0.4-1.7,0.7-2.6,0.6c0.9-0.5-1.7-1-0.5-1.6
						c-3.5,0.9-1.7,0.7-4.1,2.4l-0.5-0.7c-0.8,0.7-0.9,1-2.6,1.2c1.5-0.6-1.1-1.1,0.5-2c-3.7-1.6-5.6,1.6-7.3-0.7
						c-1.7,2.1,3.2,1.1,2.3,1.6c0.8,0.7-1.4,1.5-2.6,1.3c-1.2,0-2-2.6-5-2.6c0.3,0,0.3-0.1,0.6-0.1c-1.1-0.5-2.2,0.7-3.6-0.1
						c-0.8,1.2-1.8-0.1-2,1.5l2.8-0.4c-1.6,0.4-3,2.3-5.6,1.4c0.2-0.3,1-0.7,1.5-1c-0.8-0.5-1.5,0.3-2.2-0.2c0.2-1.6,3.4-0.3,5-1.6
						c-0.8-0.7-3.2,1.1-2.3-0.6c-1.2,2.2-3-0.3-5,1.4l0.1-0.9c-0.3,0.1-1,0.6-1.6,0.6l1.1-1.2c-1.6,1-3.2-0.9-4.8-0.3
						c3.3,0,0.7,1.1,2.1,1.8c-4.1,1.3-2.3-2.5-6.9-2c0.6-0.1,2.3,0.6,1.4,1c-0.9-0.2-2-0.6-2.6-1.1c-3,0.2,0.5,1-0.8,1.6
						c-1-1.2-1.5,0.5-2.8,0.8v-1c-3.5-0.6-0.9,2-4,1.3l1.3-1.3l-1.6,0.3l0.3-1.1c-1.8,0.8-2.3,0.6-4,0.3c0.4,0.7-0.2,1.8-1.8,1.8
						c-1-0.6,0.6-0.9-1.6-0.8c0.5-0.6,1-1.4,2-0.5c0.1-0.3,0.5-0.6,0.6-0.9c-1.1-0.7-2.8-0.2-3.6-0.1c0.3,0,0.7,0.1,0.8,0.2
						l-3.1,1.3c-0.5-0.4-0.1-0.7,0.3-0.9c-0.6,0.1-1.1,0.5-2,0.6c0.2-0.8,0.2-1.6,1.5-2l-3,0.9c-0.2-0.3-1.5-0.9-1.1-1.2
						c-1.7-0.5-4.1,1.5-6.3,0.9c-0.1,0.2-0.3,0.3-0.8,0.4c-2.1-0.2-3.9-1.1-6.4-0.1l-1.4-1.4c-1.9,0.3,1.9,1.8-1.3,2.3
						c-2.3,0.4-0.8-1.2-1.6-1.6c-1.1,0.7-3.1,2.2-5.2,1C561.8-50,562.4-49.8,563-49.9z M539.3-49.3c0.5-0.2,1.4-0.8,1.7-0.3
						C540.5-48.4,540.1-49,539.3-49.3z M503.3-47c0.3-0.3,0.9-0.2,1.5,0.2C504.4-46.7,503.9-46.7,503.3-47z M403.1-40.2
						C403.1-40.2,403.1-40.3,403.1-40.2C404.1-39.9,403.8-40.1,403.1-40.2z M401-40.7c-0.2,0.1-0.2,0.3-0.1,0.4
						c0.1-0.2,0.6-0.3,1.2-0.2C401.9-40.7,401.6-40.9,401-40.7z M629.2-41l-0.4-0.3C629.7-41.6,629.4-41.3,629.2-41z"/>
					<path class="st2" d="M507.4-48.3c0.1,0.2,0.2,0.3,0.2,0.5C507.8-47.9,507.8-48.1,507.4-48.3z"/>
					<path class="st2" d="M577.7-50.4C577.7-50.4,577.8-50.4,577.7-50.4c0.1,0,0.1-0.1,0.1-0.2L577.7-50.4z"/>
					<path class="st2" d="M433.9-48.8c0.4,0.1,0.7,0.3,0.8,0.5C434.7-48.6,434.5-48.8,433.9-48.8z"/>
					<path class="st2" d="M389.7-39l1.4-0.3c-0.7,0-0.9-0.2-1.2-0.3C389.9-39.4,390.1-39,389.7-39z"/>
					<path class="st2" d="M377.9-45c-0.2,0.1-0.4,0-0.6,0.1l0.1,0.4C378.2-44.4,378.8-44.8,377.9-45z"/>
					<path class="st2" d="M388.4-42.2c-0.1-0.8-1-0.5-1.9-0.4c0.1,0,0.1,0,0.2,0C386.4-41.5,387.4-41.8,388.4-42.2z"/>
					<path class="st2" d="M386.3-42.6c-0.3,0-0.6,0.1-0.9,0C385.3-42.1,385.8-42.5,386.3-42.6z"/>
					<path class="st2" d="M398.3-40.1c-0.5-0.2-0.3,1-0.5,0.7C397.2-38.4,400.7-40.7,398.3-40.1z"/>
					<polygon class="st2" points="387.7,-44.9 388,-43.9 388.5,-44.7 					"/>
					<path class="st2" d="M395.2-44.2l-1.5-0.3c0,0.2-0.2,0.3-0.4,0.3C394.2-44.1,395.2-43.9,395.2-44.2z"/>
					<path class="st2" d="M393.3-44.1c-0.5,0-1,0-1.2,0.2C392.3-43.9,392.9-44,393.3-44.1z"/>
					<polygon class="st2" points="389.7,-45.2 390.2,-45 391.3,-44.9 					"/>
					<path class="st2" d="M411.6-44l1.7-0.3c0.2-0.3-0.3-0.6-0.9-0.4C411.9-44.4,411.3-44.3,411.6-44z"/>
					<path class="st2" d="M406.5-46.7c0.4,0.2,0.5,0.4,0.7,0.8l0.1-1.2L406.5-46.7z"/>
					<path class="st2" d="M411.4-47c0.2-0.3,2.4-1,0.3-0.9C411.5-47.6,409.9-47.3,411.4-47z"/>
					<polygon class="st2" points="436.4,-45.4 436,-45.4 436.1,-43.4 					"/>
					<path class="st2" d="M458.5-50.3c-2-0.5-0.5,1.3-2.2,0.6c-0.5,0.5,1.5,0.5,1,0.9C458.4-49.2,459.1-49,458.5-50.3z"/>
					<path class="st2" d="M457.3-48.7c-0.2,0.1-0.4,0.2-0.6,0.3C457-48.6,457.2-48.7,457.3-48.7z"/>
					<polygon class="st2" points="706.5,-40 707.8,-39.6 707,-40.3 					"/>
					<path class="st2" d="M708.9-41.5l0.3,1.3l0.8-1.2C709.7-41.3,709.2-41.2,708.9-41.5z"/>
					<path class="st2" d="M535.8-51.9l-0.1,0.3c0.2,0.3,0.5,0.4,1.1,0.4L535.8-51.9z"/>
					<polygon class="st2" points="553,-50.9 552.7,-50.9 553.2,-49.8 					"/>
					<path class="st2" d="M567.4-52.4c-0.6,0-1.3,0.2-1.9,0.2C566.8-52.5,567.6-51,567.4-52.4z"/>
				</g>
			</g>
		</g>
	</g>
</g>
<g>
	<g>
		<g>
			<g>
				<g>
					<path class="st2" d="M731.4,218.2c0.5,0.1,0.3-0.8,0.4-0.9C730.9,217.5,731.4,218.5,731.4,218.2z"/>
					<polygon class="st2" points="722.6,220.1 722.8,219.8 721.5,220.6 					"/>
					<path class="st2" d="M714.4,220.1c0.8,1.4,3-0.2,4.4,0.3l0.2,0.3l0.7-1.1C718,219.8,715.6,220.5,714.4,220.1z"/>
					<path class="st2" d="M710,217c0.3,0.6-0.9,0.5,1,0.2c-0.1-0.1-0.1-0.1-0.2-0.1C710.7,217.1,710.4,217.1,710,217z"/>
					<path class="st2" d="M710.8,217.1C711.7,217,710.3,216.6,710.8,217.1L710.8,217.1z"/>
					<path class="st2" d="M706.8,217.4l1.1-0.5c-0.2-0.3-1.3-0.4-0.9-0.6C705.9,216.5,706.2,216.8,706.8,217.4z"/>
					<path class="st2" d="M705.7,218.4l0.6-0.2C706.2,218.1,706.1,218,705.7,218.4z"/>
					<path class="st2" d="M707.6,217.8l-1.3,0.4c0.2,0.2,0.2,0.7,0.6-0.2C706.8,218.5,707.1,218.1,707.6,217.8z"/>
					<path class="st2" d="M708.3,218c0.6,0.3,1.5,0.5,0.3,1C710.8,218.8,710.5,217.8,708.3,218z"/>
					<path class="st2" d="M714,221.6l0.9,0.4l0.7-0.5C715.2,221.8,713.9,221.1,714,221.6z"/>
					<path class="st2" d="M699.7,216.6c-0.1,0.3,0.4,0.8,0.5,1.2l0.8-0.3C700.6,217.3,699.8,217.1,699.7,216.6z"/>
					<path class="st2" d="M700.2,217.8l-1.3,0.5C700.1,218.4,700.3,218.2,700.2,217.8z"/>
					<polygon class="st2" points="705.5,220 707.6,218.9 705.1,220 					"/>
					<polygon class="st2" points="694.9,216.6 695.6,215.9 694.3,217 					"/>
					<path class="st2" d="M691.7,216.7c0.5-0.6-0.7-1-0.2-1.3c-0.9,0.1-1.6,0.6-2.3,1.1C690,216.2,690.7,216.3,691.7,216.7z"/>
					<path class="st2" d="M688.1,217.1c0.4-0.1,0.7-0.4,1.1-0.7C688.9,216.6,688.5,216.8,688.1,217.1z"/>
					<path class="st2" d="M696.8,218.2c-0.1-0.2-0.3-0.7-1-0.9l0.5,0.9C696.4,218.2,696.6,218.2,696.8,218.2z"/>
					<path class="st2" d="M696.3,218.2L696.3,218.2c-0.6,0-0.9-0.1-1.1-0.1C695.3,218.2,695.7,218.2,696.3,218.2z"/>
					<path class="st2" d="M696.9,218.2L696.9,218.2C696.8,218.3,696.9,218.3,696.9,218.2z"/>
					<path class="st2" d="M702.2,219.2c-0.7,0.5-2.3,1-0.8,1.7C702,220.4,701.1,220,702.2,219.2z"/>
					<path class="st2" d="M697.5,219.3l1.3,0.2c0-0.2-0.3-0.6,0.1-0.8L697.5,219.3z"/>
					<polygon class="st2" points="696.9,219.6 697.5,219.3 697,219.2 					"/>
					<path class="st2" d="M690.4,217.9c-0.6,0.4-1.2,0.4-1.9,0.5c0.8,0.2,1.6,0.3,2.3,0.3C690.9,218.3,691.3,217.9,690.4,217.9z"/>
					<path class="st2" d="M693.3,218.1L693.3,218.1C693.2,218.3,693.3,218.3,693.3,218.1z"/>
					<path class="st2" d="M681.5,218.4c0,0,0.1,0.1,0.1,0.2v-0.1L681.5,218.4z"/>
					<path class="st2" d="M690.9,218.8c0.6,0.2,0.9,0,1.2-0.3c-0.4,0.1-0.9,0.1-1.4,0.1C690.8,218.7,690.8,218.8,690.9,218.8z"/>
					<path class="st2" d="M686.2,217.5c0.3,0.2,0.6,0.3,1,0.5C686.9,217.7,686.3,217.3,686.2,217.5z"/>
					<path class="st2" d="M693,217.9L693,217.9C692.9,217.7,692.9,217.8,693,217.9z"/>
					<path class="st2" d="M693,217.9c-0.3,0.1-0.5,0.3-0.8,0.5c0.4-0.1,0.7-0.2,1-0.3C693.1,218.1,693,218,693,217.9z"/>
					<path class="st2" d="M679.3,223.8c0.1-0.8,1.6-1.5,2.9-0.7c1.3-0.6,0.4-3.2-0.7-4.7c0,0.3,0,0.7-1.4,1.1c0.5,0.4,2.9,1,1.8,1.7
						c-1.8,0.4-1.4-0.3-2.3-0.7c0.7,1-2.2,1.4-1.8,2.9l1.5-0.5C679.5,223.3,678.9,223.6,679.3,223.8z"/>
					<path class="st2" d="M684.1,218.6l0.5-0.1c-0.6-0.1-1.1-0.5-1.9-1.1c-0.9,0.4-1.1,0.7-1.2,0.9l2.7,0.1L684.1,218.6z"/>
					<path class="st2" d="M687.1,218.5c-0.4,0.9-1.7,1.2-0.9,2.2c1.6-0.1,1.1-0.7,2.1-1.1C685.7,219.8,689,219.1,687.1,218.5
						c0.5,0,1-0.1,1.4-0.1c-0.5-0.1-0.9-0.2-1.3-0.4c0,0,0,0,0.1,0.1l0,0l0,0c0.1,0.1,0.1,0.2,0,0.1c0,0,0,0-0.1,0
						C687.2,218.3,687.1,218.4,687.1,218.5c-0.7-0.2-0.1-0.2,0.1-0.3v-0.1l0,0l-2.6,0.5C685.2,218.6,685.9,218.6,687.1,218.5z"/>
					<path class="st2" d="M700.1,222.8c-0.1-0.1-0.1-0.1-0.1-0.2C699.8,222.7,699.8,222.8,700.1,222.8z"/>
					<path class="st2" d="M699,222.3c0.2-0.1,0.3-0.5,1-0.4c0.5,0.3,0,0.4,0,0.7c0.4-0.2,1.3-0.6,0.1-1l-0.2,0.1
						c-1-0.3-2.4-1.4-2.2-1.5C698,221,698.3,221.5,699,222.3z"/>
					<path class="st2" d="M693,220.6l-2.2,0.4l1.1,0.7l-0.1-0.4C693.1,221.5,692.8,221,693,220.6z"/>
					<polygon class="st2" points="681.2,217.9 681.5,217 680.3,218.3 					"/>
					<polygon class="st2" points="678.4,218 678.5,217.2 677.8,217.7 					"/>
					<path class="st2" d="M520.6,227.9l-0.6,0.2C520.2,228,520.4,227.9,520.6,227.9z"/>
					<path class="st2" d="M525.1,227.9l0.1-0.4C525,227.7,525,227.9,525.1,227.9z"/>
					<path class="st2" d="M609.7,218.1c-0.9-0.7-2-1.9-1.8-1l0.3,0.9C608.8,217.8,609.3,217.9,609.7,218.1z"/>
					<path class="st2" d="M562.7,223.3c0.1,0.1,0.2,0.2,0.3,0.3c0.2-0.3,0.4-0.6,0.6-0.8C563.3,222.9,563,223.1,562.7,223.3z"/>
					<path class="st2" d="M562,226.9l-1.2-0.6C561.1,226.5,561.5,226.7,562,226.9z"/>
					<path class="st2" d="M495.5,228.8l-0.7,0.9C496,229.7,495.5,229.2,495.5,228.8z"/>
					<path class="st2" d="M649.8,218.4c-0.8-0.3-1.4-0.5-2-0.5C648.7,218.3,649.5,219.1,649.8,218.4z"/>
					<path class="st2" d="M522.4,218.6c-0.4,0.2-0.6,0.3-0.5,0.5C522.2,219,522.4,218.9,522.4,218.6z"/>
					<path class="st2" d="M645.5,217.8c0.1,0.1,0.3,0.1,0.4,0.2c0.6-0.1,1.2-0.3,1.9-0.2C647.1,217.5,646.3,217.2,645.5,217.8z"/>
					<path class="st2" d="M404.8,228.1c-0.1,0-0.1-0.1-0.2-0.1C404.6,228.1,404.7,228.1,404.8,228.1z"/>
					<path class="st2" d="M378.4,219.3c0.3-0.1,0.7-0.1,1.1-0.1C379.3,219.2,379,219.2,378.4,219.3z"/>
					<path class="st2" d="M667.2,217.7C667.8,217.6,667.3,217.6,667.2,217.7L667.2,217.7z"/>
					<path class="st2" d="M670.1,221.1c-0.1,0.1-0.2,0.2-0.2,0.4C669.9,221.3,669.9,221.2,670.1,221.1z"/>
					<path class="st2" d="M639.6,223.2L639.6,223.2C639.7,223.4,639.7,223.4,639.6,223.2z"/>
					<path class="st2" d="M668.1,218c-0.2-0.1-0.5-0.2-0.8-0.3C667.4,217.9,667.7,217.9,668.1,218z"/>
					<path class="st2" d="M667.9,217.6c0.2,0,0.4,0.1,0.5,0.1C668.5,217.6,668.5,217.5,667.9,217.6z"/>
					<path class="st2" d="M666.3,217.7c0.3,0,0.7,0,1,0.1c-0.1-0.1-0.2-0.1-0.1-0.1C667,217.7,666.7,217.7,666.3,217.7z"/>
					<path class="st2" d="M453.4,225.7c0,0-0.1,0-0.1-0.1C452.7,226,453,226,453.4,225.7z"/>
					<path class="st2" d="M594.3,227.1L594.3,227.1L594.3,227.1L594.3,227.1z"/>
					<path class="st2" d="M592.1,227.8c0.9-1.1,1.4-0.9,2.1-0.7l-0.7-2.5L592.1,227.8z"/>
					<path class="st2" d="M509.6,228.1l1.5,0.8c-1.8,1.3-3.1,0.8-1.7,1.9c0.2-2.7,5.8-0.3,6-3l1,0.6c-0.3,0-0.3,0.1-0.6,0.1
						c1.9,1.3,1.4-2,3.9-1.6c0.9,0.2,1.5,0.6,0.9,0.9l1.9-0.7c0.6,0.1,0.4,0.5-0.1,0.5l2.9-0.2v0.1c0.4-0.4,1.4-1.1,1.8-1.4
						c0.7,0.4-0.4,0.3-0.2,0.6l1.6-0.7c0.7,0.7-0.7,1.4-1.8,1.3c1.5,2.7,1.3-0.7,4.6,0.9l-1.5,0.3c1,1.5,2.2,1,3.9,1.9
						c-0.4-0.5-3.5-2.4-1.7-3.1c0.5,0.2,1.1,0.3,2.1-0.2c0,1,0.9,0.7,2.1,0.7l-0.1,1.3c1.3-0.4,1.2-1,1.9-1.6c1.4,0.1,1.7,1.1,2,2
						c2.2,0.2-1.5-1.6,1.1-1.8c1.9,0.5,3.2,0,5.4-0.8c1.3,0.4-0.2,0.8,0.2,1.1l1.2-1c0.3,0,0.2,0.3,0.1,0.5c1-0.4,0.1-1.3,1.6-1.6
						c0.4-1.4,3.1,2.1,5,0.5c0.5,0.4-0.2,0.8-0.1,1.3c2.6-1,2.2-0.8,4.4-2.2l1.8,0.8c-1.3-1,0.4-2.1,1.9-3c-0.5-0.5-0.9-0.9-1.1-1.1
						l2.4-0.7c0.3,0.2,0,0.6-0.3,1.2c0.2-0.1,0.3-0.2,0.4-0.3c0.9,0.5,0.4,1.2-0.2,1.9c-0.3-0.3-0.6-0.5-0.9-0.8
						c-0.6,0.8-1.1,1.6-1,2.4c0.2-0.1,0.5-0.3,0.8-0.3c-0.2,0.2-0.3,0.4-0.2,0.5c0.1,0.1,0.3-0.1,0.7-0.5l0.5,1.4l0.1-0.6l3.1,0.9
						c2.2-1.4,4.2-3.5,7.7-4.1c-0.9,1-0.2,1.7-0.2,2.9c-1-1.3-2.7,0.6-4.6,0.3c1,0.1,0.7,0.7,0.5,0.9l3.3-1.2
						c-0.1,1,0.7,0.8,1.6,1.2c-0.6-2,2.4-1.3,3.8-1.9c0.1,0.7-0.2,1.4-1.9,1.2c1.8,1.5,2.3-2.4,4.1-1.1c-0.4,0-0.6-0.1-0.8,0.3
						c0.9-0.6,3.2-0.1,2.7,0.5h-0.4c2.6,0.2,8,0,8.4-1.7c0,0.2-0.3,2.1-0.5,2.4l4.7-5.7c-0.4,1.5,1.2,4.9-1,5.8
						c0.6,0.2,1.4,0.5,2.7-0.1c-0.4-0.2-1.1-2.1-0.5-2.2c1.6,1.6,1.1,0.9,3.1,2.3c-0.6-0.3,0.1-2.6,1.1-2.5
						c-0.2,0.3,0.1,2.3-0.3,2.5l2.5-2.2c-0.6,0.4-0.1,1.9,0.5,2.5c-0.3-0.4,2.2,0,2.9-0.2l-1.1-0.5c2.8,0.3,2.8-3.2,5.6-3
						c-0.3,0.5-0.8,2.9,0.6,3.1c0.7-1.2,2.9-5.5,5.4-6.4l0.5,0.7l1.9-0.8c-1.2,1.7-4.5,5.4-6.4,6.8c1.1,0.5,0.3,0.8,1.9,0.7
						c0.6,0.6-0.9,0.9-1.3,1l3.7,0.4c-0.2-1.3,2.8-1.3,2.7-2.5l-4,1.4c-0.2-1.3,2.3-3.8,5-3.6c0.7,0.5-0.5,2.4-0.4,2.8
						c0.3-0.5,2.5-0.9,2.7-0.6l-1.1,0.7c1.5,0.5,2.4-1.8,4.2-0.5c0.6,0.1,1.8,1.7,1.9,0.9c-1-1.5-1.2-6.3-0.5-7.4
						c0.2,0.1,3.2,1.5,3.9,2.2c1,1.2-1.5,2.9-0.7,3.9c0-0.4,0.6-0.8,0.8-1c0.6,0.3-0.3,1.1,1.1,1c0.2-1.4,2.8,0.1,0.7-1.2
						c1.4-0.4,1.4,0.3,3,0.2c-0.5-0.9,1.4-3,2.8-3.4c-0.1,0.3,0.2,0.8,0.4,1c2.8,0.1,4.3,0.7,6.9,0.8c0.2,0.3,1.5,0.7,1,1.3
						c0.4-0.2,0.7-0.7,1.5-0.7c1.5,1.2-1.8,0.2-0.6,1.6c0.1-0.8,2.1-1.1,3.2-1.6c-0.4-1.2-2.6-0.2-3.8,0.3c0-1.7,2-3.5,4.7-4.2
						c2.2-0.4,0.9,1.1,1.3,0.9c4,0.3,3.4-2.9,6.8-1.7c1.3,1.1,0.1,2.1,0.4,2.9c-1.8,0.4-2.7-0.7-3.9-0.6l1.5,0.5
						c-0.6,0.4-1.7,0.6-2.4,0.3c1.1,1,6.8,0.2,10,1.1c0.6-0.4,1.5-0.7,1.1-1.2l-1,0.2c-0.9-0.9,1.9-1.2,0.6-1.6
						c1.3-0.6,2.8-1.6,4.7-1.1l0.4,1.2c0-0.4-1.2-0.7-1.7-0.4c0.8-0.5,2.9,1.7,3.7,0.1l-1.3-0.8c1.3-0.6,3-1.9,4.6-1.5
						c-0.8-1.2-0.4,0.1-1.6-1.3c1,1.8-4.2-0.1-2.6,1.8c-1.2-1.6-2.1-0.7-3.7-2.1c0,0.4,0.6,0.8-0.8,0.6c-0.1,0.1-0.2,0.3-0.3,0.4
						h-0.1c0,0,0,0,0.1,0c-0.1,0.1-0.1,0.1,0,0c0.3,0.2,0.6,0.4,0.7,0.6c-0.7,0.9-2.9,0.9-3.6,1.4c-0.8-0.2,0.3-0.5-0.1-0.9
						l-1.1,0.7c-0.1-0.9-2.2-1.5-0.2-2h-1.7c-1-0.5-2.4-0.7-3.3-0.3c-0.8-0.2-2.1,1-1.4,0.3l-2.7,0.6v-0.2c-2.7-0.1-5.6,1.5-8.7-0.1
						c-0.9,0.2-1.9,0.5-3.4,0.2l-0.3-0.8c-1.2,0.3-3.5-0.8-4,0c-1.3-2.1-5.7-0.5-7.7-0.8l-0.1,1c-1.4-0.1-2.8,0.2-4.5,0.6l0.1,0.9
						c-1.5,0.7-3.9-0.6-6.3-0.5c0.2-0.3,0.8-0.3,1.2,0c-2.9-2-6,1.5-8.6,0c-0.6,0.3-1.1,0.2-1.6,0c0.1,0,0.1,0,0.2,0
						c-0.1,0-0.2,0-0.3,0c-0.3-0.2-0.6-0.3-0.9-0.5c0.3,0.2,0.5,0.4,0.8,0.5c-0.5,0-1.3,0.1-2,0.4l-0.3-1c-0.1,0-0.1,0-0.2,0
						c-0.7-0.4-0.6,0.5-0.2,1.2c-0.4,0.2-0.7,0.3-1,0.6c-0.6-1.6-1.9,0.5-2.8-1.1c-0.5,0.8-3.7,0.6-4.1,2.3c0-0.2-0.2-0.3,0.2-0.3
						c-0.8-0.2-1.7-0.4-2.4,0.1l-0.4-1.2l-1.8,1.6c-1.1-0.7-1.6-1.2-0.5-2.1c-2.6,1.4-2.1,0.5-4.4,2l0.1-0.8c-0.8,0-2.1,1.1-2.6,0.4
						c-1.8-1.5-8.8-0.2-13.4-1.6c0.9,2.3-2.1-1-2.3,0.8c-0.3-0.6-0.9-0.9-0.2-1.3c-2.3,0.5-3.5-0.9-5.1,0.6
						c-0.3-0.6,0.5-0.8,0.3-1.1c-0.2,0.1-0.7,0.5-1,0.2c-0.2-0.3,0.3-0.5,0.7-0.7c-2.4,0.1-2.6,1.8-2.8,3.4
						c-1.2-0.8-1.8-0.6-2.7,0.4c-0.4-0.5-1.1-1.1,0.4-1.3c-0.8-0.1-5.1-0.8-5.2,0.5c-0.3-0.3-1.2-0.1-1.4,0.1
						c-1.9-0.1-2-0.2-3.9-0.1l0.5,0.2c-0.7,1.5-1.5,0.3-3,0.5v-0.2c-3.4-1.1-1.5,0.5-4.8-0.7l0.2,1c-0.3,2.1-3-1.2-4.9-0.4l0.7,0.5
						c-1.1,0.7-3-2.8-4-3.1c-0.2-0.2,0.4-0.3,0.7-0.4c-2.8-1.2-0.4,1.3-2.4,1.5c-0.4-0.7,0.5-1.7-0.9-1.8c-0.7-0.5-4.1,2.2-6,0.9
						c0.4,0.5,0.8,1-0.1,1.4c-1.5,0.2-4-2-5.4-0.3c-0.2-0.1-0.3-0.3-0.3-0.4c-1.1,0.4-3.7,0.7-4.4,1.6c-1-3.3-7.1,1.6-7-1.4
						l-3.5,0.2l0.1-0.3c-2.2-0.2-3,0.5-3.8,1.3c-0.5-0.2-0.1-0.5-0.1-0.7c-3.3-0.6-3.6-0.5-6.3,1l-0.3-1c-0.7,0.6-4.7-1.6-7.9-0.4
						c0-0.1,0.1-0.3,0.4-0.4c-3.6,1.2-8.6-2.8-9.9,0.9l-2.4,0.9c3.1,0.3-0.5,1.6,0.8,2.2c-1.2,0.2-3.1-1.1-1.6-1.3l0.2,0.2
						c0.5-1.9-3.8-0.7-3.7-1.9c-6,0.1-11.9-0.9-17.6-1l0.7,1.5l-2-0.1c-0.5-0.3-0.7-1.1,0.7-1.1c-0.7-0.8-2.4,0.7-2.4,1
						c-2.8-0.6,1.1-1.7,0.2-1.7l-1.1,0.1l0.3,0.2c-0.9,0.6-1,1.2-2.7,1.2c-1.1-0.3-0.5-0.9-1-1c0-0.1-0.1-0.2-0.6,0l-2.5-0.1l1,1.2
						c-1.1,0.6-2.3-0.1-1.2,1.2c-1.7-2-9.3-0.7-10.3-1.4c-1.5,0.8-3.1,0.8-5,0.7c0.5,0.2,0.8,1.5-0.9,1.4c0.6-2.7-3-1.2-4.3-3.1
						c1.2,1.3-4.6,0.3-2.8,2.1c-1.4-0.2-0.1-1-1.1-1.6c-3.2,1-7.1-0.7-11.1-0.3c-0.1,0.4,0.6,0.9-0.3,1.4l-2.1-1.8
						c-0.8,0.2-0.7,2-2.2,0.8c0.2,0.3,0.5,0.7,0,0.9c-7.8-1.7-16,1.4-24-1.8c1.1,0.7,0.4,0.7-0.5,0.8c0.5,0.2,0,0.9,0.1,1.3
						l-3.3-1.3c-0.6,1.3-3.6,0.1-3.9,1.4l1.1-0.2c-1.4,1.5,2,3.3,1.8,5.2c1.6-1.7,4.1,2.5,6.7,0.1c0.6,0.4-0.5,0.6-0.2,1.1
						c0.7-0.8,1.4-1,2.9-0.6l-0.2,0.2c4.1-0.2,5.9,0.6,10.5,1.1l-0.3-0.9c1,0.1,1.2,0.4,1.7,0.7c1.1-1.4-2.8-0.1-1.7-1.7
						c1.3,1.9,7,0,7.9,2.2c1.5,0-0.4-1.1,1.1-1.1l0.4,0.6l0.4-0.8c1,0.1,1.5,0.9,1.5,1.4c-0.2-0.1-0.7,0.1-1,0.2
						c1.3,0.7,3.7-0.2,4.1,0l-1.5-0.4c4.2-0.6,9.2,0.2,13.3-1l-0.3-0.4c3.1-0.8,2.5,0.5,5.8,0.1l-0.1,0.1c0.7-0.4,1.6-0.7,2.5-0.6
						c-0.9,0.5,1.6,1,0.5,1.6c3.3-0.9,1.6-0.7,3.8-2.4l0.5,0.7c0.7-0.7,0.8-1,2.5-1.2c-1.4,0.6,1.1,1.1-0.5,2
						c3.5,1.6,5.2-1.6,6.9,0.7c1.6-2.1-3.1-1.1-2.2-1.6c-0.8-0.7,1.3-1.5,2.4-1.3c1.1,0,1.9,2.6,4.8,2.6c-0.3,0-0.3,0.1-0.6,0.1
						c1.1,0.5,2.1-0.7,3.4,0.1c0.7-1.2,1.7,0.1,1.9-1.5L450,227c1.5-0.4,2.9-2.3,5.3-1.4c-0.2,0.3-0.9,0.7-1.4,1
						c0.7,0.5,1.4-0.3,2.1,0.2c-0.2,1.6-3.2,0.3-4.7,1.6c0.8,0.7,3-1.1,2.2,0.6c1.1-2.2,2.8,0.3,4.7-1.4l-0.1,0.9
						c0.3-0.1,0.9-0.6,1.5-0.6l-1,1.2c1.6-1,3,0.9,4.5,0.3c-3.1,0-0.7-1.1-2-1.8c3.9-1.3,2.2,2.5,6.5,2c-0.6,0.1-2.2-0.6-1.3-1
						c0.8,0.2,1.9,0.6,2.4,1.1c2.9-0.2-0.4-1,0.8-1.6c1,1.2,1.4-0.5,2.7-0.8v1c3.3,0.6,0.9-2,3.8-1.3l-1.2,1.3l1.5-0.3l-0.3,1.1
						c1.7-0.8,2.2-0.6,3.8-0.3c-0.4-0.7,0.2-1.8,1.7-1.8c1,0.6-0.6,0.9,1.5,0.8c-0.5,0.6-1,1.4-1.9,0.5c-0.1,0.3-0.5,0.6-0.5,0.9
						c1.1,0.7,2.7,0.2,3.4,0.1c-0.3,0-0.6-0.1-0.8-0.2l3-1.3c0.5,0.4,0.1,0.7-0.3,0.9c0.6-0.1,1-0.5,1.9-0.6c-0.2,0.8-0.2,1.6-1.4,2
						l2.8-0.9c0.2,0.3,1.5,0.9,1.1,1.2c1.6,0.5,3.8-1.5,5.9-0.9c0.1-0.2,0.3-0.3,0.8-0.4c2,0.2,3.7,1.1,6,0.1l1.3,1.4
						c1.8-0.3-1.8-1.8,1.2-2.3c2.1-0.4,0.8,1.2,1.5,1.6c1.1-0.7,2.9-2.2,4.9-1C510.7,228.2,510.2,228,509.6,228.1z M532,227.5
						c-0.4,0.2-1.3,0.8-1.6,0.3C530.8,226.6,531.2,227.2,532,227.5z M566,225.2c-0.3,0.3-0.8,0.2-1.4-0.2
						C565,224.9,565.4,224.9,566,225.2z M660.7,218.4C660.6,218.5,660.6,218.5,660.7,218.4C659.7,218.1,660,218.3,660.7,218.4z
						 M662.7,218.9c0.2-0.1,0.2-0.3,0.1-0.4c-0.1,0.2-0.6,0.3-1.1,0.2C661.8,218.9,662.1,219.1,662.7,218.9z M447.1,219.2l0.4,0.3
						C446.6,219.8,446.9,219.5,447.1,219.2z"/>
					<path class="st2" d="M562.1,226.5c-0.1-0.2-0.2-0.3-0.2-0.5C561.7,226.1,561.7,226.3,562.1,226.5z"/>
					<path class="st2" d="M495.7,228.6C495.7,228.6,495.6,228.6,495.7,228.6c-0.1,0-0.1,0.1-0.1,0.2L495.7,228.6z"/>
					<path class="st2" d="M631.6,227c-0.4-0.1-0.6-0.3-0.8-0.5C630.8,226.8,630.9,227,631.6,227z"/>
					<path class="st2" d="M673.3,217.2l-1.3,0.3c0.6,0,0.8,0.2,1.2,0.3C673.2,217.6,672.9,217.2,673.3,217.2z"/>
					<path class="st2" d="M684.5,223.2c0.2-0.1,0.4,0,0.6-0.1l-0.1-0.4C684.2,222.6,683.6,223,684.5,223.2z"/>
					<path class="st2" d="M674.5,220.4c0.1,0.8,0.9,0.5,1.8,0.4c-0.1,0-0.1,0-0.2,0C676.4,219.7,675.5,220,674.5,220.4z"/>
					<path class="st2" d="M676.5,220.8c0.3,0,0.6-0.1,0.8,0C677.5,220.3,677,220.7,676.5,220.8z"/>
					<path class="st2" d="M665.2,218.3c0.4,0.2,0.3-1,0.5-0.7C666.2,216.6,662.9,218.9,665.2,218.3z"/>
					<polygon class="st2" points="675.2,223.1 674.9,222.1 674.4,222.9 					"/>
					<path class="st2" d="M668.1,222.4l1.4,0.3c0-0.2,0.2-0.3,0.4-0.3C669.1,222.3,668.1,222.1,668.1,222.4z"/>
					<path class="st2" d="M669.9,222.3c0.5,0,0.9,0,1.2-0.2C670.8,222.1,670.3,222.2,669.9,222.3z"/>
					<polygon class="st2" points="673.3,223.4 672.8,223.2 671.8,223.1 					"/>
					<path class="st2" d="M652.6,222.2l-1.6,0.3c-0.2,0.3,0.3,0.6,0.9,0.4C652.3,222.6,652.9,222.5,652.6,222.2z"/>
					<path class="st2" d="M657.4,224.9c-0.4-0.2-0.5-0.4-0.7-0.8v1.2L657.4,224.9z"/>
					<path class="st2" d="M652.8,225.2c-0.2,0.3-2.3,1-0.3,0.9C652.7,225.8,654.3,225.5,652.8,225.2z"/>
					<polygon class="st2" points="629.1,223.6 629.5,223.6 629.5,221.6 					"/>
					<path class="st2" d="M608.3,228.5c1.9,0.5,0.4-1.3,2.1-0.6c0.4-0.5-1.4-0.5-0.9-0.9C608.4,227.5,607.8,227.2,608.3,228.5z"/>
					<path class="st2" d="M609.5,226.9c0.2-0.1,0.4-0.2,0.6-0.3C609.7,226.8,609.6,226.9,609.5,226.9z"/>
					<polygon class="st2" points="374,218.2 372.8,217.8 373.6,218.5 					"/>
					<path class="st2" d="M371.7,219.7l-0.3-1.3l-0.7,1.2C371,219.5,371.5,219.4,371.7,219.7z"/>
					<path class="st2" d="M535.3,230.1l0.1-0.3c-0.2-0.3-0.5-0.4-1-0.4L535.3,230.1z"/>
					<polygon class="st2" points="519.1,229.1 519.3,229.1 518.8,228 					"/>
					<path class="st2" d="M505.4,230.6c0.6,0,1.2-0.2,1.8-0.2C506,230.7,505.3,229.2,505.4,230.6z"/>
				</g>
			</g>
		</g>
	</g>
</g>
<g>
	<g>
		<g>
			<g>
				<g>
					<path class="st2" d="M782,17.1c0.1-0.2-0.8-0.1-0.9-0.2C781.3,17.3,782.2,17.1,782,17.1z"/>
					<polygon class="st2" points="783.9,20.7 783.6,20.6 784.4,21.1 					"/>
					<path class="st2" d="M783.9,23.9c1.4-0.3-0.2-1.2,0.3-1.8l0.3-0.1l-1.1-0.3C783.5,22.5,784.3,23.4,783.9,23.9z"/>
					<path class="st2" d="M780.8,25.7c0.6-0.1,0.5,0.4,0.2-0.4c-0.1,0-0.1,0.1-0.1,0.1C780.8,25.4,780.8,25.5,780.8,25.7z"/>
					<path class="st2" d="M780.8,25.4C780.8,25,780.4,25.6,780.8,25.4L780.8,25.4z"/>
					<path class="st2" d="M781.1,27l-0.5-0.5c-0.3,0.1-0.4,0.5-0.6,0.4C780.3,27.3,780.6,27.2,781.1,27z"/>
					<path class="st2" d="M782.2,27.4l-0.2-0.2C781.8,27.2,781.8,27.3,782.2,27.4z"/>
					<path class="st2" d="M781.5,26.7l0.4,0.5c0.2-0.1,0.7-0.1-0.2-0.2C782.2,27,781.8,26.9,781.5,26.7z"/>
					<path class="st2" d="M781.8,26.4c0.3-0.3,0.5-0.6,1-0.1C782.6,25.4,781.6,25.5,781.8,26.4z"/>
					<path class="st2" d="M785.4,24.1l0.4-0.3l-0.5-0.3C785.5,23.6,784.9,24.1,785.4,24.1z"/>
					<path class="st2" d="M780.4,29.8c0.3,0,0.8-0.2,1.2-0.2l-0.3-0.3C781.1,29.5,780.9,29.8,780.4,29.8z"/>
					<path class="st2" d="M781.6,29.6l0.5,0.5C782.2,29.7,781.9,29.6,781.6,29.6z"/>
					<polygon class="st2" points="783.8,27.5 782.7,26.7 783.8,27.6 					"/>
					<polygon class="st2" points="780.4,31.7 779.7,31.5 780.7,32 					"/>
					<path class="st2" d="M780.5,33c-0.6-0.2-1,0.3-1.3,0.1c0.1,0.3,0.6,0.6,1.1,0.9C780,33.7,780,33.4,780.5,33z"/>
					<path class="st2" d="M780.9,34.4c-0.1-0.1-0.4-0.3-0.7-0.4C780.3,34.1,780.5,34.3,780.9,34.4z"/>
					<path class="st2" d="M782,31c-0.2,0-0.7,0.1-0.9,0.4l0.9-0.2C782,31.1,782,31.1,782,31z"/>
					<path class="st2" d="M782,31.2L782,31.2c0,0.2-0.1,0.4-0.1,0.4S781.9,31.4,782,31.2z"/>
					<path class="st2" d="M782,30.9C782,31,782,31,782,30.9C782.1,31,782.1,31,782,30.9z"/>
					<path class="st2" d="M783,28.8c0.5,0.3,1,0.9,1.7,0.3C784.1,28.9,783.7,29.3,783,28.8z"/>
					<path class="st2" d="M783.1,30.7l0.2-0.5c-0.2,0-0.6,0.1-0.8,0L783.1,30.7z"/>
					<polygon class="st2" points="783.3,31 783.1,30.7 783,30.9 					"/>
					<path class="st2" d="M781.7,33.5c0.4,0.2,0.4,0.5,0.5,0.8c0.2-0.3,0.3-0.6,0.3-0.9C782.1,33.3,781.6,33.2,781.7,33.5z"/>
					<path class="st2" d="M781.9,32.4L781.9,32.4C782,32.4,782,32.4,781.9,32.4z"/>
					<path class="st2" d="M782.1,37.1c0,0,0.1,0,0.2,0C782.2,37.1,782.2,37.1,782.1,37.1L782.1,37.1z"/>
					<path class="st2" d="M782.5,33.3c0.2-0.2,0-0.4-0.3-0.5c0.1,0.2,0.1,0.4,0.1,0.6C782.5,33.4,782.6,33.4,782.5,33.3z"/>
					<path class="st2" d="M781.3,35.2c0.2-0.1,0.3-0.3,0.5-0.4C781.5,34.9,781,35.2,781.3,35.2z"/>
					<path class="st2" d="M781.7,32.5L781.7,32.5C781.5,32.6,781.6,32.5,781.7,32.5z"/>
					<path class="st2" d="M781.7,32.5c0.1,0.1,0.3,0.2,0.5,0.3c-0.1-0.1-0.2-0.3-0.3-0.4C781.9,32.5,781.8,32.5,781.7,32.5z"/>
					<path class="st2" d="M787.6,38c-0.8,0-1.5-0.6-0.7-1.2c-0.6-0.5-3.2-0.2-4.7,0.3c0.3,0,0.7,0,1.1,0.5c0.4-0.2,1-1.2,1.7-0.7
						c0.4,0.7-0.3,0.6-0.7,0.9c1-0.3,1.4,0.9,2.9,0.7l-0.5-0.6C787,37.9,787.4,38.1,787.6,38z"/>
					<path class="st2" d="M782.4,36.1l-0.1-0.2c-0.1,0.2-0.5,0.4-1.1,0.8c0.4,0.4,0.7,0.4,0.9,0.5l0.1-1.1H782.4z"/>
					<path class="st2" d="M782.3,34.9c0.9,0.2,1.2,0.7,2.2,0.4c-0.1-0.6-0.7-0.4-1.1-0.8C783.5,35.4,782.8,34.1,782.3,34.9
						c0-0.2-0.1-0.4-0.1-0.6c-0.1,0.2-0.2,0.4-0.4,0.5c0,0,0,0,0.1,0l0,0l0,0c0.1,0,0.2-0.1,0.1,0l0,0
						C782,34.8,782.1,34.8,782.3,34.9c-0.2,0.3-0.2,0-0.3,0h-0.1l0,0l0.5,1C782.4,35.6,782.3,35.3,782.3,34.9z"/>
					<path class="st2" d="M786.6,29.7c-0.1,0-0.1,0-0.2,0C786.5,29.8,786.6,29.8,786.6,29.7z"/>
					<path class="st2" d="M786.1,30.1c-0.1-0.1-0.5-0.1-0.4-0.4c0.3-0.2,0.4,0,0.7,0c-0.2-0.1-0.6-0.5-1-0.1l0.1,0.1
						c-0.3,0.4-1.4,1-1.5,0.9C784.7,30.5,785.3,30.4,786.1,30.1z"/>
					<path class="st2" d="M784.4,32.5l0.4,0.9l0.7-0.4h-0.4C785.3,32.5,784.7,32.6,784.4,32.5z"/>
					<polygon class="st2" points="781.7,37.2 780.8,37.1 782.1,37.6 					"/>
					<polygon class="st2" points="781.8,38.3 781,38.3 781.5,38.6 					"/>
					<path class="st2" d="M791.6,101.5l0.2,0.3C791.8,101.6,791.7,101.5,791.6,101.5z"/>
					<path class="st2" d="M791.7,99.6h-0.4C791.5,99.7,791.7,99.7,791.7,99.6z"/>
					<path class="st2" d="M781.9,65.8c-0.7,0.4-1.9,0.8-1,0.7l0.9-0.1C781.6,66.2,781.7,66,781.9,65.8z"/>
					<path class="st2" d="M787.1,84.6c0.1,0,0.2-0.1,0.3-0.1c-0.3-0.1-0.6-0.2-0.8-0.2C786.7,84.4,786.9,84.5,787.1,84.6z"/>
					<path class="st2" d="M790.7,84.9l-0.6,0.5C790.3,85.3,790.5,85.1,790.7,84.9z"/>
					<path class="st2" d="M792.5,111.5l0.9,0.3C793.4,111.3,793,111.5,792.5,111.5z"/>
					<path class="st2" d="M782.1,49.8c-0.3,0.3-0.5,0.6-0.5,0.8C782.1,50.2,782.8,49.9,782.1,49.8z"/>
					<path class="st2" d="M782.4,100.8c0.2,0.2,0.3,0.2,0.5,0.2C782.8,100.8,782.6,100.7,782.4,100.8z"/>
					<path class="st2" d="M781.6,51.5c0.1-0.1,0.1-0.1,0.2-0.2c-0.1-0.2-0.3-0.5-0.2-0.8C781.2,50.9,781,51.2,781.6,51.5z"/>
					<path class="st2" d="M791.8,147.8l-0.1,0.1C791.8,147.8,791.8,147.8,791.8,147.8z"/>
					<path class="st2" d="M783.1,158.3c-0.1-0.1-0.1-0.3-0.1-0.4C782.9,158,782.9,158.1,783.1,158.3z"/>
					<path class="st2" d="M781.4,42.8C781.4,42.6,781.3,42.8,781.4,42.8L781.4,42.8z"/>
					<path class="st2" d="M784.8,41.7c0.1,0.1,0.2,0.1,0.4,0.1C785.1,41.8,784.9,41.7,784.8,41.7z"/>
					<path class="st2" d="M787,53.9L787,53.9C787.2,53.8,787.1,53.8,787,53.9z"/>
					<path class="st2" d="M781.8,42.5c-0.1,0.1-0.2,0.2-0.3,0.3C781.6,42.7,781.7,42.6,781.8,42.5z"/>
					<path class="st2" d="M781.4,42.5c0-0.1,0.1-0.1,0.1-0.2C781.3,42.3,781.3,42.3,781.4,42.5z"/>
					<path class="st2" d="M781.5,43.2c0-0.1,0-0.3,0.1-0.4c-0.1,0-0.1,0.1-0.1,0.1C781.4,42.9,781.4,43,781.5,43.2z"/>
					<path class="st2" d="M789.5,128.3C789.5,128.3,789.5,128.4,789.5,128.3C789.8,128.6,789.7,128.5,789.5,128.3z"/>
					<path class="st2" d="M790.9,72L790.9,72C790.8,72,790.8,72,790.9,72L790.9,72z"/>
					<path class="st2" d="M791.5,72.8c-1.1-0.4-0.9-0.6-0.7-0.8l-2.5,0.3L791.5,72.8z"/>
					<path class="st2" d="M791.9,105.9l0.8-0.6c1.3,0.7,0.8,1.2,1.9,0.7c-2.7-0.1-0.3-2.3-3-2.4l0.6-0.4c0,0.1,0.1,0.1,0.1,0.2
						c1.3-0.8-2-0.6-1.6-1.6c0.2-0.3,0.6-0.6,0.9-0.4l-0.7-0.8c0.1-0.2,0.5-0.2,0.5,0.1l-0.2-1.2h0.1c-0.4-0.2-1.1-0.5-1.4-0.7
						c0.4-0.3,0.3,0.1,0.6,0.1l-0.7-0.6c0.7-0.3,1.4,0.3,1.3,0.7c2.7-0.6-0.7-0.5,0.9-1.8l0.3,0.6c1.5-0.4,1-0.9,1.9-1.6
						c-0.5,0.2-2.4,1.4-3.1,0.7c0.2-0.2,0.3-0.5-0.2-0.8c1,0,0.7-0.4,0.7-0.8h1.3c-0.4-0.5-1-0.5-1.6-0.8c0.1-0.6,1.1-0.7,2-0.8
						c0.2-0.9-1.6,0.6-1.8-0.4c0.5-0.7,0-1.3-0.8-2.2c0.4-0.5,0.8,0.1,1.1-0.1l-1-0.5c0-0.1,0.3-0.1,0.5-0.1c-0.4-0.4-1.3,0-1.6-0.6
						c-1.4-0.2,2.1-1.3,0.5-2c0.4-0.2,0.8,0.1,1.3,0c-1-1-0.8-0.9-2.2-1.7l0.8-0.7c-1,0.5-2.1-0.1-3-0.7c-0.5,0.2-0.9,0.4-1.1,0.5
						l-0.7-1c0.2-0.1,0.6,0,1.2,0.1c-0.1-0.1-0.2-0.1-0.3-0.2c0.5-0.3,1.2-0.2,1.9,0.1c-0.3,0.1-0.5,0.2-0.8,0.3
						c0.8,0.2,1.6,0.5,2.4,0.4c-0.1-0.1-0.3-0.2-0.3-0.3c0.2,0.1,0.4,0.1,0.5,0.1s-0.1-0.1-0.5-0.3l1.4-0.2l-0.6-0.1l0.9-1.2
						c-1.4-0.9-3.5-1.7-4.1-3.1c1,0.4,1.7,0.1,2.9,0.1c-1.3,0.4,0.6,1.1,0.3,1.8c0.1-0.4,0.7-0.3,0.9-0.2l-1.2-1.3
						c1,0,0.8-0.3,1.2-0.6c-2,0.3-1.3-1-1.9-1.5c0.7,0,1.4,0.1,1.2,0.7c1.5-0.7-2.4-0.9-1.1-1.6c0,0.2-0.1,0.2,0.3,0.3
						c-0.6-0.4-0.1-1.3,0.5-1.1v0.2c0.2-1.1,0-3.2-1.7-3.4c0.2,0,2.1,0.1,2.4,0.2l-5.7-1.9c1.5,0.2,4.9-0.5,5.8,0.4
						c0.2-0.3,0.5-0.6-0.1-1.1c-0.2,0.2-2.1,0.4-2.2,0.2c1.6-0.6,0.9-0.4,2.3-1.2c-0.3,0.3-2.6,0-2.5-0.4c0.3,0.1,2.3,0,2.5,0.1
						l-2.2-1c0.4,0.3,1.9,0,2.5-0.2c-0.4,0.1,0-0.9-0.2-1.1l-0.5,0.4c0.3-1.1-3.2-1.1-3-2.3c0.5,0.1,2.9,0.3,3.1-0.2
						c-1.2-0.3-5.5-1.2-6.4-2.2l0.7-0.2l-0.8-0.8c1.7,0.5,5.4,1.8,6.8,2.6c0.5-0.4,0.8-0.1,0.7-0.8c0.6-0.2,0.9,0.3,1,0.5l0.4-1.5
						c-1.3,0.1-1.3-1.1-2.5-1.1l1.4,1.6c-1.3,0.1-3.8-0.9-3.6-2c0.5-0.3,2.4,0.2,2.8,0.2c-0.5-0.1-0.9-1-0.6-1.1l0.7,0.4
						c0.5-0.6-1.8-1-0.5-1.7c0.1-0.2,1.7-0.7,0.9-0.8c-1.5,0.4-6.3,0.5-7.4,0.2c0.1-0.1,1.5-1.3,2.2-1.6c1.2-0.4,2.9,0.6,3.9,0.3
						c-0.4,0-0.8-0.2-1-0.3c0.3-0.3,1.1,0.1,1-0.4c-1.4-0.1,0.1-1.1-1.2-0.3c-0.4-0.5,0.3-0.6,0.2-1.2c-0.9,0.2-3-0.6-3.4-1.1
						c0.3,0,0.8-0.1,1-0.1c0.1-1.1,0.7-1.7,0.8-2.7c0.3-0.1,0.7-0.6,1.3-0.4c-0.2-0.1-0.7-0.3-0.7-0.6c1.2-0.6,0.2,0.7,1.6,0.2
						c-0.8,0-1.1-0.8-1.6-1.3c-1.2,0.1-0.2,1.1,0.3,1.5c-1.7,0-3.5-0.8-4.2-1.9c-0.4-0.9,1.1-0.4,0.9-0.5c0.3-1.6-2.9-1.4-1.7-2.7
						c1.1-0.5,2.1,0,2.9-0.1c0.4,0.7-0.7,1.1-0.6,1.6l0.5-0.6c0.4,0.2,0.6,0.7,0.3,0.9c1-0.4,0.2-2.7,1.1-4
						c-0.4-0.2-0.7-0.6-1.2-0.4l0.2,0.4c-0.9,0.4-1.2-0.7-1.6-0.2c-0.6-0.5-1.6-1.1-1.1-1.9l1.2-0.1c-0.4,0-0.7,0.5-0.4,0.7
						c-0.5-0.3,1.7-1.1,0.1-1.5l-0.8,0.5c-0.6-0.5-1.9-1.2-1.5-1.9c-1.2,0.3,0.1,0.2-1.3,0.6c1.8-0.4-0.1,1.7,1.8,1
						c-1.6,0.5-0.7,0.8-2.1,1.5c0.4,0,0.8-0.2,0.6,0.3c0.1,0,0.3,0.1,0.4,0.1l0,0l0,0c0.1,0,0.1,0,0,0c0.2-0.1,0.4-0.2,0.6-0.3
						c0.9,0.3,0.9,1.2,1.4,1.5c-0.2,0.3-0.5-0.1-0.9,0l0.7,0.4c-0.9,0-1.5,0.9-2,0.1v0.7c-0.5,0.4-0.7,1-0.3,1.3
						c-0.2,0.3,1,0.8,0.3,0.5l0.6,1.1h-0.2c-0.1,1.1,1.5,2.2-0.1,3.5c0.2,0.4,0.5,0.7,0.2,1.3l-0.8,0.1c0.3,0.5-0.8,1.4,0,1.6
						c-2.1,0.5-0.5,2.3-0.8,3.1h1c-0.1,0.6,0.2,1.1,0.6,1.8h0.9c0.7,0.6-0.6,1.6-0.5,2.5c-0.3-0.1-0.3-0.3,0-0.5
						c-2,1.1,1.5,2.4,0,3.5c0.3,0.3,0.2,0.4,0,0.6c0,0,0,0,0-0.1V65c-0.2,0.1-0.3,0.2-0.5,0.4c0.2-0.1,0.4-0.2,0.5-0.3
						c0,0.2,0.1,0.5,0.4,0.8l-1,0.1c0,0,0,0,0,0.1c-0.4,0.3,0.5,0.2,1.2,0.1c0.2,0.1,0.3,0.3,0.6,0.4c-1.6,0.2,0.5,0.8-1.1,1.1
						c0.8,0.2,0.6,1.5,2.3,1.6c-0.2,0-0.3,0.1-0.3-0.1c-0.2,0.3-0.4,0.7,0.1,1l-1.2,0.1l1.6,0.7c-0.7,0.4-1.2,0.6-2.1,0.2
						c1.4,1.1,0.5,0.9,2,1.7h-0.8c0,0.3,1.1,0.8,0.4,1c-1.5,0.7-0.2,3.5-1.6,5.4c2.3-0.4-1,0.9,0.8,0.9c-0.6,0.1-0.9,0.4-1.3,0.1
						c0.5,0.9-0.9,1.4,0.6,2.1c-0.6,0.1-0.8-0.2-1.1-0.1c0.1,0.1,0.5,0.3,0.2,0.4s-0.5-0.1-0.7-0.3c0.1,1,1.8,1.1,3.4,1.1
						c-0.8,0.5-0.6,0.7,0.4,1.1c-0.5,0.2-1.1,0.5-1.3-0.1c-0.1,0.3-0.8,2,0.5,2.1c-0.3,0.1-0.1,0.5,0.1,0.6
						c-0.1,0.8-0.2,0.8-0.1,1.6l0.2-0.2c1.5,0.3,0.3,0.6,0.5,1.2h-0.2c-1.1,1.4,0.5,0.6-0.7,1.9l1-0.1c2.1,0.1-1.2,1.2-0.4,2
						l0.5-0.3c0.7,0.4-2.8,1.2-3.1,1.6c-0.2,0.1-0.3-0.1-0.4-0.3c-1.2,1.1,1.3,0.1,1.5,1c-0.7,0.2-1.7-0.2-1.8,0.4
						c-0.5,0.3,2.2,1.6,0.9,2.4c0.5-0.2,1-0.3,1.4,0.1c0.2,0.6-2,1.6-0.3,2.1c-0.1,0.1-0.3,0.1-0.4,0.1c0.4,0.5,0.7,1.5,1.6,1.7
						c-3.3,0.4,1.6,2.8-1.4,2.8l0.2,1.4h-0.3c-0.2,0.9,0.5,1.2,1.3,1.5c-0.2,0.2-0.5,0.1-0.7,0c-0.6,1.3-0.5,1.4,1,2.5l-1,0.1
						c0.6,0.3-1.6,1.9-0.4,3.2c-0.1,0-0.3,0-0.4-0.1c1.2,1.4-2.8,3.4,0.9,4l0.9,1c0.3-1.2,1.6,0.2,2.2-0.3c0.2,0.5-1.1,1.2-1.3,0.7
						l0.2-0.1c-1.9-0.2-0.7,1.5-1.9,1.5c0.1,2.4-0.9,4.8-1,7l1.5-0.3l-0.9,1.1c-0.3,0.2-1.1,0.3-1.1-0.3c-0.8,0.3,0.7,0.9,1,1
						c-0.6,1.1-1.7-0.4-1.7-0.1l0.1,0.5l0.2-0.1c0.6,0.4,1.2,0.4,1.2,1.1c-0.3,0.4-0.9,0.2-1,0.4c-0.1,0-0.2,0.1,0,0.3l-0.1,1
						l1.2-0.4c0.6,0.4-0.1,0.9,1.2,0.5c-2,0.7-0.7,3.7-1.4,4.1c0.8,0.6,0.8,1.2,0.7,2c0.2-0.2,1.5-0.3,1.4,0.4
						c-2.7-0.2-1.2,1.2-3.1,1.7c1.3-0.5,0.3,1.9,2.1,1.1c-0.2,0.5-1,0-1.6,0.4c1,1.3-0.7,2.9-0.3,4.5c0.4,0,0.9-0.2,1.4,0.1
						l-1.8,0.8c0.2,0.3,2,0.3,0.8,0.9c0.3-0.1,0.7-0.2,0.9,0c-1.7,3.1,1.4,6.4-1.8,9.6c0.7-0.4,0.7-0.1,0.8,0.2c0.2-0.2,0.9,0,1.3,0
						l-1.3,1.3c1.3,0.2,0.1,1.4,1.4,1.6l-0.2-0.4c1.5,0.6,3.3-0.8,5.2-0.7c-1.7-0.6,2.5-1.7,0.1-2.7c0.4-0.2,0.6,0.2,1.1,0.1
						c-0.8-0.3-1-0.6-0.6-1.2l0.2,0.1c-0.2-1.6,0.6-2.3,1.1-4.2l-0.9,0.1c0.1-0.4,0.4-0.5,0.7-0.7c-1.4-0.5-0.1,1.1-1.7,0.7
						c1.9-0.5,0-2.8,2.2-3.2c0-0.6-1.1,0.2-1.1-0.4l0.6-0.2l-0.8-0.2c0.1-0.4,0.9-0.6,1.4-0.6c-0.1,0.1,0.1,0.3,0.2,0.4
						c0.7-0.5-0.2-1.5,0-1.6l-0.4,0.6c-0.6-1.7,0.2-3.7-1-5.3l-0.4,0.1c-0.8-1.2,0.5-1,0.1-2.3h0.1c-0.4-0.3-0.7-0.6-0.6-1
						c0.5,0.3,1-0.6,1.6-0.2c-0.9-1.3-0.7-0.7-2.4-1.5l0.7-0.2c-0.7-0.3-1-0.3-1.2-1c0.6,0.6,1.1-0.4,2,0.2c1.6-1.4-1.6-2.1,0.7-2.7
						c-2.1-0.6-1.1,1.2-1.6,0.9c-0.7,0.3-1.5-0.5-1.3-1c0-0.5,2.6-0.8,2.6-1.9c0,0.1,0.1,0.1,0.1,0.2c0.5-0.4-0.7-0.8,0.1-1.4
						c-1.2-0.3,0.1-0.7-1.5-0.8l0.4,1c-0.4-0.6-2.3-1.1-1.4-2.1c0.3,0.1,0.7,0.4,1,0.6c0.5-0.3-0.3-0.5,0.2-0.8
						c1.6,0.1,0.3,1.3,1.6,1.9c0.7-0.3-1.1-1.2,0.6-0.9c-2.2-0.5,0.3-1.1-1.4-1.9l0.9,0.1c-0.1-0.1-0.6-0.4-0.6-0.6l1.2,0.4
						c-1-0.6,0.9-1.2,0.3-1.8c0,1.3-1.1,0.3-1.8,0.8c-1.3-1.5,2.5-0.9,2-2.6c0.1,0.2-0.6,0.9-1,0.5c0.2-0.3,0.6-0.8,1.1-1
						c-0.2-1.1-1,0.2-1.6-0.3c1.2-0.4-0.5-0.6-0.8-1.1h1c0.6-1.3-2-0.3-1.3-1.5l1.3,0.5l-0.3-0.6l1.1,0.1c-0.8-0.7-0.6-0.9-0.3-1.5
						c-0.7,0.2-1.8-0.1-1.8-0.7c0.6-0.4,0.9,0.2,0.8-0.6c0.6,0.2,1.4,0.4,0.5,0.7c0.3,0,0.6,0.2,0.9,0.2c0.7-0.4,0.2-1.1,0.1-1.4
						c0,0.1-0.1,0.3-0.2,0.3l-1.3-1.2c0.4-0.2,0.7,0,0.9,0.1c-0.1-0.2-0.5-0.4-0.6-0.8c0.8,0.1,1.6,0.1,2,0.6l-0.9-1.1
						c0.3-0.1,0.9-0.6,1.2-0.4c0.5-0.6-1.5-1.5-0.9-2.4c-0.2,0-0.3-0.1-0.4-0.3c0.2-0.8,1.1-1.5,0.1-2.4l1.4-0.5
						c-0.3-0.7-1.8,0.7-2.3-0.5c-0.4-0.9,1.2-0.3,1.6-0.6c-0.7-0.4-2.2-1.2-1-1.9C792,105.4,791.8,105.6,791.9,105.9z M791.2,96.9
						c0.2,0.2,0.8,0.5,0.3,0.6C790.4,97.4,790.9,97.2,791.2,96.9z M788.9,83.3c0.3,0.1,0.2,0.3-0.2,0.6
						C788.6,83.7,788.7,83.5,788.9,83.3z M782.2,45.4L782.2,45.4C781.9,45.8,782,45.7,782.2,45.4z M782.6,44.6
						c-0.1-0.1-0.3-0.1-0.4,0c0.2,0.1,0.3,0.2,0.2,0.4C782.7,45,782.8,44.9,782.6,44.6z M783,130.9l0.3-0.2
						C783.5,131,783.3,131,783,130.9z"/>
					<path class="st2" d="M790.2,84.9c-0.2,0-0.3,0.1-0.5,0.1C789.9,85,790.1,85,790.2,84.9z"/>
					<path class="st2" d="M792.4,111.4L792.4,111.4c0,0,0.1,0.1,0.2,0.1L792.4,111.4z"/>
					<path class="st2" d="M790.8,57.1c-0.1,0.2-0.3,0.3-0.5,0.3C790.5,57.4,790.7,57.3,790.8,57.1z"/>
					<path class="st2" d="M781,40.4l0.3,0.5c0-0.2,0.2-0.3,0.3-0.5C781.3,40.4,781,40.5,781,40.4z"/>
					<path class="st2" d="M787,35.9c-0.1-0.1,0-0.2-0.1-0.2h-0.4C786.4,36,786.8,36.2,787,35.9z"/>
					<path class="st2" d="M784.2,39.9c0.8,0,0.5-0.4,0.4-0.7c0,0,0,0,0,0.1C783.4,39.1,783.8,39.5,784.2,39.9z"/>
					<path class="st2" d="M784.5,39.1c0-0.1-0.1-0.2,0-0.3C784.1,38.7,784.4,38.9,784.5,39.1z"/>
					<path class="st2" d="M782.1,43.6c0.2-0.2-1-0.1-0.7-0.2C780.3,43.2,782.6,44.5,782.1,43.6z"/>
					<polygon class="st2" points="786.9,39.6 785.9,39.7 786.7,39.9 					"/>
					<path class="st2" d="M786.1,42.5l0.3-0.6c-0.2,0-0.3-0.1-0.3-0.2C786,42.1,785.8,42.5,786.1,42.5z"/>
					<path class="st2" d="M786.1,41.7c0-0.2,0-0.4-0.2-0.5C785.9,41.4,785.9,41.6,786.1,41.7z"/>
					<polygon class="st2" points="787.2,40.4 787,40.6 786.9,41 					"/>
					<path class="st2" d="M785.9,48.6l0.3,0.6c0.3,0.1,0.6-0.1,0.4-0.3C786.4,48.8,786.3,48.5,785.9,48.6z"/>
					<path class="st2" d="M788.7,46.7c-0.2,0.2-0.4,0.2-0.8,0.3h1.2L788.7,46.7z"/>
					<path class="st2" d="M789,48.6c0.3,0.1,1,0.9,0.9,0.1C789.5,48.6,789.3,48,789,48.6z"/>
					<polygon class="st2" points="787.4,58 787.4,57.9 785.3,57.9 					"/>
					<path class="st2" d="M792.3,66.4c0.5-0.7-1.3-0.2-0.6-0.8c-0.5-0.2-0.5,0.5-0.9,0.4C791.2,66.4,790.9,66.6,792.3,66.4z"/>
					<path class="st2" d="M790.7,65.9c-0.1-0.1-0.2-0.1-0.3-0.2C790.5,65.8,790.6,65.9,790.7,65.9z"/>
					<polygon class="st2" points="782,160.1 781.5,160.6 782.2,160.3 					"/>
					<path class="st2" d="M783.5,161l-1.3,0.1l1.2,0.3C783.3,161.3,783.2,161.1,783.5,161z"/>
					<path class="st2" d="M793.9,95.6h-0.3c-0.3,0.1-0.4,0.2-0.4,0.4L793.9,95.6z"/>
					<polygon class="st2" points="792.9,102.1 792.9,102 791.7,102.2 					"/>
					<path class="st2" d="M794.4,107.5c0-0.2-0.2-0.5-0.2-0.7C794.4,107.3,792.9,107.6,794.4,107.5z"/>
				</g>
			</g>
		</g>
	</g>
</g>
<g>
	<g>
		<g>
			<g>
				<g>
					<path class="st2" d="M290.7,158.2c-0.1,0.2,0.8,0.1,0.9,0.2C291.5,158,290.5,158.2,290.7,158.2z"/>
					<polygon class="st2" points="288.8,154.5 289.2,154.6 288.3,154 					"/>
					<path class="st2" d="M288.8,151.1c-1.4,0.3,0.2,1.3-0.3,1.9l-0.3,0.1l1.1,0.3C289.2,152.6,288.5,151.6,288.8,151.1z"/>
					<path class="st2" d="M291.9,149.2c-0.6,0.1-0.5-0.4-0.2,0.4c0.1,0,0.1-0.1,0.1-0.1C291.9,149.5,291.9,149.4,291.9,149.2z"/>
					<path class="st2" d="M291.9,149.6C291.9,149.9,292.4,149.3,291.9,149.6L291.9,149.6z"/>
					<path class="st2" d="M291.6,147.9l0.5,0.5c0.3-0.1,0.4-0.5,0.6-0.4C292.5,147.5,292.1,147.6,291.6,147.9z"/>
					<path class="st2" d="M290.5,147.4l0.2,0.2C290.9,147.6,290.9,147.6,290.5,147.4z"/>
					<path class="st2" d="M291.2,148.2l-0.4-0.5c-0.2,0.1-0.7,0.1,0.2,0.2C290.5,147.9,290.9,148,291.2,148.2z"/>
					<path class="st2" d="M291,148.5c-0.3,0.3-0.5,0.6-1,0.1C290.2,149.5,291.2,149.4,291,148.5z"/>
					<path class="st2" d="M287.4,150.9l-0.4,0.4l0.5,0.3C287.2,151.4,287.8,150.9,287.4,150.9z"/>
					<path class="st2" d="M292.3,144.9c-0.3,0-0.8,0.2-1.2,0.2l0.3,0.4C291.7,145.3,291.9,144.9,292.3,144.9z"/>
					<path class="st2" d="M291.1,145.1l-0.5-0.5C290.5,145,290.8,145.1,291.1,145.1z"/>
					<polygon class="st2" points="289,147.3 290.1,148.2 288.9,147.2 					"/>
					<polygon class="st2" points="292.4,142.9 293.1,143.2 292,142.6 					"/>
					<path class="st2" d="M292.2,141.5c0.6,0.2,1-0.3,1.3-0.1c-0.1-0.4-0.6-0.7-1.1-1C292.8,140.8,292.7,141.1,292.2,141.5z"/>
					<path class="st2" d="M291.9,140c0.1,0.1,0.4,0.3,0.7,0.5C292.4,140.3,292.2,140.2,291.9,140z"/>
					<path class="st2" d="M290.8,143.6c0.2,0,0.7-0.1,0.9-0.4l-0.9,0.2C290.8,143.5,290.8,143.6,290.8,143.6z"/>
					<path class="st2" d="M290.7,143.4L290.7,143.4c0-0.2,0.1-0.4,0.1-0.5C290.8,143,290.8,143.2,290.7,143.4z"/>
					<path class="st2" d="M290.8,143.7L290.8,143.7C290.7,143.7,290.6,143.7,290.8,143.7z"/>
					<path class="st2" d="M289.7,145.9c-0.5-0.3-1-1-1.7-0.3C288.6,145.8,289,145.5,289.7,145.9z"/>
					<path class="st2" d="M289.7,144l-0.2,0.6c0.2,0,0.6-0.1,0.8,0L289.7,144z"/>
					<polygon class="st2" points="289.4,143.7 289.7,144 289.8,143.7 					"/>
					<path class="st2" d="M291.1,141c-0.4-0.2-0.4-0.5-0.5-0.8c-0.2,0.3-0.3,0.7-0.3,1C290.6,141.2,291.1,141.3,291.1,141z"/>
					<path class="st2" d="M290.8,142.2C290.8,142.2,290.8,142.1,290.8,142.2C290.7,142.2,290.7,142.2,290.8,142.2z"/>
					<path class="st2" d="M290.6,137.2c0,0-0.1,0-0.2,0C290.5,137.2,290.6,137.3,290.6,137.2L290.6,137.2z"/>
					<path class="st2" d="M290.2,141.2c-0.2,0.2,0,0.4,0.3,0.5c-0.1-0.2-0.1-0.4-0.1-0.6C290.2,141.1,290.2,141.1,290.2,141.2z"/>
					<path class="st2" d="M291.5,139.2c-0.2,0.1-0.3,0.3-0.5,0.4C291.3,139.5,291.7,139.2,291.5,139.2z"/>
					<path class="st2" d="M291,142C291,142,291.1,142.1,291,142C291.2,142,291.2,142,291,142z"/>
					<path class="st2" d="M291,142c-0.1-0.1-0.3-0.2-0.5-0.3c0.1,0.1,0.2,0.3,0.3,0.4C290.8,142.1,290.9,142.1,291,142z"/>
					<path class="st2" d="M285.1,136.3c0.8,0,1.5,0.7,0.7,1.2c0.6,0.5,3.2,0.2,4.7-0.3c-0.3,0-0.7,0-1.1-0.6c-0.4,0.2-1,1.2-1.7,0.8
						c-0.4-0.7,0.3-0.6,0.7-1c-1,0.3-1.4-0.9-2.9-0.8l0.5,0.6C285.7,136.4,285.3,136.1,285.1,136.3z"/>
					<path class="st2" d="M290.4,138.3l0.1,0.2c0.1-0.3,0.5-0.4,1.1-0.8c-0.4-0.4-0.7-0.5-0.9-0.5l-0.1,1.1L290.4,138.3z"/>
					<path class="st2" d="M290.5,139.6c-0.9-0.2-1.2-0.7-2.2-0.4c0.1,0.7,0.7,0.5,1.1,0.9C289.2,139,289.9,140.4,290.5,139.6
						c0,0.2,0.1,0.4,0.1,0.6c0.1-0.2,0.2-0.4,0.4-0.6c0,0,0,0-0.1,0l0,0l0,0c-0.1,0-0.2,0.1-0.1,0l0,0
						C290.7,139.6,290.6,139.6,290.5,139.6c0.2-0.3,0.2,0,0.3,0h0.1l0,0l-0.5-1.1C290.4,138.8,290.4,139.1,290.5,139.6z"/>
					<path class="st2" d="M286.2,145c0.1,0,0.1,0,0.2,0C286.3,144.9,286.2,144.9,286.2,145z"/>
					<path class="st2" d="M286.7,144.6c0.1,0.1,0.5,0.1,0.4,0.4c-0.3,0.2-0.4,0-0.7,0c0.2,0.2,0.6,0.5,1,0.1l-0.1-0.1
						c0.3-0.4,1.4-1,1.5-0.9C288,144.2,287.4,144.3,286.7,144.6z"/>
					<path class="st2" d="M288.4,142l-0.4-0.9l-0.7,0.5h0.4C287.5,142.1,288,142,288.4,142z"/>
					<polygon class="st2" points="291,137.1 292,137.2 290.7,136.7 					"/>
					<polygon class="st2" points="290.9,135.9 291.7,136 291.3,135.6 					"/>
					<path class="st2" d="M281.1,69.5l-0.2-0.3C281,69.3,281,69.4,281.1,69.5z"/>
					<path class="st2" d="M281.1,71.4h0.4C281.2,71.4,281.1,71.3,281.1,71.4z"/>
					<path class="st2" d="M290.8,107c0.7-0.4,1.9-0.8,1-0.8l-0.9,0.1C291.1,106.6,291,106.8,290.8,107z"/>
					<path class="st2" d="M285.7,87.2c-0.1,0-0.2,0.1-0.3,0.1c0.3,0.1,0.6,0.2,0.8,0.3C286.1,87.5,285.9,87.3,285.7,87.2z"/>
					<path class="st2" d="M282.1,86.9l0.6-0.5C282.4,86.5,282.3,86.7,282.1,86.9z"/>
					<path class="st2" d="M280.2,58.9l-0.9-0.3C279.3,59.1,279.8,58.9,280.2,58.9z"/>
					<path class="st2" d="M290.6,123.9c0.3-0.3,0.5-0.6,0.5-0.8C290.6,123.4,289.9,123.7,290.6,123.9z"/>
					<path class="st2" d="M290.3,70.2c-0.2-0.2-0.3-0.2-0.5-0.2C289.9,70.2,290.1,70.3,290.3,70.2z"/>
					<path class="st2" d="M291.1,122.1c-0.1,0.1-0.1,0.1-0.2,0.2c0.1,0.2,0.3,0.5,0.2,0.8C291.5,122.7,291.7,122.4,291.1,122.1z"/>
					<path class="st2" d="M280.9,20.8l0.1-0.1C280.9,20.7,280.9,20.7,280.9,20.8z"/>
					<path class="st2" d="M289.7,9.6c0.1,0.1,0.1,0.3,0.1,0.5C289.8,10,289.8,9.9,289.7,9.6z"/>
					<path class="st2" d="M291.3,131.2C291.4,131.4,291.4,131.2,291.3,131.2L291.3,131.2z"/>
					<path class="st2" d="M287.9,132.4c-0.1-0.1-0.2-0.1-0.4-0.1C287.7,132.3,287.8,132.3,287.9,132.4z"/>
					<path class="st2" d="M285.7,119.6L285.7,119.6C285.6,119.6,285.6,119.6,285.7,119.6z"/>
					<path class="st2" d="M290.9,131.6c0.1-0.1,0.2-0.2,0.3-0.3C291.1,131.3,291,131.4,290.9,131.6z"/>
					<path class="st2" d="M291.3,131.5c0,0.1-0.1,0.2-0.1,0.2C291.4,131.8,291.5,131.7,291.3,131.5z"/>
					<path class="st2" d="M291.3,130.8c0,0.1,0,0.3-0.1,0.4c0.1,0,0.1-0.1,0.1-0.1C291.3,131.1,291.3,131,291.3,130.8z"/>
					<path class="st2" d="M283.2,41.2C283.3,41.2,283.3,41.2,283.2,41.2C283,40.9,283,41,283.2,41.2z"/>
					<path class="st2" d="M281.8,100.5C281.8,100.5,281.9,100.5,281.8,100.5C281.9,100.5,281.9,100.5,281.8,100.5L281.8,100.5z"/>
					<path class="st2" d="M281.2,99.6c1.1,0.4,0.9,0.6,0.7,0.9l2.5-0.3L281.2,99.6z"/>
					<path class="st2" d="M280.9,64.9l-0.8,0.6c-1.3-0.8-0.8-1.3-1.9-0.7c2.7,0.1,0.3,2.4,3,2.5l-0.6,0.4c0-0.1-0.1-0.1-0.1-0.3
						c-1.3,0.8,2,0.6,1.6,1.6c-0.2,0.4-0.6,0.6-0.9,0.4l0.7,0.8c-0.1,0.2-0.5,0.2-0.5-0.1l0.2,1.2h-0.1c0.4,0.2,1.1,0.6,1.4,0.8
						c-0.4,0.3-0.3-0.2-0.6-0.1l0.7,0.7c-0.7,0.3-1.4-0.3-1.3-0.8c-2.7,0.6,0.7,0.6-0.9,1.9l-0.3-0.6c-1.5,0.4-1,0.9-1.9,1.6
						c0.5-0.2,2.4-1.5,3.1-0.7c-0.2,0.2-0.3,0.5,0.2,0.9c-1,0-0.7,0.4-0.7,0.9h-1.3c0.4,0.5,1,0.5,1.6,0.8c-0.1,0.6-1.1,0.7-2,0.8
						c-0.2,0.9,1.6-0.7,1.8,0.5c-0.5,0.8,0,1.3,0.8,2.3c-0.4,0.5-0.8-0.1-1.1,0.1l1,0.5c0,0.1-0.3,0.1-0.5,0.1
						c0.4,0.4,1.3,0,1.6,0.7c1.4,0.2-2.1,1.3-0.5,2.1c-0.4,0.2-0.8-0.1-1.3,0c1,1.1,0.8,0.9,2.2,1.8l-0.8,0.8c1-0.6,2.1,0.2,3,0.8
						c0.5-0.2,0.9-0.4,1.1-0.5l0.7,1c-0.2,0.1-0.6,0-1.2-0.1c0.1,0.1,0.2,0.1,0.3,0.2c-0.5,0.4-1.2,0.2-1.9-0.1
						c0.3-0.1,0.5-0.2,0.8-0.4c-0.8-0.2-1.6-0.5-2.4-0.4c0.1,0.1,0.3,0.2,0.3,0.3c-0.2-0.1-0.4-0.1-0.5-0.1c-0.1,0,0.1,0.1,0.5,0.3
						l-1.4,0.2l0.6,0.1l-0.9,1.3c1.4,0.9,3.5,1.8,4.1,3.2c-1-0.4-1.7-0.1-2.9-0.1c1.3-0.4-0.6-1.2-0.3-1.9c-0.1,0.4-0.7,0.3-0.9,0.2
						l1.2,1.4c-1,0-0.8,0.3-1.2,0.7c2-0.3,1.3,1,1.9,1.6c-0.7,0-1.4-0.1-1.2-0.8c-1.5,0.8,2.4,1,1.1,1.7c0-0.2,0.1-0.3-0.3-0.3
						c0.6,0.4,0.1,1.3-0.5,1.1v-0.2c-0.2,1.1,0,3.4,1.7,3.5c-0.2,0-2.1-0.1-2.4-0.2l5.7,2c-1.5-0.2-4.9,0.5-5.8-0.4
						c-0.2,0.3-0.5,0.6,0.1,1.1c0.2-0.2,2.1-0.4,2.2-0.2c-1.6,0.7-0.9,0.5-2.3,1.3c0.3-0.3,2.6,0,2.5,0.5c-0.3-0.1-2.3,0-2.5-0.1
						l2.2,1.1c-0.4-0.3-1.9,0-2.5,0.2c0.4-0.1,0,0.9,0.2,1.2l0.5-0.5c-0.3,1.2,3.2,1.2,3,2.4c-0.5-0.1-2.9-0.4-3.1,0.2
						c1.2,0.3,5.5,1.2,6.4,2.3l-0.7,0.2l0.8,0.8c-1.7-0.5-5.4-1.9-6.8-2.7c-0.5,0.4-0.8,0.1-0.7,0.8c-0.6,0.2-0.9-0.4-1-0.6
						l-0.4,1.6c1.3-0.1,1.3,1.2,2.5,1.1l-1.4-1.7c1.3-0.1,3.8,1,3.6,2.1c-0.5,0.3-2.4-0.2-2.8-0.2c0.5,0.1,0.9,1.1,0.6,1.2l-0.7-0.5
						c-0.5,0.6,1.8,1,0.5,1.7c-0.1,0.3-1.7,0.8-0.9,0.8c1.5-0.4,6.3-0.5,7.4-0.2c-0.1,0.1-1.5,1.3-2.2,1.6c-1.2,0.4-2.9-0.6-3.9-0.3
						c0.4,0,0.8,0.2,1,0.3c-0.3,0.3-1.1-0.1-1,0.5c1.4,0.1-0.1,1.2,1.2,0.3c0.4,0.6-0.3,0.6-0.2,1.3c0.9-0.2,3,0.6,3.4,1.2
						c-0.3,0-0.8,0.1-1,0.2c-0.1,1.2-0.7,1.8-0.8,2.9c-0.3,0.1-0.7,0.6-1.3,0.4c0.2,0.2,0.7,0.3,0.7,0.6c-1.2,0.7-0.2-0.8-1.6-0.3
						c0.8,0,1.1,0.9,1.6,1.4c1.2-0.1,0.2-1.1-0.3-1.6c1.7,0,3.5,0.8,4.2,2c0.4,0.9-1.1,0.4-0.9,0.6c-0.3,1.7,2.9,1.5,1.7,2.9
						c-1.1,0.6-2.1,0-2.9,0.1c-0.4-0.7,0.7-1.1,0.6-1.6l-0.5,0.6c-0.4-0.2-0.6-0.7-0.3-1c-1,0.5-0.2,2.9-1.1,4.2
						c0.4,0.2,0.7,0.6,1.2,0.4l-0.2-0.4c0.9-0.4,1.2,0.8,1.6,0.3c0.6,0.6,1.6,1.2,1.1,2l-1.2,0.1c0.4,0,0.7-0.5,0.4-0.7
						c0.5,0.3-1.7,1.2-0.1,1.6l0.8-0.6c0.6,0.6,1.9,1.3,1.5,1.9c1.2-0.3-0.1-0.2,1.3-0.7c-1.8,0.4,0.1-1.8-1.8-1.1
						c1.6-0.5,0.7-0.9,2.1-1.5c-0.4,0-0.8,0.2-0.6-0.3c-0.1,0-0.3-0.1-0.4-0.1l0,0l0,0c-0.1,0-0.1,0,0,0c-0.2,0.1-0.4,0.3-0.6,0.3
						c-0.9-0.3-0.9-1.2-1.4-1.5c0.2-0.3,0.5,0.1,0.9,0l-0.7-0.5c0.9,0,1.5-0.9,2-0.1v-0.7c0.5-0.4,0.7-1,0.3-1.4
						c0.2-0.3-1-0.9-0.3-0.6l-0.6-1.2h0.2c0.1-1.1-1.5-2.3,0.1-3.6c-0.2-0.4-0.5-0.8-0.2-1.4l0.8-0.1c-0.3-0.5,0.8-1.5,0-1.7
						c2.1-0.5,0.5-2.4,0.8-3.3h-1c0.1-0.6-0.2-1.2-0.6-1.9h-0.9c-0.7-0.6,0.6-1.6,0.5-2.6c0.3,0.1,0.3,0.3,0,0.5
						c2-1.2-1.5-2.5,0-3.6c-0.3-0.3-0.2-0.5,0-0.7c0,0,0,0,0,0.1v-0.1c0.2-0.1,0.3-0.2,0.5-0.4c-0.2,0.1-0.4,0.2-0.5,0.3
						c0-0.2-0.1-0.5-0.4-0.8l1-0.1c0,0,0,0,0-0.1c0.4-0.3-0.5-0.2-1.2-0.1c-0.2-0.2-0.3-0.3-0.6-0.4c1.6-0.2-0.5-0.8,1.1-1.2
						c-0.8-0.2-0.6-1.6-2.3-1.7c0.2,0,0.3-0.1,0.3,0.1c0.2-0.3,0.4-0.7-0.1-1l1.2-0.1l-1.6-0.8c0.7-0.5,1.2-0.7,2.1-0.2
						c-1.4-1.1-0.5-0.9-2-1.8h0.8c0-0.3-1.1-0.9-0.4-1.1c1.5-0.8,0.2-3.7,1.6-5.7c-2.3,0.4,1-0.9-0.8-1c0.6-0.1,0.9-0.4,1.3-0.1
						c-0.5-1,0.9-1.5-0.6-2.2c0.6-0.1,0.8,0.2,1.1,0.1c-0.1-0.1-0.5-0.3-0.2-0.4s0.5,0.1,0.7,0.3c-0.1-1-1.8-1.1-3.4-1.2
						c0.8-0.5,0.6-0.8-0.4-1.1c0.5-0.2,1.1-0.5,1.3,0.2c0.1-0.4,0.8-2.1-0.5-2.2c0.3-0.1,0.1-0.5-0.1-0.6c0.1-0.8,0.2-0.9,0.1-1.6
						l-0.2,0.2c-1.5-0.3-0.3-0.6-0.5-1.3h0.2c1.1-1.4-0.5-0.6,0.7-2l-1,0.1c-2.1-0.1,1.2-1.3,0.4-2.1l-0.5,0.3
						c-0.7-0.4,2.8-1.3,3.1-1.7c0.2-0.1,0.3,0.2,0.4,0.3c1.2-1.2-1.3-0.2-1.5-1c0.7-0.2,1.7,0.2,1.8-0.4c0.5-0.3-2.2-1.7-0.9-2.5
						c-0.5,0.2-1,0.4-1.4-0.1c-0.2-0.6,2-1.7,0.3-2.3c0.1-0.1,0.3-0.1,0.4-0.1c-0.4-0.5-0.7-1.6-1.6-1.8c3.3-0.4-1.6-3,1.4-3
						l-0.2-1.5h0.3c0.2-0.9-0.5-1.3-1.3-1.6c0.2-0.2,0.5-0.1,0.7,0c0.6-1.4,0.5-1.5-1-2.7l1-0.1c-0.6-0.3,1.6-2,0.4-3.3
						c0.1,0,0.3,0,0.4,0.1c-1.2-1.5,2.8-3.6-0.9-4.2l-0.9-1c-0.3,1.3-1.6-0.2-2.2,0.3c-0.2-0.5,1.1-1.3,1.3-0.7l-0.2,0.1
						c1.9,0.2,0.7-1.6,1.9-1.6c-0.1-2.5,0.9-5,1-7.4l-1.5,0.3l0.1-0.8c0.3-0.2,1.1-0.3,1.1,0.3c0.8-0.3-0.7-1-1-1
						c0.6-1.2,1.7,0.5,1.7,0.1l-0.1-0.5l-0.2,0.1c-0.6-0.4-1.2-0.4-1.2-1.1c0.3-0.5,0.9-0.2,1-0.4c0.1,0,0.2-0.1,0-0.3l0.1-1
						l-1.2,0.4c-0.6-0.5,0.1-1-1.2-0.5c2-0.7,0.7-3.9,1.4-4.3c-0.8-0.7-0.8-1.3-0.7-2.1c-0.2,0.2-1.5,0.3-1.4-0.4
						c2.7,0.3,1.2-1.3,3.1-1.8c-1.3,0.5-0.3-2-2.1-1.2c0.2-0.6,1,0,1.6-0.5c-1-1.4,0.7-3,0.3-4.7c-0.4,0-0.9,0.3-1.4-0.1l1.8-0.9
						c-0.2-0.3-2-0.3-0.8-0.9c-0.3,0.1-0.7,0.2-0.9,0c1.7-3.3-1.4-6.7,1.8-10.1c-0.7,0.5-0.7,0.2-0.8-0.2c-0.2,0.2-0.9,0-1.3,0
						l1.3-1.4c-1.3-0.3-0.1-1.5-1.4-1.7l0.2,0.4c-1.5-0.6-3.3,0.8-5.2,0.7c1.7,0.7-2.5,1.7-0.1,2.8c-0.4,0.2-0.6-0.2-1.1-0.1
						c0.8,0.3,1,0.6,0.6,1.2l-0.2-0.1c0.2,1.7-0.6,2.5-1.1,4.4l0.9-0.1c-0.1,0.4-0.4,0.5-0.7,0.7c1.4,0.5,0.1-1.2,1.7-0.7
						c-1.9,0.6,0,2.9-2.2,3.3c0,0.6,1.1-0.2,1.1,0.5l-0.6,0.2l0.8,0.2c-0.1,0.4-0.9,0.6-1.4,0.6c0.1-0.1-0.1-0.3-0.2-0.4
						c-0.7,0.5,0.2,1.5,0,1.7l0.4-0.6c0.6,1.8-0.2,3.9,1,5.6l0.4-0.1c0.8,1.3-0.5,1-0.1,2.5l-0.1-0.1c0.4,0.3,0.7,0.7,0.6,1.1
						c-0.5-0.4-1,0.7-1.6,0.2c0.9,1.4,0.7,0.7,2.4,1.6l-0.7,0.2c0.7,0.3,1,0.3,1.2,1.1c-0.6-0.6-1.1,0.5-2-0.2
						c-1.6,1.5,1.6,2.2-0.7,2.9c2.1,0.7,1.1-1.3,1.6-0.9c0.7-0.3,1.5,0.6,1.3,1c0,0.5-2.6,0.8-2.6,2c0-0.1-0.1-0.1-0.1-0.2
						c-0.5,0.4,0.7,0.9-0.1,1.4c1.2,0.3-0.1,0.7,1.5,0.8l-0.4-1.1c0.4,0.6,2.3,1.2,1.4,2.2c-0.3-0.1-0.7-0.4-1-0.6
						c-0.5,0.3,0.3,0.6-0.2,0.9c-1.6-0.1-0.3-1.3-1.6-2c-0.7,0.3,1.1,1.3-0.6,0.9c2.2,0.5-0.3,1.2,1.4,2l-0.9-0.1
						c0.1,0.1,0.6,0.4,0.6,0.6l-1.2-0.4c1,0.7-0.9,1.3-0.3,1.9c0-1.3,1.1-0.3,1.8-0.9c1.3,1.6-2.5,0.9-2,2.8c-0.1-0.2,0.6-0.9,1-0.5
						c-0.2,0.3-0.6,0.8-1.1,1c0.2,1.2,1-0.2,1.6,0.3c-1.2,0.4,0.5,0.6,0.8,1.1h-1c-0.6,1.4,2,0.4,1.3,1.6l-1.3-0.5l0.3,0.6l-1.1-0.1
						c0.8,0.7,0.6,0.9,0.3,1.6c0.7-0.2,1.8,0.1,1.8,0.7c-0.6,0.4-0.9-0.2-0.8,0.6c-0.6-0.2-1.4-0.4-0.5-0.8c-0.3,0-0.6-0.2-0.9-0.2
						c-0.7,0.4-0.2,1.1-0.1,1.4c0-0.1,0.1-0.3,0.2-0.3l1.3,1.2c-0.4,0.2-0.7,0-0.9-0.1c0.1,0.3,0.5,0.4,0.6,0.8
						c-0.8-0.1-1.6-0.1-2-0.6l0.9,1.2c-0.3,0.1-0.9,0.6-1.2,0.5c-0.5,0.7,1.5,1.6,0.9,2.5c0.2,0,0.3,0.1,0.4,0.3
						c-0.2,0.8-1.1,1.6-0.1,2.5l-1.4,0.6c0.3,0.8,1.8-0.7,2.3,0.5c0.4,0.9-1.2,0.3-1.6,0.7c0.7,0.4,2.2,1.2,1,2.1
						C280.8,65.3,281,65.1,280.9,64.9z M281.5,74.3c-0.2-0.2-0.8-0.5-0.3-0.7C282.3,73.8,281.8,74,281.5,74.3z M283.8,88.6
						c-0.3-0.1-0.2-0.3,0.2-0.6C284.1,88.2,284.1,88.4,283.8,88.6z M290.5,128.4L290.5,128.4C290.9,128,290.7,128.2,290.5,128.4z
						 M290.1,129.3c0.1,0.1,0.3,0.1,0.4,0c-0.2-0.1-0.3-0.2-0.2-0.5C290.1,128.9,289.9,129,290.1,129.3z M289.7,38.5l-0.3,0.2
						C289.2,38.3,289.5,38.4,289.7,38.5z"/>
					<path class="st2" d="M282.5,87c0.2-0.1,0.3-0.1,0.5-0.1C282.9,86.8,282.7,86.8,282.5,87z"/>
					<path class="st2" d="M280.4,59L280.4,59c0,0-0.1-0.1-0.2-0.1L280.4,59z"/>
					<path class="st2" d="M281.9,116.2c0.1-0.2,0.3-0.3,0.5-0.3C282.2,115.9,282,115.9,281.9,116.2z"/>
					<path class="st2" d="M291.8,133.8l-0.3-0.5c0,0.3-0.2,0.4-0.3,0.5C291.4,133.7,291.7,133.6,291.8,133.8z"/>
					<path class="st2" d="M285.8,138.5c0.1,0.1,0,0.2,0.1,0.2h0.4C286.3,138.3,286,138.1,285.8,138.5z"/>
					<path class="st2" d="M288.5,134.3c-0.8,0-0.5,0.4-0.4,0.8c0,0,0,0,0-0.1C289.3,135.1,288.9,134.7,288.5,134.3z"/>
					<path class="st2" d="M288.2,135.1c0,0.1,0.1,0.2,0,0.4C288.7,135.5,288.3,135.3,288.2,135.1z"/>
					<path class="st2" d="M290.6,130.4c-0.2,0.2,1,0.1,0.7,0.2C292.4,130.8,290.1,129.4,290.6,130.4z"/>
					<polygon class="st2" points="285.9,134.6 286.9,134.4 286.1,134.2 					"/>
					<path class="st2" d="M286.6,131.6l-0.3,0.6c0.2,0,0.3,0.1,0.3,0.2C286.7,132,286.9,131.6,286.6,131.6z"/>
					<path class="st2" d="M286.7,132.3c0,0.2,0,0.4,0.2,0.5C286.8,132.7,286.8,132.5,286.7,132.3z"/>
					<polygon class="st2" points="285.6,133.7 285.8,133.6 285.9,133.1 					"/>
					<path class="st2" d="M286.8,125.1l-0.3-0.7c-0.3-0.1-0.6,0.1-0.4,0.4C286.3,124.9,286.5,125.2,286.8,125.1z"/>
					<path class="st2" d="M284.1,127.1c0.2-0.2,0.4-0.2,0.8-0.3h-1.2L284.1,127.1z"/>
					<path class="st2" d="M283.8,125.1c-0.3-0.1-1-1-0.9-0.1C283.2,125.1,283.5,125.7,283.8,125.1z"/>
					<polygon class="st2" points="285.3,115.2 285.4,115.3 287.4,115.3 					"/>
					<path class="st2" d="M280.5,106.4c-0.5,0.8,1.3,0.2,0.6,0.9c0.5,0.2,0.5-0.6,0.9-0.4C281.5,106.4,281.8,106.2,280.5,106.4z"/>
					<path class="st2" d="M282,106.9c0.1,0.1,0.2,0.2,0.3,0.2C282.2,107,282.1,106.9,282,106.9z"/>
					<polygon class="st2" points="290.8,7.8 291.2,7.3 290.5,7.6 					"/>
					<path class="st2" d="M289.3,6.8l1.3-0.1l-1.2-0.3C289.4,6.5,289.5,6.7,289.3,6.8z"/>
					<path class="st2" d="M278.9,75.7h0.3c0.3-0.1,0.4-0.2,0.4-0.4L278.9,75.7z"/>
					<polygon class="st2" points="279.8,68.8 279.8,68.9 281,68.7 					"/>
					<path class="st2" d="M278.3,63.1c0,0.2,0.2,0.5,0.2,0.7C278.3,63.3,279.8,63,278.3,63.1z"/>
				</g>
			</g>
		</g>
	</g>
</g>
</svg>
