<svg id="Layer_1" data-name="Layer 1" xmlns="http://www.w3.org/2000/svg" viewBox="0 0 308.5 114.1"><defs><style>.cls-1{fill:none;}.cls-2{fill:#fff;}</style></defs><title>logo</title><line class="cls-1" x1="243.9" y1="114" x2="243.8" y2="114.1"/><line class="cls-1" x1="244.1" x2="244.1" y2="0.1"/><polygon class="cls-1" points="257.9 114 291.1 114 273.5 75 257.9 114"/><polygon class="cls-1" points="290.3 0.1 257.9 0.1 274.4 36.8 290.3 0.1"/><path class="cls-1" d="M304.4,104.7h0Z"/><polygon class="cls-2" points="254.2 114 257.9 114 273.5 75 291.1 114 294.9 114 273.3 65.9 254.2 114"/><polyline class="cls-2" points="308.1 0.1 304.4 0.1 279.1 56 304.4 114 308.5 114 304.4 104.7 283 56 304.4 8.3"/><polygon class="cls-2" points="294.1 0.1 290.3 0.1 274.4 36.8 257.9 0.1 254 0.1 274.5 45.5 294.1 0.1"/><path class="cls-2" d="M127.3,21.6a9.11,9.11,0,0,0-4.4-3.8,19.21,19.21,0,0,0-7.3-1.2,18.86,18.86,0,0,0-7.3,1.2,9.11,9.11,0,0,0-4.4,3.8,18,18,0,0,0-2.1,5.6,40.71,40.71,0,0,0-.6,7.7V79.4a42.62,42.62,0,0,0,.6,7.8,19.16,19.16,0,0,0,2.1,5.8,8.82,8.82,0,0,0,4.4,3.9,17.35,17.35,0,0,0,7.3,1.3,17,17,0,0,0,7.3-1.3,9.86,9.86,0,0,0,4.4-3.9,19.16,19.16,0,0,0,2.1-5.8,42.62,42.62,0,0,0,.6-7.8V34.9a41.45,41.45,0,0,0-.6-7.7A18,18,0,0,0,127.3,21.6Z"/><path class="cls-2" d="M244.1,0.1H0V114H243.9l24.6-59.3ZM73.5,42.9H59.2V32.1c0-.9-0.1-2-0.1-3.3a19.72,19.72,0,0,0-.4-3.1c-0.2-.7-0.4-1.6-0.7-2.6a6.16,6.16,0,0,0-1.1-2.3A23.19,23.19,0,0,0,55.3,19a7.44,7.44,0,0,0-2.2-1.4,17.08,17.08,0,0,0-2.9-.8,21.69,21.69,0,0,0-3.8-.3,22.58,22.58,0,0,0-5.5.6,9,9,0,0,0-3.9,2,11.33,11.33,0,0,0-2.4,3,13.55,13.55,0,0,0-1.4,4.3,45.31,45.31,0,0,0-.6,5c-0.1,1.6-.2,3.6-0.2,6V77.6c0,7.6,1,13,3.1,15.9S41.2,98,46.4,98a20.09,20.09,0,0,0,5.2-.6,7.88,7.88,0,0,0,3.6-2,11.71,11.71,0,0,0,2.2-2.9,10.49,10.49,0,0,0,1.2-4.1,43.55,43.55,0,0,0,.5-4.8c0.1-1.5.1-3.4,0.1-5.8V70.3H73.5v7.5a63.76,63.76,0,0,1-.8,10.4A30.83,30.83,0,0,1,70,96.8a20,20,0,0,1-5,6.7,21.39,21.39,0,0,1-7.8,4.1,37,37,0,0,1-11,1.5,38.14,38.14,0,0,1-11.8-1.7,21.51,21.51,0,0,1-8.3-4.7,23.27,23.27,0,0,1-5.3-7.3A32.68,32.68,0,0,1,18,86.2a70.39,70.39,0,0,1-.8-10.9V39.4A78.78,78.78,0,0,1,18,27.9a35.42,35.42,0,0,1,2.8-9.4,20.46,20.46,0,0,1,5.3-7.2,21.87,21.87,0,0,1,8.3-4.4A38.28,38.28,0,0,1,46.2,5.3c9.7,0,16.7,2.5,20.9,7.4s6.3,12.2,6.3,21.8v8.4h0.1Zm71.6,33.5c0,10.6-2.3,18.7-7,24.4s-12.2,8.5-22.6,8.5a38.52,38.52,0,0,1-13.9-2.3,21,21,0,0,1-9.2-6.7,29.09,29.09,0,0,1-5-10.3,55.42,55.42,0,0,1-1.6-13.7V37.8c0-10.6,2.3-18.6,6.9-24.1s12.1-8.2,22.7-8.2,18,2.7,22.6,8.2,6.9,13.5,6.9,24V76.4h0.2Zm74.6,31.9-1.2-74.6L200,108.3h-8.6L173,33.7l-1.2,74.6H159.3l2-102.7h14.9l19.3,83.3L214.9,5.6h14.9l2,102.7H219.7Z"/></svg>